<svg id="Capa_1" enable-background="new 0 0 512 512" height="512" viewBox="0 0 512 512" width="512" xmlns="http://www.w3.org/2000/svg"><g><g><g><path d="m206 512c-24.839 0-42.653-3.37-56.064-10.604-13.137-7.088-28.798-21.798-28.798-51.627 0-46.793 38.069-84.861 84.861-84.861s84.861 38.069 84.861 84.861c0 29.829-15.661 44.539-28.798 51.627-13.409 7.234-31.223 10.604-56.062 10.604z" fill="#c18678"/><path d="m116.465 399.442c-26.448 0-47.965-21.517-47.965-47.965s21.517-47.965 47.965-47.965 47.965 21.517 47.965 47.965-21.517 47.965-47.965 47.965z" fill="#a55c4f"/><path d="m206 364.907c-26.448 0-47.965-21.517-47.965-47.965s21.517-47.965 47.965-47.965 47.965 21.517 47.965 47.965-21.517 47.965-47.965 47.965z" fill="#a55c4f"/><path d="m247.57 351.477c0-26.448 21.517-47.965 47.965-47.965s47.965 21.517 47.965 47.965-21.517 47.965-47.965 47.965-47.965-21.517-47.965-47.965z" fill="#784033"/></g><g><path d="m262.064 501.396c13.137-7.088 28.798-21.798 28.798-51.627 0-46.793-38.069-84.861-84.861-84.861v147.092c24.838 0 42.652-3.37 56.063-10.604z" fill="#a55c4f"/><path d="m253.965 316.942c0-26.448-21.517-47.965-47.965-47.965v95.93c26.448 0 47.965-21.517 47.965-47.965z" fill="#784033"/></g></g><g><g><g><path d="m77.563 250.632c-14.7 0-29.014-7.622-36.877-21.242-7.09-12.28-7.393-27.159-1.379-39.618-13.798-1.021-26.53-8.723-33.621-21.004-11.717-20.295-4.739-46.339 15.556-58.056 9.832-5.675 21.285-7.185 32.25-4.246 8.51 2.28 15.936 7.027 21.488 13.634l109.395-63.159c-6.858-18.984.653-40.792 18.732-51.229 9.832-5.676 21.285-7.185 32.25-4.246 10.965 2.938 20.13 9.971 25.806 19.802 7.09 12.28 7.393 27.159 1.38 39.618 13.798 1.021 26.53 8.723 33.62 21.004 5.676 9.831 7.184 21.285 4.246 32.25s-9.971 20.13-19.802 25.806c-18.08 10.438-40.721 6.039-53.732-9.392l-109.401 63.163c6.858 18.984-.653 40.792-18.732 51.229-6.676 3.855-13.974 5.686-21.179 5.686z" fill="#f4f4f6"/></g></g></g><path d="m262.543 60.887c.001-.003.002-.005.003-.008l-223.249 128.893c.003 0 .006.001.009.001-6.014 12.459-5.71 27.337 1.379 39.618 7.863 13.62 22.178 21.242 36.877 21.242 7.205 0 14.503-1.832 21.179-5.686 18.079-10.438 25.59-32.246 18.732-51.229l109.401-63.163c13.011 15.431 35.652 19.83 53.732 9.392 9.831-5.676 16.864-14.841 19.802-25.806s1.431-22.419-4.246-32.25c-7.09-12.282-19.822-19.983-33.619-21.004z" fill="#e7f1f9"/><g><g><path d="m494.5 413.5h-6.459c-19.29 0-36.984-8.78-48.541-23.532-11.557 14.752-29.251 23.532-48.541 23.532h-6.459c-4.142 0-7.5-3.358-7.5-7.5v-29.952c0-17.828 9.523-34.085 24.462-42.966-16.806-24.119-34.462-58.616-34.462-97.082 0-74.294 64.741-133.12 67.497-135.587 2.848-2.55 7.158-2.55 10.006 0 2.756 2.467 67.497 61.293 67.497 135.587 0 38.466-17.656 72.963-34.462 97.082 14.939 8.88 24.462 25.138 24.462 42.966v29.952c0 4.142-3.358 7.5-7.5 7.5z" fill="#ffa07a"/></g><path d="m477.538 333.082c16.806-24.119 34.462-58.616 34.462-97.082 0-74.294-64.741-133.12-67.497-135.587-1.424-1.275-3.213-1.912-5.003-1.912v291.468c11.557 14.752 29.251 23.532 48.541 23.532h6.459c4.142 0 7.5-3.358 7.5-7.5v-29.952c0-17.829-9.523-34.087-24.462-42.967z" fill="#ff7038"/></g></g></svg>