<svg width="735" height="748" viewBox="0 0 735 748" fill="none" xmlns="http://www.w3.org/2000/svg">
<g clip-path="url(#clip0)">
<path fill-rule="evenodd" clip-rule="evenodd" d="M488.662 290.747C483.209 279.895 479.923 266.747 481.31 261.376C483.084 254.512 488.837 246.001 496.478 244.966C498.576 244.684 501.818 248.43 502.642 246.481L505.052 252.895C505.959 254.235 507.002 256.032 508.084 258.157C514.951 263.329 529.115 281.907 530.966 284.044C549.119 304.958 569.349 332.227 560.943 361.645C559.244 367.595 556.076 374.009 549.931 376.337C528.22 384.563 522.115 354.341 512.146 343.161C497.798 327.071 457.212 340.817 481.884 300.977C484.037 297.497 486.341 294.114 488.662 290.747ZM312.541 301.626C312.334 300.837 312.259 300.376 312.599 300.88L312.541 301.626C312.806 302.634 313.287 304.184 313.396 304.954C314.033 309.571 315.322 313.966 317.216 318.223C322.587 330.286 330.505 338.024 342.033 344.235C389.115 369.606 357.939 382.489 346.88 410.829C343.045 420.657 346.935 434.098 337.783 441.399C301.525 470.325 308.185 372.481 307.951 360.716L312.541 301.626ZM514.689 441.911L515.205 443.29C518.134 435.891 525.615 429.845 531.302 424.54C567.619 390.669 595.662 431.309 574.177 458.766C568.255 466.333 559.74 462.04 552.416 466.337C545.146 470.606 536.623 481.055 527.146 476.942C516.252 472.216 514.029 454.829 513.814 444.516C513.795 443.747 514.505 442.68 514.689 441.911L514.365 441.028C514.74 441.184 514.787 441.505 514.689 441.911ZM440.248 521.106C442.212 518.966 439.654 507.743 450.736 506.942C454.623 506.661 457.099 510.083 458.283 513.345C461.841 523.13 458.451 533.985 459.525 544.083C460.627 554.427 468.701 564.692 465.927 575.231C460.322 596.536 446.607 583.942 446.15 564.555C445.955 556.231 444.572 548.27 442.353 540.239L440.248 521.106ZM318.498 517.821C319.24 518.704 317.63 515.669 317.474 514.524C317.142 512.114 317.275 509.567 317.716 507.18C318.716 501.782 323.943 491.122 330.853 496.505C342.716 505.747 336.384 529.079 339.095 541.911C341.298 552.352 348.681 559.72 353.189 569.044C355.361 573.54 358.658 583.587 353.283 587.387C340.259 596.598 327.798 549.817 325.529 543.942L318.498 517.821Z" fill="#CD8154"/>
<path d="M588.076 570.43C588.228 564.516 587.681 558.47 587.142 552.54C586.595 546.516 586.08 540.829 586.302 535.559C586.509 530.555 586.869 526.403 587.427 522.513C587.591 521.68 588.482 517.739 588.814 516.552C589.568 514.907 589.205 512.895 587.783 511.622C586.619 510.579 584.966 510.259 583.494 510.79C581.201 511.622 580.845 513.149 579.896 517.239C579.888 517.274 579.115 520.606 579.025 521.22C578.427 525.376 578.029 529.946 577.81 535.204C577.564 541.036 578.13 547.274 578.677 553.305C579.537 562.802 580.427 572.626 578.162 580.786C576.982 585.02 570.662 590.7 566.045 594.845C564.021 596.665 562.111 598.384 560.642 599.927C557.619 603.106 554.9 606.071 552.502 608.688C535.849 626.845 531.15 631.962 502.013 629.083C502.798 625.673 506.556 618.434 509.162 613.415C516.22 599.817 520.341 591.13 518.111 585.102C511.72 567.833 507.045 551.677 504.08 536.657C504.08 536.622 504.08 536.591 504.08 536.559C504.08 535.966 503.959 535.395 503.736 534.884C496.912 498.864 500.072 469.497 513.224 447.223C531.916 415.571 565.185 408.321 574.939 406.856C575.591 406.759 576.271 406.653 577.06 406.138C579.025 404.852 579.576 402.22 578.291 400.255C577.302 398.747 575.517 398.071 573.853 398.423L573.673 398.45C562.982 400.059 526.505 408.02 505.904 442.903C491.58 467.161 488.138 498.802 495.572 537.345C495.224 551.438 486.396 622.868 482.068 629.434C480.912 631.165 476.103 633.411 467.959 634.52C452.689 636.602 442.814 636.192 439.029 635.091C439.58 633.946 440.24 632.673 440.58 632.016C441.099 631.009 441.318 630.587 441.466 630.231C456.845 593.321 447.701 554.345 438.861 516.649C431.759 486.38 425.052 457.786 430.736 431.329C431.228 429.032 429.767 426.774 427.474 426.282C425.177 425.786 422.916 427.247 422.423 429.544C418.42 448.2 420.193 467.962 423.873 487.805C403.627 492.563 390.545 492.731 371.845 488.7C367.72 487.813 360.369 482.528 354.998 478.673C352.337 476.759 349.822 474.954 347.791 473.712C345.791 472.489 343.173 473.118 341.947 475.122C340.724 477.122 341.353 479.739 343.357 480.966C345.119 482.04 347.509 483.759 350.041 485.575C356.677 490.345 364.201 495.747 370.052 497.009C372.775 497.595 375.384 498.091 377.908 498.497C377.732 504.372 377.412 511.372 377.076 518.739C376.22 537.509 375.252 558.782 376.017 573.048C376.154 575.634 376.509 579.036 376.92 582.97C378.634 599.427 382.201 633.673 369.177 639.098C363.377 641.513 354.064 643.501 350.935 642.766C350.943 640.376 351.642 635.286 352.13 631.739C353.283 623.337 353.923 618.013 353.103 614.911C348.709 598.352 342.521 582.434 336.541 567.04C330.017 550.259 323.31 533.001 318.97 514.907C319.396 513.548 318.982 512.325 318.9 512.106C318.654 511.458 318.341 510.95 317.978 510.563C317.427 508.028 316.927 505.473 316.486 502.903C310.283 466.93 310.115 430.407 310.658 402.61C311.209 374.641 312.228 346.196 313.216 318.684C314.064 295.095 314.935 270.829 315.513 246.72C323.388 239.884 331.955 233.055 341.271 226.184C348.431 220.903 355.861 215.766 363.365 210.919C366.15 209.114 368.427 207.692 370.525 206.446C370.849 206.251 371.798 205.778 372.365 205.493C373.56 204.895 377.201 203.071 375.584 199.352C374.779 197.509 372.595 196.157 369.97 197.137C369.58 197.282 369.22 197.481 368.904 197.72C368.795 197.774 368.681 197.833 368.56 197.891C367.513 198.419 366.728 198.813 366.181 199.137C363.986 200.446 361.627 201.919 358.752 203.778C351.103 208.723 343.525 213.962 336.228 219.345C328.97 224.696 322.166 230.028 315.763 235.36C315.779 234.528 315.798 233.692 315.814 232.86C315.951 225.7 316.045 218.524 316.115 211.45C326.306 206.606 336.787 202.294 347.115 198.259C355.459 195.001 365.318 191.223 375.197 187.934C378.138 186.958 381.162 186.001 384.443 185.009C384.935 184.856 385.837 184.606 386.646 184.38L387.904 184.028C392.275 182.774 391.482 179.137 391.377 178.727C390.962 177.102 389.193 174.958 386.041 175.692C385.795 175.747 385.56 175.825 385.337 175.919C385.064 175.997 384.72 176.091 384.357 176.192C383.486 176.438 382.513 176.712 381.982 176.872C378.623 177.887 375.529 178.868 372.513 179.872C362.451 183.22 352.463 187.044 344.021 190.345C334.775 193.954 325.4 197.794 316.185 202.028C316.224 196.001 316.248 190.083 316.259 184.352C329.099 181.036 341.908 178.696 353.451 176.598C362.759 174.903 372.654 173.473 382.865 172.345C386.587 171.93 390.576 171.524 394.58 171.345C394.759 171.364 395.127 171.442 395.373 171.509L395.377 171.501C397.732 172.04 399.127 170.887 399.763 170.126C400.837 168.833 401.048 167.024 400.302 165.516C398.974 162.848 395.396 162.798 394.33 162.845C390.041 163.036 385.837 163.462 381.927 163.895C371.525 165.048 361.431 166.505 351.931 168.235C340.853 170.251 328.634 172.473 316.271 175.567C316.271 173.774 316.271 171.993 316.271 170.251C316.275 167.024 315.638 156.567 314.904 144.458C314.048 130.419 313.084 114.505 313.107 109.407C313.228 84.5281 315.427 53.1687 321.091 39.9148C322.912 41.4109 325.08 43.2039 326.802 44.6297C330.591 47.7664 332.181 49.0789 332.666 49.4422C337.599 53.1414 342.447 57.3914 347.576 61.8875C355.99 69.2664 364.63 76.8445 374.154 82.3172C366.412 84.7742 359.021 87.9305 352.322 91.7664C350.283 92.9305 349.576 95.5281 350.744 97.5633C351.908 99.6023 354.505 100.305 356.545 99.1414C387.314 81.5281 433.365 79.1805 457.099 94.0125C469.298 101.637 481.697 123.005 486.431 147.891C483.486 149.001 480.771 150.083 478.181 151.18L477.349 151.536C474.314 152.813 471.177 154.141 468.236 156.005C467.748 156.313 467.38 156.673 467.084 157.012C466.341 157.622 465.806 158.489 465.615 159.505C465.255 161.427 466.259 163.419 468.041 164.227C468.271 164.333 468.951 164.602 469.83 164.602C470.834 164.602 472.095 164.251 473.24 162.903C475.482 161.552 478.002 160.485 480.658 159.364L481.502 159.009C483.486 158.165 485.545 157.333 487.74 156.489C487.927 158.145 488.072 159.813 488.185 161.485C487.955 161.532 487.72 161.575 487.49 161.622C487.134 161.696 486.771 161.766 486.4 161.841C484.17 162.282 481.638 162.782 479.334 163.95C477.767 164.747 476.826 166.29 476.88 167.973C476.931 169.626 477.935 171.095 479.451 171.743C479.974 171.97 480.537 172.079 481.095 172.079C481.888 172.079 482.681 171.856 483.369 171.438C484.615 170.856 486.357 170.512 488.045 170.18C488.173 170.157 488.291 170.13 488.416 170.106C488.408 170.766 488.404 171.427 488.38 172.087C488.314 174.134 488.177 176.255 487.962 178.427C486.884 178.235 485.74 178.446 484.775 179.122C482.853 180.47 482.384 183.118 483.732 185.044C484.49 186.126 485.365 186.587 486.72 186.876C483.377 203.86 474.295 222.419 452.408 234.141C450.341 235.247 449.56 237.825 450.67 239.891C451.779 241.962 454.353 242.739 456.423 241.634C465.408 236.821 473.017 230.571 479.134 223.087C486.404 235.45 496.795 247.079 506.853 258.333C513.341 265.591 520.048 273.095 525.603 280.501C549.134 311.845 570.447 346.895 590.755 387.661L592.783 391.723C609.06 424.345 625.888 458.075 628.908 489.274C632.158 522.833 619.166 548.723 588.076 570.43ZM435.697 616.2C422.494 609.93 409.021 596.634 394.517 575.552C393.65 574.27 386.615 562.763 385.427 560.235C385.248 559.45 384.845 558.72 384.248 558.138C384.337 546.098 384.978 532.016 385.568 519.126C385.888 512.067 386.197 505.345 386.38 499.583C400.314 500.864 411.974 499.337 425.517 496.153C427.084 503.657 428.841 511.157 430.587 518.591C438.322 551.579 446.298 585.583 437.06 617.223C436.689 616.805 436.232 616.454 435.697 616.2ZM247.884 509.555C227.463 490.227 206.349 470.243 183.689 470.212C183.638 470.212 183.591 470.212 183.541 470.212C166.748 470.212 155.185 474.266 148.197 482.61C137.306 495.618 140.916 515.684 143.814 531.813C145.443 540.864 147.287 551.126 144.849 554.071C138.838 561.329 133.658 560.399 130.287 559.071C116.255 553.54 102.72 525.645 103.423 513.79C105.224 483.352 124.81 468.86 140.927 462.059C152.818 457.04 166.603 454.653 180.681 454.653C207.216 454.653 234.779 463.149 252.584 478.552C257.463 482.774 261.771 487.708 266.334 492.93C272.795 500.329 279.474 507.981 287.959 513.473C292.845 516.641 298.783 519.872 305.755 519.872C305.779 519.872 305.802 519.872 305.822 519.872C307.252 519.868 309.099 519.489 311.209 518.95C313.15 526.723 315.49 534.305 318.041 541.751C295.283 554.415 272.248 532.614 247.884 509.555ZM437.798 56.1883C447.603 45.8367 454.357 41.1336 457.388 39.7234C459.955 47.4383 463.302 74.4383 464.482 88.7898C463.537 88.075 462.576 87.4109 461.607 86.8055C451.369 80.407 437.435 76.8719 422.279 76.0828C424.416 72.0789 429.564 64.8797 437.798 56.1883ZM637.369 488.454C634.197 455.692 617.009 421.243 600.388 387.93L598.365 383.868C577.822 342.638 556.248 307.157 532.4 275.395C526.627 267.704 519.798 260.059 513.189 252.669C503.244 241.536 492.959 230.028 486.111 218.177C485.615 217.321 484.869 216.7 484.013 216.36C489.322 208.095 493.052 198.63 495.099 188.188C498.24 188.778 501.572 189.497 505.318 190.387C519.869 193.845 534.369 198.548 548.388 203.095L552.923 204.563C553.357 204.704 553.798 204.77 554.232 204.77C556.025 204.77 557.693 203.626 558.275 201.825C558.998 199.591 557.771 197.196 555.537 196.473L551.009 195.009C536.83 190.411 522.166 185.653 507.283 182.118C503.283 181.165 499.72 180.403 496.357 179.774C496.611 177.352 496.795 174.884 496.877 172.372C496.92 171.141 496.931 169.907 496.927 168.669C499.673 168.313 502.267 168.059 504.49 167.86C518.15 166.661 533.24 166.458 550.627 167.251C550.693 167.255 550.755 167.255 550.822 167.255C553.08 167.255 554.959 165.477 555.064 163.196C555.17 160.852 553.357 158.864 551.013 158.759C533.244 157.95 517.783 158.157 503.744 159.395C501.627 159.583 499.189 159.817 496.591 160.145C496.42 157.927 496.189 155.708 495.896 153.493C497.595 152.895 499.38 152.282 501.283 151.637C520.439 145.18 545.615 137.587 570.498 136.188C572.841 136.059 574.634 134.052 574.502 131.708C574.373 129.364 572.365 127.555 570.021 127.704C544.119 129.157 518.228 136.954 498.568 143.587C497.138 144.067 495.791 144.528 494.474 144.985C490.697 126.247 482.841 108.602 472.865 96.8445C473.22 96.1961 473.408 95.45 473.38 94.657C473.173 89.1531 471.701 73.8914 469.908 60.7898C468.849 53.0555 467.798 46.8211 466.779 42.2586C465.17 35.032 463.666 31.2781 459.92 30.8094C452.81 29.9227 440.927 40.618 432.197 49.7469C429.345 52.7273 415.869 67.1414 413.146 75.9383C404.291 76.1102 395.201 77.1687 386.33 79.0867C385.978 78.7664 385.568 78.5008 385.107 78.3055C373.724 73.5125 363.283 64.3523 353.181 55.4969C348.158 51.0906 342.963 46.5359 337.767 42.6414C337.349 42.325 334.623 40.0711 332.22 38.0789C321.279 29.0281 321.279 29.0281 319.338 29.2586C318.181 29.3953 317.13 30.0008 316.435 30.9305C306.033 44.7977 304.701 90.3992 304.607 109.364C304.584 114.743 305.517 130.11 306.42 144.973C307.115 156.446 307.775 167.282 307.771 170.247C307.771 172.723 307.771 175.259 307.767 177.837C293.47 181.907 279.275 187.337 266.701 195.149C264.705 196.391 264.091 199.012 265.334 201.005C266.138 202.302 267.525 203.012 268.947 203.012C269.713 203.012 270.486 202.805 271.185 202.372C282.287 195.47 294.896 190.512 307.752 186.708C307.736 192.997 307.709 199.497 307.658 206.106C294.048 212.868 281.005 220.673 269.529 230.192C267.72 231.692 267.47 234.372 268.97 236.177C269.81 237.188 271.021 237.712 272.244 237.712C273.201 237.712 274.162 237.391 274.955 236.735C284.775 228.587 295.888 221.72 307.568 215.68C307.505 221.329 307.423 227.016 307.318 232.7C307.255 236.059 307.181 239.427 307.107 242.798C294.517 253.962 283.673 265.18 274.369 276.677C272.892 278.501 273.173 281.177 274.998 282.653C275.787 283.29 276.732 283.602 277.67 283.602C278.908 283.602 280.138 283.063 280.978 282.024C288.498 272.731 297.072 263.61 306.818 254.536C306.248 275.95 305.478 297.43 304.724 318.38C303.732 345.923 302.709 374.403 302.162 402.442C301.607 430.622 301.783 467.665 308.111 504.348C308.474 506.466 308.877 508.571 309.31 510.661C307.916 511.02 306.416 511.372 305.798 511.372C301.048 511.345 296.627 508.962 292.576 506.341C285.091 501.493 279.091 494.618 272.736 487.341C268.181 482.126 263.474 476.735 258.146 472.122C228.189 446.212 175.248 438.352 137.623 454.227C111.701 465.165 96.5445 486.138 94.9391 513.286C94.0445 528.352 109.326 559.946 127.17 566.977C135.931 570.43 144.537 567.774 151.392 559.493C156.353 553.509 154.513 543.27 152.181 530.305C149.459 515.177 146.373 498.024 154.716 488.067C159.916 481.856 169.611 478.712 183.548 478.712C183.591 478.712 183.634 478.712 183.677 478.712C202.959 478.739 222.826 497.544 242.041 515.727C267.22 539.559 293.228 564.177 320.908 549.86C323.408 556.712 326.025 563.45 328.619 570.122C334.517 585.298 340.615 600.993 344.884 617.087C345.326 618.825 344.314 626.18 343.709 630.579C342.146 641.954 341.732 646.013 344.209 648.489C346.298 650.579 349.568 651.321 353.154 651.321C361.806 651.317 372.298 647.005 372.447 646.942C391.31 639.083 387.595 603.407 385.373 582.091C385.138 579.837 384.923 577.766 384.759 575.958C386.115 578.173 387.22 579.942 387.513 580.364C402.892 602.716 417.459 616.95 432.048 623.88C432.916 624.29 433.849 624.384 434.72 624.204C434.377 625.106 434.017 626.009 433.642 626.907C433.545 627.122 433.314 627.559 433.029 628.114C430.115 633.747 428.787 636.317 430.337 638.907C431.615 641.04 435.509 647.524 469.107 642.942C476.22 641.973 485.466 639.661 489.138 634.149C493.556 627.524 498.724 589.196 501.677 562.489C504.068 570.743 506.888 579.266 510.142 588.052C511.228 590.985 504.974 603.028 501.619 609.497C495.17 621.919 491.65 629.18 494.232 633.985C495.275 635.923 497.154 637.126 499.517 637.376C534.369 641.04 541.505 633.251 558.767 614.43C561.142 611.845 563.834 608.907 566.806 605.782C568.041 604.481 569.83 602.872 571.724 601.169C577.716 595.786 584.509 589.684 586.349 583.063C586.568 582.27 586.763 581.473 586.939 580.673C587.701 580.649 588.466 580.423 589.15 579.973C625.255 556.173 641.025 526.239 637.369 488.454Z" fill="#5158B0"/>
<path d="M416.439 140.446C415.08 137.731 395.736 137.227 394.529 146.13C394.212 148.462 395.435 150.548 397.447 151.669C398.56 152.29 399.951 152.677 401.439 152.54C417.4 151.063 417.834 143.231 416.439 140.446Z" fill="#5158B0"/>
<path d="M451.955 138.708C453.861 139.938 456.759 140.446 459.677 140.446C463.451 140.446 467.263 139.598 469.005 138.372C470.923 137.016 471.384 134.368 470.033 132.446C469.853 132.192 469.65 131.966 469.431 131.762C468.755 130.716 467.443 129.571 464.927 128.688C463.463 128.18 455.939 125.766 451.849 128.118C450.361 128.973 449.365 130.352 449.045 131.997C448.525 134.677 449.611 137.188 451.955 138.708Z" fill="#5158B0"/>
<path d="M443.869 184.114C442.908 183.747 440.857 182.7 439.607 181.911C439.584 181.844 439.56 181.778 439.533 181.716C439.455 181.524 439.369 181.344 439.267 181.173C441.103 178.704 442.814 176.055 444.38 173.27C446.177 175.528 448.431 177.809 451.244 179.821C449.541 182.235 446.505 184.098 443.869 184.114ZM458.759 183.856C463.478 185.665 469.205 186.677 476.127 186.305C478.47 186.18 480.271 184.18 480.146 181.837C480.017 179.489 477.994 177.7 475.673 177.817C462.556 178.52 453.189 173.552 447.873 163.044C447.431 162.173 446.732 161.516 445.916 161.13C445.064 160.719 443.755 160.376 442.365 161.071C442.298 161.102 442.228 161.137 442.162 161.169C441.388 161.559 440.787 162.157 440.388 162.856C440.091 163.266 439.795 163.747 439.509 164.309C438.892 165.536 438.248 166.755 437.599 167.966C435.662 171.563 433.466 174.903 431.064 177.891C424.228 186.403 413.443 191.841 402.205 192.427C399.861 192.552 398.06 194.552 398.185 196.891C398.302 199.161 400.181 200.923 402.423 200.923C402.502 200.923 402.576 200.919 402.65 200.915C414.111 200.313 425.209 195.528 433.4 187.844C436.564 190.637 441.97 192.524 442.962 192.587C449.021 192.966 455.431 189.219 458.759 183.856Z" fill="#5158B0"/>
<path fill-rule="evenodd" clip-rule="evenodd" d="M452.603 53.6297C446.439 55.6141 432.326 68.6727 436.978 72.286C439.923 74.5711 454.127 80.4344 457.631 80.8875C461.431 81.3836 456.56 52.3563 452.603 53.6297ZM337.724 62.8797C335.849 61.5945 330.213 57.0945 327.955 59.8875C323.048 65.9461 323.013 97.9461 329.478 95.2938C333.92 93.4656 356.213 87.0477 356.213 84.3055C356.213 77.9344 342.295 66.0086 337.724 62.8797ZM444.9 161.032C437.08 161.68 432.158 155.102 433.248 152.044C434.4 148.813 445.935 146.52 450.236 149.063C454.201 151.407 449.236 160.673 444.9 161.032Z" fill="#E984C8"/>
</g>
<defs>
<clipPath id="clip0">
<rect x="94" y="29" width="547" height="622.3" fill="white"/>
</clipPath>
</defs>
</svg>
