<?xml version="1.0" encoding="UTF-8"?><svg xmlns="http://www.w3.org/2000/svg" xmlns:xlink="http://www.w3.org/1999/xlink" height="748.8" preserveAspectRatio="xMidYMid meet" version="1.0" viewBox="-0.4 -0.5 754.0 748.8" width="754.0" zoomAndPan="magnify"><g><g id="change1_1"><path d="M 283.367188 142.980469 C 268.90625 133.085938 269.09375 117.414062 269.09375 117.414062 C 286.410156 120.316406 305.699219 108.046875 321.8125 116.871094 C 351.1875 132.953125 362.148438 177.09375 357.039062 207.882812 C 355.152344 219.246094 350.890625 236.800781 339.414062 242.464844 C 326.898438 248.640625 317.785156 224.523438 310.074219 218.546875 C 301.929688 212.230469 290.808594 216.484375 283.054688 210.28125 C 268.195312 198.390625 297.949219 152.960938 283.367188 142.980469 Z M 168.574219 241.101562 C 153.777344 240.4375 114.847656 273.75 123.035156 288.132812 C 127.714844 296.347656 140.175781 293.863281 147.621094 297.09375 C 153.261719 299.542969 156.078125 305.570312 162.269531 307.382812 C 182.535156 313.316406 213.335938 296.910156 224.53125 280.714844 C 236.757812 263.019531 223.640625 245.105469 205.058594 240.527344 C 200.964844 239.519531 168.574219 241.101562 168.574219 241.101562 Z M 126.136719 462.792969 C 121.828125 487.835938 132.613281 512.75 130.441406 537.859375 C 128.132812 564.570312 102.734375 559.210938 84.953125 568.308594 C 72.703125 574.578125 75.511719 596.378906 62.539062 600.136719 C 41.855469 606.128906 41.363281 572.273438 44.015625 560.453125 C 47.355469 545.5625 112.035156 460.933594 123.40625 461.652344 Z M 391.605469 535.140625 C 382.09375 516.433594 404.828125 449.742188 418.871094 483.191406 C 421.824219 490.226562 423.464844 497.917969 424.992188 505.363281 C 425.539062 508.011719 426.0625 510.660156 426.582031 513.3125 C 427.097656 515.597656 427.609375 517.867188 428.144531 520.109375 C 428.425781 521.285156 428.695312 522.464844 428.980469 523.640625 L 429.863281 527.273438 C 430.171875 528.484375 430.496094 529.695312 430.828125 530.90625 C 435.089844 546.453125 473.316406 614.863281 443.425781 623.5625 C 428.785156 627.824219 423.800781 599.933594 408.894531 598.210938 C 392.855469 596.355469 365.335938 608.285156 367.824219 580.347656 C 369.238281 564.507812 380.699219 549.660156 391.605469 535.140625 Z M 517.6875 494.355469 C 508.195312 481.953125 501.46875 467.285156 501.382812 456.882812 C 501.296875 446.269531 504.039062 435.511719 509.992188 426.671875 C 511.585938 424.308594 521.433594 418.171875 521.300781 418.433594 L 534.46875 435.566406 C 536.617188 440.179688 538.910156 445.050781 541.175781 450.101562 C 564.949219 485.78125 582.722656 560.046875 583.40625 593.652344 C 583.636719 604.820312 576.71875 664.15625 552.957031 648.226562 C 539.699219 639.339844 549.425781 614.511719 544.066406 601.628906 C 539.992188 591.839844 530.648438 588.078125 521.910156 583.40625 C 486.648438 564.535156 504.523438 522.890625 517.6875 494.355469 Z M 97.617188 678.347656 C 97.351562 678.078125 111.335938 666.09375 113.203125 664.066406 C 119 657.785156 131.238281 635.789062 142.203125 639.9375 C 151.367188 643.398438 152.253906 654.542969 159.652344 659.753906 C 165.351562 663.765625 173.941406 661.375 178.945312 666.476562 C 181.667969 669.253906 181.269531 673.929688 180.46875 677.398438 C 176.40625 694.996094 151.351562 688.019531 139.105469 686.941406 C 128.722656 686.027344 117.660156 684.65625 107.714844 681.519531 L 97.617188 678.347656" fill="#cb6c79" fill-rule="evenodd"/></g><path d="M 1466.171875 3098.235937 C 1464.765625 3107.454687 1458.28125 3081.321875 1454.023438 3073.040625 C 1445.390625 3056.360937 1435.820312 3040.30625 1425.742188 3024.446875 C 1395.664062 2977.220312 1363.671875 2931.165625 1330.976562 2885.696875 C 1224.414062 2737.454687 1107.8125 2597.025 989.53125 2458.040625 C 644.335938 2052.610937 72.460938 1517.103125 315.273438 927.298437 C 588.789062 262.9625 2804.023438 440.501562 2894.453125 525.814062 C 3269.21875 879.2125 2626.953125 1157.298437 2434.726562 1238.275 C 2158.4375 1354.759375 1863.554688 1410.775 1571.367188 1471.829687 C 1540.234375 1478.314062 1277.382812 1528.939062 1265.507812 1556.048437 M 1147.890625 5281.907812 C 1153.867188 5266.24375 879.84375 4481.360937 859.335938 4396.321875 C 653.242188 3542.454687 1094.296875 3152.9625 1843.828125 2974.485937" fill="none" stroke="#5e6697" stroke-linecap="round" stroke-linejoin="round" stroke-miterlimit="10" stroke-width="85" transform="matrix(.1 0 0 -.1 0 734.89)"/><path d="M 6963.632812 7193.821875 C 6956.875 7190.853125 7190.039062 7279.290625 7252.695312 7299.603125 C 7258.242188 7301.4 7290.703125 7314.251562 7291.054688 7299.05625 C 7292.382812 7244.36875 6928.515625 6857.9625 6869.6875 6787.025 C 6866.484375 6783.196875 6811.835938 6722.845312 6823.554688 6717.80625 C 6844.726562 6708.74375 7402.539062 6922.18125 7488.203125 6945.540625 M 6174.0625 6646.86875 C 6152.070312 6625.853125 6181.210938 6652.3375 6205 6662.845312 C 6238.710938 6677.689062 6272.148438 6693.11875 6305.859375 6707.884375 C 6449.804688 6771.048437 6618.359375 6832.689062 6619.140625 6828.860937 C 6621.523438 6817.376562 6222.1875 6304.759375 6171.484375 6237.689062 C 6154.570312 6215.30625 6160.117188 6200.15 6188.90625 6210.61875 C 6285.3125 6245.540625 6380.976562 6282.454687 6477.539062 6317.103125 C 6549.335938 6342.845312 6621.132812 6372.103125 6695.078125 6391.4 M 5449.140625 6054.564062 C 5440.117188 6047.884375 5454.101562 6059.720312 5468.476562 6065.228125 C 5579.804688 6107.923437 5694.53125 6156.946875 5810.195312 6186.204687 C 5816.25 6187.728125 5834.375 6193.782812 5839.414062 6185.93125 C 5847.265625 6173.704687 5824.101562 6146.517187 5818.515625 6138.43125 C 5688.125 5951.517187 5538.4375 5775.814062 5397.65625 5596.634375 C 5280.78125 5447.923437 5452.148438 5548.43125 5553.203125 5582.9625 C 5614.6875 5603.939062 5676.484375 5623.939062 5738.28125 5643.821875 C 5835.664062 5675.189062 5933.320312 5706.048437 6033.867188 5725.384375 M 4416.601562 3618.939062 C 4411.640625 3616.55625 4337.421875 3438.235937 4330.898438 3425.15 C 4256.640625 3276.4 4158.867188 3144.446875 4067.34375 3006.673437 M 4158.046875 3772.259375 C 4169.492188 3754.915625 4127.070312 3744.36875 4113.476562 3728.665625 C 4071.25 3680.071875 4030.742188 3629.876562 3991.523438 3578.821875 C 3885.390625 3440.540625 3791.054688 3295.93125 3719.921875 3136.673437 M 2859.609375 521.360937 C 2861.09375 521.478125 2860.898438 523.353125 2861.09375 524.642187 C 2870.3125 576.517187 2841.210938 643.196875 2823.789062 689.954687 C 2821.523438 695.93125 2819.21875 701.907812 2816.835938 707.845312 C 2751.5625 869.2125 2631.171875 993.626562 2498.867188 1102.415625 M 2163.046875 903.704687 C 2163.046875 903.5875 2179.453125 898.392187 2180.15625 898.11875 C 2226.054688 880.384375 2269.101562 853.470312 2310.3125 826.985937 C 2422.578125 754.876562 2543.398438 658.626562 2599.21875 533.314062 M 4209.179688 2402.532812 C 4213.4375 2436.7125 4432.148438 3166.009375 4870.46875 3321.439062 M 4807.8125 4933.040625 C 4852.226562 4840.267187 4829.140625 4640.501562 4848.671875 4536.0875 C 4923.359375 4137.220312 5024.648438 3733.9 5132.617188 3342.454687 C 5187.851562 3142.18125 5357.734375 2951.517187 5444.882812 2762.9625 C 5737.8125 2129.05625 6071.796875 1233.235937 5719.140625 612.689062 C 5573.59375 356.55625 5216.484375 301.751562 4944.84375 186.634375 C 4283.867188 -93.521875 3518.59375 7.454687 3229.296875 732.298437 C 3161.71875 901.673437 2975.898438 1787.454687 3085.898438 2328.548437 C 3147.890625 2633.704687 3121.015625 3025.384375 3309.6875 3289.05625 C 3409.765625 3428.939062 4323.085938 4011.048437 4389.921875 3743.704687 C 4464.609375 3444.915625 4449.492188 3210.110937 4306.210938 2944.017187 C 4243.867188 2828.235937 4152.070312 2754.251562 4166.015625 2618.275 C 4209.414062 2195.071875 4493.945312 1602.103125 4645.15625 1190.853125 M 3578.046875 6134.485937 C 3816.914062 6438.11875 4477.578125 6491.86875 4587.1875 6515.189062 C 4719.609375 6543.314062 4739.453125 6528.11875 4774.53125 6399.720312 C 4817.65625 6241.790625 4856.601562 6083.43125 4882.539062 5921.595312 C 4905.507812 5778.196875 4916.640625 5634.095312 4914.609375 5488.782812 C 4911.484375 5269.329687 4866.054688 5063.704687 4777.65625 4864.251562 M 1712.460938 5987.884375 C 2198.671875 6291.204687 3234.023438 6234.134375 3694.140625 6100.61875 M 1028.828125 4984.603125 C 678.359375 5527.845312 788.515625 6480.15 813.320312 6490.735937 C 831.796875 6498.5875 1740.859375 6182.064062 1872.1875 6097.65 M 1330.507812 3738.626562 C 1336.054688 3752.610937 1302.304688 3728.157812 1288.554688 3722.025 C 1258.59375 3708.704687 1228.828125 3694.915625 1199.140625 3680.970312 C 1110.546875 3639.251562 1023.164062 3594.759375 937.695312 3546.946875 C 675.3125 3400.228125 425.3125 3228.040625 213.046875 3013.821875 M 1388.164062 3977.454687 C 1391.914062 3994.525 1354.53125 3968.040625 1337.734375 3963.235937 C 1306.171875 3954.173437 1274.765625 3944.720312 1243.359375 3935.189062 C 1152.890625 3907.689062 1063.242188 3877.142187 974.921875 3843.509375 C 695.625 3737.142187 430.46875 3595.775 204.648438 3398.353125 M 1468.125 4152.376562 C 1483.90625 4167.80625 1319.570312 4158.11875 1303.164062 4156.829687 C 1201.640625 4148.782812 1100.234375 4136.7125 999.648438 4120.579687 C 674.804688 4068.509375 287.226562 3986.126562 42.5 3744.68125 M 3308.164062 3866.048437 C 3571.640625 3925.267187 3981.757812 3919.68125 4249.296875 3868.079687 M 3301.484375 4029.954687 C 3652.695312 4147.767187 4024.726562 4205.071875 4397.304688 4214.251562 M 3119.414062 4120.30625 C 3504.84375 4388.978125 4031.367188 4623.235937 4523.710938 4705.696875 M 1579.375 4598.470312 C 1687.34375 4555.267187 1861.679688 4512.454687 1984.804688 4578.978125 M 2785.898438 4611.165625 C 2784.335938 4615.110937 2811.679688 4596.126562 2817.421875 4592.845312 C 2851.445312 4573.392187 2889.648438 4561.439062 2928.90625 4559.564062 C 3031.71875 4554.720312 3130.664062 4611.985937 3221.40625 4653.470312 M 2859.140625 4185.696875 C 2832.304688 4172.103125 2798.359375 4131.0875 2775.976562 4110.189062 C 2649.453125 3991.985937 2577.382812 3871.907812 2541.171875 3704.915625 M 2375.898438 4102.767187 C 2390.195312 4095.579687 2409.6875 4049.05625 2423.632812 4035.814062 C 2470.117188 3991.55625 2542.265625 3968.275 2605.664062 3966.204687 M 2378.90625 4128.196875 C 2378.28125 4134.798437 2375.585938 4115.30625 2373.984375 4108.821875 C 2371.40625 4098.235937 2368.476562 4087.728125 2364.609375 4077.454687 C 2353.203125 4047.3375 2337.539062 4018.509375 2318.632812 3992.454687 C 2259.609375 3911.009375 2177.617188 3864.99375 2084.101562 3836.282812" fill="none" stroke="#5e6697" stroke-linecap="round" stroke-linejoin="round" stroke-miterlimit="10" stroke-width="85" transform="matrix(.1 0 0 -.1 0 734.89)"/><g id="change2_1"><path d="M 450.859375 117.066406 C 440.550781 110.128906 398.554688 133.070312 396.101562 141.65625 C 393.707031 150.042969 431.285156 196.976562 441.078125 196.113281 C 459.671875 194.472656 464.730469 126.40625 450.859375 117.066406 Z M 102.207031 125.355469 C 94.65625 132.96875 106.867188 188.09375 117.324219 191.472656 C 127.78125 194.851562 164.914062 155.066406 164.949219 145.628906 C 165.007812 128.554688 108.152344 119.355469 102.207031 125.355469 Z M 243.363281 318.773438 C 241.789062 320.589844 239.90625 322.179688 237.980469 323.605469 L 236.644531 324.207031 C 233.140625 320.488281 223.457031 317.566406 222.824219 311.542969 C 222.546875 308.894531 228.128906 308.027344 229.789062 307.621094 C 239.367188 305.265625 254.695312 305.71875 243.363281 318.773438" fill="#e06cb9" fill-rule="evenodd"/></g></g></svg>