<?xml version="1.0" encoding="UTF-8"?><svg xmlns="http://www.w3.org/2000/svg" xmlns:xlink="http://www.w3.org/1999/xlink" height="610.0" preserveAspectRatio="xMidYMid meet" version="1.0" viewBox="0.0 0.0 556.9 610.0" width="556.9" zoomAndPan="magnify"><defs><clipPath id="a"><path d="M 0 0 L 556.929688 0 L 556.929688 609.96875 L 0 609.96875 Z M 0 0"/></clipPath></defs><g><g id="change1_1"><path d="M 529.097656 59.910156 C 527.945312 60.53125 526.660156 61.207031 525.765625 62.1875 C 525.421875 62.5625 525.464844 64.195312 525.53125 63.695312 L 530.636719 70.476562 C 532.738281 74.316406 536.058594 84.175781 537.898438 81.566406 C 539.738281 78.957031 543.140625 58.433594 541.671875 54.824219 C 540.207031 51.214844 533.03125 57.789062 529.097656 59.910156 Z M 489.828125 40.347656 C 487.976562 36.226562 485.207031 30.441406 481.597656 27.496094 C 479.617188 25.878906 476.585938 29.949219 475.480469 31.113281 C 470.847656 35.992188 466.613281 41.453125 463.242188 47.28125 C 462.257812 48.984375 461.316406 50.734375 460.59375 52.566406 C 460.359375 53.160156 460.136719 53.761719 460.03125 54.390625 C 459.988281 54.640625 460.226562 55.265625 460.226562 55.320312 L 461.1875 56.40625 C 464 63.1875 479.808594 63.832031 485.875 63.988281 C 487.621094 64.03125 492.546875 64.675781 494.027344 63.1875 C 494.722656 62.492188 494.039062 58.75 494.007812 57.945312 C 493.757812 51.890625 492.308594 45.875 489.828125 40.347656 Z M 460.226562 55.320312 L 460.191406 55.285156 C 460.21875 55.328125 460.222656 55.332031 460.226562 55.320312 Z M 551.492188 168.730469 C 550.636719 171.542969 548.25 177.910156 544.984375 174.96875 C 542.753906 172.960938 540.910156 167.652344 543.296875 165.027344 C 544.570312 163.628906 546.539062 163.5 548.175781 163.625 C 548.679688 163.664062 549.1875 163.738281 549.691406 163.808594 C 549.867188 163.832031 550.046875 163.855469 550.226562 163.878906 C 550.320312 163.890625 550.601562 163.949219 550.511719 163.910156 L 551.808594 164.851562 C 552.390625 166.042969 551.851562 167.554688 551.492188 168.730469" fill="#d996cc" fill-rule="evenodd"/></g><g id="change2_1"><path d="M 460.117188 525.710938 C 457.859375 513.246094 462.777344 500.113281 461.035156 488.492188 C 460.960938 488 460.414062 489.265625 460.117188 489.667969 C 455.550781 495.847656 450.976562 501.796875 447.359375 508.675781 C 437.5 527.441406 429.699219 549.484375 429.492188 570.890625 C 429.480469 572.035156 428.984375 576.324219 430.660156 576.613281 L 472.332031 556.304688 C 470.875 546.605469 462.039062 536.328125 460.117188 525.710938 Z M 348.945312 549.410156 C 349.824219 561.597656 354.675781 574.003906 359.972656 584.90625 C 360.402344 585.785156 365.863281 596.796875 367.492188 595.96875 C 368.21875 595.597656 367.941406 582.660156 368.101562 581.554688 C 368.796875 576.800781 369.8125 572.097656 371.003906 567.441406 C 372.570312 561.308594 374.535156 555.253906 376.898438 549.378906 C 380.609375 540.140625 385.730469 531.417969 392.367188 523.964844 L 350.097656 542.988281 C 351.878906 544.238281 348.789062 547.242188 348.945312 549.410156 Z M 281.339844 569.1875 C 281.492188 563.632812 282.378906 557.949219 283.855469 552.589844 C 283.992188 552.082031 286.679688 544.554688 286.476562 544.503906 C 279.773438 542.820312 255.574219 578.324219 252.519531 583.378906 C 250.324219 587.003906 248.261719 590.699219 246.371094 594.492188 C 245.058594 597.132812 244.070312 600.222656 244.070312 600.175781 L 291.324219 606.351562 C 290.90625 603.566406 288.003906 600.101562 286.902344 597.519531 C 283.128906 588.660156 281.078125 578.828125 281.339844 569.1875 Z M 174.464844 587.28125 C 174.863281 589.101562 176.046875 596.390625 178.246094 597.449219 C 178.3125 597.480469 180.195312 593.59375 180.289062 593.414062 C 182.445312 589.21875 184.796875 585.148438 187.332031 581.167969 C 190.902344 575.566406 217.453125 539.246094 225.824219 540.964844 L 182.703125 532.601562 C 177.171875 531.910156 171.304688 573.019531 174.464844 587.28125 Z M 111.546875 499.8125 C 106.832031 501.640625 102.691406 506.449219 99.402344 510.0625 C 90.363281 519.996094 83.621094 531.167969 80.527344 544.269531 C 80.472656 544.5 79.40625 549.867188 79.617188 549.867188 C 80.902344 549.871094 99.378906 536.609375 101.683594 535.3125 C 107.078125 532.273438 112.570312 529.410156 118.179688 526.78125 C 125.8125 523.199219 138.191406 522.027344 144.941406 517.558594 L 112.503906 499.785156 C 112.742188 500 111.84375 499.699219 111.546875 499.8125 Z M 93.09375 458.386719 C 88.164062 447.992188 56.980469 451.441406 49.152344 453.960938 C 44.199219 455.550781 39.1875 457.613281 35.074219 460.871094 C 34.996094 460.933594 33.382812 462.199219 33.542969 462.371094 L 42.476562 488.230469 C 52.960938 481.292969 61.199219 472.011719 72.851562 465.980469 C 77.457031 463.59375 82.175781 461.230469 87.144531 459.691406 C 89.085938 459.09375 93.964844 460.222656 93.09375 458.386719 Z M 272.359375 355.136719 C 272.359375 355.136719 269.492188 352.539062 269.367188 352.425781 C 260.734375 344.605469 251.335938 337.386719 241.265625 331.53125 C 205.449219 310.703125 165.574219 297.902344 124.0625 295.6875 C 87.746094 293.753906 63.09375 311.179688 63.09375 311.179688 C 58.835938 313.828125 36.859375 334.539062 45.695312 331.953125 C 58.195312 328.289062 70.605469 324.9375 83.742188 325.191406 C 112.058594 325.742188 140.746094 330.875 168.835938 334.253906 C 199.988281 338 231.355469 343.402344 261.640625 351.714844 C 262.230469 351.878906 272.148438 355.367188 272.359375 355.136719 Z M 185.449219 218.675781 C 170.527344 216.785156 155.382812 215.46875 140.324219 215.746094 C 136.96875 215.808594 132.855469 218.902344 130.296875 216.726562 L 116.628906 231.347656 C 113.949219 232.949219 111.246094 234.636719 109.023438 236.859375 C 97.828125 248.039062 127.277344 242.117188 130.800781 242.101562 C 144.675781 242.042969 158.53125 242.558594 172.277344 244.558594 C 200.613281 248.679688 228.066406 258.5 255.773438 265.5 C 269.882812 269.066406 283.992188 272.761719 297.929688 276.941406 C 303.636719 278.652344 309.355469 280.304688 315.109375 281.832031 C 316.257812 282.132812 319.128906 283.761719 318.546875 282.730469 C 296.308594 243.253906 225.140625 223.699219 185.449219 218.675781 Z M 381.472656 184.5625 C 382.210938 183.746094 372.953125 174.566406 372.472656 174.066406 C 348.066406 148.714844 319.714844 126.613281 288.3125 110.589844 C 287.746094 110.300781 275.699219 104.941406 275.507812 105.789062 L 193.988281 162.953125 C 238.953125 147.003906 286.3125 156.507812 331.667969 168.367188 C 346.519531 172.253906 361.441406 176.5625 375.773438 182.105469 C 376.097656 182.230469 381.289062 184.765625 381.472656 184.5625 Z M 421.539062 98.589844 C 421.550781 98.628906 421.886719 99.429688 421.769531 99.507812 C 421.554688 99.652344 417.761719 96.328125 417.519531 96.15625 C 406.765625 88.351562 395.351562 81.507812 383.390625 75.722656 C 372.261719 70.335938 360.066406 65.523438 347.597656 64.820312 C 343.535156 64.59375 331.429688 68.457031 327.515625 66.855469 L 388.074219 39.148438 C 396.152344 41.617188 412.425781 73.859375 416.082031 83.164062 C 418.082031 88.25 419.882812 93.386719 421.539062 98.589844" fill="#d38167" fill-rule="evenodd"/></g><g clip-path="url(#a)"><path d="M 5088.359375 5593.332813 C 5099.414062 5594.23125 5221.40625 5649.621875 5258.398438 5658.176563 C 5684.570312 5756.2625 5496.71875 5369.3875 5410.507812 5117.5125 M 5129.492188 5520.715625 C 5437.617188 5337.5125 5421.25 4943.410938 5477.773438 4632.66875 C 5490.117188 4564.778125 5539.6875 4482.551563 5523.359375 4413.215625 C 5478.945312 4224.582813 5074.257812 3947.590625 4882.65625 3948.645313 M 4342.226562 5498.410938 C 4342.226562 5498.410938 4476.875 5728.645313 4519.0625 5778.332813 C 4596.71875 5869.778125 4678.789062 5958.684375 4768.125 6038.840625 C 4770.742188 6041.184375 4787.34375 6060.246875 4792.421875 6056.809375 C 4899.335938 5984.7 4978.945312 5778.059375 5041.328125 5665.403125 C 5066.953125 5619.153125 5090.664062 5571.965625 5116.875 5526.067188 M 4482.890625 2065.832813 C 4489.960938 2045.246875 4534.179688 1924.778125 4541.601562 1904.348438 C 4562.421875 1847.121875 4579.296875 1788.215625 4590.585938 1728.410938 C 4624.257812 1549.582813 4572.773438 1403.215625 4481.601562 1252.317188 M 4137.578125 3828.059375 C 4068.359375 3756.653125 4209.414062 3100.442188 4232.96875 3003.996875 C 4309.609375 2690.090625 4508.671875 2328.91875 4477.382812 1998.1375 C 4461.601562 1830.910938 4285.585938 1530.129688 4202.1875 1378.60625 M 4803.398438 4044.153125 C 4950.78125 3369.582813 4710.585938 2922.395313 4594.53125 2604.465625 C 4541.523438 2459.309375 4495.078125 2395.832813 4462.929688 2244.035938 M 595.9375 2520.442188 C 489.453125 2349.582813 423.398438 2143.410938 380.859375 1946.614063 C 111.953125 701.965625 1210.9375 226.301563 2199.492188 83.684375 C 3950.9375 -168.971875 5387.539062 803.020313 5509.492188 1298.29375 C 5605.039062 1686.223438 5238.242188 1643.29375 4994.726562 1532.395313 C 4398.125 1260.676563 4079.570312 815.676563 3386.054688 684.309375 C 2393.164062 496.223438 452.460938 841.8875 861.914062 2256.692188 M 4576.328125 5862.160938 C 4567.890625 5883.45 4354.960938 5846.184375 4244.335938 5821.965625 C 3750.039062 5713.60625 3321.210938 5529.739063 2934.0625 5205.48125 C 2682.304688 4994.582813 -935.351562 2745.090625 298.125 1512.317188" fill="none" stroke="#6163b8" stroke-linecap="round" stroke-linejoin="round" stroke-miterlimit="10" stroke-width="85" transform="matrix(.1 0 0 -.1 0 609.97)"/></g><g id="change3_1"><path d="M 521.738281 143.414062 C 519.960938 147.699219 501.050781 140.769531 503.160156 135.695312 C 506.515625 127.609375 524.238281 137.394531 521.738281 143.414062" fill="#6163b8" fill-rule="evenodd"/></g><path d="M 4986.640625 4332.082813 L 4409.414062 4274.192188 M 4874.921875 4449.426563 C 4744.609375 4477.825 4524.492188 4531.926563 4393.085938 4554.348438 M 5110.039062 4489.85625 C 4993.75 4549.075 4683.046875 4673.840625 4563.203125 4725.48125 M 5440.390625 4323.254688 C 5366.015625 4325.989063 5210.703125 4324.895313 5177.109375 4203.098438" fill="none" stroke="#6163b8" stroke-linecap="round" stroke-linejoin="round" stroke-miterlimit="10" stroke-width="85" transform="matrix(.1 0 0 -.1 0 609.97)"/></g></svg>