<?xml version="1.0" encoding="UTF-8"?><svg xmlns="http://www.w3.org/2000/svg" xmlns:xlink="http://www.w3.org/1999/xlink" height="622.3" preserveAspectRatio="xMidYMid meet" version="1.0" viewBox="-0.9 -0.2 547.0 622.3" width="547.0" zoomAndPan="magnify"><g><g id="change1_1"><path d="M 393.761719 261.546875 C 388.308594 250.695312 385.023438 237.546875 386.410156 232.175781 C 388.183594 225.3125 393.9375 216.800781 401.578125 215.765625 C 403.675781 215.484375 406.917969 219.230469 407.742188 217.28125 L 410.152344 223.695312 C 411.058594 225.035156 412.101562 226.832031 413.183594 228.957031 C 420.050781 234.128906 434.214844 252.707031 436.066406 254.84375 C 454.21875 275.757812 474.449219 303.027344 466.042969 332.445312 C 464.34375 338.394531 461.175781 344.808594 455.03125 347.136719 C 433.320312 355.363281 427.214844 325.140625 417.246094 313.960938 C 402.898438 297.871094 362.3125 311.617188 386.984375 271.777344 C 389.136719 268.296875 391.441406 264.914062 393.761719 261.546875 Z M 217.640625 272.425781 C 217.433594 271.636719 217.359375 271.175781 217.699219 271.679688 L 217.640625 272.425781 C 217.90625 273.433594 218.386719 274.984375 218.496094 275.753906 C 219.132812 280.371094 220.421875 284.765625 222.316406 289.023438 C 227.6875 301.085938 235.605469 308.824219 247.132812 315.035156 C 294.214844 340.40625 263.039062 353.289062 251.980469 381.628906 C 248.144531 391.457031 252.035156 404.898438 242.882812 412.199219 C 206.625 441.125 213.285156 343.28125 213.050781 331.515625 Z M 419.789062 412.710938 L 420.304688 414.089844 C 423.234375 406.691406 430.714844 400.644531 436.402344 395.339844 C 472.71875 361.46875 500.761719 402.109375 479.277344 429.566406 C 473.355469 437.132812 464.839844 432.839844 457.515625 437.136719 C 450.246094 441.40625 441.722656 451.855469 432.246094 447.742188 C 421.351562 443.015625 419.128906 425.628906 418.914062 415.316406 C 418.894531 414.546875 419.605469 413.480469 419.789062 412.710938 L 419.464844 411.828125 C 419.839844 411.984375 419.886719 412.304688 419.789062 412.710938 Z M 345.347656 491.90625 C 347.3125 489.765625 344.753906 478.542969 355.835938 477.742188 C 359.722656 477.460938 362.199219 480.882812 363.382812 484.144531 C 366.941406 493.929688 363.550781 504.785156 364.625 514.882812 C 365.726562 525.226562 373.800781 535.492188 371.027344 546.03125 C 365.421875 567.335938 351.707031 554.742188 351.25 535.355469 C 351.054688 527.03125 349.671875 519.070312 347.453125 511.039062 Z M 223.597656 488.621094 C 224.339844 489.503906 222.730469 486.46875 222.574219 485.324219 C 222.242188 482.914062 222.375 480.367188 222.816406 477.980469 C 223.816406 472.582031 229.042969 461.921875 235.953125 467.304688 C 247.816406 476.546875 241.484375 499.878906 244.195312 512.710938 C 246.398438 523.152344 253.78125 530.519531 258.289062 539.84375 C 260.460938 544.339844 263.757812 554.386719 258.382812 558.1875 C 245.359375 567.398438 232.898438 520.617188 230.628906 514.742188 L 223.597656 488.621094" fill="#cd8154" fill-rule="evenodd"/></g><g id="change2_1"><path d="M 493.175781 541.230469 C 493.328125 535.316406 492.78125 529.269531 492.242188 523.339844 C 491.695312 517.316406 491.179688 511.628906 491.402344 506.359375 C 491.609375 501.355469 491.96875 497.203125 492.527344 493.3125 C 492.691406 492.480469 493.582031 488.539062 493.914062 487.351562 C 494.667969 485.707031 494.304688 483.695312 492.882812 482.421875 C 491.71875 481.378906 490.066406 481.058594 488.59375 481.589844 C 486.300781 482.421875 485.945312 483.949219 484.996094 488.039062 C 484.988281 488.074219 484.214844 491.40625 484.125 492.019531 C 483.527344 496.175781 483.128906 500.746094 482.910156 506.003906 C 482.664062 511.835938 483.230469 518.074219 483.777344 524.105469 C 484.636719 533.601562 485.527344 543.425781 483.261719 551.585938 C 482.082031 555.820312 475.761719 561.5 471.144531 565.644531 C 469.121094 567.464844 467.210938 569.183594 465.742188 570.726562 C 462.71875 573.90625 460 576.871094 457.601562 579.488281 C 440.949219 597.644531 436.25 602.761719 407.113281 599.882812 C 407.898438 596.472656 411.65625 589.234375 414.261719 584.214844 C 421.320312 570.617188 425.441406 561.929688 423.210938 555.902344 C 416.820312 538.632812 412.144531 522.476562 409.179688 507.457031 C 409.179688 507.421875 409.179688 507.390625 409.179688 507.359375 C 409.179688 506.765625 409.058594 506.195312 408.835938 505.683594 C 402.011719 469.664062 405.171875 440.296875 418.324219 418.023438 C 437.015625 386.371094 470.285156 379.121094 480.039062 377.65625 C 480.691406 377.558594 481.371094 377.453125 482.160156 376.9375 C 484.125 375.652344 484.675781 373.019531 483.390625 371.054688 C 482.402344 369.546875 480.617188 368.871094 478.953125 369.222656 L 478.773438 369.25 C 468.082031 370.859375 431.605469 378.820312 411.003906 413.703125 C 396.679688 437.960938 393.238281 469.601562 400.671875 508.144531 C 400.324219 522.238281 391.496094 593.667969 387.167969 600.234375 C 386.011719 601.964844 381.203125 604.210938 373.058594 605.320312 C 357.789062 607.402344 347.914062 606.992188 344.128906 605.890625 C 344.679688 604.746094 345.339844 603.472656 345.679688 602.816406 C 346.199219 601.808594 346.417969 601.386719 346.566406 601.03125 C 361.945312 564.121094 352.800781 525.144531 343.960938 487.449219 C 336.859375 457.179688 330.152344 428.585938 335.835938 402.128906 C 336.328125 399.832031 334.867188 397.574219 332.574219 397.082031 C 330.277344 396.585938 328.015625 398.046875 327.523438 400.34375 C 323.519531 419 325.292969 438.761719 328.972656 458.605469 C 308.726562 463.363281 295.644531 463.53125 276.945312 459.5 C 272.820312 458.613281 265.46875 453.328125 260.097656 449.472656 C 257.4375 447.558594 254.921875 445.753906 252.890625 444.511719 C 250.890625 443.289062 248.273438 443.917969 247.046875 445.921875 C 245.824219 447.921875 246.453125 450.539062 248.457031 451.765625 C 250.21875 452.839844 252.609375 454.558594 255.140625 456.375 C 261.777344 461.144531 269.300781 466.546875 275.152344 467.808594 C 277.875 468.394531 280.484375 468.890625 283.007812 469.296875 C 282.832031 475.171875 282.511719 482.171875 282.175781 489.539062 C 281.320312 508.308594 280.351562 529.582031 281.117188 543.847656 C 281.253906 546.433594 281.609375 549.835938 282.019531 553.769531 C 283.734375 570.226562 287.300781 604.472656 274.277344 609.898438 C 268.476562 612.3125 259.164062 614.300781 256.035156 613.566406 C 256.042969 611.175781 256.742188 606.085938 257.230469 602.539062 C 258.382812 594.136719 259.023438 588.8125 258.203125 585.710938 C 253.808594 569.152344 247.621094 553.234375 241.640625 537.839844 C 235.117188 521.058594 228.410156 503.800781 224.070312 485.707031 C 224.496094 484.347656 224.082031 483.125 224 482.90625 C 223.753906 482.257812 223.441406 481.75 223.078125 481.363281 C 222.527344 478.828125 222.027344 476.273438 221.585938 473.703125 C 215.382812 437.730469 215.214844 401.207031 215.757812 373.410156 C 216.308594 345.441406 217.328125 316.996094 218.316406 289.484375 C 219.164062 265.894531 220.035156 241.628906 220.613281 217.519531 C 228.488281 210.683594 237.054688 203.855469 246.371094 196.984375 C 253.53125 191.703125 260.960938 186.566406 268.464844 181.71875 C 271.25 179.914062 273.527344 178.492188 275.625 177.246094 C 275.949219 177.050781 276.898438 176.578125 277.464844 176.292969 C 278.660156 175.695312 282.300781 173.871094 280.683594 170.152344 C 279.878906 168.308594 277.695312 166.957031 275.070312 167.9375 C 274.679688 168.082031 274.320312 168.28125 274.003906 168.519531 C 273.894531 168.574219 273.78125 168.632812 273.660156 168.691406 C 272.613281 169.21875 271.828125 169.613281 271.28125 169.9375 C 269.085938 171.246094 266.726562 172.71875 263.851562 174.578125 C 256.203125 179.523438 248.625 184.761719 241.328125 190.144531 C 234.070312 195.496094 227.265625 200.828125 220.863281 206.160156 C 220.878906 205.328125 220.898438 204.492188 220.914062 203.660156 C 221.050781 196.5 221.144531 189.324219 221.214844 182.25 C 231.40625 177.40625 241.886719 173.09375 252.214844 169.058594 C 260.558594 165.800781 270.417969 162.023438 280.296875 158.734375 C 283.238281 157.757812 286.261719 156.800781 289.542969 155.808594 C 290.035156 155.65625 290.9375 155.40625 291.746094 155.179688 L 293.003906 154.828125 C 297.375 153.574219 296.582031 149.9375 296.476562 149.527344 C 296.0625 147.902344 294.292969 145.757812 291.140625 146.492188 C 290.894531 146.546875 290.660156 146.625 290.4375 146.71875 C 290.164062 146.796875 289.820312 146.890625 289.457031 146.992188 C 288.585938 147.238281 287.613281 147.511719 287.082031 147.671875 C 283.722656 148.6875 280.628906 149.667969 277.613281 150.671875 C 267.550781 154.019531 257.5625 157.84375 249.121094 161.144531 C 239.875 164.753906 230.5 168.59375 221.285156 172.828125 C 221.324219 166.800781 221.347656 160.882812 221.359375 155.152344 C 234.199219 151.835938 247.007812 149.496094 258.550781 147.398438 C 267.859375 145.703125 277.753906 144.273438 287.964844 143.144531 C 291.6875 142.730469 295.675781 142.324219 299.679688 142.144531 C 299.859375 142.164062 300.226562 142.242188 300.472656 142.308594 L 300.476562 142.300781 C 302.832031 142.839844 304.226562 141.6875 304.863281 140.925781 C 305.9375 139.632812 306.148438 137.824219 305.402344 136.316406 C 304.074219 133.648438 300.496094 133.597656 299.429688 133.644531 C 295.140625 133.835938 290.9375 134.261719 287.027344 134.695312 C 276.625 135.847656 266.53125 137.304688 257.03125 139.035156 C 245.953125 141.050781 233.734375 143.273438 221.371094 146.367188 C 221.371094 144.574219 221.371094 142.792969 221.371094 141.050781 C 221.375 137.824219 220.738281 127.367188 220.003906 115.257812 C 219.148438 101.21875 218.183594 85.304688 218.207031 80.207031 C 218.328125 55.328125 220.527344 23.96875 226.191406 10.714844 C 228.011719 12.210938 230.179688 14.003906 231.902344 15.429688 C 235.691406 18.566406 237.28125 19.878906 237.765625 20.242188 C 242.699219 23.941406 247.546875 28.191406 252.675781 32.6875 C 261.089844 40.066406 269.730469 47.644531 279.253906 53.117188 C 271.511719 55.574219 264.121094 58.730469 257.421875 62.566406 C 255.382812 63.730469 254.675781 66.328125 255.84375 68.363281 C 257.007812 70.402344 259.605469 71.105469 261.644531 69.941406 C 292.414062 52.328125 338.464844 49.980469 362.199219 64.8125 C 374.398438 72.4375 386.796875 93.804688 391.53125 118.691406 C 388.585938 119.800781 385.871094 120.882812 383.28125 121.980469 L 382.449219 122.335938 C 379.414062 123.613281 376.277344 124.941406 373.335938 126.804688 C 372.847656 127.113281 372.480469 127.472656 372.183594 127.8125 C 371.441406 128.421875 370.90625 129.289062 370.714844 130.304688 C 370.355469 132.226562 371.359375 134.21875 373.140625 135.027344 C 373.371094 135.132812 374.050781 135.402344 374.929688 135.402344 C 375.933594 135.402344 377.195312 135.050781 378.339844 133.703125 C 380.582031 132.351562 383.101562 131.285156 385.757812 130.164062 L 386.601562 129.808594 C 388.585938 128.964844 390.644531 128.132812 392.839844 127.289062 C 393.027344 128.945312 393.171875 130.613281 393.285156 132.285156 C 393.054688 132.332031 392.820312 132.375 392.589844 132.421875 C 392.234375 132.496094 391.871094 132.566406 391.5 132.640625 C 389.269531 133.082031 386.738281 133.582031 384.433594 134.75 C 382.867188 135.546875 381.925781 137.089844 381.980469 138.773438 C 382.03125 140.425781 383.035156 141.894531 384.550781 142.542969 C 385.074219 142.769531 385.636719 142.878906 386.195312 142.878906 C 386.988281 142.878906 387.78125 142.65625 388.46875 142.238281 C 389.714844 141.65625 391.457031 141.3125 393.144531 140.980469 C 393.273438 140.957031 393.390625 140.929688 393.515625 140.90625 C 393.507812 141.566406 393.503906 142.226562 393.480469 142.886719 C 393.414062 144.933594 393.277344 147.054688 393.0625 149.226562 C 391.984375 149.035156 390.839844 149.246094 389.875 149.921875 C 387.953125 151.269531 387.484375 153.917969 388.832031 155.84375 C 389.589844 156.925781 390.464844 157.386719 391.820312 157.675781 C 388.476562 174.660156 379.394531 193.21875 357.507812 204.941406 C 355.441406 206.046875 354.660156 208.625 355.769531 210.691406 C 356.878906 212.761719 359.453125 213.539062 361.523438 212.433594 C 370.507812 207.621094 378.117188 201.371094 384.234375 193.886719 C 391.503906 206.25 401.894531 217.878906 411.953125 229.132812 C 418.441406 236.390625 425.148438 243.894531 430.703125 251.300781 C 454.234375 282.644531 475.546875 317.695312 495.855469 358.460938 L 497.882812 362.523438 C 514.160156 395.144531 530.988281 428.875 534.007812 460.074219 C 537.257812 493.632812 524.265625 519.523438 493.175781 541.230469 Z M 340.796875 587 C 327.59375 580.730469 314.121094 567.433594 299.617188 546.351562 C 298.75 545.070312 291.714844 533.5625 290.527344 531.035156 C 290.347656 530.25 289.945312 529.519531 289.347656 528.9375 C 289.4375 516.898438 290.078125 502.816406 290.667969 489.925781 C 290.988281 482.867188 291.296875 476.144531 291.480469 470.382812 C 305.414062 471.664062 317.074219 470.136719 330.617188 466.953125 C 332.183594 474.457031 333.941406 481.957031 335.6875 489.390625 C 343.421875 522.378906 351.398438 556.382812 342.160156 588.023438 C 341.789062 587.605469 341.332031 587.253906 340.796875 587 Z M 152.984375 480.355469 C 132.5625 461.027344 111.449219 441.042969 88.789062 441.011719 C 88.738281 441.011719 88.691406 441.011719 88.640625 441.011719 C 71.847656 441.011719 60.285156 445.066406 53.296875 453.410156 C 42.40625 466.417969 46.015625 486.484375 48.914062 502.613281 C 50.542969 511.664062 52.386719 521.925781 49.949219 524.871094 C 43.9375 532.128906 38.757812 531.199219 35.386719 529.871094 C 21.355469 524.339844 7.820312 496.445312 8.523438 484.589844 C 10.324219 454.152344 29.910156 439.660156 46.027344 432.859375 C 57.917969 427.839844 71.703125 425.453125 85.78125 425.453125 C 112.316406 425.453125 139.878906 433.949219 157.683594 449.351562 C 162.5625 453.574219 166.871094 458.507812 171.433594 463.730469 C 177.894531 471.128906 184.574219 478.78125 193.058594 484.273438 C 197.945312 487.441406 203.882812 490.671875 210.855469 490.671875 C 210.878906 490.671875 210.902344 490.671875 210.921875 490.671875 C 212.351562 490.667969 214.199219 490.289062 216.308594 489.75 C 218.25 497.523438 220.589844 505.105469 223.140625 512.550781 C 200.382812 525.214844 177.347656 503.414062 152.984375 480.355469 Z M 342.898438 26.988281 C 352.703125 16.636719 359.457031 11.933594 362.488281 10.523438 C 365.054688 18.238281 368.402344 45.238281 369.582031 59.589844 C 368.636719 58.875 367.675781 58.210938 366.707031 57.605469 C 356.46875 51.207031 342.535156 47.671875 327.378906 46.882812 C 329.515625 42.878906 334.664062 35.679688 342.898438 26.988281 Z M 542.46875 459.253906 C 539.296875 426.492188 522.109375 392.042969 505.488281 358.730469 L 503.464844 354.667969 C 482.921875 313.4375 461.347656 277.957031 437.5 246.195312 C 431.726562 238.503906 424.898438 230.859375 418.289062 223.46875 C 408.34375 212.335938 398.058594 200.828125 391.210938 188.976562 C 390.714844 188.121094 389.96875 187.5 389.113281 187.160156 C 394.421875 178.894531 398.152344 169.429688 400.199219 158.988281 C 403.339844 159.578125 406.671875 160.296875 410.417969 161.1875 C 424.96875 164.644531 439.46875 169.347656 453.488281 173.894531 L 458.023438 175.363281 C 458.457031 175.503906 458.898438 175.570312 459.332031 175.570312 C 461.125 175.570312 462.792969 174.425781 463.375 172.625 C 464.097656 170.390625 462.871094 167.996094 460.636719 167.273438 L 456.109375 165.808594 C 441.929688 161.210938 427.265625 156.453125 412.382812 152.917969 C 408.382812 151.964844 404.820312 151.203125 401.457031 150.574219 C 401.710938 148.152344 401.894531 145.683594 401.976562 143.171875 C 402.019531 141.941406 402.03125 140.707031 402.027344 139.46875 C 404.773438 139.113281 407.367188 138.859375 409.589844 138.660156 C 423.25 137.460938 438.339844 137.257812 455.726562 138.050781 C 455.792969 138.054688 455.855469 138.054688 455.921875 138.054688 C 458.179688 138.054688 460.058594 136.277344 460.164062 133.996094 C 460.269531 131.652344 458.457031 129.664062 456.113281 129.558594 C 438.34375 128.75 422.882812 128.957031 408.84375 130.195312 C 406.726562 130.382812 404.289062 130.617188 401.691406 130.945312 C 401.519531 128.726562 401.289062 126.507812 400.996094 124.292969 C 402.695312 123.695312 404.480469 123.082031 406.382812 122.4375 C 425.539062 115.980469 450.714844 108.386719 475.597656 106.988281 C 477.941406 106.859375 479.734375 104.851562 479.601562 102.507812 C 479.472656 100.164062 477.464844 98.355469 475.121094 98.503906 C 449.21875 99.957031 423.328125 107.753906 403.667969 114.386719 C 402.238281 114.867188 400.890625 115.328125 399.574219 115.785156 C 395.796875 97.046875 387.941406 79.402344 377.964844 67.644531 C 378.320312 66.996094 378.507812 66.25 378.480469 65.457031 C 378.273438 59.953125 376.800781 44.691406 375.007812 31.589844 C 373.949219 23.855469 372.898438 17.621094 371.878906 13.058594 C 370.269531 5.832031 368.765625 2.078125 365.019531 1.609375 C 357.910156 0.722656 346.027344 11.417969 337.296875 20.546875 C 334.445312 23.527344 320.96875 37.941406 318.246094 46.738281 C 309.390625 46.910156 300.300781 47.96875 291.429688 49.886719 C 291.078125 49.566406 290.667969 49.300781 290.207031 49.105469 C 278.824219 44.3125 268.382812 35.152344 258.28125 26.296875 C 253.257812 21.890625 248.0625 17.335938 242.867188 13.441406 C 242.449219 13.125 239.722656 10.871094 237.320312 8.878906 C 226.378906 -0.171875 226.378906 -0.171875 224.4375 0.0585938 C 223.28125 0.195312 222.230469 0.800781 221.535156 1.730469 C 211.132812 15.597656 209.800781 61.199219 209.707031 80.164062 C 209.683594 85.542969 210.617188 100.910156 211.519531 115.773438 C 212.214844 127.246094 212.875 138.082031 212.871094 141.046875 C 212.871094 143.523438 212.871094 146.058594 212.867188 148.636719 C 198.570312 152.707031 184.375 158.136719 171.800781 165.949219 C 169.804688 167.191406 169.191406 169.8125 170.433594 171.804688 C 171.238281 173.101562 172.625 173.8125 174.046875 173.8125 C 174.8125 173.8125 175.585938 173.605469 176.285156 173.171875 C 187.386719 166.269531 199.996094 161.3125 212.851562 157.507812 C 212.835938 163.796875 212.808594 170.296875 212.757812 176.90625 C 199.148438 183.667969 186.105469 191.472656 174.628906 200.992188 C 172.820312 202.492188 172.570312 205.171875 174.070312 206.976562 C 174.910156 207.988281 176.121094 208.511719 177.34375 208.511719 C 178.300781 208.511719 179.261719 208.191406 180.054688 207.535156 C 189.875 199.386719 200.988281 192.519531 212.667969 186.480469 C 212.605469 192.128906 212.523438 197.816406 212.417969 203.5 C 212.355469 206.859375 212.28125 210.226562 212.207031 213.597656 C 199.617188 224.761719 188.773438 235.980469 179.46875 247.476562 C 177.992188 249.300781 178.273438 251.976562 180.097656 253.453125 C 180.886719 254.089844 181.832031 254.402344 182.769531 254.402344 C 184.007812 254.402344 185.238281 253.863281 186.078125 252.824219 C 193.597656 243.53125 202.171875 234.410156 211.917969 225.335938 C 211.347656 246.75 210.578125 268.230469 209.824219 289.179688 C 208.832031 316.722656 207.808594 345.203125 207.261719 373.242188 C 206.707031 401.421875 206.882812 438.464844 213.210938 475.148438 C 213.574219 477.265625 213.976562 479.371094 214.410156 481.460938 C 213.015625 481.820312 211.515625 482.171875 210.898438 482.171875 C 206.148438 482.144531 201.726562 479.761719 197.675781 477.140625 C 190.191406 472.292969 184.191406 465.417969 177.835938 458.140625 C 173.28125 452.925781 168.574219 447.535156 163.246094 442.921875 C 133.289062 417.011719 80.347656 409.152344 42.722656 425.027344 C 16.800781 435.964844 1.644531 456.9375 0.0390625 484.085938 C -0.855469 499.152344 14.425781 530.746094 32.269531 537.777344 C 41.03125 541.230469 49.636719 538.574219 56.492188 530.292969 C 61.453125 524.308594 59.613281 514.070312 57.28125 501.105469 C 54.558594 485.976562 51.472656 468.824219 59.816406 458.867188 C 65.015625 452.65625 74.710938 449.511719 88.648438 449.511719 C 88.691406 449.511719 88.734375 449.511719 88.777344 449.511719 C 108.058594 449.539062 127.925781 468.34375 147.140625 486.527344 C 172.320312 510.359375 198.328125 534.976562 226.007812 520.660156 C 228.507812 527.511719 231.125 534.25 233.71875 540.921875 C 239.617188 556.097656 245.714844 571.792969 249.984375 587.886719 C 250.425781 589.625 249.414062 596.980469 248.808594 601.378906 C 247.246094 612.753906 246.832031 616.8125 249.308594 619.289062 C 251.398438 621.378906 254.667969 622.121094 258.253906 622.121094 C 266.90625 622.117188 277.398438 617.804688 277.546875 617.742188 C 296.410156 609.882812 292.695312 574.207031 290.472656 552.890625 C 290.238281 550.636719 290.023438 548.566406 289.859375 546.757812 C 291.214844 548.972656 292.320312 550.742188 292.613281 551.164062 C 307.992188 573.515625 322.558594 587.75 337.148438 594.679688 C 338.015625 595.089844 338.949219 595.183594 339.820312 595.003906 C 339.476562 595.90625 339.117188 596.808594 338.742188 597.707031 C 338.644531 597.921875 338.414062 598.359375 338.128906 598.914062 C 335.214844 604.546875 333.886719 607.117188 335.4375 609.707031 C 336.714844 611.839844 340.609375 618.324219 374.207031 613.742188 C 381.320312 612.773438 390.566406 610.460938 394.238281 604.949219 C 398.65625 598.324219 403.824219 559.996094 406.777344 533.289062 C 409.167969 541.542969 411.988281 550.066406 415.242188 558.851562 C 416.328125 561.785156 410.074219 573.828125 406.71875 580.296875 C 400.269531 592.71875 396.75 599.980469 399.332031 604.785156 C 400.375 606.722656 402.253906 607.925781 404.617188 608.175781 C 439.46875 611.839844 446.605469 604.050781 463.867188 585.230469 C 466.242188 582.644531 468.933594 579.707031 471.90625 576.582031 C 473.140625 575.28125 474.929688 573.671875 476.824219 571.96875 C 482.816406 566.585938 489.609375 560.484375 491.449219 553.863281 C 491.667969 553.070312 491.863281 552.273438 492.039062 551.472656 C 492.800781 551.449219 493.566406 551.222656 494.25 550.773438 C 530.355469 526.972656 546.125 497.039062 542.46875 459.253906" fill="#5158b0"/></g><g id="change2_2"><path d="M 321.539062 111.246094 C 320.179688 108.53125 300.835938 108.027344 299.628906 116.929688 C 299.3125 119.261719 300.535156 121.347656 302.546875 122.46875 C 303.660156 123.089844 305.050781 123.476562 306.539062 123.339844 C 322.5 121.863281 322.933594 114.03125 321.539062 111.246094" fill="#5158b0"/></g><g id="change2_3"><path d="M 357.054688 109.507812 C 358.960938 110.738281 361.859375 111.246094 364.777344 111.246094 C 368.550781 111.246094 372.363281 110.398438 374.105469 109.171875 C 376.023438 107.816406 376.484375 105.167969 375.132812 103.246094 C 374.953125 102.992188 374.75 102.765625 374.53125 102.5625 C 373.855469 101.515625 372.542969 100.371094 370.027344 99.488281 C 368.5625 98.980469 361.039062 96.566406 356.949219 98.917969 C 355.460938 99.773438 354.464844 101.152344 354.144531 102.796875 C 353.625 105.476562 354.710938 107.988281 357.054688 109.507812" fill="#5158b0"/></g><g id="change2_4"><path d="M 348.96875 154.914062 C 348.007812 154.546875 345.957031 153.5 344.707031 152.710938 C 344.683594 152.644531 344.660156 152.578125 344.632812 152.515625 C 344.554688 152.324219 344.46875 152.144531 344.367188 151.972656 C 346.203125 149.503906 347.914062 146.855469 349.480469 144.070312 C 351.277344 146.328125 353.53125 148.609375 356.34375 150.621094 C 354.640625 153.035156 351.605469 154.898438 348.96875 154.914062 Z M 363.859375 154.65625 C 368.578125 156.464844 374.304688 157.476562 381.226562 157.105469 C 383.570312 156.980469 385.371094 154.980469 385.246094 152.636719 C 385.117188 150.289062 383.09375 148.5 380.773438 148.617188 C 367.65625 149.320312 358.289062 144.351562 352.972656 133.84375 C 352.53125 132.972656 351.832031 132.316406 351.015625 131.929688 C 350.164062 131.519531 348.855469 131.175781 347.464844 131.871094 C 347.398438 131.902344 347.328125 131.9375 347.261719 131.96875 C 346.488281 132.359375 345.886719 132.957031 345.488281 133.65625 C 345.191406 134.066406 344.894531 134.546875 344.609375 135.109375 C 343.992188 136.335938 343.347656 137.554688 342.699219 138.765625 C 340.761719 142.363281 338.566406 145.703125 336.164062 148.691406 C 329.328125 157.203125 318.542969 162.640625 307.304688 163.226562 C 304.960938 163.351562 303.160156 165.351562 303.285156 167.691406 C 303.402344 169.960938 305.28125 171.722656 307.523438 171.722656 C 307.601562 171.722656 307.675781 171.71875 307.75 171.714844 C 319.210938 171.113281 330.308594 166.328125 338.5 158.644531 C 341.664062 161.4375 347.070312 163.324219 348.0625 163.386719 C 354.121094 163.765625 360.53125 160.019531 363.859375 154.65625" fill="#5158b0"/></g><g id="change3_1"><path d="M 357.703125 24.429688 C 351.539062 26.414062 337.425781 39.472656 342.078125 43.085938 C 345.023438 45.371094 359.226562 51.234375 362.730469 51.6875 C 366.53125 52.183594 361.660156 23.15625 357.703125 24.429688 Z M 242.824219 33.679688 C 240.949219 32.394531 235.3125 27.894531 233.054688 30.6875 C 228.148438 36.746094 228.113281 68.746094 234.578125 66.09375 C 239.019531 64.265625 261.3125 57.847656 261.3125 55.105469 C 261.3125 48.734375 247.394531 36.808594 242.824219 33.679688 Z M 350 131.832031 C 342.179688 132.480469 337.257812 125.902344 338.347656 122.84375 C 339.5 119.613281 351.035156 117.320312 355.335938 119.863281 C 359.300781 122.207031 354.335938 131.472656 350 131.832031" fill="#e984c8" fill-rule="evenodd"/></g></g></svg>