<?xml version="1.0" encoding="UTF-8"?><svg xmlns="http://www.w3.org/2000/svg" xmlns:xlink="http://www.w3.org/1999/xlink" height="632.8" preserveAspectRatio="xMidYMid meet" version="1.0" viewBox="0.0 0.0 855.5 632.8" width="855.5" zoomAndPan="magnify"><defs><clipPath id="a"><path d="M 0 0 L 855.519531 0 L 855.519531 632.839844 L 0 632.839844 Z M 0 0"/></clipPath></defs><g><g clip-path="url(#a)" id="change1_1"><path d="M 156.664062 388.667969 C 142.898438 405.011719 128.285156 422.679688 114.695312 441.125 C 113.863281 442.257812 112.574219 442.855469 111.273438 442.855469 C 110.394531 442.855469 109.511719 442.585938 108.753906 442.027344 C 106.863281 440.632812 106.460938 437.972656 107.851562 436.085938 C 121.585938 417.441406 136.304688 399.644531 150.164062 383.191406 C 151.679688 381.394531 154.359375 381.167969 156.152344 382.679688 C 157.949219 384.191406 158.179688 386.871094 156.664062 388.667969 Z M 177.3125 380.910156 C 178.007812 382.058594 178.3125 383.929688 177.09375 385.636719 C 176.648438 386.699219 176.230469 387.796875 175.789062 388.949219 C 175.539062 389.601562 175.289062 390.253906 175.035156 390.902344 C 173.128906 395.753906 171.140625 400.664062 169.265625 405.277344 C 162.738281 421.363281 157.808594 433.832031 153.28125 445.699219 C 152.636719 447.394531 151.023438 448.4375 149.3125 448.4375 C 148.808594 448.4375 148.296875 448.347656 147.796875 448.15625 C 145.605469 447.320312 144.503906 444.863281 145.339844 442.671875 C 149.890625 430.746094 154.839844 418.226562 161.390625 402.082031 C 163.253906 397.488281 165.234375 392.601562 167.125 387.789062 C 167.371094 387.167969 167.609375 386.539062 167.847656 385.914062 C 168.363281 384.566406 168.898438 383.175781 169.492188 381.789062 C 169.65625 381.410156 169.847656 381.105469 170.023438 380.871094 C 170.578125 379.96875 171.472656 379.273438 172.582031 378.988281 C 174.398438 378.515625 176.34375 379.300781 177.3125 380.910156 Z M 222.128906 339.132812 C 222.195312 337.652344 222.226562 336.207031 222.226562 334.824219 C 223.308594 334.921875 224.53125 334.980469 225.835938 335.011719 C 224.71875 336.242188 223.480469 337.617188 222.128906 339.132812 Z M 239.4375 326.460938 C 238.097656 326.445312 236.386719 326.46875 234.398438 326.496094 C 230.308594 326.550781 224.714844 326.632812 222.046875 326.257812 C 221.503906 326.179688 220.523438 326.003906 219.902344 325.859375 C 217.925781 324.605469 215.304688 325.1875 214.042969 327.160156 C 213.332031 328.273438 213.179688 329.699219 213.617188 330.941406 C 214.066406 338.0625 213.1875 349.636719 210.941406 356.371094 C 210.195312 358.597656 211.398438 361.007812 213.628906 361.746094 C 214.074219 361.898438 214.527344 361.96875 214.972656 361.96875 C 216.75 361.96875 218.410156 360.84375 219.003906 359.0625 C 219.582031 357.324219 220.082031 355.347656 220.503906 353.230469 C 221.394531 352.636719 222.214844 351.738281 223.128906 350.742188 C 224.175781 349.601562 225.585938 348.019531 227.132812 346.289062 C 230.261719 342.78125 236.089844 336.253906 237.378906 335.269531 C 237.507812 335.171875 237.632812 335.066406 237.746094 334.957031 C 238.332031 334.953125 238.863281 334.953125 239.324219 334.960938 C 241.667969 334.960938 243.597656 333.117188 243.632812 330.769531 C 243.664062 328.421875 241.785156 326.492188 239.4375 326.460938 Z M 211.121094 297.265625 C 210.089844 294.519531 219.875 284.953125 225.558594 288.25 C 231.289062 291.574219 213.1875 302.757812 211.121094 297.265625 Z M 165.285156 334.585938 C 160.988281 330.441406 173.109375 317.195312 179.179688 320.191406 C 184.242188 322.691406 169.933594 339.074219 165.285156 334.585938 Z M 784.054688 308.085938 C 789.203125 320.46875 785.988281 331.691406 781.414062 339.882812 C 768.429688 363.132812 735.960938 379.40625 707.761719 378.652344 C 709.136719 373.722656 712.21875 365.753906 714.820312 363.261719 C 718.507812 359.742188 725.417969 355.957031 733.421875 351.578125 C 750.554688 342.195312 773.710938 329.523438 784.054688 308.085938 Z M 719.820312 437.363281 C 719.566406 437.378906 719.316406 437.414062 719.078125 437.472656 C 706.128906 436.527344 695.386719 433.621094 689.679688 426.484375 C 688.21875 424.65625 685.542969 424.355469 683.707031 425.824219 C 681.875 427.289062 681.578125 429.964844 683.046875 431.796875 C 696.472656 448.582031 725.730469 447.054688 756.710938 445.441406 C 784.148438 444.011719 812.519531 442.535156 825.695312 455.109375 C 829.449219 458.695312 831.078125 465.632812 830.53125 475.726562 C 828.492188 513.429688 787.179688 528.839844 750.726562 542.4375 C 739.898438 546.476562 729.671875 550.292969 721.066406 554.492188 C 709.789062 560.003906 698.453125 566.105469 687.488281 572.011719 C 661.804688 585.84375 635.242188 600.152344 607.226562 607.980469 C 536.609375 627.71875 457.097656 629.632812 377.28125 613.519531 C 350.722656 608.15625 324.691406 600.972656 300.515625 594.003906 C 297.914062 593.253906 294.953125 592.367188 291.808594 591.421875 C 319.109375 588.582031 346.179688 577.171875 372.652344 557.285156 C 412.503906 527.34375 441.300781 482.601562 464.214844 442.785156 C 464.882812 441.628906 465.613281 440.421875 466.371094 439.175781 C 470.019531 433.164062 474.160156 426.351562 474.808594 419.179688 C 475.429688 412.359375 472.640625 405.628906 466.957031 400.226562 C 460.105469 393.722656 449.933594 390.148438 441.628906 391.339844 C 410.933594 395.738281 384.605469 420.941406 359.140625 445.316406 C 334.617188 468.792969 311.453125 490.960938 289.359375 488.320312 C 287.023438 488.035156 284.914062 489.707031 284.636719 492.035156 C 284.355469 494.367188 286.019531 496.480469 288.347656 496.761719 C 289.925781 496.949219 291.492188 497.039062 293.058594 497.039062 C 317.398438 497.039062 340.574219 474.859375 365.019531 451.457031 C 389.511719 428.011719 414.839844 403.765625 442.832031 399.753906 C 448.609375 398.925781 456.117188 401.65625 461.101562 406.390625 C 463.28125 408.460938 466.859375 412.773438 466.34375 418.410156 C 465.871094 423.621094 462.277344 429.539062 459.105469 434.761719 C 458.3125 436.066406 457.546875 437.332031 456.847656 438.546875 C 434.363281 477.617188 406.171875 521.46875 367.546875 550.488281 C 297.148438 603.375 226.398438 593.503906 151.25 520.308594 C 125.742188 495.46875 101.851562 466.699219 80.238281 434.800781 C 79.039062 433.03125 77.167969 430.1875 74.820312 426.558594 C 92.304688 412.570312 112.734375 398.921875 139.5625 383.242188 C 141.328125 382.210938 143.449219 380.777344 145.691406 379.257812 C 151.460938 375.351562 160.175781 369.453125 165.191406 369.453125 C 165.203125 369.453125 165.222656 369.453125 165.238281 369.453125 C 167.574219 369.453125 169.476562 367.5625 169.488281 365.222656 C 169.496094 362.875 167.601562 360.964844 165.257812 360.953125 C 165.234375 360.953125 165.214844 360.953125 165.195312 360.953125 C 157.570312 360.953125 148.34375 367.199219 140.929688 372.21875 C 138.804688 373.65625 136.796875 375.015625 135.273438 375.90625 C 108.425781 391.59375 87.859375 405.316406 70.195312 419.375 C 53.335938 393.050781 23.210938 344.722656 15.984375 329.699219 C 15.25 328.175781 14.253906 326.507812 13.199219 324.742188 C 11.453125 321.828125 9.136719 317.953125 8.609375 315.28125 C 13.003906 313.402344 30.910156 314.34375 41.394531 316.097656 C 45.492188 316.78125 49.667969 317.542969 53.710938 318.277344 C 59.398438 319.3125 65.285156 320.382812 71.121094 321.277344 C 73.433594 321.632812 75.609375 320.035156 75.964844 317.71875 C 76.316406 315.402344 74.734375 313.242188 72.425781 312.878906 C 73.285156 310.792969 74.417969 308.339844 74.972656 307.28125 C 80.675781 296.492188 87.015625 287.585938 94.363281 280.050781 C 114.765625 259.121094 143.84375 247.828125 176.210938 248.1875 C 197.488281 248.4375 214.964844 253.347656 228.152344 262.777344 C 234.09375 267.03125 239.132812 272.265625 244.46875 277.804688 C 246.144531 279.550781 247.859375 281.3125 249.605469 283.0625 C 248.144531 285.296875 246.710938 287.570312 245.359375 289.894531 C 243.867188 292.453125 242.175781 295.355469 241.273438 298.648438 C 240.335938 301.996094 242.675781 303.558594 243.15625 303.839844 C 243.820312 304.226562 244.554688 304.414062 245.289062 304.414062 C 246.40625 304.414062 247.515625 303.980469 248.339844 303.152344 C 249.050781 302.4375 249.457031 301.535156 249.554688 300.605469 C 250.183594 298.5 251.464844 296.300781 252.703125 294.171875 C 253.714844 292.433594 254.796875 290.707031 255.902344 288.988281 C 256.40625 289.433594 256.902344 289.890625 257.417969 290.320312 C 259.460938 292.035156 261.558594 293.5 263.652344 294.851562 C 262.816406 295.726562 261.992188 296.59375 261.183594 297.453125 L 260.714844 297.953125 C 259.449219 299.296875 258.140625 300.6875 256.890625 302.171875 L 256.695312 302.398438 C 255.585938 303.695312 253.277344 306.390625 255.582031 309.234375 C 256.421875 310.269531 257.632812 310.816406 258.886719 310.816406 C 259.617188 310.816406 260.367188 310.632812 261.0625 310.25 C 261.9375 309.769531 262.578125 309.027344 262.9375 308.175781 C 263.011719 308.089844 263.085938 308.003906 263.152344 307.929688 L 263.398438 307.640625 C 264.492188 306.339844 265.660156 305.097656 266.902344 303.777344 L 267.378906 303.273438 C 268.570312 302.003906 269.816406 300.707031 271.078125 299.402344 C 272.773438 300.441406 274.390625 301.484375 275.902344 302.605469 C 274.972656 303.269531 274.035156 303.929688 273.109375 304.597656 C 272.808594 304.816406 271.933594 305.273438 271.296875 305.609375 C 268.453125 307.097656 265.515625 308.632812 265.605469 311.960938 C 265.65625 313.804688 266.757812 315.390625 268.550781 316.207031 C 269.121094 316.464844 269.71875 316.589844 270.308594 316.589844 C 271.921875 316.589844 273.46875 315.664062 274.179688 314.097656 C 274.253906 313.933594 274.316406 313.765625 274.367188 313.597656 C 274.679688 313.433594 274.988281 313.269531 275.234375 313.140625 C 276.292969 312.589844 277.289062 312.066406 278.089844 311.488281 C 279.394531 310.546875 280.71875 309.605469 282.042969 308.667969 C 283.15625 310.238281 284.105469 312.007812 284.855469 314.0625 C 290.492188 329.523438 286.894531 349.496094 274.152344 373.433594 C 273.050781 375.507812 273.835938 378.078125 275.90625 379.183594 C 277.980469 380.285156 280.554688 379.5 281.65625 377.425781 C 289.03125 363.570312 293.554688 350.796875 295.214844 339.199219 C 295.570312 339.023438 295.910156 338.792969 296.21875 338.507812 C 297.027344 337.761719 298.15625 336.664062 299.429688 335.425781 C 302.222656 332.703125 306.046875 328.980469 307.898438 327.675781 C 316.34375 321.722656 325.476562 316.277344 335.046875 311.488281 C 365.726562 296.140625 395.949219 287.058594 424.875 284.5 C 443.421875 282.855469 489.941406 281.886719 521.359375 308.277344 C 531.539062 316.828125 536.890625 329.277344 534.996094 339.992188 C 533.457031 348.695312 527.386719 355.203125 517.445312 358.816406 C 502.375 364.292969 485.929688 357.886719 470.023438 351.691406 C 463.179688 349.023438 456.097656 346.265625 449.289062 344.550781 C 418.632812 336.835938 383.671875 336.253906 350.851562 342.910156 C 348.550781 343.375 347.0625 345.617188 347.53125 347.917969 C 347.996094 350.21875 350.242188 351.707031 352.539062 351.238281 C 384.140625 344.832031 417.761719 345.382812 447.21875 352.796875 C 453.507812 354.378906 460.03125 356.921875 466.9375 359.609375 C 484.308594 366.378906 502.269531 373.375 520.347656 366.804688 C 533.125 362.164062 541.296875 353.167969 543.367188 341.472656 C 545.78125 327.824219 539.289062 312.238281 526.824219 301.769531 C 525.832031 300.933594 524.820312 300.121094 523.800781 299.339844 C 526.335938 299.441406 528.878906 299.550781 531.425781 299.65625 C 572.460938 301.378906 614.894531 303.160156 655.484375 297.226562 C 666.476562 295.621094 678.738281 292.667969 691.722656 289.542969 C 714.246094 284.121094 737.527344 278.515625 756.550781 279.359375 C 756.6875 279.363281 756.816406 279.363281 756.949219 279.359375 C 762.394531 283.003906 767.644531 287.183594 772.660156 292.058594 C 775.253906 294.578125 777.421875 297.085938 779.214844 299.5625 C 778.546875 300.019531 778.003906 300.675781 777.679688 301.484375 C 769.394531 322.195312 747.1875 334.351562 729.34375 344.121094 C 720.808594 348.789062 713.441406 352.824219 708.949219 357.117188 C 703.613281 362.21875 699.941406 375.027344 699.542969 376.472656 C 699.410156 376.945312 699.363281 377.425781 699.394531 377.886719 C 697.703125 377.621094 696.035156 377.277344 694.398438 376.867188 C 692.125 376.292969 689.8125 377.671875 689.238281 379.945312 C 688.664062 382.222656 690.042969 384.53125 692.316406 385.105469 C 709.070312 389.339844 728.710938 387.121094 747.628906 378.867188 C 765.902344 370.890625 780.925781 358.191406 788.835938 344.027344 C 800.0625 323.925781 796.421875 303.304688 778.585938 285.964844 C 754.789062 262.832031 726.984375 254.671875 697.542969 246.03125 C 688.347656 243.332031 678.839844 240.542969 669.410156 237.25 C 610.152344 216.570312 563.0625 161.179688 554.898438 102.554688 C 550.59375 71.621094 561.523438 45.335938 586.515625 26.539062 C 606.34375 11.628906 655.179688 0.320312 679.445312 15.855469 C 690.535156 22.953125 694.328125 35.023438 690.714844 51.730469 C 689.460938 57.546875 676.414062 63.226562 663.800781 68.71875 C 643.613281 77.507812 618.488281 88.445312 612.269531 110.089844 C 608.1875 124.285156 612.671875 140.632812 625.976562 160.0625 C 651.34375 197.109375 692.984375 207.503906 733.253906 217.554688 C 780.855469 229.4375 825.816406 240.660156 843.070312 293.757812 C 856.121094 333.910156 834.828125 384.324219 795.609375 406.140625 C 792.039062 408.125 788.289062 410.601562 784.316406 413.21875 C 769.28125 423.136719 750.574219 435.476562 719.820312 437.363281 Z M 135.324219 212.828125 C 137.089844 213.4375 140.703125 215.90625 141.976562 216.773438 C 142.902344 217.40625 143.636719 217.90625 144.222656 218.246094 C 154.191406 224 160.492188 230.246094 167.789062 237.480469 C 168.546875 238.230469 169.308594 238.988281 170.085938 239.753906 C 151.117188 240.359375 133.316406 244.792969 117.65625 252.671875 C 121.984375 239.359375 130.984375 216.503906 135.324219 212.828125 Z M 799.738281 413.570312 C 820.09375 402.246094 836.710938 383.621094 846.523438 361.117188 C 856.640625 337.925781 858.285156 313.070312 851.15625 291.128906 C 832.445312 233.554688 783.066406 221.226562 735.3125 209.308594 C 696.582031 199.640625 656.53125 189.644531 632.988281 155.257812 C 621.371094 138.289062 617.148438 123.882812 620.4375 112.4375 C 625.554688 94.640625 647.675781 85.011719 667.191406 76.511719 C 683.761719 69.296875 696.847656 63.601562 699.023438 53.527344 C 704.554688 27.949219 693.925781 15.027344 684.03125 8.695312 C 656.476562 -8.945312 603.601562 3.050781 581.40625 19.746094 C 553.800781 40.511719 541.722656 69.550781 546.480469 103.726562 C 550.789062 134.6875 564.953125 164.777344 587.433594 190.746094 C 608.953125 215.601562 637.074219 234.96875 666.609375 245.277344 C 676.242188 248.636719 685.851562 251.457031 695.148438 254.1875 C 711.765625 259.0625 727.839844 263.777344 742.78125 271.191406 C 726.011719 272.546875 707.632812 276.96875 689.734375 281.28125 C 676.945312 284.359375 664.863281 287.265625 654.257812 288.816406 C 614.453125 294.632812 572.429688 292.871094 531.78125 291.164062 C 527.472656 290.984375 523.179688 290.800781 518.960938 290.632812 C 518.746094 290.617188 518.378906 290.566406 517.921875 290.507812 C 514.445312 290.0625 511.847656 289.796875 509.925781 290.441406 C 478.246094 273.652344 440.652344 274.570312 424.128906 276.03125 C 394.132812 278.6875 362.882812 288.058594 331.242188 303.886719 C 321.296875 308.863281 311.796875 314.53125 303.003906 320.726562 C 301.160156 322.023438 298.515625 324.484375 295.882812 327.019531 C 295.660156 321.394531 294.644531 316.097656 292.839844 311.148438 C 291.804688 308.3125 290.496094 305.890625 289 303.769531 L 290.777344 302.523438 C 300.875 295.425781 312.019531 287.9375 324.847656 279.621094 C 326.820312 278.347656 327.382812 275.714844 326.105469 273.746094 C 324.828125 271.773438 322.195312 271.214844 320.226562 272.488281 C 307.308594 280.859375 296.074219 288.410156 285.890625 295.566406 L 283.148438 297.492188 C 281.253906 295.902344 279.242188 294.507812 277.195312 293.199219 C 277.554688 292.84375 277.910156 292.484375 278.273438 292.125 C 289.695312 280.84375 300.441406 270.847656 311.132812 261.566406 C 312.90625 260.027344 313.09375 257.34375 311.554688 255.570312 C 310.015625 253.800781 307.335938 253.609375 305.558594 255.148438 C 294.730469 264.550781 283.851562 274.664062 272.300781 286.078125 C 271.433594 286.933594 270.578125 287.785156 269.734375 288.636719 C 267.375 287.171875 265.03125 285.613281 262.878906 283.808594 C 262.113281 283.167969 261.378906 282.5 260.636719 281.835938 C 260.675781 281.785156 260.710938 281.730469 260.746094 281.679688 L 261.234375 280.953125 C 270.550781 267.144531 280.667969 253.539062 290.449219 240.382812 L 290.878906 239.8125 C 292.277344 237.929688 291.886719 235.265625 290.003906 233.863281 C 288.117188 232.464844 285.457031 232.855469 284.054688 234.738281 L 283.632812 235.3125 C 273.871094 248.4375 263.785156 262.003906 254.425781 275.855469 C 253.15625 274.5625 251.882812 273.253906 250.59375 271.910156 C 245.226562 266.335938 239.675781 260.570312 233.097656 255.863281 C 219.804688 246.355469 202.808594 240.996094 182.515625 239.890625 C 182.449219 239.820312 182.382812 239.753906 182.308594 239.6875 C 179.238281 236.859375 176.460938 234.109375 173.773438 231.445312 C 166.378906 224.113281 159.394531 217.191406 148.46875 210.882812 C 148.164062 210.707031 147.453125 210.222656 146.765625 209.753906 C 141.058594 205.855469 136.382812 203.007812 132.4375 204.6875 C 129.476562 205.949219 125.058594 209.914062 117.089844 229.546875 C 112.707031 240.339844 108.949219 251.761719 107.914062 255.480469 C 107.660156 256.382812 107.71875 257.304688 108.027344 258.121094 C 100.847656 262.664062 94.226562 268.011719 88.277344 274.113281 C 80.355469 282.242188 73.542969 291.792969 67.457031 303.3125 C 65.636719 306.761719 64.492188 309.40625 63.804688 311.453125 C 60.925781 310.953125 58.054688 310.429688 55.230469 309.914062 C 51.160156 309.175781 46.953125 308.410156 42.792969 307.714844 C 42.46875 307.660156 10.335938 302.378906 2.449219 309.1875 C 0.832031 310.585938 -0.0390625 312.472656 0 314.503906 C 0.09375 319.398438 3.179688 324.554688 5.902344 329.105469 C 6.855469 330.699219 7.757812 332.207031 8.324219 333.382812 C 15.734375 348.796875 46.660156 398.398438 63.566406 424.777344 C 62.605469 425.578125 61.648438 426.378906 60.707031 427.183594 C 58.921875 428.710938 58.710938 431.390625 60.234375 433.175781 C 61.074219 434.160156 62.269531 434.667969 63.46875 434.667969 C 64.445312 434.667969 65.425781 434.335938 66.226562 433.648438 C 66.878906 433.09375 67.546875 432.539062 68.207031 431.984375 C 70.359375 435.300781 72.070312 437.902344 73.199219 439.570312 C 95.140625 471.945312 119.402344 501.160156 145.316406 526.398438 C 181.566406 561.703125 217.894531 583.015625 253.300781 589.75 C 255.035156 590.078125 256.773438 590.375 258.507812 590.636719 C 258.835938 590.816406 259.195312 590.957031 259.574219 591.046875 C 267.003906 592.804688 277.335938 595.925781 286.449219 598.679688 C 290.703125 599.964844 294.722656 601.179688 298.160156 602.171875 C 322.507812 609.1875 348.742188 616.429688 375.601562 621.851562 C 411.914062 629.183594 448.167969 632.839844 483.601562 632.839844 C 527.328125 632.839844 569.796875 627.269531 609.511719 616.167969 C 638.441406 608.082031 665.425781 593.550781 691.519531 579.496094 C 702.410156 573.632812 713.671875 567.566406 724.796875 562.132812 C 733.03125 558.109375 743.070312 554.367188 753.699219 550.402344 C 790.671875 536.609375 836.679688 519.449219 839.019531 476.183594 C 839.714844 463.320312 837.277344 454.414062 831.5625 448.960938 C 816.355469 434.445312 787.847656 435.332031 759.703125 436.777344 C 771.664062 431.75 781.097656 425.527344 788.996094 420.316406 C 792.828125 417.785156 796.449219 415.398438 799.738281 413.570312" fill="#6064b8"/></g><g id="change2_1"><path d="M 138.910156 222.203125 C 134.769531 222.902344 129.960938 240.636719 134.023438 241.65625 C 138.675781 242.824219 158.058594 240.714844 158.875 237.472656 C 159.6875 234.230469 143.054688 221.507812 138.910156 222.203125 Z M 33.679688 331.257812 C 31.089844 335.25 44.933594 355.066406 50.296875 355.039062 C 55.65625 355.015625 68.613281 335.058594 65.847656 331.09375 C 63.078125 327.132812 36.273438 327.269531 33.679688 331.257812 Z M 208.523438 327.007812 C 206.789062 329.101562 195.492188 327.511719 195.292969 325.40625 C 195.09375 323.300781 203.859375 313.738281 207.324219 314.378906 C 209.507812 314.777344 210.960938 324.058594 208.523438 327.007812" fill="#e6a8d2" fill-rule="evenodd"/></g></g></svg>