<?xml version="1.0" encoding="UTF-8"?><svg xmlns="http://www.w3.org/2000/svg" xmlns:xlink="http://www.w3.org/1999/xlink" height="682.9" preserveAspectRatio="xMidYMid meet" version="1.0" viewBox="0.0 -0.1 679.0 682.9" width="679.0" zoomAndPan="magnify"><defs><clipPath id="a"><path d="M 0 14 L 678.980469 14 L 678.980469 647 L 0 647 Z M 0 14"/></clipPath><clipPath id="b"><path d="M 79 381 L 395 381 L 395 682.871094 L 79 682.871094 Z M 79 381"/></clipPath></defs><g><g id="change1_1"><path d="M 373.078125 218.671875 C 373.078125 220.070312 371.878906 221.207031 370.402344 221.207031 C 368.925781 221.207031 367.726562 220.070312 367.726562 218.671875 C 367.726562 217.273438 368.925781 216.136719 370.402344 216.136719 C 371.878906 216.136719 373.078125 217.273438 373.078125 218.671875 Z M 362.941406 205.59375 C 362.941406 207 361.820312 208.144531 360.441406 208.144531 C 359.0625 208.144531 357.941406 207 357.941406 205.59375 C 357.941406 204.1875 359.0625 203.042969 360.441406 203.042969 C 361.820312 203.042969 362.941406 204.1875 362.941406 205.59375 Z M 354.953125 193.167969 C 354.980469 194.667969 353.777344 195.902344 352.277344 195.925781 C 350.773438 195.953125 349.53125 194.753906 349.507812 193.257812 C 349.484375 191.761719 350.683594 190.523438 352.1875 190.5 C 353.691406 190.476562 354.929688 191.671875 354.953125 193.167969 Z M 347.078125 180.019531 C 347.078125 181.597656 345.867188 182.878906 344.378906 182.878906 C 342.890625 182.878906 341.683594 181.597656 341.683594 180.019531 C 341.683594 178.441406 342.890625 177.15625 344.378906 177.15625 C 345.867188 177.15625 347.078125 178.441406 347.078125 180.019531 Z M 347.964844 148.34375 C 347.09375 152.539062 343.71875 162.296875 331.183594 162.3125 L 331.152344 166.5625 L 331.152344 162.3125 C 324.050781 162.3125 317.042969 159.121094 313.296875 154.175781 C 310.175781 150.0625 309.414062 145.058594 311.027344 139.300781 C 313.996094 128.710938 319.617188 123.5625 328.210938 123.5625 C 332.96875 123.5625 337.15625 125.15625 338.734375 125.84375 C 346.714844 129.308594 349.691406 140.003906 347.964844 148.34375 Z M 342.121094 118.046875 C 340.054688 117.148438 334.5625 115.0625 328.210938 115.0625 C 321.035156 115.0625 308.195312 117.910156 302.84375 137.007812 C 299.890625 147.535156 303.214844 154.949219 306.523438 159.3125 C 311.902344 166.40625 321.339844 170.8125 331.152344 170.8125 C 331.152344 170.8125 331.191406 170.8125 331.191406 170.8125 C 344.023438 170.796875 353.640625 162.847656 356.285156 150.070312 C 358.671875 138.5625 354.515625 123.429688 342.121094 118.046875" fill="#f7972d" fill-rule="evenodd"/></g><g clip-path="url(#a)" id="change2_1"><path d="M 667.066406 253.179688 C 645.835938 229.394531 593.246094 246.769531 572.828125 263.789062 C 545.996094 286.152344 535.398438 316.605469 524.175781 348.839844 C 519.058594 363.535156 513.769531 378.730469 506.816406 393.027344 C 502.785156 401.308594 486.433594 430.511719 464.867188 455.203125 C 439.585938 484.160156 417.074219 495.839844 397.863281 489.988281 C 397.480469 493.160156 397.074219 496.320312 396.652344 499.46875 C 417.046875 504.40625 441.199219 486.484375 457.203125 474.617188 C 492.308594 448.574219 515.734375 410.324219 534.019531 376.34375 C 536.351562 372.007812 538.675781 367.53125 540.925781 363.203125 C 548.429688 348.75 556.191406 333.800781 566.132812 320.382812 C 588.539062 290.136719 604.476562 289.507812 621.347656 288.84375 C 631.515625 288.441406 642.027344 288.03125 655.617188 281.042969 C 663.066406 277.21875 669.085938 270.136719 670.257812 263.824219 C 670.988281 259.886719 669.945312 256.402344 667.066406 253.179688 Z M 393.421875 376.0625 C 393.230469 376.179688 393.027344 376.28125 392.816406 376.367188 C 393.03125 376.28125 393.234375 376.175781 393.421875 376.0625 Z M 376.574219 199.96875 C 376.617188 200.226562 376.644531 200.488281 376.640625 200.757812 C 376.648438 200.484375 376.617188 200.222656 376.574219 199.96875 Z M 376.566406 199.882812 C 376.519531 199.625 376.441406 199.382812 376.347656 199.144531 C 376.441406 199.382812 376.519531 199.628906 376.566406 199.882812 Z M 376.320312 199.054688 C 376.210938 198.785156 376.074219 198.535156 375.917969 198.300781 C 376.074219 198.535156 376.210938 198.789062 376.320312 199.054688 Z M 375.738281 198.054688 C 375.296875 197.488281 374.730469 197.050781 374.125 196.792969 C 374.769531 197.078125 375.320312 197.519531 375.738281 198.054688 Z M 239.386719 140.046875 C 239.636719 139.9375 239.890625 139.847656 240.144531 139.785156 C 239.894531 139.847656 239.640625 139.933594 239.386719 140.046875 Z M 228.6875 153.640625 C 228.691406 153.308594 228.738281 152.972656 228.824219 152.636719 C 228.734375 152.980469 228.691406 153.316406 228.6875 153.640625 Z M 678.613281 265.375 C 676.582031 276.316406 667.050781 284.726562 659.507812 288.605469 C 644.242188 296.449219 632.257812 296.921875 621.683594 297.335938 C 605.628906 297.96875 592.945312 298.46875 572.964844 325.441406 C 563.425781 338.320312 555.820312 352.960938 548.46875 367.121094 C 546.207031 371.476562 543.867188 375.980469 541.503906 380.371094 C 522.773438 415.179688 498.714844 454.40625 462.265625 481.441406 C 445.183594 494.113281 419.488281 513.171875 395.472656 507.921875 C 394.964844 511.453125 394.4375 514.96875 393.902344 518.457031 C 393.582031 520.558594 391.769531 522.066406 389.707031 522.066406 C 389.492188 522.066406 389.277344 522.046875 389.058594 522.015625 C 386.738281 521.660156 385.144531 519.488281 385.5 517.171875 C 390.277344 486.003906 394.375 452.835938 392.050781 421.429688 C 390.90625 405.957031 389.609375 393.046875 387.984375 381.023438 C 379.425781 391.042969 368.125 398.800781 354.480469 403.917969 C 346.339844 406.96875 339.542969 407.941406 332.347656 408.96875 C 328.710938 409.488281 324.953125 410.027344 320.871094 410.867188 C 318.570312 411.34375 316.324219 409.855469 315.851562 407.558594 C 315.382812 405.257812 316.863281 403.011719 319.160156 402.539062 C 323.496094 401.648438 327.382812 401.09375 331.144531 400.554688 C 338.160156 399.550781 344.222656 398.683594 351.496094 395.957031 C 389.960938 381.539062 406.1875 344.789062 394.90625 297.648438 C 389.824219 276.425781 380.796875 256.910156 373.433594 242.199219 C 372.074219 242.640625 370.679688 243.066406 369.238281 243.464844 C 368.859375 243.566406 368.480469 243.617188 368.105469 243.617188 C 366.238281 243.617188 364.53125 242.382812 364.011719 240.496094 C 363.386719 238.234375 364.714844 235.894531 366.976562 235.269531 C 381.992188 231.128906 391.152344 224.796875 396.59375 216.242188 C 395.785156 215.78125 394.972656 215.328125 394.15625 214.882812 C 389.039062 212.09375 383.683594 209.664062 379.125 207.652344 C 377.070312 206.746094 375.21875 205.949219 373.320312 205.347656 L 373.011719 205.265625 C 371.296875 204.816406 367.285156 203.757812 368.257812 199.683594 C 368.804688 197.402344 371.101562 195.996094 373.378906 196.539062 C 373.570312 196.585938 373.757812 196.644531 373.9375 196.714844 C 374.253906 196.804688 374.804688 196.949219 375.175781 197.046875 C 375.527344 197.140625 375.78125 197.210938 375.828125 197.226562 C 378.132812 197.949219 380.324219 198.894531 382.550781 199.875 C 387.273438 201.957031 392.832031 204.480469 398.222656 207.417969 C 398.921875 207.800781 399.613281 208.191406 400.308594 208.582031 C 401.859375 204.28125 402.816406 199.554688 403.339844 194.386719 C 396.652344 192.800781 390.019531 191.484375 383.34375 190.421875 C 382.128906 190.230469 380.773438 189.910156 379.34375 189.574219 C 376.820312 188.984375 373.371094 188.179688 371.6875 188.460938 C 369.375 188.863281 367.179688 187.296875 366.785156 184.984375 C 366.390625 182.671875 367.945312 180.476562 370.261719 180.082031 C 373.636719 179.507812 377.699219 180.460938 381.285156 181.300781 C 382.5625 181.601562 383.765625 181.882812 384.679688 182.027344 C 391.085938 183.046875 397.445312 184.289062 403.84375 185.769531 C 403.957031 180.753906 403.808594 175.386719 403.523438 169.671875 C 399.511719 170.097656 395.480469 170.625 391.429688 171.25 C 383.480469 172.476562 377.160156 173.75 371.539062 175.257812 C 370.929688 175.421875 370.261719 175.582031 369.5625 175.75 C 367.773438 176.175781 365.390625 176.742188 364.09375 177.542969 C 363.265625 178.632812 362.011719 179.25 360.699219 179.25 C 360.203125 179.25 359.695312 179.160156 359.199219 178.972656 C 357.121094 178.1875 356.003906 175.90625 356.628906 173.773438 C 356.722656 173.453125 356.851562 173.148438 357.011719 172.871094 C 357.214844 172.472656 357.566406 171.878906 358.171875 171.363281 C 360.875 169.078125 364.601562 168.191406 367.59375 167.480469 C 368.207031 167.335938 368.796875 167.195312 369.332031 167.050781 C 375.261719 165.457031 381.871094 164.121094 390.136719 162.847656 C 394.449219 162.183594 398.746094 161.628906 403.023438 161.179688 C 402.851562 158.953125 402.625 156.351562 402.386719 153.632812 C 401.5625 144.242188 400.628906 133.597656 401.011719 127.085938 C 401.058594 126.289062 401.242188 125.617188 402.65625 120.710938 C 406.050781 108.953125 415.066406 77.722656 414.269531 61.625 C 414.246094 61.121094 414.222656 60.535156 414.195312 59.878906 C 413.839844 50.683594 412.980469 46.261719 412.117188 44.203125 C 411.027344 44.582031 409.464844 45.207031 407.445312 46.078125 C 406.789062 46.359375 406.296875 46.566406 406.070312 46.648438 C 396.285156 50.214844 386.808594 55.070312 377.898438 61.089844 C 377.375 61.441406 376.851562 61.800781 376.328125 62.164062 C 374.171875 63.660156 372.429688 64.933594 370.835938 66.167969 C 370.214844 66.683594 367.761719 68.859375 365.894531 70.609375 C 367.902344 71.753906 369.847656 72.683594 371.746094 73.097656 C 374.039062 73.597656 375.492188 75.863281 374.992188 78.15625 C 374.492188 80.449219 372.230469 81.90625 369.9375 81.402344 C 365.535156 80.445312 361.675781 78.050781 357.945312 75.734375 C 355.140625 73.996094 352.496094 72.355469 349.882812 71.476562 C 330.347656 64.910156 309.085938 62.335938 290.015625 64.21875 C 277.007812 65.503906 263.003906 69.359375 262.863281 69.398438 C 260.597656 70.023438 258.261719 68.703125 257.632812 66.441406 C 257.003906 64.179688 258.328125 61.835938 260.589844 61.210938 C 260.925781 61.113281 265.585938 59.832031 272.046875 58.484375 C 267.070312 51.957031 262.800781 45.5 259.171875 39.847656 C 257.234375 36.828125 254.609375 32.925781 251.511719 29.515625 C 245.800781 23.238281 242.972656 22.628906 241.796875 22.828125 C 237.996094 23.464844 233.390625 34.160156 231.652344 38.1875 C 226.355469 50.484375 220.957031 63.613281 218.289062 77.023438 C 217.789062 79.550781 216.925781 89.058594 216.230469 96.699219 C 215.257812 107.429688 215.050781 109.335938 214.753906 110.308594 C 213.511719 114.371094 211.832031 118.203125 209.914062 121.886719 C 214.824219 124.023438 219.628906 126.320312 224.28125 128.777344 C 229.210938 131.382812 234.46875 134.25 239.511719 137.585938 C 239.582031 137.628906 239.886719 137.851562 240.3125 138.171875 C 241.570312 139.117188 242.414062 139.738281 242.835938 140.023438 C 243.511719 140.316406 244.117188 140.785156 244.578125 141.425781 C 245.957031 143.324219 245.535156 145.980469 243.636719 147.359375 C 242.792969 147.972656 242.027344 148.246094 241.25 148.246094 C 239.558594 148.246094 237.828125 146.941406 235.199219 144.960938 C 235.003906 144.816406 234.847656 144.699219 234.757812 144.632812 C 230.039062 141.515625 225.027344 138.785156 220.3125 136.292969 C 215.578125 133.792969 210.6875 131.460938 205.675781 129.308594 C 204.199219 131.714844 202.675781 134.074219 201.167969 136.410156 C 200.753906 137.050781 200.34375 137.6875 199.933594 138.320312 C 206.382812 140.007812 213.023438 142.003906 220.039062 144.386719 C 223.957031 145.71875 227.734375 147.066406 231.265625 148.390625 C 234.484375 149.527344 238.066406 150.792969 237.058594 154.742188 C 236.566406 156.664062 234.839844 157.9375 232.941406 157.9375 C 232.59375 157.9375 232.238281 157.898438 231.886719 157.804688 C 231.378906 157.675781 230.917969 157.460938 230.515625 157.179688 C 230.222656 157.058594 229.632812 156.828125 228.488281 156.425781 L 228.289062 156.351562 C 224.832031 155.054688 221.136719 153.738281 217.304688 152.433594 C 209.554688 149.800781 202.277344 147.648438 195.234375 145.894531 C 192.640625 150.320312 190.378906 154.792969 188.828125 159.582031 C 188.324219 161.140625 187.921875 162.636719 187.59375 164.085938 C 190.796875 163.753906 194.03125 163.460938 197.304688 163.226562 C 204.089844 162.742188 210.714844 162.429688 216.996094 162.300781 L 217.78125 162.28125 C 219.652344 162.242188 221.589844 162.203125 223.53125 162.230469 C 224.160156 162.238281 224.78125 162.359375 225.355469 162.492188 C 226.851562 162.253906 228.433594 162.824219 229.414062 164.117188 C 230.585938 165.660156 230.675781 167.664062 229.648438 169.230469 C 227.90625 171.875 224.90625 171.136719 223.773438 170.855469 C 223.589844 170.8125 223.398438 170.757812 223.230469 170.726562 C 221.496094 170.703125 219.777344 170.742188 217.960938 170.78125 L 217.171875 170.796875 C 211.035156 170.925781 204.554688 171.230469 197.910156 171.707031 C 194.101562 171.976562 190.335938 172.332031 186.617188 172.738281 C 186.871094 190.90625 203.203125 199.734375 221.617188 209.671875 L 223.3125 210.585938 C 225.375 211.699219 226.144531 214.277344 225.027344 216.34375 C 223.910156 218.40625 221.335938 219.179688 219.269531 218.0625 L 217.582031 217.152344 C 214.710938 215.601562 211.789062 214.023438 208.898438 212.382812 C 208.496094 212.460938 208.085938 212.488281 207.679688 212.445312 C 201.710938 215.480469 195.964844 219.511719 190.402344 223.414062 L 189.554688 224.007812 C 165.484375 240.871094 149.472656 257.0625 139.171875 274.964844 C 116.386719 314.558594 134.691406 346.933594 154.058594 367.117188 C 165.203125 378.738281 175.46875 385.75 185.429688 388.558594 C 187.6875 389.195312 189.003906 391.542969 188.367188 393.804688 C 187.839844 395.675781 186.132812 396.898438 184.277344 396.898438 C 183.898438 396.898438 183.511719 396.847656 183.125 396.738281 C 171.664062 393.511719 160.148438 385.746094 147.925781 373.003906 C 143.882812 368.792969 140.292969 364.503906 137.121094 360.148438 C 136.191406 362.289062 135.003906 365.136719 134.769531 365.753906 C 133.152344 370.804688 131.609375 376.417969 130.046875 382.914062 C 126.53125 397.554688 122.292969 419.035156 122.074219 438.269531 C 122.046875 440.597656 120.148438 442.46875 117.824219 442.46875 C 117.808594 442.46875 117.792969 442.46875 117.777344 442.46875 C 115.429688 442.441406 113.546875 440.519531 113.574219 438.171875 C 113.800781 418.148438 118.164062 395.992188 121.78125 380.929688 C 123.398438 374.195312 125.007812 368.359375 126.695312 363.09375 C 126.933594 362.355469 128.660156 358.300781 128.734375 358.125 C 130.109375 354.914062 130.855469 353.160156 131.878906 352.246094 C 126.570312 343.359375 123.027344 334.226562 121.296875 324.921875 C 117.949219 306.894531 121.484375 288.660156 131.804688 270.726562 C 142.75 251.707031 159.550781 234.648438 184.679688 217.046875 L 185.519531 216.453125 C 190.175781 213.191406 194.957031 209.847656 200.019531 206.941406 C 188.160156 199.007812 178.589844 189.039062 178.085938 173.78125 C 163.1875 175.796875 149.480469 178.59375 138.335938 181.042969 C 138.027344 181.109375 137.722656 181.144531 137.421875 181.144531 C 135.46875 181.144531 133.710938 179.789062 133.273438 177.804688 C 132.769531 175.511719 134.21875 173.246094 136.511719 172.742188 C 148.273438 170.15625 162.847656 167.191406 178.722656 165.125 C 179.164062 162.535156 179.8125 159.828125 180.742188 156.964844 C 182.230469 152.363281 184.273438 148.054688 186.570312 143.917969 C 181.757812 142.921875 177.011719 142.101562 172.269531 141.46875 C 169.941406 141.15625 168.308594 139.019531 168.617188 136.695312 C 168.929688 134.367188 171.0625 132.730469 173.390625 133.042969 C 179.292969 133.828125 185.1875 134.882812 191.199219 136.210938 C 192.140625 134.726562 193.085938 133.253906 194.027344 131.792969 C 195.277344 129.867188 196.503906 127.964844 197.6875 126.066406 C 185.210938 121.289062 172.132812 117.605469 158.988281 115.207031 C 156.679688 114.785156 155.148438 112.570312 155.570312 110.261719 C 155.992188 107.953125 158.203125 106.421875 160.515625 106.84375 C 174.621094 109.417969 188.65625 113.417969 202.015625 118.628906 C 203.847656 115.1875 205.433594 111.679688 206.578125 107.976562 C 206.785156 106.753906 207.304688 101.011719 207.765625 95.929688 C 208.703125 85.625 209.40625 78.117188 209.953125 75.363281 C 212.785156 61.144531 218.367188 47.539062 223.847656 34.820312 C 229.027344 22.800781 233.394531 15.613281 240.394531 14.445312 C 247.234375 13.296875 253.289062 18.84375 257.800781 23.796875 C 261.324219 27.671875 264.207031 31.957031 266.324219 35.257812 C 270.496094 41.753906 275.527344 49.332031 281.484375 56.753906 C 284.003906 56.359375 286.601562 56.015625 289.179688 55.757812 C 309.421875 53.757812 331.941406 56.480469 352.59375 63.421875 C 354.613281 64.097656 356.519531 65.035156 358.355469 66.066406 C 359.101562 65.3125 360.03125 64.445312 361.175781 63.394531 C 363.011719 61.710938 365.246094 59.746094 365.628906 59.449219 C 367.335938 58.125 369.199219 56.765625 371.480469 55.179688 C 372.03125 54.800781 372.585938 54.421875 373.136719 54.046875 C 382.625 47.640625 392.726562 42.464844 403.164062 38.660156 C 403.324219 38.601562 403.652344 38.457031 404.082031 38.269531 C 410.5 35.507812 414.261719 34.058594 416.992188 36.550781 C 421.589844 40.742188 422.328125 50.210938 422.691406 59.546875 C 422.714844 60.171875 422.738281 60.730469 422.761719 61.207031 C 423.625 78.71875 414.65625 109.796875 410.824219 123.066406 C 410.246094 125.078125 409.644531 127.148438 409.480469 127.835938 C 409.175781 133.769531 410.105469 144.359375 410.851562 152.890625 C 411.089844 155.589844 411.316406 158.179688 411.488281 160.433594 C 426.480469 159.359375 441.175781 159.636719 455.378906 161.277344 C 457.710938 161.546875 459.382812 163.65625 459.113281 165.988281 C 458.847656 168.320312 456.738281 170 454.40625 169.722656 C 440.691406 168.140625 426.496094 167.875 412 168.917969 C 412.328125 175.398438 412.496094 181.746094 412.261719 187.851562 C 424.207031 191 436.417969 195.019531 449.441406 200.0625 C 451.628906 200.910156 452.714844 203.371094 451.867188 205.558594 C 451.214844 207.246094 449.609375 208.277344 447.902344 208.277344 C 447.394531 208.277344 446.875 208.183594 446.371094 207.988281 C 434.199219 203.273438 422.765625 199.488281 411.605469 196.480469 C 410.933594 202.132812 409.773438 207.5 407.859375 212.460938 C 407.789062 212.636719 407.710938 212.804688 407.640625 212.980469 C 418.800781 220.058594 429.292969 228.472656 440.960938 238.496094 C 442.738281 240.027344 442.941406 242.710938 441.414062 244.488281 C 440.574219 245.46875 439.386719 245.96875 438.1875 245.96875 C 437.207031 245.96875 436.222656 245.632812 435.421875 244.945312 C 424.296875 235.386719 414.300781 227.351562 403.808594 220.617188 C 398.8125 228.605469 391.460938 234.675781 381.414062 239.148438 C 388.910156 254.1875 397.976562 273.972656 403.171875 295.671875 C 408.773438 319.082031 407.933594 341.191406 400.742188 359.613281 C 399.183594 363.609375 397.324219 367.40625 395.183594 370.988281 C 395.242188 371.148438 395.289062 371.3125 395.328125 371.480469 C 395.445312 371.976562 395.46875 372.46875 395.410156 372.941406 C 395.460938 373.449219 395.605469 374.605469 396.035156 377.246094 C 396.085938 377.546875 396.117188 377.753906 396.125 377.824219 C 397.90625 390.613281 399.308594 404.273438 400.527344 420.800781 C 402 440.695312 400.980469 461.15625 398.847656 481.347656 C 437.714844 495.632812 490.261719 407.628906 499.171875 389.308594 C 505.90625 375.464844 511.113281 360.507812 516.148438 346.046875 C 527.257812 314.132812 538.746094 281.132812 567.386719 257.261719 C 590.578125 237.929688 648.445312 219.550781 673.410156 247.519531 C 678.023438 252.691406 679.824219 258.863281 678.613281 265.375 Z M 112.613281 624.238281 C 105.507812 624.910156 97.386719 626.394531 88.785156 627.960938 C 61.839844 632.875 28.308594 638.992188 11.359375 621.363281 C 10.601562 620.578125 6.953125 616.484375 9.234375 613.011719 C 15.113281 604.058594 26.847656 597.859375 38.199219 591.867188 C 45.277344 588.128906 52.597656 584.261719 58.359375 579.742188 C 67.863281 572.285156 80.515625 556.597656 85.984375 545.480469 C 87.019531 543.375 86.152344 540.828125 84.046875 539.789062 C 81.941406 538.753906 79.394531 539.621094 78.355469 541.726562 C 73.523438 551.550781 61.492188 566.480469 53.113281 573.054688 C 47.953125 577.105469 41.285156 580.625 34.230469 584.351562 C 21.929688 590.847656 9.210938 597.566406 2.128906 608.34375 C -1.585938 614.003906 -0.371094 621.425781 5.230469 627.253906 C 15.78125 638.226562 30.707031 641.636719 46.695312 641.636719 C 61.183594 641.636719 76.546875 638.835938 90.3125 636.324219 C 98.726562 634.789062 106.675781 633.339844 113.410156 632.703125 C 115.746094 632.480469 117.464844 630.410156 117.242188 628.070312 C 117.023438 625.734375 114.941406 624.023438 112.613281 624.238281 Z M 364.390625 318.242188 C 364.078125 315.914062 361.9375 314.28125 359.617188 314.589844 C 333.328125 318.082031 306.351562 331.511719 285.597656 351.433594 C 278.664062 358.09375 272.605469 365.046875 267.59375 372.105469 C 265.679688 374.800781 264.046875 377.3125 262.601562 379.785156 C 262.566406 379.855469 262.523438 379.925781 262.476562 380 C 253.050781 355.105469 231.652344 327.972656 209.554688 313.15625 C 207.171875 311.558594 204.148438 309.945312 200.945312 308.234375 C 195.058594 305.09375 187.730469 301.179688 185.195312 297.445312 C 183.878906 295.503906 181.234375 295 179.289062 296.316406 C 177.347656 297.636719 176.84375 300.28125 178.164062 302.222656 C 181.878906 307.691406 189.882812 311.964844 196.941406 315.734375 C 199.949219 317.339844 202.792969 318.855469 204.820312 320.21875 C 226.011719 334.425781 247.308594 361.910156 255.453125 385.574219 C 256.054688 387.316406 257.675781 388.417969 259.417969 388.441406 C 259.664062 389.082031 260.132812 389.6875 260.875 390.269531 C 261.570312 390.8125 262.503906 391.167969 263.507812 391.167969 C 264.59375 391.167969 265.765625 390.75 266.808594 389.703125 C 267.476562 389.03125 267.878906 388.191406 268.003906 387.320312 C 268.398438 386.644531 268.894531 385.816406 269.199219 385.320312 C 269.492188 384.832031 269.757812 384.394531 269.941406 384.074219 C 271.261719 381.820312 272.757812 379.515625 274.523438 377.027344 C 279.226562 370.402344 284.933594 363.855469 291.484375 357.566406 C 310.964844 338.867188 336.203125 326.273438 360.734375 323.015625 C 363.0625 322.707031 364.699219 320.570312 364.390625 318.242188 Z M 414.066406 585.441406 C 409.097656 582.363281 404.402344 579.460938 401.304688 576.550781 C 399.339844 574.699219 397.597656 573.476562 396.066406 572.394531 C 393.679688 570.710938 392.101562 569.601562 390.523438 566.707031 C 389.398438 564.648438 386.816406 563.886719 384.757812 565.015625 C 382.695312 566.140625 381.9375 568.722656 383.0625 570.78125 C 385.589844 575.40625 388.425781 577.40625 391.167969 579.339844 C 392.535156 580.304688 393.953125 581.304688 395.484375 582.742188 C 399.203125 586.238281 404.25 589.359375 409.59375 592.667969 C 421.296875 599.910156 433.394531 607.398438 432.160156 618.804688 C 431.671875 623.339844 429.667969 626.953125 426.039062 629.851562 C 410.144531 642.546875 369.179688 637.820312 349.488281 635.546875 C 347.34375 635.300781 345.410156 635.074219 343.738281 634.898438 C 341.398438 634.660156 339.3125 636.347656 339.066406 638.683594 C 338.820312 641.015625 340.515625 643.105469 342.847656 643.355469 C 344.496094 643.527344 346.398438 643.746094 348.515625 643.992188 C 358.824219 645.179688 373.210938 646.839844 387.5625 646.839844 C 404.4375 646.839844 421.265625 644.546875 431.347656 636.492188 C 436.757812 632.167969 439.875 626.527344 440.613281 619.722656 C 442.425781 602.988281 426.699219 593.257812 414.066406 585.441406 Z M 279.390625 136.5625 C 281.074219 129.476562 258.519531 125.929688 257.378906 133.011719 C 256.503906 138.433594 278.207031 141.546875 279.390625 136.5625 Z M 340.117188 147.414062 C 341.800781 140.328125 319.25 136.78125 318.105469 143.863281 C 317.234375 149.285156 338.933594 152.398438 340.117188 147.414062 Z M 254.363281 176.089844 C 264.035156 179.519531 279.1875 166.859375 283.769531 162.117188 C 283.796875 162.089844 283.824219 162.058594 283.851562 162.03125 C 285.335938 160.539062 287.695312 160.355469 289.390625 161.601562 C 290.394531 162.34375 290.988281 163.449219 291.101562 164.617188 C 292.535156 167.996094 299.707031 182.953125 314.046875 183.285156 C 316.390625 183.339844 318.25 185.285156 318.195312 187.632812 C 318.140625 189.945312 316.25 191.785156 313.949219 191.785156 C 313.914062 191.785156 313.882812 191.785156 313.847656 191.78125 C 298.226562 191.421875 289.3125 179.441406 285.34375 172.207031 C 283.105469 174.105469 280.386719 176.214844 277.636719 178.027344 C 267.601562 184.640625 258.816406 186.6875 251.523438 184.105469 C 249.3125 183.320312 248.152344 180.890625 248.9375 178.679688 C 249.71875 176.464844 252.144531 175.308594 254.363281 176.089844" fill="#6064b8"/></g><g id="change3_1"><path d="M 340.898438 59.195312 C 340.898438 59.195312 361.273438 21.714844 357.65625 13.453125 C 352.847656 2.460938 312.847656 -0.0664062 300.550781 0.00390625 C 291.316406 0.0546875 295.195312 49.746094 295.195312 49.746094 C 295.195312 49.746094 259.914062 49.859375 276.421875 60.425781 C 308.484375 80.960938 339.074219 81.8125 354.960938 75.640625 C 367.601562 70.730469 340.898438 59.195312 340.898438 59.195312 Z M 318.578125 214.410156 C 322.546875 218.71875 318.449219 245.742188 316.003906 247.347656 C 314.433594 248.371094 292.167969 244.15625 289.410156 235.328125 C 289.410156 235.328125 279.363281 241.15625 271.136719 231.605469 C 267.105469 235.074219 246.945312 243.566406 243.882812 238.832031 C 239.199219 231.585938 245.757812 204.054688 248.738281 203.734375 C 259.441406 202.578125 273.757812 218.175781 273.757812 218.175781 C 283 213.730469 287.96875 215.410156 292.195312 221.496094 C 292.710938 221.917969 314.609375 210.101562 318.578125 214.410156" fill="#19191c" fill-rule="evenodd"/></g><g clip-path="url(#b)" id="change4_1"><path d="M 381.835938 577.0625 C 380.734375 577.0625 379.636719 576.636719 378.804688 575.789062 C 349.582031 546.046875 324.171875 505.519531 309.09375 464.601562 C 304.261719 451.484375 300.023438 437.824219 296.503906 423.992188 C 295.378906 419.566406 294.191406 414.8125 293.148438 410.03125 C 292.664062 407.8125 292.324219 406.074219 292.039062 404.421875 C 292.015625 404.335938 291.980469 404.238281 291.949219 404.144531 C 291.113281 401.605469 291.566406 399.683594 293.296875 398.433594 C 294.824219 397.328125 296.894531 397.355469 298.445312 398.503906 C 299.574219 399.339844 300.171875 400.628906 300.167969 401.933594 C 300.257812 402.226562 300.34375 402.542969 300.398438 402.875 C 300.660156 404.429688 300.988281 406.082031 301.453125 408.226562 C 302.46875 412.878906 303.632812 417.546875 304.742188 421.894531 C 308.1875 435.441406 312.335938 448.820312 317.070312 461.660156 C 331.746094 501.488281 356.457031 540.917969 384.867188 569.835938 C 386.511719 571.507812 386.488281 574.199219 384.8125 575.84375 C 383.988281 576.65625 382.910156 577.0625 381.835938 577.0625 Z M 99.71875 600.023438 C 98.277344 600.023438 96.867188 599.289062 96.070312 597.960938 C 93.566406 593.785156 94.214844 583.316406 96.289062 565.464844 C 96.527344 563.429688 96.730469 561.667969 96.808594 560.730469 C 100.128906 520.0625 116.371094 480.796875 146.472656 440.691406 C 156.871094 426.828125 166.917969 414.976562 177.175781 404.449219 C 178.238281 403.359375 179.703125 401.824219 181.34375 400.109375 C 185.347656 395.910156 190.335938 390.6875 193.132812 388.097656 C 194.851562 386.5 197.542969 386.601562 199.136719 388.320312 C 200.734375 390.042969 200.632812 392.730469 198.910156 394.328125 C 196.304688 396.742188 191.417969 401.863281 187.492188 405.980469 C 185.828125 407.71875 184.34375 409.277344 183.261719 410.386719 C 173.261719 420.644531 163.449219 432.226562 153.269531 445.792969 C 124.160156 484.578125 108.464844 522.402344 105.277344 561.421875 C 105.191406 562.503906 104.988281 564.242188 104.730469 566.445312 C 104.050781 572.335938 101.972656 590.21875 103.402344 593.65625 C 104.554688 595.660156 103.890625 598.222656 101.902344 599.417969 C 101.21875 599.828125 100.464844 600.023438 99.71875 600.023438 Z M 367.691406 601.582031 C 366.898438 601.582031 366.097656 601.359375 365.382812 600.894531 C 342.585938 586.101562 323.082031 555.480469 310.738281 532.394531 C 296.859375 506.445312 284.480469 475.730469 278.433594 452.234375 C 274.292969 436.144531 271.34375 421.503906 269.414062 407.484375 C 269.394531 407.375 269.324219 407.023438 269.230469 406.535156 C 267.097656 395.664062 266.699219 391.996094 270.15625 390.164062 C 272.230469 389.0625 274.800781 389.855469 275.902344 391.929688 C 276.511719 393.078125 276.539062 394.378906 276.09375 395.496094 C 276.121094 396.480469 276.394531 398.910156 277.570312 404.902344 C 277.71875 405.648438 277.8125 406.160156 277.835938 406.324219 C 279.71875 420.019531 282.605469 434.34375 286.664062 450.117188 C 298.265625 495.195312 333.683594 570.191406 370.007812 593.765625 C 371.976562 595.042969 372.535156 597.675781 371.261719 599.644531 C 370.445312 600.898438 369.082031 601.578125 367.691406 601.582031 Z M 189.699219 451.03125 C 185.824219 455.5625 182.664062 459.464844 180.671875 462.308594 C 175.933594 469.070312 171.507812 475.753906 167.390625 482.363281 C 173.164062 478.355469 178.949219 474.769531 184.636719 471.671875 C 209.746094 457.996094 231.507812 450.492188 249.417969 449.3125 C 248.878906 443.121094 248.582031 437.058594 248.535156 431.136719 C 235.714844 432.519531 223.171875 434.515625 210.9375 440.140625 C 205.515625 442.636719 200.207031 445.832031 195.074219 448.925781 L 192.5 450.472656 C 191.625 450.996094 190.636719 451.167969 189.699219 451.03125 Z M 156.007812 501.898438 C 150.308594 512.429688 145.421875 522.792969 141.316406 533.054688 C 166.300781 515.871094 204.253906 501.710938 228.570312 497.679688 C 230.195312 497.410156 232.125 497.015625 234.167969 496.597656 C 241.386719 495.117188 250.109375 493.335938 257.28125 494.414062 C 255.984375 489.46875 254.824219 484.460938 253.808594 479.410156 C 252.328125 472.0625 251.160156 464.84375 250.304688 457.773438 C 233.605469 458.78125 212.90625 465.953125 188.703125 479.136719 C 182.230469 482.660156 175.609375 486.859375 169.019531 491.621094 L 168.648438 491.890625 C 165.742188 493.988281 162.734375 496.160156 160.089844 498.472656 C 159.574219 498.925781 157.253906 500.953125 156.875 501.285156 C 156.84375 501.316406 156.808594 501.347656 156.773438 501.378906 C 156.53125 501.582031 156.277344 501.757812 156.007812 501.898438 Z M 226.589844 546.0625 C 238.71875 546.0625 252.820312 548.773438 269.222656 554.234375 C 274.859375 556.109375 279.839844 557.984375 284.367188 559.9375 C 279.109375 550.949219 274.382812 541.605469 270.21875 531.96875 C 270.140625 531.972656 270.0625 531.972656 269.980469 531.972656 C 250.011719 531.972656 230.398438 536.101562 212.417969 541.753906 C 212.707031 543.699219 212.96875 545.535156 213.214844 547.3125 C 217.382812 546.480469 221.835938 546.0625 226.589844 546.0625 Z M 136.277344 546.78125 C 133.75 554.351562 131.652344 561.875 129.984375 569.367188 C 130.433594 569.089844 130.917969 568.796875 131.425781 568.484375 C 134.621094 566.550781 138.140625 564.488281 139.300781 563.851562 C 148.058594 559.058594 157.851562 554.308594 170.125 548.90625 C 196.242188 537.40625 230.621094 524.261719 266.738281 523.507812 C 264.183594 516.96875 261.886719 510.308594 259.847656 503.53125 C 259.304688 503.570312 258.738281 503.507812 258.1875 503.324219 C 252.671875 501.484375 242.964844 503.472656 235.875 504.925781 C 233.75 505.359375 231.742188 505.769531 229.960938 506.066406 C 203.730469 510.410156 160.691406 527.433594 138.429688 545.84375 C 137.789062 546.371094 137.042969 546.679688 136.277344 546.78125 Z M 216.476562 571.535156 C 222 571.71875 227.046875 571.726562 231.949219 571.738281 C 249.433594 571.773438 264.53125 571.804688 286.320312 580.046875 C 291.765625 582.105469 297.203125 584.402344 302.550781 586.90625 C 298.992188 582.300781 295.59375 577.570312 292.359375 572.71875 C 291.921875 572.648438 291.492188 572.503906 291.082031 572.289062 C 289.953125 571.699219 287.363281 570.558594 285.472656 569.726562 C 284.609375 569.34375 283.835938 569.003906 283.289062 568.753906 C 278.402344 566.535156 272.921875 564.421875 266.539062 562.300781 C 244.832031 555.074219 227.710938 552.921875 214.332031 555.757812 C 214.386719 556.160156 214.4375 556.558594 214.488281 556.964844 C 214.890625 560.089844 215.3125 563.359375 215.820312 567.089844 C 216.019531 568.5625 216.238281 570.042969 216.476562 571.535156 Z M 254.921875 599.933594 C 273.121094 599.933594 293.355469 603.25 315.417969 609.863281 C 316.65625 610.238281 321.363281 611.882812 326.769531 613.945312 C 323.042969 610.351562 319.433594 606.644531 315.941406 602.828125 C 315.53125 602.746094 315.125 602.601562 314.738281 602.386719 C 313.027344 601.445312 309.582031 599.769531 306.816406 598.425781 C 305.613281 597.839844 304.527344 597.3125 303.742188 596.921875 C 297.066406 593.601562 290.191406 590.597656 283.3125 587.996094 C 262.972656 580.300781 249.273438 580.273438 231.929688 580.238281 C 227.496094 580.230469 222.945312 580.21875 218.003906 580.085938 C 219.511719 587.710938 221.464844 595.605469 223.847656 603.742188 C 224.097656 603.625 224.363281 603.527344 224.644531 603.457031 C 233.984375 601.105469 244.09375 599.933594 254.921875 599.933594 Z M 223.945312 681.929688 C 221.132812 681.929688 219.847656 679.238281 218.792969 677.03125 C 218.550781 676.519531 218.183594 675.75 218.035156 675.511719 C 216.242188 672.625 214.761719 669.613281 213.328125 666.699219 L 213.101562 666.242188 C 208.4375 656.773438 204.515625 646.824219 201.105469 635.832031 L 200.835938 634.953125 C 194.703125 615.179688 182.417969 575.566406 183.214844 552.535156 C 179.882812 553.925781 176.65625 555.316406 173.550781 556.683594 C 171.078125 557.773438 168.710938 558.832031 166.433594 559.871094 C 164.367188 582.851562 170.027344 609.128906 183.742188 640.199219 C 187.175781 647.980469 191.71875 655.355469 197.25 662.125 C 199.0625 664.339844 200.785156 666.210938 202.519531 667.839844 C 202.703125 667.964844 203.128906 668.195312 203.394531 668.34375 C 204.910156 669.175781 207.453125 670.574219 207.253906 673.597656 C 207.136719 675.355469 205.996094 676.863281 204.28125 677.53125 C 202.277344 678.3125 200.046875 677.46875 199.03125 675.640625 C 198.25 675.210938 197.464844 674.75 196.800781 674.132812 C 194.761719 672.222656 192.753906 670.054688 190.667969 667.503906 C 184.652344 660.144531 179.707031 652.109375 175.964844 643.632812 C 162.601562 613.351562 156.585938 587.234375 157.640625 563.996094 C 152.480469 566.488281 147.792969 568.894531 143.386719 571.304688 C 143.066406 571.480469 142.621094 571.734375 142.085938 572.042969 C 140.011719 590.445312 143.976562 609.253906 154.945312 633.027344 C 157.761719 639.128906 161.191406 645.203125 165.433594 651.605469 C 166.519531 653.246094 167.753906 655.105469 169.035156 656.828125 C 169.1875 657.035156 169.652344 657.5625 169.992188 657.949219 C 171.671875 659.847656 173.964844 662.449219 171.835938 665.382812 C 170.8125 666.785156 168.726562 667.75 166.386719 666.730469 C 165.171875 666.203125 164.328125 665.179688 163.992188 663.996094 C 163.859375 663.84375 163.726562 663.695312 163.617188 663.570312 C 163.085938 662.964844 162.578125 662.394531 162.214844 661.898438 C 160.796875 659.992188 159.496094 658.03125 158.347656 656.300781 C 153.863281 649.535156 150.226562 643.085938 147.226562 636.589844 C 136.796875 613.976562 132.34375 595.421875 133.140625 577.410156 C 132.175781 578.015625 131.382812 578.523438 130.902344 578.855469 C 130.15625 579.726562 129.0625 580.285156 127.839844 580.328125 C 125.066406 596.832031 124.351562 613.25 125.625 629.796875 C 125.804688 632.136719 124.054688 634.183594 121.714844 634.359375 C 119.371094 634.546875 117.328125 632.792969 117.152344 630.449219 C 112.777344 573.714844 130.753906 518.734375 173.710938 457.429688 C 181.777344 445.921875 207.234375 418.75 224.078125 400.769531 C 230.726562 393.675781 237.027344 386.953125 238.402344 385.261719 C 239.347656 383.464844 241.484375 382.554688 243.480469 383.210938 C 244.863281 383.660156 245.925781 384.796875 246.285156 386.203125 C 246.917969 388.660156 246.144531 389.5 241.125 394.957031 C 238.453125 397.863281 234.664062 401.902344 230.28125 406.582031 C 222.914062 414.445312 213.882812 424.085938 205.433594 433.347656 C 206.078125 433.03125 206.730469 432.722656 207.386719 432.417969 C 221.039062 426.140625 235.183594 424 248.648438 422.574219 C 248.683594 421.597656 248.722656 420.621094 248.769531 419.648438 C 249.175781 411.441406 249.679688 401.226562 253.152344 392.285156 C 254.460938 389.035156 255.878906 387.511719 257.914062 387.148438 C 259.425781 386.878906 260.941406 387.398438 261.976562 388.535156 C 263.558594 390.273438 263.429688 392.960938 261.691406 394.539062 C 261.570312 394.648438 261.445312 394.75 261.316406 394.84375 C 261.21875 395.046875 261.117188 395.261719 261.039062 395.445312 C 258.101562 403.019531 257.632812 412.472656 257.261719 420.066406 C 256.765625 430.117188 257.074219 440.671875 258.171875 451.636719 C 258.417969 452.171875 258.554688 452.769531 258.554688 453.398438 C 258.554688 453.714844 258.523438 454.019531 258.457031 454.316406 C 259.308594 461.9375 260.535156 469.757812 262.140625 477.730469 C 274.132812 537.304688 306.488281 589.785156 353.246094 625.507812 C 355.109375 626.933594 355.46875 629.597656 354.042969 631.464844 C 352.738281 633.171875 350.398438 633.613281 348.578125 632.585938 C 348.03125 632.851562 347.425781 633 346.777344 633.007812 C 345.039062 632.988281 343.546875 632.015625 342.863281 630.535156 C 339.050781 627.449219 317.578125 619.386719 312.976562 618.007812 C 279.273438 607.898438 250.253906 605.777344 226.71875 611.699219 C 226.585938 611.734375 226.453125 611.761719 226.316406 611.78125 C 227.820312 616.449219 229.457031 621.191406 231.226562 626 C 231.339844 625.976562 231.453125 625.957031 231.566406 625.941406 C 253.28125 623.277344 274.75 625.355469 299.132812 632.488281 C 306.429688 634.621094 313.847656 637.09375 321.820312 640.042969 C 322.382812 640.253906 323.140625 640.613281 324.433594 641.230469 C 325.609375 641.796875 327.964844 642.921875 328.9375 643.242188 C 330.777344 643.324219 332.417969 644.601562 332.878906 646.476562 C 333.4375 648.757812 332.042969 651.058594 329.761719 651.617188 C 327.746094 652.105469 325.800781 651.3125 320.761719 648.898438 C 320.070312 648.566406 319.125 648.113281 318.859375 648.011719 C 311.085938 645.132812 303.847656 642.722656 296.746094 640.644531 C 274.175781 634.042969 254.289062 631.972656 234.347656 634.175781 C 237.449219 641.988281 240.421875 648.429688 243.558594 654.078125 C 244.355469 653.308594 245.449219 652.855469 246.644531 652.882812 C 260.746094 653.300781 272.507812 654.054688 284.082031 656.375 C 288.914062 657.339844 292.871094 658.355469 296.535156 659.558594 C 298.289062 660.136719 299.859375 660.734375 301.328125 661.386719 C 301.414062 661.421875 301.539062 661.46875 301.671875 661.523438 C 302.839844 661.980469 305.949219 663.203125 305.53125 666.597656 C 305.285156 668.578125 303.761719 670.085938 301.730469 670.351562 C 300.503906 670.507812 299.328125 670.128906 298.445312 669.386719 C 298.226562 669.300781 298.027344 669.21875 297.886719 669.15625 C 296.675781 668.621094 295.367188 668.121094 293.882812 667.632812 C 290.546875 666.535156 286.902344 665.605469 282.414062 664.707031 C 271.859375 662.59375 260.972656 661.84375 248.019531 661.429688 C 248.070312 661.503906 248.117188 661.574219 248.167969 661.648438 C 250.066406 664.496094 252.339844 667.347656 255.3125 670.613281 C 255.519531 670.746094 255.949219 670.964844 256.246094 671.117188 C 257.730469 671.882812 259.976562 673.035156 260.480469 675.605469 C 260.765625 677.070312 260.351562 678.585938 259.34375 679.761719 C 257.8125 681.539062 255.128906 681.742188 253.347656 680.214844 C 252.816406 679.757812 252.425781 679.191406 252.179688 678.585938 C 251.171875 678.066406 250.058594 677.464844 249.167969 676.488281 C 245.835938 672.839844 243.269531 669.625 241.097656 666.367188 C 235.488281 657.964844 230.703125 648.320312 225.578125 635.097656 C 216.296875 611.125 210.179688 588.628906 207.398438 568.238281 C 206.886719 564.484375 206.464844 561.195312 206.058594 558.050781 C 205.484375 553.605469 204.9375 549.351562 204.222656 544.464844 C 200.046875 545.914062 195.972656 547.429688 192.019531 548.976562 C 189.285156 569.011719 203.058594 613.421875 208.953125 632.4375 L 209.226562 633.316406 C 212.5 643.878906 216.261719 653.421875 220.726562 662.484375 L 220.953125 662.945312 C 222.359375 665.800781 223.683594 668.496094 225.257812 671.027344 C 225.652344 671.664062 226.046875 672.492188 226.46875 673.371094 C 226.535156 673.515625 226.617188 673.683594 226.699219 673.859375 C 227.847656 674.6875 228.558594 676.066406 228.464844 677.585938 C 228.292969 680.25 226.433594 681.539062 224.894531 681.835938 C 224.5625 681.898438 224.246094 681.929688 223.945312 681.929688 Z M 235.375 389.5625 C 205.886719 389.5625 177.21875 398.835938 150.171875 417.121094 C 104.242188 448.175781 71.089844 523.554688 96.945312 582.066406 C 104.683594 599.582031 124.820312 631.90625 138.757812 642.699219 C 164.742188 662.824219 200.886719 674.367188 237.925781 674.371094 C 237.925781 674.371094 237.933594 674.371094 237.933594 674.371094 C 281.480469 674.371094 320.085938 658.933594 343.855469 632.011719 C 369.246094 603.253906 383.191406 576.539062 385.308594 552.613281 C 389.394531 506.421875 378.980469 468.632812 354.359375 440.304688 C 324.292969 405.707031 278.214844 391.554688 245.121094 389.84375 C 242.417969 389.703125 239.148438 389.5625 235.375 389.5625 Z M 237.933594 682.871094 C 237.929688 682.871094 237.929688 682.871094 237.921875 682.871094 C 199.039062 682.867188 160.996094 670.675781 133.554688 649.421875 C 117.21875 636.773438 96.296875 601.625 89.171875 585.503906 C 76.78125 557.464844 76.410156 523.027344 88.128906 488.542969 C 99.269531 455.761719 120.148438 427.160156 145.410156 410.082031 C 173.890625 390.824219 204.15625 381.0625 235.375 381.0625 C 239.34375 381.0625 242.75 381.210938 245.558594 381.355469 C 280.398438 383.15625 328.960938 398.121094 360.773438 434.726562 C 386.972656 464.867188 398.074219 504.78125 393.777344 553.359375 C 391.464844 579.5 377.222656 607.066406 350.226562 637.636719 C 324.84375 666.382812 283.914062 682.871094 237.933594 682.871094" fill="#c963b8"/></g><g id="change5_1"><path d="M 402.496094 61.347656 C 400.621094 57.914062 379.230469 70.671875 378.675781 74.347656 C 377.816406 80.058594 392.402344 91.855469 396.371094 89.691406 C 400.339844 87.523438 405.4375 66.738281 402.496094 61.347656 Z M 242.910156 37.441406 C 236.546875 40.121094 230.660156 65.78125 233.117188 69.253906 C 235.578125 72.722656 256.027344 63.5625 257.660156 58.257812 C 259.289062 52.957031 246.890625 35.765625 242.910156 37.441406 Z M 294.566406 36.839844 C 294.417969 36.898438 295.125 49.53125 295.125 49.53125 C 295.125 49.53125 305.238281 55.421875 315.15625 58.003906 C 326.359375 60.917969 341.175781 59.320312 341.175781 59.320312 L 345.136719 51.046875 C 345.136719 51.046875 327.335938 50.386719 318.480469 47.777344 C 308 44.6875 294.972656 36.667969 294.566406 36.839844 Z M 298.253906 152.683594 C 298.164062 154.761719 292.097656 160.894531 287.667969 159.902344 C 284.746094 159.246094 278.816406 153.027344 279.648438 149.328125 C 280.367188 146.109375 298.488281 147.136719 298.253906 152.683594" fill="#f48dcc" fill-rule="evenodd"/></g></g></svg>