<?xml version="1.0" encoding="UTF-8"?><svg xmlns="http://www.w3.org/2000/svg" xmlns:xlink="http://www.w3.org/1999/xlink" height="756.3" preserveAspectRatio="xMidYMid meet" version="1.0" viewBox="-0.6 -1.7 720.5 756.3" width="720.5" zoomAndPan="magnify"><g><g id="change1_1"><path d="M 251.441406 120.675781 C 245.316406 117.394531 223.070312 145.269531 227.476562 151.425781 C 231.640625 157.234375 259.394531 179.410156 263.386719 174.285156 C 267.382812 169.160156 257.714844 124.03125 251.441406 120.675781 Z M 86.761719 116.816406 C 82.269531 120.003906 67.230469 156.769531 72.480469 159.121094 C 81.015625 162.941406 93.136719 156.335938 107.542969 146.117188 C 115.871094 140.207031 91.425781 113.511719 86.761719 116.816406 Z M 148.871094 280.140625 C 148.871094 280.140625 144.605469 286.371094 140.742188 285.621094 C 138.394531 285.160156 132.6875 278.71875 134.976562 276.515625 C 138.90625 272.726562 153.414062 273.683594 148.871094 280.140625" fill="#e6a8d2" fill-rule="evenodd"/></g><g id="change2_1"><path d="M 644.96875 122.554688 C 649.625 120.816406 660.160156 118.652344 666.363281 115.539062 C 672.382812 112.519531 678.339844 108.90625 683.179688 104.175781 C 689.207031 98.292969 687.261719 97.210938 684.011719 89.410156 C 683.277344 87.652344 681.808594 81.609375 679.835938 80.859375 C 679.148438 80.601562 665.304688 90.089844 663.710938 91.046875 C 660.390625 93.027344 657.007812 94.902344 653.515625 96.566406 C 643.296875 101.433594 640.460938 102.039062 643.714844 112.738281 Z M 653.96875 178.214844 L 654.046875 177.859375 C 653.921875 177.90625 653.878906 178.011719 653.96875 178.214844 Z M 708.472656 159.804688 C 708.160156 156.777344 708.441406 152.53125 707.320312 149.675781 C 706.605469 147.859375 692.554688 153.390625 684.203125 155.746094 C 677.03125 157.765625 669.667969 159.644531 662.207031 160.152344 C 661.371094 160.207031 654.914062 159.484375 654.402344 160.113281 C 653.910156 160.71875 656.257812 165.816406 656.472656 166.515625 L 654.046875 177.859375 C 654.53125 177.683594 656.34375 178.464844 657.203125 178.503906 C 659.765625 178.621094 662.332031 178.699219 664.902344 178.710938 C 671.601562 178.746094 678.324219 178.542969 684.996094 177.949219 C 699.488281 176.65625 710.15625 176.128906 708.472656 159.804688 Z M 698.460938 209.472656 C 695.429688 210.964844 691.949219 211.585938 688.640625 212.074219 C 680.003906 213.351562 671.308594 213.050781 662.703125 211.683594 C 645.742188 208.980469 641.042969 198.964844 633.414062 214.460938 L 621.761719 219.234375 C 622.421875 219.597656 624.988281 223.285156 626.078125 224.144531 C 633.1875 229.730469 641.660156 233.59375 650.386719 235.851562 C 660.070312 238.355469 670.09375 238.707031 679.867188 236.507812 C 693.234375 233.5 694.167969 232.683594 697.796875 219.511719 C 698.253906 217.863281 701.71875 209.972656 700.589844 208.273438 C 700.5625 208.234375 698.550781 209.425781 698.460938 209.472656 Z M 641.804688 268.566406 C 636.589844 266.519531 631.460938 264.226562 626.429688 261.765625 C 598.398438 248.054688 600.273438 236.226562 570.148438 243.488281 L 562.699219 243.050781 C 566.394531 262.878906 606.109375 286.628906 626.28125 283.324219 C 630.464844 282.640625 634.566406 278.226562 638.34375 276.398438 C 640.871094 275.179688 646.9375 274.039062 648.75 271.90625 C 649.355469 271.191406 642.316406 268.765625 641.804688 268.566406 Z M 451.886719 219.640625 C 450.160156 219.109375 454.664062 222.136719 455.351562 223.808594 C 457.425781 228.867188 458.800781 234.214844 460.101562 239.511719 C 464.132812 255.945312 466.875 272.566406 467.894531 289.46875 C 468.808594 304.582031 468.738281 319.792969 467.621094 334.894531 C 466.601562 348.679688 454.667969 395.191406 467.292969 405.109375 C 485.71875 419.589844 495.867188 370.386719 497.210938 361.765625 C 502.449219 328.175781 506.304688 256.503906 479.507812 228.367188 Z M 404.570312 204.292969 L 374.367188 211.785156 C 373.125 213.621094 377.746094 214.789062 378.824219 216.726562 C 382.144531 222.707031 384.640625 229.203125 387.058594 235.585938 C 393.628906 252.9375 397.601562 271.109375 399.933594 289.496094 C 402.386719 308.847656 403.03125 328.253906 402.429688 347.742188 C 401.996094 361.796875 395.066406 402.527344 403.117188 414.25 C 418.523438 436.683594 435.714844 366.425781 436.273438 361.328125 C 439.628906 330.878906 434.78125 227.53125 404.570312 204.292969 Z M 356.589844 260.863281 C 364.164062 301.671875 373.753906 341.09375 371.933594 383.011719 C 371.648438 389.636719 367.910156 442.902344 351.511719 432.199219 C 337.277344 422.910156 337.519531 395.792969 336.390625 381.285156 C 333.035156 338.332031 333.648438 295.277344 318.433594 254.277344 C 316.4375 248.902344 314.21875 239.683594 308.921875 236.574219 L 346.597656 217.742188 C 355.21875 226.363281 354.582031 250.046875 356.589844 260.863281" fill="#d1514e" fill-rule="evenodd"/></g><g id="change3_1"><path d="M 267.765625 298.496094 C 267.53125 300.675781 265.6875 302.296875 263.542969 302.296875 C 263.394531 302.296875 263.242188 302.289062 263.089844 302.273438 C 249.957031 300.882812 235.878906 300.074219 218.789062 299.734375 C 214.359375 299.644531 209.785156 299.625 204.804688 299.667969 C 202.464844 299.683594 200.535156 297.804688 200.515625 295.457031 C 200.492188 293.109375 202.378906 291.191406 204.726562 291.167969 C 209.792969 291.121094 214.449219 291.144531 218.960938 291.234375 C 236.296875 291.582031 250.605469 292.402344 263.984375 293.820312 C 266.320312 294.066406 268.011719 296.160156 267.765625 298.496094 Z M 205.820312 274.988281 C 200.1875 277.359375 193.804688 280.050781 187.816406 283.191406 C 187.183594 283.523438 186.507812 283.679688 185.84375 283.679688 C 184.3125 283.679688 182.835938 282.851562 182.078125 281.40625 C 180.984375 279.328125 181.785156 276.757812 183.863281 275.667969 C 189.710938 272.601562 195.523438 270.101562 202.519531 267.152344 C 219.90625 259.824219 236.210938 253.902344 252.367188 249.050781 C 254.617188 248.371094 256.984375 249.648438 257.660156 251.894531 C 258.335938 254.144531 257.0625 256.515625 254.8125 257.191406 C 238.949219 261.957031 222.925781 267.777344 205.820312 274.988281 Z M 144.683594 310.039062 C 144.269531 310.4375 143.011719 311.640625 139.433594 311.183594 C 136.78125 310.84375 135.234375 304.84375 134.992188 301.703125 C 134.984375 301.585938 134.96875 301.46875 134.953125 301.351562 C 136.183594 300.355469 137.285156 299.371094 138.242188 298.460938 C 139.128906 297.617188 139.921875 296.824219 140.632812 296.066406 C 142.328125 297.539062 144.542969 299.375 146.882812 301.136719 C 146.875 301.320312 146.878906 301.503906 146.894531 301.691406 C 147.023438 303.183594 146.894531 307.921875 144.683594 310.039062 Z M 159.332031 298.902344 C 156.261719 298.128906 145.867188 289.664062 143.898438 287.585938 C 142.566406 286.085938 140.402344 285.75 138.703125 286.667969 C 137.746094 286.863281 136.851562 287.382812 136.199219 288.210938 C 135.230469 289.449219 134.019531 290.746094 132.386719 292.296875 C 129.261719 295.269531 124.339844 299.171875 118.640625 300.898438 C 116.394531 301.578125 115.121094 303.949219 115.804688 306.195312 C 116.484375 308.441406 118.855469 309.714844 121.101562 309.03125 C 123.238281 308.386719 125.265625 307.523438 127.160156 306.53125 C 128.246094 311.386719 131.078125 318.683594 138.351562 319.617188 C 139.257812 319.730469 140.109375 319.785156 140.914062 319.785156 C 145.730469 319.785156 148.804688 317.878906 150.605469 316.136719 C 153.523438 313.316406 154.710938 309.5 155.167969 306.382812 C 155.914062 306.722656 156.613281 306.984375 157.246094 307.144531 C 159.527344 307.71875 161.835938 306.339844 162.410156 304.066406 C 162.984375 301.789062 161.609375 299.480469 159.332031 298.902344 Z M 252.039062 275.507812 L 193.695312 291.671875 C 193.316406 291.777344 192.933594 291.828125 192.558594 291.828125 C 190.695312 291.828125 188.988281 290.59375 188.464844 288.710938 C 187.839844 286.449219 189.164062 284.105469 191.425781 283.480469 L 249.769531 267.316406 C 252.027344 266.691406 254.371094 268.015625 255 270.277344 C 255.625 272.539062 254.300781 274.882812 252.039062 275.507812 Z M 180.328125 260.84375 C 174.710938 259.972656 173.46875 255.886719 177.695312 253.449219 C 179.160156 252.605469 200.6875 246.558594 203.523438 253.574219 C 204.835938 256.8125 185.152344 261.59375 180.328125 260.84375 Z M 115.605469 257.828125 C 115.03125 260.332031 91.457031 259.628906 93.066406 252.640625 C 94.257812 247.476562 117.453125 249.800781 115.605469 257.828125 Z M 685.570312 234.183594 C 663.203125 271.105469 624.582031 280.078125 589.75 283.984375 C 588.492188 284.125 586.203125 284.316406 583.304688 284.558594 C 554.941406 286.925781 539.210938 289.296875 531.394531 292.691406 C 525.882812 278.089844 518.507812 264.886719 509.402344 253.277344 C 511.683594 253.078125 514.996094 252.941406 518.242188 252.804688 C 546.882812 251.617188 613.949219 248.839844 652.855469 194.746094 C 669.382812 171.765625 658.765625 138.8125 646.949219 115.21875 C 632.203125 85.769531 610.3125 60.453125 596.210938 49.390625 C 586.203125 41.539062 580.644531 33.257812 580.960938 26.664062 C 581.171875 22.273438 584.097656 18.242188 589.65625 14.683594 C 598.757812 8.859375 608.027344 7.152344 617.210938 9.609375 C 639.140625 15.480469 655.089844 42.316406 660.929688 53.578125 C 692.210938 113.90625 719.878906 177.546875 685.570312 234.183594 Z M 523.402344 435.910156 C 520.863281 444.125 517.984375 451.03125 514.910156 457.6875 C 515.160156 455.933594 515.410156 454.183594 515.671875 452.445312 C 516.789062 444.898438 518.183594 435.957031 520.023438 426.855469 C 520.488281 424.554688 519 422.3125 516.699219 421.847656 C 514.398438 421.382812 512.15625 422.871094 511.691406 425.171875 C 509.8125 434.464844 508.398438 443.546875 507.261719 451.199219 C 506.273438 457.859375 505.355469 464.671875 504.46875 471.261719 C 503.929688 475.265625 503.386719 479.300781 502.820312 483.347656 C 502.65625 483.726562 502.492188 484.105469 502.324219 484.488281 C 501.882812 485.515625 501.871094 486.621094 502.222656 487.597656 C 500.375 500.441406 498.238281 513.363281 495.242188 525.824219 C 489.578125 549.371094 475.507812 571.675781 461.898438 593.242188 C 454.859375 604.402344 447.578125 615.941406 441.675781 627.378906 C 434.242188 641.777344 427.046875 658.507812 420.089844 674.6875 C 411.199219 695.363281 402.800781 714.898438 396.136719 723.921875 C 393.882812 726.980469 386.464844 729.089844 380.570312 728.347656 C 377.746094 727.988281 376.476562 727.089844 376.332031 726.730469 C 375.992188 725.894531 377.40625 723.023438 378.441406 720.929688 C 380.710938 716.320312 383.820312 710.011719 383.128906 701.839844 C 381.398438 681.476562 388.164062 660.476562 394.710938 640.167969 C 399.722656 624.628906 404.449219 609.953125 404.890625 596.707031 C 405.382812 581.753906 399.558594 568.003906 393.929688 554.703125 C 389.992188 545.410156 386.273438 536.632812 384.652344 527.632812 C 422.105469 504.71875 464.878906 472.003906 494.632812 429.496094 C 495.980469 427.574219 495.511719 424.925781 493.589844 423.578125 C 491.664062 422.230469 489.015625 422.699219 487.667969 424.621094 C 451.175781 476.757812 394.261719 513.945312 352.941406 535.960938 C 334.519531 545.773438 317.015625 552.839844 299.425781 557.566406 C 294.597656 558.863281 288.226562 560.433594 281.785156 561.085938 C 280.523438 561.214844 278.425781 561.296875 276.53125 561.332031 C 278.78125 540.746094 278.941406 519.839844 279.101562 499.261719 C 279.132812 495.023438 279.164062 490.800781 279.214844 486.59375 C 279.246094 484.246094 277.363281 482.320312 275.019531 482.292969 C 275 482.292969 274.984375 482.292969 274.964844 482.292969 C 272.644531 482.292969 270.746094 484.160156 270.71875 486.492188 C 270.664062 490.710938 270.632812 494.945312 270.601562 499.195312 C 270.433594 520.898438 270.265625 542.972656 267.589844 564.511719 C 267.523438 564.820312 267.496094 565.101562 267.484375 565.332031 C 264.839844 586.113281 259.828125 606.378906 250.195312 625.3125 C 243.367188 638.738281 235.152344 651.765625 227.203125 664.363281 C 218.824219 677.652344 210.15625 691.390625 202.929688 705.847656 C 201.605469 708.492188 200.125 712.121094 198.410156 716.324219 C 194.8125 725.132812 189.890625 737.195312 185.546875 741.222656 C 180.296875 746.085938 157.820312 746.492188 148.285156 745.941406 C 152.242188 714.871094 161.730469 683.695312 170.917969 653.503906 C 181.648438 618.234375 192.75 581.765625 194.96875 545.527344 C 195.84375 531.191406 194.871094 515.628906 191.902344 496.558594 C 190.363281 486.675781 188.683594 477.722656 186.761719 469.1875 C 186.242188 466.898438 183.972656 465.464844 181.679688 465.972656 C 179.390625 466.488281 177.953125 468.765625 178.46875 471.054688 C 180.347656 479.402344 181.996094 488.171875 183.503906 497.863281 C 186.375 516.316406 187.324219 531.296875 186.484375 545.007812 C 186.425781 545.949219 186.359375 546.898438 186.289062 547.839844 C 158.324219 533.769531 136.835938 517.179688 118.9375 495.898438 C 110.011719 485.285156 102.597656 475.5625 96.269531 466.171875 C 94.960938 464.222656 92.316406 463.703125 90.371094 465.019531 C 88.425781 466.332031 87.910156 468.972656 89.222656 470.917969 C 95.71875 480.5625 103.3125 490.523438 112.433594 501.367188 C 131.730469 524.3125 154.960938 541.992188 185.4375 556.90625 C 181.980469 587.347656 172.777344 618.175781 163.65625 648.171875 C 161.007812 644.859375 158.363281 641.570312 155.734375 638.304688 C 114.46875 587.011719 78.828125 542.710938 75.386719 473.660156 C 74.140625 448.679688 79.90625 371.261719 79.964844 370.480469 C 80.0625 369.160156 79.542969 367.871094 78.554688 366.992188 C 62.375 352.570312 52.410156 339.140625 46.730469 325.902344 C 53.40625 323.277344 59.863281 320.902344 66.207031 318.734375 C 71.476562 316.933594 82.65625 313.546875 85.609375 313.230469 C 86.988281 313.585938 88.511719 313.238281 89.613281 312.183594 C 91.308594 310.558594 91.367188 307.867188 89.742188 306.175781 C 88.082031 304.441406 86.519531 302.808594 63.457031 310.691406 C 57.050781 312.882812 50.535156 315.277344 43.808594 317.917969 C 42.097656 312.324219 41.085938 306.734375 40.628906 301.089844 C 46.703125 300.6875 53.15625 300.34375 60.273438 300.035156 C 63.863281 299.882812 67.675781 299.742188 71.429688 299.75 C 72.433594 299.75 73.269531 299.769531 74.03125 299.804688 C 76.144531 300.464844 77.855469 300.113281 79.117188 298.769531 C 80.269531 297.539062 80.601562 295.789062 79.980469 294.191406 C 79.304688 292.449219 77.617188 291.402344 75.839844 291.480469 C 75.546875 291.410156 75.21875 291.351562 74.859375 291.335938 C 73.851562 291.277344 72.765625 291.25 71.449219 291.25 C 67.53125 291.246094 63.59375 291.386719 59.910156 291.546875 C 52.832031 291.847656 46.402344 292.191406 40.34375 292.589844 C 40.382812 288.78125 40.636719 284.933594 41.058594 281.03125 C 51.054688 281.503906 61.597656 282.332031 72.808594 283.523438 C 77.707031 284.042969 83.488281 284.753906 89.222656 286.089844 C 89.328125 286.109375 89.523438 286.152344 89.792969 286.203125 C 90.132812 286.269531 90.4375 286.328125 90.707031 286.386719 C 90.734375 286.449219 90.765625 286.511719 90.796875 286.574219 C 91.523438 288.046875 93.03125 288.949219 94.628906 288.949219 C 94.902344 288.945312 95.175781 288.921875 95.449219 288.867188 C 96.761719 288.609375 99.535156 287.148438 99.742188 284.265625 C 100.074219 279.511719 94.421875 278.433594 91.386719 277.851562 L 91.144531 277.808594 C 84.964844 276.371094 78.859375 275.617188 73.707031 275.070312 C 62.613281 273.890625 52.148438 273.0625 42.207031 272.574219 C 43.847656 262.390625 46.386719 251.761719 49.109375 240.378906 C 51.539062 230.21875 54.050781 219.714844 56.140625 208.496094 C 56.785156 205.035156 57.769531 197.785156 58.90625 189.386719 C 60.453125 178.011719 62.199219 165.121094 63.429688 159.386719 L 63.648438 158.355469 C 74.472656 107.667969 80.636719 101.460938 81.710938 100.753906 C 81.753906 100.742188 85.914062 99.730469 100.707031 115.007812 C 109.65625 124.253906 118.640625 135.460938 123.464844 141.480469 C 124.132812 142.308594 124.71875 143.042969 125.222656 143.667969 C 120.398438 144.714844 115.816406 145.992188 111.519531 147.496094 C 107.980469 148.734375 104.964844 150.121094 102.300781 151.742188 C 100.292969 152.960938 99.65625 155.574219 100.875 157.578125 C 102.09375 159.585938 104.707031 160.226562 106.710938 159.007812 C 108.863281 157.699219 111.355469 156.558594 114.324219 155.519531 C 122.871094 152.53125 132.664062 150.492188 143.425781 149.457031 C 171.445312 146.761719 200.214844 152.894531 228.945312 167.695312 C 231.03125 168.769531 233.59375 167.949219 234.671875 165.863281 C 235.742188 163.777344 234.925781 161.214844 232.835938 160.136719 C 224.679688 155.9375 216.511719 152.398438 208.351562 149.53125 C 216.703125 134.867188 236.078125 109.574219 253.4375 102.6875 C 254.453125 103.179688 257.902344 105.886719 264.695312 120.683594 L 265.152344 121.679688 C 275.859375 144.472656 284.949219 177.863281 275.523438 197.273438 C 274.320312 198.929688 271.484375 203.214844 271.335938 206.871094 C 270.964844 215.992188 271.011719 224.09375 271.476562 231.632812 C 273.15625 258.882812 282.367188 283.296875 292.074219 305.617188 C 293.011719 307.769531 295.515625 308.753906 297.667969 307.820312 C 299.820312 306.882812 300.804688 304.378906 299.871094 302.226562 C 292.808594 285.988281 286.019531 268.644531 282.402344 250.023438 C 282.742188 249.917969 283.105469 249.800781 283.5 249.675781 C 286.222656 248.808594 286.507812 248.679688 286.738281 248.574219 C 289.425781 247.351562 292.109375 246.058594 294.710938 244.804688 C 296.230469 244.070312 297.753906 243.339844 299.28125 242.613281 C 312.027344 236.585938 325.292969 230.839844 339.84375 225.046875 C 374.507812 211.246094 425.230469 200.730469 470.011719 229.015625 C 498.046875 246.722656 515.472656 271.691406 525.105469 299.523438 C 525.164062 300.21875 525.390625 300.890625 525.769531 301.480469 C 540.242188 345.140625 535.882812 395.535156 523.402344 435.910156 Z M 367.570312 602.402344 C 365.332031 620.558594 361.757812 636.140625 356.644531 650.046875 C 356.335938 650.878906 355.984375 651.878906 355.585938 653.019531 C 352.417969 662.070312 345.824219 680.902344 334.183594 690.179688 C 326.25 696.503906 313.035156 697.152344 306.074219 691.667969 C 305.425781 688.871094 307.390625 679.421875 308.054688 676.234375 C 308.476562 674.191406 308.785156 672.714844 308.890625 671.75 C 311.765625 645.035156 312.429688 611.757812 295.753906 567.261719 C 297.871094 566.765625 299.851562 566.253906 301.628906 565.773438 C 319.851562 560.878906 337.941406 553.582031 356.941406 543.460938 C 361.054688 541.269531 365.320312 538.929688 369.703125 536.4375 C 371.5625 554.960938 370.886719 575.519531 367.570312 602.402344 Z M 705.613281 141.550781 C 698.34375 108.832031 682.632812 76.96875 668.476562 49.664062 C 662.117188 37.402344 644.605469 8.144531 619.40625 1.398438 C 607.820312 -1.703125 596.269531 0.359375 585.074219 7.523438 C 577.0625 12.652344 572.820312 18.957031 572.472656 26.257812 C 571.855469 39.101562 583.792969 50.453125 590.964844 56.078125 C 619.648438 78.578125 671.433594 154.351562 645.953125 189.78125 C 609.464844 240.515625 545.292969 243.175781 517.890625 244.3125 C 513.554688 244.492188 510.128906 244.636719 507.621094 244.917969 C 506.5625 245.039062 504.792969 245.238281 503.238281 245.953125 C 494.875 236.691406 485.285156 228.609375 474.550781 221.828125 C 436.710938 197.929688 389.042969 196.3125 336.699219 217.152344 C 321.980469 223.011719 308.554688 228.824219 295.648438 234.929688 C 294.101562 235.660156 292.5625 236.40625 291.019531 237.148438 C 288.496094 238.363281 285.886719 239.617188 283.316406 240.792969 C 282.964844 240.921875 281.976562 241.238281 281 241.550781 C 280.527344 238.113281 280.175781 234.632812 279.960938 231.109375 C 279.511719 223.859375 279.46875 216.046875 279.828125 207.222656 C 279.890625 206.367188 281.222656 203.847656 282.570312 202.039062 C 282.722656 201.835938 282.855469 201.617188 282.96875 201.390625 C 297.210938 172.914062 277.035156 126.984375 272.847656 118.066406 L 272.421875 117.140625 C 266.472656 104.179688 259.25 91.359375 250.789062 94.59375 C 230.992188 102.152344 210.035156 129.265625 200.78125 145.648438 C 200.550781 146.054688 200.394531 146.484375 200.308594 146.921875 C 180.941406 141.152344 161.636719 139.164062 142.613281 140.996094 C 139.621094 141.28125 136.695312 141.644531 133.84375 142.082031 C 133.796875 141.195312 133.472656 140.316406 132.863281 139.582031 C 132.238281 138.832031 131.296875 137.65625 130.097656 136.164062 C 100.90625 99.746094 86.058594 87.808594 77.136719 93.597656 C 72.625 96.523438 66.066406 106.328125 55.335938 156.582031 L 55.117188 157.605469 C 53.820312 163.65625 52.046875 176.71875 50.484375 188.246094 C 49.40625 196.183594 48.390625 203.683594 47.785156 206.9375 C 45.730469 217.945312 43.246094 228.347656 40.84375 238.402344 C 38.078125 249.964844 35.394531 261.207031 33.707031 272.238281 C 23.957031 271.949219 14.714844 272.007812 5.867188 272.410156 C 3.523438 272.515625 1.707031 274.503906 1.816406 276.847656 C 1.921875 279.195312 3.902344 280.996094 6.253906 280.902344 C 14.636719 280.519531 23.394531 280.457031 32.617188 280.714844 C 32.1875 284.898438 31.945312 289.058594 31.929688 293.195312 C 29.722656 293.371094 27.546875 293.550781 25.40625 293.746094 C 23.066406 293.957031 21.34375 296.023438 21.554688 298.359375 C 21.753906 300.566406 23.605469 302.230469 25.78125 302.230469 C 25.910156 302.230469 26.039062 302.222656 26.167969 302.210938 C 28.164062 302.03125 30.195312 301.863281 32.246094 301.699219 C 32.367188 303.160156 32.511719 304.617188 32.699219 306.074219 C 33.359375 311.1875 34.453125 316.171875 35.988281 321.058594 C 25.542969 325.347656 14.496094 330.246094 2.4375 335.929688 C 0.316406 336.933594 -0.59375 339.464844 0.40625 341.589844 C 1.132812 343.125 2.660156 344.027344 4.253906 344.027344 C 4.859375 344.027344 5.476562 343.894531 6.0625 343.621094 C 17.882812 338.046875 28.707031 333.242188 38.933594 329.035156 C 45.210938 343.820312 55.835938 357.828125 71.335938 371.929688 C 70.398438 384.769531 65.726562 450.609375 66.898438 474.085938 C 70.476562 545.886719 108.671875 593.367188 149.109375 643.632812 C 151.785156 646.960938 154.480469 650.304688 157.175781 653.679688 C 158.25 655.019531 159.96875 655.542969 161.535156 655.144531 C 152.222656 685.78125 142.871094 717.382812 139.335938 749.199219 C 139.140625 750.964844 140.089844 752.695312 141.675781 753.496094 C 143.359375 754.34375 150.046875 754.570312 155.824219 754.570312 C 158.953125 754.570312 161.8125 754.503906 163.464844 754.433594 C 177.816406 753.808594 186.929688 751.527344 191.324219 747.457031 C 197.046875 742.148438 201.953125 730.136719 206.277344 719.535156 C 207.859375 715.660156 209.355469 712.003906 210.53125 709.648438 C 217.570312 695.570312 226.121094 682.011719 234.394531 668.898438 C 242.441406 656.136719 250.765625 642.941406 257.773438 629.167969 C 267.402344 610.230469 272.617188 590.242188 275.472656 569.847656 C 275.640625 569.84375 275.8125 569.84375 275.984375 569.839844 C 277.949219 569.816406 280.871094 569.722656 282.640625 569.542969 C 284.210938 569.382812 285.769531 569.179688 287.300781 568.9375 C 303.859375 612.433594 303.234375 644.855469 300.4375 670.839844 C 300.378906 671.390625 300.050781 672.972656 299.730469 674.503906 C 296.988281 687.691406 296.347656 694.539062 300.117188 697.773438 C 309.917969 706.171875 328.3125 705.730469 339.480469 696.824219 C 353.035156 686.019531 360.175781 665.628906 363.609375 655.828125 C 363.988281 654.734375 364.324219 653.777344 364.617188 652.980469 C 369.960938 638.457031 373.6875 622.253906 376.007812 603.445312 C 379.277344 576.917969 380.03125 556.324219 378.363281 537.710938 C 380.433594 544.636719 383.300781 551.40625 386.101562 558.019531 C 391.617188 571.042969 396.824219 583.34375 396.394531 596.425781 C 395.996094 608.480469 391.441406 622.605469 386.621094 637.558594 C 380.136719 657.683594 372.78125 680.496094 374.65625 702.558594 C 375.152344 708.375 372.847656 713.046875 370.816406 717.171875 C 368.785156 721.292969 366.683594 725.554688 368.453125 729.921875 C 369.960938 733.636719 373.886719 736.070312 379.511719 736.78125 C 387.363281 737.765625 398.257812 735.367188 402.976562 728.96875 C 410.222656 719.15625 418.414062 700.105469 427.898438 678.046875 C 434.796875 662 441.933594 645.410156 449.226562 631.28125 C 454.964844 620.167969 461.824219 609.292969 469.089844 597.777344 C 483.0625 575.628906 497.515625 552.722656 503.507812 527.8125 C 506.828125 513.996094 509.097656 499.761719 511.074219 485.695312 C 513.445312 480.351562 515.777344 475.539062 518.042969 470.863281 C 522.949219 460.734375 527.582031 451.171875 531.523438 438.421875 C 543.90625 398.363281 546.597656 356.140625 539.101562 319.527344 C 537.773438 313.039062 536.128906 306.753906 534.183594 300.6875 C 536.234375 299.710938 541.324219 297.988281 553.636719 296.214844 C 564.371094 294.667969 576.191406 293.679688 584.011719 293.027344 C 586.976562 292.78125 589.320312 292.585938 590.695312 292.429688 C 627.585938 288.292969 668.566406 278.660156 692.839844 238.585938 C 709.746094 210.679688 713.925781 178.9375 705.613281 141.550781" fill="#6064b8"/></g></g></svg>