<?xml version="1.0" encoding="UTF-8"?><svg xmlns="http://www.w3.org/2000/svg" xmlns:xlink="http://www.w3.org/1999/xlink" height="669.9" preserveAspectRatio="xMidYMid meet" version="1.0" viewBox="0.0 0.0 752.5 669.9" width="752.5" zoomAndPan="magnify"><defs><clipPath id="a"><path d="M 0 431 L 709 431 L 709 669.859375 L 0 669.859375 Z M 0 431"/></clipPath><clipPath id="b"><path d="M 79 0 L 752.519531 0 L 752.519531 669.859375 L 79 669.859375 Z M 79 0"/></clipPath></defs><g><g clip-path="url(#a)" id="change1_1"><path d="M 274.273438 438.867188 C 313.234375 429.875 351.699219 429.886719 394.871094 433.511719 C 386.820312 457 362.582031 511.46875 356.15625 523.382812 C 350.972656 533 334.238281 544.898438 336.683594 556.988281 C 340.328125 575 373.433594 584.464844 387.222656 585.761719 C 449.503906 591.605469 474.785156 539.148438 497.34375 486.753906 C 500.285156 479.925781 497.34375 486.753906 508.542969 457.425781 C 610.796875 499.234375 708.136719 666.707031 708.136719 666.707031 C 708.136719 666.707031 -2.472656 673.621094 0.0078125 666.972656 C 5.808594 651.40625 29.128906 578.875 99.695312 520.367188 C 107.609375 525.613281 117.003906 527.953125 126.234375 529.859375 C 176.910156 540.332031 240.398438 494.667969 274.273438 438.867188" fill="#cbc933" fill-rule="evenodd"/></g><g clip-path="url(#b)"><path d="M 4097.734375 4617.271875 C 4141.328125 4631.88125 4185.039062 4646.021875 4228.867188 4660.00625 C 4331.914062 4692.857812 4445.976562 4715.31875 4543.515625 4762.310937 M 2950.78125 4750.045312 C 2986.679688 4737.35 3075.195312 4707.0375 3111.210938 4694.615625 C 3206.09375 4661.842187 3302.421875 4630.748437 3396.25 4595.435937 M 5752.382812 4504.967187 C 5811.992188 4444.889062 5921.210938 4337.271875 5979.492188 4276.021875 C 6172.109375 4073.6 6352.382812 3859.615625 6521.875 3638.951562 C 7040.3125 2963.873437 7658.320312 1457.310937 7436.210938 47.6625 M 2585.78125 3595.514062 C 2609.648438 3613.75625 2552.539062 3546.490625 2535.9375 3521.959375 C 2501.757812 3471.56875 2470 3419.654687 2437.070312 3368.560937 C 2336.796875 3213.092187 2238.28125 3056.490625 2131.796875 2904.810937 C 1996.914062 2712.6625 1845.859375 2529.69375 1660.546875 2379.967187 C 1514.6875 2262.154687 706.40625 1872.935937 854.21875 1649.5375 C 937.539062 1523.560937 1098.398438 1453.13125 1242.695312 1415.514062 C 1842.109375 1259.225 2345.898438 1819.146875 2677.578125 2210.904687 C 2773.632812 2324.38125 2870.507812 2438.795312 3000.234375 2591.998437 M 4719.101562 3485.982812 C 4718.789062 3499.38125 4610.9375 3427.50625 4608.867188 3425.7875 C 4562.617188 3387.076562 4519.101562 3345.279687 4478.398438 3301.178125 C 4342.8125 3154.303125 4231.25 2984.928125 4140.039062 2809.615625 C 3919.453125 2385.592187 3762.617188 1930.94375 3554.84375 1500.475 C 3517.65625 1423.404687 3358.046875 1217.467187 3366.835938 1128.717187 C 3371.914062 1077.467187 3532.773438 992.6625 3572.65625 967.115625 C 3687.34375 893.678125 3833.476562 872.428125 3968.164062 861.646875 C 4808.632812 794.342187 4976.601562 1980.31875 5216.015625 2535.396875 C 5302.382812 2735.63125 5420.625 2917.6625 5555.625 3090.63125 M 4533.398438 5987.115625 C 4709.023438 6105.592187 5121.640625 6556.060937 5152.734375 6556.451562 C 5211.015625 6557.115625 5350.585938 6271.217187 5368.632812 6231.060937 C 5530.546875 5870.357812 5601.132812 5513.248437 5575.3125 5121.803125 C 5575.3125 5121.803125 5896.328125 4318.482812 5685.078125 3939.498437 M 3521.210938 6082.857812 C 3423.320312 6177.975 3324.21875 6273.717187 3218.710938 6360.982812 C 3160.703125 6408.951562 2722.109375 6687.81875 2683.125 6653.13125 C 2644.765625 6619.06875 2634.53125 6458.521875 2623.90625 6413.209375 C 2574.6875 6203.834375 2532.96875 5990.201562 2540.742188 5774.654687 C 2544.335938 5674.654687 2586.210938 5393.9125 2586.171875 5393.44375 C 2565.195312 5232.271875 2506.992188 5068.248437 2451.25 4916.1 C 2379.023438 4718.990625 2245.820312 4529.06875 2231.09375 4316.060937 C 2198.59375 3845.865625 2627.460938 3621.178125 3029.726562 3527.701562 M 3355.3125 6014.732812 C 3392.421875 6031.295312 3432.148438 6042.935937 3471.5625 6053.13125 C 3571.132812 6078.873437 3672.8125 6095.240625 3775.625 6102.701562 C 4090.507812 6125.553125 4383.125 6057.975 4650.703125 5900.475" fill="none" stroke="#5e6697" stroke-linecap="round" stroke-linejoin="round" stroke-miterlimit="10" stroke-width="85" transform="matrix(.1 0 0 -.1 0 669.86)"/></g><path d="M 1225.3125 1412.467187 C 1241.953125 1518.9125 1719.335938 1875.357812 1827.773438 1947.076562 M 958.320312 1540.553125 C 953.789062 1536.842187 962.929688 1556.88125 963.085938 1557.19375 C 976.601562 1578.365625 992.5 1598.053125 1008.710938 1617.19375 C 1050.039062 1665.865625 1096.640625 1710.709375 1142.96875 1754.5375 C 1270.78125 1875.435937 1411.445312 1990.357812 1565.3125 2076.803125 M 3895 867.0375 C 3898.203125 867.857812 3908.28125 916.842187 3909.257812 920.201562 C 3924.804688 975.123437 3941.835938 1029.459375 3960.703125 1083.365625 C 4027.539062 1274.615625 4115.9375 1441.803125 4234.414062 1605.045312 M 3577.304688 969.967187 C 3571.171875 974.029687 3589.6875 1032.232812 3639.101562 1158.053125 C 3709.648438 1337.701562 3797.421875 1511.88125 3917.109375 1663.951562 M 2784.921875 3937.232812 C 2762.265625 3946.725 2502.578125 3870.357812 2473.398438 3863.2875 C 2179.179688 3791.88125 1885.976562 3714.967187 1593.75 3636.4125 M 2858.164062 4062.975 C 2859.335938 4062.232812 2855.390625 4063.521875 2853.984375 4063.678125 C 2820.78125 4067.428125 2786.835938 4066.178125 2753.554688 4065.514062 C 2672.265625 4063.951562 2591.132812 4059.810937 2510.078125 4053.951562 C 2258.125 4035.865625 2006.835938 4006.88125 1756.992188 3970.982812 M 2901.875 4199.146875 C 2901.71875 4206.4125 2750.039062 4232.975 2679.570312 4244.264062 C 2421.09375 4285.709375 2161.015625 4324.342187 1900.273438 4350.045312 M 4767.265625 3950.31875 C 4768.164062 3961.56875 4789.765625 3943.75625 4801.25 3941.490625 C 4829.570312 3935.865625 4857.890625 3930.396875 4886.054688 3923.990625 C 4959.296875 3907.310937 5032.460938 3890.045312 5105.507812 3872.467187 C 5315.195312 3821.842187 5522.617188 3762.389062 5726.914062 3694.342187 M 4773.125 4115.826562 C 4758.4375 4119.107812 4803.320312 4114.771875 4818.359375 4115.709375 C 4840.859375 4117.154687 4863.28125 4118.795312 4885.78125 4119.889062 C 4952.070312 4123.092187 5018.515625 4124.029687 5084.882812 4123.209375 C 5303.554688 4120.553125 5713.476562 4045.084375 5925.742188 3995.357812 M 4719.140625 4320.240625 C 4717.8125 4319.264062 4717.578125 4320.514062 4721.328125 4320.904687 C 4755.703125 4324.5375 4790 4329.06875 4824.414062 4332.623437 C 4894.453125 4339.889062 4964.609375 4345.904687 5034.804688 4351.685937 C 5260.859375 4370.357812 5666.953125 4368.404687 5893.710938 4374.38125 M 3711.71875 4182.584375 C 3758.75 4158.951562 3847.65625 4106.451562 3890.3125 4075.982812 M 3689.570312 4185.201562 C 3688.90625 4182.19375 3552.851562 4134.5375 3511.054688 4114.303125 M 3707.226562 4278.248437 L 3706.25 4212.232812" fill="none" stroke="#5e6697" stroke-linecap="round" stroke-linejoin="round" stroke-miterlimit="10" stroke-width="85" transform="matrix(.1 0 0 -.1 0 669.86)"/><g id="change2_1"><path d="M 290.519531 41.96875 C 275.992188 39.453125 273.246094 102.851562 278.496094 101.320312 C 285.816406 99.183594 312.609375 85.382812 323.816406 64.832031 C 326.648438 59.636719 296.285156 42.96875 290.519531 41.96875 Z M 515.382812 58.210938 C 506.796875 54.660156 484.804688 77.894531 485.496094 80.433594 C 489.277344 94.367188 523.558594 125.777344 527.257812 119.890625 C 535.621094 106.589844 530.175781 64.332031 515.382812 58.210938 Z M 385.03125 223.148438 C 385.277344 229.746094 372.761719 238.65625 371.3125 237.929688 C 367.628906 236.066406 358.789062 224.992188 361.078125 222.53125 C 363.363281 220.066406 384.917969 220.066406 385.03125 223.148438" fill="#e06cb9" fill-rule="evenodd"/></g></g></svg>