<?xml version="1.0" encoding="UTF-8"?><svg xmlns="http://www.w3.org/2000/svg" xmlns:xlink="http://www.w3.org/1999/xlink" height="769.1" preserveAspectRatio="xMidYMid meet" version="1.0" viewBox="-6.1 -7.3 753.6 769.1" width="753.6" zoomAndPan="magnify"><g><g id="change1_1"><path d="M 652.515625 24.949219 C 647.921875 21.574219 624.667969 21.003906 623.566406 25.398438 C 621.828125 32.34375 631.59375 46.925781 636.421875 46.847656 C 641.242188 46.773438 657.042969 28.277344 652.515625 24.949219 Z M 443.515625 67.570312 C 443.128906 70.207031 451.503906 75.921875 454.136719 74.964844 C 455.632812 74.425781 471.214844 56.1875 469.445312 54.953125 C 467.675781 53.722656 444.164062 63.144531 443.515625 67.570312 Z M 563.851562 131.375 C 564.265625 136.734375 558.320312 139.199219 555.515625 139.417969 C 552.707031 139.636719 546.441406 136.339844 547.015625 132.679688 C 547.699219 128.300781 563.601562 128.140625 563.851562 131.375" fill="#f48dcc" fill-rule="evenodd"/></g><g id="change2_1"><path d="M 490.132812 292.023438 C 489.605469 291.464844 511.019531 268.277344 520.445312 261.007812 C 546.832031 240.648438 585.636719 228.421875 606.855469 262.804688 C 616.132812 277.835938 618.308594 296.574219 618.175781 313.894531 C 617.960938 341.605469 600.476562 428.527344 576.847656 446.835938 C 559.800781 460.046875 537.644531 450.386719 518.390625 452.285156 C 506.445312 453.460938 496.269531 460.003906 485.609375 464.875 C 460.5625 476.320312 431.121094 474.445312 406.1875 463.113281 C 398.867188 459.785156 392.546875 453.808594 392.320312 445.320312 C 391.792969 425.589844 440.152344 340.863281 446.566406 344.308594 C 464.074219 353.710938 508.21875 379.523438 526.53125 369.683594 C 557.671875 352.960938 490.132812 292.023438 490.132812 292.023438" fill="#e6a8d2" fill-rule="evenodd"/></g><path d="M 4017.1875 2047.301563 C 3580.976562 1029.176563 739.765625 1392.496875 587.421875 934.176563 C 499.0625 668.278125 1192.03125 597.2625 1674.53125 564.723438 C 2513.789062 508.04375 3525.78125 1022.535938 3424.179688 446.598438 C 3291.992188 -302.620312 211.484375 96.129688 50.625 780.817188 C -36.640625 1152.184375 588.203125 1525.817188 1566.5625 1478.707813 C 2774.726562 1420.504688 3535.546875 1761.910938 3718.945312 2203.239063 M 4038.75 2049.723438 C 4011.40625 2052.8875 4093.085938 2041.0125 4120 2035.23125 C 4177.1875 2023.004688 4231.992188 2006.442188 4287.539062 1988.825 M 3263.828125 2199.7625 C 3376.328125 2159.45 3545.898438 2209.996875 3672.226562 2181.207813 M 4094.453125 4614.91875 C 4073.085938 4598.317188 4051.601562 4581.832813 4030.078125 4565.426563 C 3959.882812 4511.871875 3887.578125 4461.051563 3816.015625 4409.332813 C 3611.523438 4261.520313 3405.195312 4113.864063 3221.171875 3940.504688 C 2768.828125 3514.332813 2587.109375 2874.410938 2205.117188 2388.66875 C 2075.039062 2223.239063 1933.984375 2056.715625 1771.09375 1922.067188 C 1767.03125 1918.746875 1753.242188 1911.403125 1753.359375 1904.996875 C 1755.078125 1786.364063 2125.46875 1677.770313 2210.78125 1663.98125 C 2264.101562 1655.3875 2378.164062 1620.817188 2431.835938 1639.567188 C 2690.859375 1730.114063 3238.359375 2190.23125 3420.625 2422.2625 M 6923.554688 4938.66875 C 6909.0625 4936.715625 6909.570312 4915.114063 6908.125 4898.707813 C 6889.375 4688.317188 6954.960938 4460.192188 6998.671875 4256.676563 C 7090.117188 3830.895313 7084.960938 3455.817188 6870.664062 3065.504688 C 6442.578125 2285.778125 5903.359375 1874.098438 5096.914062 1540.035938 C 4823.125 1426.6375 4295.3125 1207.653125 4129.6875 1208.98125 C 4016.367188 1209.879688 4060.585938 1433.942188 4103.085938 1547.965625 C 4219.84375 1861.051563 4435.390625 2135.934375 4658.476562 2380.348438 C 4713.632812 2440.778125 4770.15625 2500.192188 4830.039062 2555.934375 C 4854.335938 2578.551563 4878.984375 2601.16875 4904.726562 2622.145313 C 4906.015625 2623.160938 4923.632812 2636.051563 4923.59375 2635.582813 M 4808.945312 5739.332813 C 4810.273438 5739.91875 4804.453125 5738.590625 4804.335938 5738.551563 C 4762.890625 5726.989063 4724.375 5685.973438 4693.164062 5659.059375 C 4619.765625 5595.817188 4549.101562 5528.785938 4484.921875 5456.16875 C 4291.953125 5237.692188 4125.546875 4980.465625 4097.148438 4684.45 C 4041.171875 4101.832813 5086.953125 3779.528125 5218.28125 3828.278125 C 5522.851562 3941.403125 5052.929688 4566.910938 4736.054688 4747.848438 M 6612.578125 5994.020313 C 6631.054688 6103.66875 6660.195312 6211.16875 6681.484375 6320.23125 C 6723.164062 6533.590625 6688.242188 6650.739063 6486.484375 6544.29375 C 6376.757812 6486.403125 6262.695312 6408.121875 6182.34375 6312.614063 C 6045.273438 6149.801563 6126.25 5894.410938 6172.226562 5711.559375 C 6179.609375 5682.10625 6236.054688 5531.325 6254.257812 5497.809375 C 6391.015625 5245.934375 6620.742188 5033.395313 6900.039062 4954.996875 C 7024.53125 4920.035938 7221.484375 4881.48125 7284.140625 4998.942188 C 7420.273438 5254.176563 7163.007812 5643.942188 6941.367188 5825.582813 C 6874.453125 5880.426563 6612.578125 5994.020313 6612.578125 5994.020313 Z M 5055.46875 5864.7625 C 5049.257812 5871.285938 4895.585938 5812.301563 4886.132812 5808.864063 C 4701.875 5741.364063 4522.65625 5667.926563 4348.671875 5589.684375 M 5023.59375 5972.184375 C 5023.632812 5972.340625 4998.359375 5967.73125 4997.226562 5967.496875 C 4972.1875 5962.028125 4947.460938 5955.85625 4922.773438 5949.7625 C 4864.53125 5935.3875 4806.640625 5920.426563 4748.984375 5905.153125 C 4560.585938 5855.075 4362.265625 5804.176563 4188.476562 5735.621875 M 4882.890625 6096.832813 C 4885.078125 6097.301563 4885.859375 6098.004688 4882.578125 6098.082813 C 4856.484375 6098.864063 4826.992188 6092.848438 4801.601562 6089.801563 C 4750.117188 6083.551563 4698.984375 6076.129688 4648.164062 6067.8875 C 4487.1875 6041.79375 4317.65625 6013.864063 4165.820312 5968.98125 M 5457.304688 6034.801563 C 5484.140625 6046.832813 5559.140625 6129.7625 5557.34375 6116.285938 L 5648.59375 6051.598438 M 5734.257812 6378.825 C 5729.335938 6383.590625 5747.890625 6378.864063 5754.726562 6379.176563 C 5769.882812 6379.801563 5785.078125 6380.504688 5800.15625 6382.10625 C 5846.953125 6387.028125 5895.625 6394.91875 5939.296875 6413.160938 M 2152.109375 1681.325 C 2151.484375 1681.910938 2197.851562 1720.582813 2200.3125 1722.692188 C 2258.4375 1772.926563 2316.796875 1822.73125 2375.9375 1871.754688 M 1951.757812 1761.832813 C 1946.835938 1762.575 2024.84375 1816.676563 2042.03125 1829.957813 C 2111.015625 1883.278125 2182.539062 1934.528125 2247.226562 1993.082813 M 4557.8125 1356.090625 C 4582.148438 1372.184375 4749.804688 1653.04375 4814.335938 1715.7 M 4255.703125 1242.10625 C 4257.304688 1240.778125 4290.234375 1321.910938 4316.992188 1368.590625 C 4373.320312 1466.754688 4437.421875 1562.809375 4510.507812 1649.332813 M 6423.359375 6486.246875 C 6365.273438 6412.2625 6329.960938 6240.270313 6323.828125 6148.473438 M 6589.257812 6570.114063 C 6576.835938 6571.325 6553.046875 6501.871875 6549.765625 6494.176563 C 6515.585938 6413.04375 6490.117188 6327.340625 6471.835938 6241.285938 M 5048.867188 4211.403125 C 5048.710938 4209.684375 5063.320312 4202.535938 5064.453125 4201.871875 C 5082.929688 4190.778125 5101.25 4179.371875 5119.335938 4167.614063 C 5185.46875 4124.801563 5241.640625 4076.832813 5291.835938 4016.598438 M 5027.695312 4037.184375 C 5101.601562 3990.85625 5197.539062 3943.2 5219.453125 3851.6375 M 5059.21875 6310.309375 C 5082.929688 6325.504688 5250.820312 6326.754688 5284.53125 6332.73125 M 4599.882812 6768.5125 C 4596.953125 6774.528125 4601.875 6755.192188 4601.679688 6748.5125 C 4601.289062 6736.0125 4600.15625 6723.629688 4598.710938 6711.207813 C 4594.0625 6671.207813 4587.734375 6631.364063 4581.835938 6591.520313 C 4563.320312 6466.520313 4538.125 6342.10625 4528.046875 6215.973438 C 4487.03125 5700.973438 4725.898438 5744.645313 5089.492188 5621.832813 M 6076.445312 7426.442188 C 6076.992188 7432.301563 6082.851562 7431.403125 6091.484375 7431.676563 C 6182.1875 7434.645313 6273.398438 7428.434375 6363.90625 7423.785938 C 6398.515625 7422.028125 6700.820312 7416.129688 6707.617188 7401.129688 C 6724.023438 7364.91875 6524.414062 7075.035938 6498.632812 7009.528125 C 6449.804688 6885.582813 6547.265625 6718.864063 6539.804688 6587.10625 M 4755.585938 7102.067188 C 4872.421875 7218.590625 5016.5625 7312.653125 5131.289062 7367.535938 C 5435.46875 7513.04375 5836.992188 7571.520313 6137.96875 7389.840625 M 4818.90625 7172.457813 C 4690.585938 7151.95 4292.773438 6955.465625 4221.484375 6818.004688 C 4219.453125 6814.1375 4328.90625 6767.73125 4333.90625 6765.3875 C 4414.179688 6727.41875 4485.664062 6687.184375 4547.617188 6623.35625" fill="none" stroke="#6064b8" stroke-linecap="round" stroke-linejoin="round" stroke-miterlimit="10" stroke-width="85" transform="matrix(.1 0 0 -.1 0 754.57)"/></g></svg>