<?xml version="1.0" encoding="UTF-8"?><svg xmlns="http://www.w3.org/2000/svg" xmlns:xlink="http://www.w3.org/1999/xlink" height="544.0" preserveAspectRatio="xMidYMid meet" version="1.0" viewBox="0.0 0.0 800.1 544.0" width="800.1" zoomAndPan="magnify"><defs><clipPath id="a"><path d="M 0 0 L 800.109375 0 L 800.109375 543.960938 L 0 543.960938 Z M 0 0"/></clipPath></defs><g><g id="change1_1"><path d="M 711.722656 93.050781 C 711.539062 91.019531 711.746094 78.296875 709.113281 77.402344 C 705.316406 76.109375 686.300781 100.667969 683.96875 104.15625 C 682.054688 107.027344 678.890625 110.960938 678.558594 114.574219 C 678.550781 114.648438 678.554688 115.070312 678.554688 115.066406 L 697.984375 129.683594 C 699.257812 130.421875 705.847656 135.847656 707.449219 135.265625 C 716.5625 131.96875 712.125 97.539062 711.722656 93.050781 Z M 532.625 131.472656 C 525.578125 126.941406 518.234375 122.941406 510.710938 119.257812 C 508.105469 117.984375 491.839844 110.195312 490.972656 112.648438 C 489.425781 117.035156 499.382812 136.855469 501.308594 141.078125 C 503.453125 145.78125 506.074219 155.707031 510.59375 158.902344 L 535.425781 145.230469 C 540.523438 138.144531 540.097656 136.277344 532.625 131.472656 Z M 457.765625 8.1875 C 456.921875 8.90625 453.558594 11.277344 452.40625 12.472656 C 449.367188 15.617188 446.445312 18.867188 443.65625 22.230469 C 435.183594 32.449219 427.324219 43.164062 419.984375 54.222656 C 407.25 73.410156 361.929688 156.003906 365.675781 179.363281 C 365.726562 179.699219 366.140625 178.859375 366.285156 178.554688 C 369.621094 171.550781 372.960938 164.621094 376.738281 157.828125 C 384.757812 143.414062 393.617188 129.421875 403.359375 116.101562 C 434.976562 72.867188 473.53125 43.476562 519.675781 18.414062 Z M 457.539062 8.148438 L 457.765625 8.1875 C 458.058594 7.9375 458.050781 7.882812 457.539062 8.148438 Z M 416.433594 5.839844 C 372.671875 24.804688 341.144531 65.242188 316.390625 104.050781 C 311.394531 111.878906 306.601562 119.835938 302.09375 127.957031 C 300.949219 130.019531 290.574219 155.28125 288.671875 155.414062 C 285.796875 155.617188 291.3125 129.234375 295.058594 114.617188 C 303.164062 82.984375 319.914062 35.59375 347.65625 16.234375 L 416.433594 5.839844" fill="#ba76c2" fill-rule="evenodd"/></g><g clip-path="url(#a)" id="change2_1"><path d="M 591.359375 287.042969 C 589.855469 286.121094 588.136719 286.179688 586.207031 287.226562 C 580.851562 289.785156 575.480469 292.488281 570.28125 295.101562 C 568.644531 295.929688 567.003906 296.753906 565.359375 297.578125 L 561.234375 299.636719 C 541.640625 309.429688 521.382812 319.550781 503.445312 333.007812 C 501.570312 334.414062 501.1875 337.078125 502.597656 338.957031 C 503.433594 340.070312 504.710938 340.65625 506 340.65625 C 506.890625 340.65625 507.785156 340.378906 508.550781 339.804688 C 525.867188 326.808594 545.777344 316.863281 565.035156 307.242188 L 569.164062 305.179688 C 570.8125 304.351562 572.457031 303.523438 574.105469 302.695312 C 579.285156 300.089844 584.644531 297.390625 589.933594 294.867188 C 589.957031 294.855469 589.980469 294.84375 590.007812 294.832031 C 591.117188 294.601562 592.136719 293.929688 592.773438 292.886719 C 593.996094 290.882812 593.363281 288.265625 591.359375 287.042969 Z M 408.3125 362.039062 C 408.539062 361.855469 408.78125 361.691406 409.046875 361.554688 C 408.777344 361.695312 408.53125 361.855469 408.3125 362.039062 Z M 732.890625 238.75 C 726.144531 240.851562 719.308594 243.214844 712.382812 245.859375 C 709.808594 246.839844 705.890625 249.0625 702.097656 251.210938 C 696.453125 254.40625 691.121094 257.425781 687.4375 258.132812 C 687.167969 258.183594 686.898438 258.210938 686.632812 258.210938 C 684.632812 258.210938 682.851562 256.792969 682.464844 254.757812 C 682.019531 252.453125 683.53125 250.226562 685.835938 249.785156 C 688.148438 249.34375 693.558594 246.277344 697.910156 243.8125 C 702.160156 241.402344 706.179688 239.128906 709.351562 237.917969 C 717.214844 234.914062 724.976562 232.257812 732.628906 229.933594 C 731.574219 217.617188 727.90625 205.949219 724.097656 193.816406 C 720.058594 180.964844 715.882812 167.675781 715.007812 153.355469 C 714.953125 152.464844 715.179688 151.621094 715.605469 150.910156 C 715.355469 149.988281 715.417969 148.976562 715.847656 148.035156 C 724.273438 129.636719 726.90625 107.1875 724.128906 77.378906 L 723.757812 73.339844 C 723.265625 68.046875 722.761719 62.574219 722.191406 57.21875 C 722.148438 56.824219 722.140625 56.417969 722.148438 56.007812 C 709.90625 60.855469 695.667969 72.199219 685.875 80.003906 L 683.109375 82.203125 C 674.648438 88.90625 667.996094 96.386719 661.019531 107.0625 C 661.148438 107.890625 661.035156 108.761719 660.640625 109.566406 C 659.613281 111.679688 657.070312 112.554688 654.960938 111.53125 C 618.753906 93.910156 577.558594 106.070312 555.585938 127.183594 C 553.890625 128.808594 551.199219 128.753906 549.574219 127.0625 C 548.664062 126.113281 548.277344 124.851562 548.417969 123.640625 C 521.367188 113.648438 485.160156 101.058594 472.398438 97.761719 C 475.347656 111.605469 486.515625 151.066406 488.929688 157.214844 C 491.421875 163.574219 495.355469 172.328125 501.457031 177.675781 C 502.070312 174.261719 502.628906 170.652344 502.863281 167.117188 C 502.921875 163.988281 504.753906 162.933594 505.847656 162.578125 C 507.582031 162.015625 509.5 162.632812 510.585938 164.101562 C 511.304688 165.070312 511.546875 166.242188 511.359375 167.347656 C 511.359375 167.433594 511.355469 167.5 511.351562 167.53125 C 510.996094 173.074219 509.972656 178.480469 509.066406 183.25 C 507.972656 188.992188 506.675781 194.753906 505.417969 200.324219 C 504.414062 204.773438 503.378906 209.375 502.464844 213.898438 C 494.382812 253.839844 503.121094 281.625 528.414062 296.679688 C 538.597656 291.574219 548.886719 287.167969 559.394531 283.40625 C 566.214844 280.964844 573.617188 278.554688 582.03125 276.046875 C 583.074219 275.734375 584.125 275.402344 585.179688 275.066406 C 588.21875 274.105469 591.359375 273.109375 594.617188 272.507812 C 596.449219 272.132812 597.949219 272.488281 599.070312 273.570312 C 600.089844 274.550781 600.554688 275.976562 600.308594 277.371094 C 599.949219 279.433594 598.152344 280.886719 596.128906 280.886719 C 596.105469 280.886719 596.082031 280.886719 596.058594 280.886719 C 593.351562 281.394531 590.628906 282.257812 587.746094 283.171875 C 586.648438 283.519531 585.550781 283.863281 584.464844 284.191406 C 576.195312 286.65625 568.933594 289.015625 562.257812 291.40625 C 554.050781 294.34375 545.980469 297.695312 537.984375 301.476562 C 540.046875 302.429688 541.011719 304.839844 540.132812 306.953125 C 539.230469 309.121094 536.746094 310.148438 534.574219 309.246094 C 532.382812 308.335938 530.277344 307.355469 528.246094 306.308594 C 517.203125 312.066406 506.261719 318.6875 495.273438 326.261719 C 494.535156 326.765625 493.695312 327.011719 492.863281 327.011719 C 491.515625 327.011719 490.183594 326.367188 489.359375 325.171875 C 488.03125 323.238281 488.519531 320.59375 490.449219 319.261719 C 500.214844 312.53125 509.949219 306.535156 519.753906 301.203125 C 494.664062 283.753906 485.808594 253.351562 494.132812 212.210938 C 495.066406 207.597656 496.113281 202.949219 497.128906 198.457031 C 497.980469 194.664062 498.855469 190.785156 499.664062 186.90625 C 499.265625 186.664062 498.84375 186.390625 498.398438 186.078125 C 489.460938 179.742188 484.414062 168.984375 481.015625 160.320312 C 479.761719 157.121094 475.042969 141.21875 470.921875 126.28125 C 462.460938 95.636719 463.011719 93.335938 463.339844 91.960938 C 463.632812 90.714844 464.460938 89.652344 465.605469 89.042969 C 467.742188 87.902344 469.433594 86.996094 506.574219 99.722656 C 525.574219 106.230469 545.621094 113.535156 554.449219 116.8125 C 577.785156 97.46875 610.933594 90.292969 640.414062 97.382812 C 576.328125 36.945312 520.410156 18.816406 456.949219 10.730469 C 370.066406 -0.339844 276.597656 30.261719 218.8125 88.683594 C 187.285156 120.554688 152.03125 175.324219 163.105469 255.25 C 167.210938 284.871094 174.644531 322.367188 195.855469 349.625 C 229.472656 392.816406 290.671875 427.257812 363.769531 444.117188 C 431.050781 459.636719 499.703125 457.816406 542.9375 439.363281 C 583.414062 422.089844 603.039062 402.007812 608.542969 388.378906 C 599.304688 392.707031 589.1875 396.566406 578.203125 399.945312 C 572.070312 401.828125 543.066406 408.511719 526.234375 409.808594 C 501.71875 411.695312 485.265625 404.179688 467.839844 396.21875 C 461.140625 393.15625 454.210938 389.992188 446.628906 387.296875 L 444.300781 386.472656 C 432.226562 382.203125 419.742188 377.785156 408.964844 370.1875 C 407.921875 369.453125 407.3125 368.339844 407.1875 367.164062 C 407.074219 366.933594 406.980469 366.6875 406.914062 366.429688 C 406.835938 366.140625 406.789062 365.847656 406.769531 365.5625 C 405.535156 359.972656 385.914062 295.5625 374.195312 275.234375 C 373.050781 273.25 371.894531 271.324219 370.753906 269.515625 C 353.636719 242.359375 311.011719 212.992188 279.535156 206.664062 C 277.234375 206.203125 275.742188 203.964844 276.207031 201.660156 C 276.667969 199.363281 278.90625 197.871094 281.210938 198.332031 C 314.585938 205.039062 359.789062 236.183594 377.945312 264.984375 C 379.144531 266.890625 380.363281 268.910156 381.558594 270.988281 C 388.363281 282.796875 397.144531 307.226562 403.3125 325.640625 C 407.386719 337.804688 410.402344 347.582031 411.835938 352.328125 C 413.875 359.085938 414.816406 362.332031 415.148438 364.128906 C 424.714844 370.527344 436.105469 374.558594 447.136719 378.460938 L 449.472656 379.289062 C 457.40625 382.105469 464.507812 385.347656 471.371094 388.484375 C 488.480469 396.304688 503.265625 403.050781 525.582031 401.335938 C 541.855469 400.082031 570.453125 393.433594 575.703125 391.820312 C 622.195312 377.519531 652.113281 354.53125 664.625 323.492188 C 665.503906 321.316406 667.984375 320.265625 670.15625 321.140625 C 672.332031 322.019531 673.386719 324.496094 672.507812 326.671875 C 663.53125 348.945312 646.519531 367.300781 621.726562 381.535156 C 623.5625 381.429688 625.410156 381.347656 627.257812 381.265625 C 631.046875 381.101562 634.625 380.945312 638.238281 380.554688 C 651.183594 379.15625 662.839844 375.765625 672.886719 370.476562 C 702.464844 354.90625 739.039062 315.6875 726.863281 279.335938 C 724.972656 281.8125 722.964844 284.113281 720.871094 286.136719 C 710.046875 296.609375 688.222656 306.105469 676.496094 311.210938 C 675.945312 311.453125 675.367188 311.566406 674.800781 311.566406 C 673.160156 311.566406 671.59375 310.613281 670.898438 309.011719 C 669.960938 306.859375 670.9375 304.359375 673.089844 303.425781 L 673.105469 303.417969 C 683.535156 298.878906 705.242188 289.429688 714.964844 280.027344 C 715.445312 279.566406 715.917969 279.078125 716.390625 278.578125 C 715.972656 278.683594 715.554688 278.789062 715.140625 278.894531 C 706.074219 281.1875 700.304688 282.492188 696.535156 281.285156 C 694.300781 280.566406 693.070312 278.175781 693.789062 275.9375 C 694.503906 273.707031 696.890625 272.476562 699.117188 273.1875 C 701.082031 273.679688 708.871094 271.714844 713.054688 270.65625 C 717.367188 269.5625 721.09375 268.621094 723.617188 268.472656 C 723.75 268.464844 723.882812 268.464844 724.015625 268.457031 C 725.707031 265.675781 727.21875 262.761719 728.480469 259.835938 C 720.566406 261.539062 712.726562 263.710938 705.074219 266.574219 C 704.941406 266.640625 704.757812 266.738281 704.550781 266.847656 C 702.8125 267.753906 701.148438 268.628906 699.476562 268.628906 C 698.769531 268.628906 698.0625 268.472656 697.351562 268.097656 C 695.273438 267.003906 694.472656 264.433594 695.566406 262.355469 C 696.28125 261 697.625 260.1875 699.050781 260.09375 C 699.523438 259.882812 700.25 259.503906 700.605469 259.316406 C 701.191406 259.011719 701.578125 258.808594 701.976562 258.65625 C 711.691406 255.011719 721.625 252.4375 731.589844 250.527344 C 731.855469 249.363281 732.082031 248.21875 732.234375 247.113281 C 732.625 244.273438 732.824219 241.492188 732.890625 238.75 Z M 152.679688 233.707031 C 152.496094 228.742188 152.484375 223.828125 152.640625 218.945312 C 152.121094 219.382812 151.613281 219.796875 151.125 220.1875 C 145.359375 224.839844 139.226562 229.097656 133.292969 233.21875 C 131.703125 234.320312 130.113281 235.425781 128.53125 236.535156 L 128.113281 236.828125 C 108.132812 250.855469 87.46875 265.359375 69.160156 281.746094 C 20.628906 325.179688 -15.796875 397.167969 27.511719 468.945312 C 61.019531 524.476562 126.210938 518.257812 183.726562 512.773438 C 191.878906 511.996094 199.578125 511.261719 207.230469 510.683594 C 219.363281 509.765625 232.339844 509.027344 245.734375 509.027344 C 265.910156 509.027344 287.035156 510.703125 307.652344 515.957031 C 316.078125 518.105469 324.691406 521.195312 333.019531 524.183594 C 358.804688 533.433594 383.164062 542.175781 407.050781 527.992188 C 414.625 523.496094 419.175781 518.21875 420.570312 512.304688 C 422.386719 504.613281 421.226562 498.550781 417.027344 493.765625 C 409.304688 484.964844 387.4375 475.761719 327.09375 481.90625 C 291.523438 485.53125 255.578125 483.988281 220.820312 482.496094 C 216.792969 482.324219 212.761719 482.152344 208.730469 481.988281 C 201.066406 481.675781 193.117188 481.574219 185.429688 481.480469 C 163.863281 481.21875 141.5625 480.941406 120.359375 476.023438 C 92.304688 469.519531 69.777344 453.253906 56.929688 430.226562 C 44.136719 407.300781 42.121094 379.734375 51.257812 352.613281 C 56.523438 336.988281 64.5625 321.621094 75.839844 305.632812 C 90.933594 284.230469 112.21875 266.851562 132.804688 250.046875 C 139.402344 244.65625 145.636719 239.566406 151.652344 234.367188 C 151.96875 234.089844 152.316406 233.871094 152.679688 233.707031 Z M 800.101562 222.480469 C 800.214844 224.824219 798.402344 226.816406 796.058594 226.925781 C 778.800781 227.746094 760.503906 230.871094 741.410156 236.230469 C 741.441406 240.152344 741.21875 244.160156 740.65625 248.269531 C 740.621094 248.503906 740.574219 248.742188 740.539062 248.976562 C 751.941406 247.210938 763.3125 246.167969 774.367188 245.289062 C 776.699219 245.113281 778.757812 246.847656 778.941406 249.1875 C 779.128906 251.527344 777.382812 253.574219 775.042969 253.761719 C 763.023438 254.71875 750.632812 255.867188 738.300781 257.953125 C 737.148438 261.363281 735.667969 264.816406 733.925781 268.175781 C 753.476562 268.136719 773.066406 271.191406 792.296875 277.316406 C 794.535156 278.027344 795.769531 280.417969 795.058594 282.65625 C 794.34375 284.890625 791.957031 286.128906 789.71875 285.414062 C 771.660156 279.664062 753.28125 276.730469 734.945312 276.664062 C 741.054688 294.871094 737.394531 314.976562 724.257812 335.082031 C 713.058594 352.222656 695.335938 368.261719 676.847656 377.996094 C 665.847656 383.785156 653.164062 387.492188 639.152344 389.007812 C 635.269531 389.425781 631.382812 389.59375 627.628906 389.757812 C 625.652344 389.84375 623.679688 389.929688 621.703125 390.054688 C 621.652344 390.058594 621.523438 390.082031 621.386719 390.101562 C 620.621094 390.214844 618.695312 390.503906 617.183594 389.457031 C 613.542969 400.085938 599.5625 424.4375 546.273438 447.183594 C 500.792969 466.597656 431.851562 468.546875 361.855469 452.398438 C 286.890625 435.105469 223.941406 399.550781 189.148438 354.847656 C 166.695312 325.996094 158.9375 287.089844 154.6875 256.417969 C 154.113281 252.296875 153.65625 248.199219 153.316406 244.128906 C 148.433594 248.253906 143.421875 252.347656 138.179688 256.628906 C 118.039062 273.074219 97.210938 290.078125 82.785156 310.53125 C 71.988281 325.839844 64.308594 340.492188 59.3125 355.328125 C 50.953125 380.148438 52.738281 405.277344 64.351562 426.085938 C 76.019531 446.992188 96.589844 461.785156 122.28125 467.746094 C 142.585938 472.453125 164.421875 472.722656 185.535156 472.980469 C 193.28125 473.078125 201.292969 473.175781 209.078125 473.496094 C 213.117188 473.660156 217.152344 473.832031 221.183594 474.007812 C 255.640625 475.484375 291.273438 477.011719 326.234375 473.449219 C 377.574219 468.226562 410.269531 473.175781 423.417969 488.160156 C 429.476562 495.0625 431.300781 503.84375 428.84375 514.257812 C 426.894531 522.503906 421.023438 529.582031 411.390625 535.304688 C 400.808594 541.582031 390.210938 543.960938 379.664062 543.960938 C 362.96875 543.960938 346.390625 538.011719 330.152344 532.183594 C 321.632812 529.128906 313.585938 526.242188 305.554688 524.195312 C 272.4375 515.753906 237.589844 516.914062 207.871094 519.160156 C 200.304688 519.730469 192.644531 520.460938 184.535156 521.234375 C 124.523438 526.960938 56.503906 533.445312 20.234375 473.335938 C 0.4375 440.523438 -4.964844 403.804688 4.613281 367.148438 C 13.324219 333.8125 33.683594 302.089844 63.492188 275.410156 C 82.175781 258.691406 103.046875 244.039062 123.230469 229.871094 L 123.648438 229.578125 C 125.242188 228.460938 126.84375 227.347656 128.445312 226.234375 C 134.253906 222.199219 140.261719 218.03125 145.789062 213.574219 C 147.449219 212.234375 149.367188 210.636719 151.046875 208.894531 C 151.21875 208.660156 151.496094 208.269531 151.6875 207.984375 C 152.035156 207.121094 152.664062 206.382812 153.476562 205.902344 C 157.921875 159.816406 177.972656 117.882812 212.769531 82.703125 C 272.347656 22.46875 368.613281 -9.09375 458.023438 2.296875 C 539.726562 12.707031 595.082031 40.132812 655.445312 100.101562 C 662.402344 89.828125 669.246094 82.34375 677.828125 75.542969 L 680.578125 73.355469 C 692.859375 63.570312 709.683594 50.167969 724.519531 46.28125 C 726.1875 45.84375 727.859375 46.207031 729.105469 47.28125 C 731.363281 49.222656 731.039062 52.207031 730.78125 54.601562 C 730.71875 55.175781 730.625 56.039062 730.644531 56.335938 C 731.222656 61.738281 731.726562 67.238281 732.21875 72.558594 L 732.59375 76.589844 C 735.511719 107.941406 732.648438 131.769531 723.574219 151.574219 C 723.507812 151.722656 723.433594 151.859375 723.355469 151.992188 C 723.429688 152.265625 723.476562 152.546875 723.492188 152.839844 C 724.300781 166.117188 728.140625 178.335938 732.203125 191.269531 C 735.863281 202.910156 739.585938 214.816406 740.90625 227.550781 C 759.976562 222.324219 778.304688 219.257812 795.65625 218.4375 C 797.992188 218.304688 799.992188 220.136719 800.101562 222.480469 Z M 665.980469 272.28125 C 663.941406 271.109375 661.347656 271.820312 660.179688 273.855469 C 658.679688 276.472656 654.800781 278.160156 653.496094 277.578125 C 652.597656 276.835938 650.5 273.992188 650.109375 273.078125 C 649.289062 270.890625 646.910156 269.949219 644.660156 270.585938 C 639.726562 271.980469 638.976562 271.039062 636.097656 278.222656 C 634.746094 280.8125 632.101562 282.578125 627.773438 283.773438 C 625.511719 284.402344 624.183594 286.742188 624.808594 289.003906 C 625.332031 290.886719 627.039062 292.121094 628.902344 292.121094 C 629.277344 292.121094 629.660156 292.070312 630.039062 291.96875 C 636.703125 290.121094 641.148438 286.914062 643.632812 282.15625 C 643.742188 281.949219 643.90625 281.636719 644.496094 280.074219 C 645.9375 282.074219 647.742188 284.078125 649.191406 284.910156 C 655.3125 288.421875 664.089844 284.125 667.554688 278.082031 C 668.722656 276.046875 668.019531 273.449219 665.980469 272.28125 Z M 583.777344 300.386719 C 583.347656 300.578125 582.96875 300.828125 582.640625 301.128906 C 582.332031 301.304688 581.96875 301.507812 581.59375 301.722656 C 580.566406 302.304688 579.503906 302.90625 578.855469 303.3125 C 576.652344 304.691406 574.457031 306.132812 572.332031 307.523438 L 570.492188 308.726562 C 561.175781 314.804688 553.203125 320.316406 546.113281 325.582031 C 544.230469 326.980469 543.835938 329.640625 545.234375 331.527344 C 546.066406 332.648438 547.351562 333.242188 548.648438 333.242188 C 549.53125 333.242188 550.417969 332.96875 551.179688 332.40625 C 558.132812 327.246094 565.96875 321.828125 575.136719 315.84375 L 576.992188 314.632812 C 579.078125 313.265625 581.234375 311.851562 583.363281 310.519531 C 583.902344 310.183594 584.886719 309.628906 585.789062 309.113281 C 588.183594 307.753906 591.457031 305.894531 589.617188 302.242188 C 588.984375 300.984375 586.949219 298.980469 583.777344 300.386719 Z M 691.867188 224.289062 C 693.03125 222.25 692.320312 219.652344 690.285156 218.488281 C 688.246094 217.324219 685.648438 218.03125 684.484375 220.070312 C 682.160156 224.136719 678.457031 226.4375 672.492188 227.507812 C 671.011719 227.320312 666.324219 225.734375 664.808594 225.132812 C 664.589844 225.027344 664.359375 224.941406 664.117188 224.875 C 662.433594 224.402344 660.625 225.007812 659.570312 226.394531 C 658.515625 227.78125 658.417969 229.675781 659.320312 231.167969 C 660.898438 233.769531 670.058594 235.976562 673.058594 235.976562 C 673.28125 235.976562 673.472656 235.964844 673.621094 235.9375 C 682.257812 234.46875 688.226562 230.65625 691.867188 224.289062 Z M 614.785156 237.980469 C 616.398438 239.683594 616.332031 242.371094 614.632812 243.988281 C 610.136719 248.261719 603.28125 249.757812 597.398438 249.757812 C 596.207031 249.757812 595.058594 249.695312 593.976562 249.582031 C 587.40625 248.90625 582.144531 246.359375 579.535156 242.597656 C 578.199219 240.664062 578.679688 238.019531 580.609375 236.683594 C 582.539062 235.34375 585.183594 235.824219 586.523438 237.757812 C 587.664062 239.402344 590.929688 240.726562 594.847656 241.128906 C 600.394531 241.695312 606.128906 240.34375 608.773438 237.828125 C 610.476562 236.210938 613.167969 236.28125 614.785156 237.980469" fill="#5158b0"/></g><g id="change3_1"><path d="M 634.335938 261.738281 C 634.816406 260.070312 649.085938 258.105469 651.273438 259.171875 C 653.460938 260.234375 648.335938 266.90625 647.46875 268.113281 C 642.972656 274.363281 633.246094 265.523438 634.335938 261.738281" fill="#e984c8" fill-rule="evenodd"/></g></g></svg>