<svg height="512" viewBox="0 0 128 128" width="512" xmlns="http://www.w3.org/2000/svg"><g><circle cx="64" cy="64" fill="#dfdfe5" r="57.5"/><circle cx="64" cy="64" fill="#efeffb" r="48.5"/><path d="m95.942 93.755a1.75 1.75 0 0 1 -1.314-2.9 41.246 41.246 0 0 0 3.953-5.316 1.751 1.751 0 0 1 2.969 1.856 44.791 44.791 0 0 1 -4.291 5.768 1.744 1.744 0 0 1 -1.317.592z" fill="#dfdfe5"/><path d="m84.92 50.6a21.223 21.223 0 0 0 -41.68-5.53 4.338 4.338 0 0 0 -.16 1.17 4.526 4.526 0 0 0 4.52 4.48 4.579 4.579 0 0 0 4.36-3.38 12.218 12.218 0 1 1 16.24 14.741 12.015 12.015 0 0 1 -4.5.86h-.048a4.454 4.454 0 0 0 -4.452 4.444v11.743h-3.5a4.5 4.5 0 0 0 -4.5 4.5 4.5 4.5 0 0 0 4.5 4.5h3.5v5.872a4.5 4.5 0 0 0 4.5 4.5 4.5 4.5 0 0 0 4.5-4.5v-5.872h3.5a4.5 4.5 0 0 0 4.5-4.5 4.5 4.5 0 0 0 -4.5-4.5h-3.5v-7.667a21.215 21.215 0 0 0 16.72-20.861z" fill="#b560e8"/></g></svg>