<svg width="270" height="208" viewBox="0 0 270 208" fill="none" xmlns="http://www.w3.org/2000/svg">
<path d="M198.008 130.156C191.537 130.398 187.035 128.21 183.511 122.867C177.529 113.793 181.038 105.067 187.82 98.9057C193.255 93.9658 200.925 95.7511 205.071 101.899C206.611 104.168 207.884 106.222 210.979 107.188C213.274 107.9 214.799 109.806 214.992 112.289C215.17 114.571 216.68 116.652 215.703 119.122C213.659 124.29 205.885 129.807 199.814 130.156C199.237 130.183 198.615 130.156 198.008 130.156Z" fill="white"/>
<path d="M110.792 197.301C110.629 202.993 109.577 204.161 104.824 205.973C99.4786 208.013 93.985 208.443 88.3582 207.557C82.5685 206.644 79.6514 202.698 77.7412 198.268C75.6089 193.341 76.986 188.697 81.0433 184.992C84.7007 181.649 88.7728 180.173 94.5625 181.287C98.6346 182.065 101.078 183.475 102.988 186.388C103.477 187.113 103.995 187.77 104.869 188.106C109.918 190.053 110.688 194.012 110.792 197.301Z" fill="white"/>
<path d="M211.912 180.763C207.766 181.434 204.804 179.998 202.406 177.448C195.727 170.347 197.119 159.03 205.323 153.325C208.121 151.379 213.556 151.271 216.399 153.352C218.146 154.627 220.071 155.835 221.122 157.742C221.833 159.044 223.018 159.795 224.321 160.547C226.971 162.078 227.667 163.675 226.853 166.467C226.586 167.38 226.053 168.172 226.394 169.205C226.794 170.414 228.778 171.192 227.623 172.83C226.083 175.018 224.72 177.3 222.129 178.736C218.857 180.535 215.214 180.522 211.912 180.763Z" fill="white"/>
<path d="M122.86 66.3264C116.907 66.3533 112.406 64.2994 109.637 59.2253C106.779 54.0035 107.03 49.0904 110.747 44.419C114.123 40.1771 121.557 39.0495 126.798 41.3315C131.478 43.3719 134.41 47.1171 138.111 50.0703C140.614 52.0705 140.495 55.2653 138.037 57.252C136.586 58.4199 137.267 59.9367 136.142 61.212C132.633 65.1988 128.161 66.4606 122.86 66.3264ZM130.323 52.3926C130.249 50.661 127.702 48.6071 125.969 48.8085C124.651 48.9562 124.222 49.7482 124.326 50.8489C124.503 52.7819 126.71 54.97 128.294 54.7149C129.686 54.4867 130.189 53.4934 130.323 52.3926Z" fill="white"/>
<path d="M149.528 26.6594C139.814 26.4849 133.743 19.4107 135.935 10.6987C136.409 8.83279 137.06 6.96689 137.874 5.20839C139.429 1.86589 142.302 0 146.315 0C150.446 0.0134237 153.867 1.73166 155.51 5.12785C157.021 8.24214 159.005 10.3228 162.573 11.5712C165.831 12.7122 166.157 14.6452 166.009 17.9877C165.816 22.1491 163.565 24.0284 159.331 25.0352C156.088 25.8003 152.889 26.5923 149.528 26.6594Z" fill="white"/>
<path d="M64.3256 135.217C58.1657 135.096 52.835 131.176 50.6583 125.082C47.8597 117.269 49.9771 111.739 57.3069 107.806C58.8765 106.96 60.5497 106.624 62.0304 107.443C64.8143 108.973 68.0423 110.007 69.6563 112.947C70.2486 114.034 71.2111 114.907 72.4845 115.538C76.6899 117.605 79.1775 120.665 78.526 125.203C77.8004 130.344 74.0838 133.123 68.9307 134.546C67.3611 134.975 65.6583 135.029 64.3256 135.217Z" fill="white"/>
<path d="M40.3523 172.722C40.1302 164.037 49.9327 157.446 57.7955 161.326C62.2822 163.541 64.8735 167.944 68.9752 170.857C71.2259 172.454 70.6928 175.998 69.064 178.575C67.0502 181.757 64.3108 184.092 60.3276 185.368C57.1292 186.388 53.7975 186.24 50.5546 186.764C48.3631 187.113 45.9199 185.945 44.3799 183.931C42.3217 181.22 40.4411 176.266 40.3523 172.722ZM53.294 177.877C56.1519 177.206 57.4994 175.729 58.5803 173.931C58.9505 173.313 59.143 172.615 58.3582 172.159C57.677 171.769 56.9071 171.863 56.2851 172.333C54.6415 173.608 53.6494 175.206 53.294 177.877Z" fill="white"/>
<path d="M161.019 200.885C153.052 200.953 145.93 196.013 143.946 189.099C143.146 186.321 143.679 183.945 146.33 182.133C147.292 181.475 148.447 180.871 149.054 179.998C150.727 177.582 153.2 177.287 156.028 176.938C160.945 176.347 164.661 177.3 166.734 181.716C167.504 183.341 169.207 184.052 170.88 184.75C173.427 185.811 174.316 187.596 173.96 190.093C173.176 195.637 169.414 200.845 161.019 200.885Z" fill="white"/>
<path d="M151.897 106.812C147.203 107.269 144.123 105.134 141.695 101.523C137.09 94.6639 139.785 84.086 147.262 80.4079C151.112 78.5152 153.985 78.7971 156.458 81.9516C158.664 84.7706 161.478 86.9855 164.217 89.281C167.164 91.7509 167.712 94.6504 166.409 97.9392C164.025 103.873 159.775 106.477 151.897 106.812ZM155.362 93.2812C153.319 95.0666 152.238 96.6237 152.164 98.9192C156.043 97.5231 156.191 97.2815 155.362 93.2812Z" fill="white"/>
<path d="M150.935 155.419C148.802 155.312 146.611 155.339 144.923 153.889C138.482 148.359 135.461 141.955 139.651 134.331C143.62 127.095 152.075 127.713 156.191 132.868C156.991 133.861 157.894 134.801 158.797 135.713C159.331 136.237 159.967 136.774 159.39 137.472C157.702 139.499 159.316 139.955 160.989 140.627C167.445 143.204 168.023 148.238 162.485 152.332C159.049 154.882 154.977 155.03 150.935 155.419Z" fill="white"/>
<path d="M254.291 120.343C246.473 120.075 242.83 116.719 241.127 109.067C240.031 104.127 243.111 99.3084 248.427 97.1472C254.454 94.7041 259.577 95.9793 263.19 100.986C264.094 102.235 265.219 102.933 266.596 103.523C269.469 104.758 270.387 106.839 269.854 109.631C269.38 112.155 268.314 114.41 266.167 116.061C262.45 118.947 257.889 119.833 254.291 120.343Z" fill="white"/>
<path d="M59.1578 75.4277C59.217 69.4676 63.6889 64.9438 69.5082 64.6082C71.8774 64.474 73.9653 65.3465 75.5053 67.0513C77.9781 69.7763 80.5546 72.2866 83.7383 74.4746C88.6988 77.8977 87.8251 83.8712 82.4944 86.9049C80.4214 88.0862 78.2447 88.999 75.7274 89.1333C74.5724 89.2004 73.4915 89.3346 72.4253 90.1669C69.5527 92.4221 67.0058 92.2073 64.8291 89.3883C61.4974 85.0793 59.3503 80.2602 59.1578 75.4277Z" fill="white"/>
<path d="M191.774 50.6207C190.234 52.5268 187.835 51.4261 186.117 52.406C186.014 54.1377 187.687 54.1645 188.797 54.7015C193.225 56.8627 194.261 59.8964 191.966 63.9638C188.59 69.9642 179.824 71.8838 173.679 67.9775C166.542 63.4537 164.691 56.4734 168.807 49.6542C172.08 44.2176 178.062 42.5128 184.266 45.1438C187.213 46.3788 189.671 48.0702 191.774 50.6207Z" fill="white"/>
<path d="M114.079 118.263C106.423 117.847 98.3385 112.786 101.107 104.114C102.336 100.248 103.684 96.4894 107.223 93.7778C110.836 91.0126 116.315 91.2005 119.528 94.2879C120.313 95.0531 121.364 95.9391 120.683 97.174C119.676 98.9862 120.742 99.5635 122.415 100.127C125.954 101.322 127.791 103.55 127.169 106.611C126.606 109.363 125.673 112.034 123.526 114.383C120.905 117.242 117.499 117.806 114.079 118.263Z" fill="white"/>
<path d="M62.8745 39.4657C55.293 39.6536 50.6583 36.0023 49.4441 29.1294C48.6741 24.7265 50.5546 18.2697 57.3957 16.2561C61.1124 15.1688 63.8666 15.7729 65.6287 18.5784C67.6129 21.733 70.2042 24.0284 73.832 25.8809C79.0295 28.5522 78.5704 33.8411 73.5211 36.848C70.0709 38.9019 66.1617 39.1703 62.8745 39.4657Z" fill="white"/>
<path d="M90.2239 145.459C90.3424 140.264 92.1341 138.157 97.7609 136.707C99.3898 136.291 100.826 135.579 102.277 134.828C105.639 133.109 107.8 133.445 109.4 136.438C111.058 139.539 113.102 141.862 116.863 143.083C119.632 143.983 119.869 145.593 118.358 148.05C114.434 154.466 108.274 157.245 100.352 156.936C95.3325 156.748 90.1055 150.735 90.2239 145.459Z" fill="white"/>
<path d="M15.0909 145.459C6.60616 145.405 1.97142 142.143 0.224131 135.163C-0.842009 130.908 2.00103 126.653 6.50251 127.069C8.36826 127.243 10.0119 126.72 11.7148 126.008C14.2913 124.934 16.8085 125.511 18.5558 127.512C20.6881 129.955 22.5538 132.344 26.0484 133.7C29.3949 135.002 28.4768 140.479 24.8194 142.761C21.7394 144.681 18.3041 145.647 15.0909 145.459Z" fill="white"/>
<path d="M217.45 88.6768C209.543 88.7439 204.508 82.4617 206.774 76.1122C207.84 73.1053 209.291 70.0716 212.993 68.9306C216.413 67.8701 219.227 68.9977 221.492 71.4005C222.47 72.4476 223.343 73.4946 224.72 74.2329C228.955 76.5015 229.933 79.0789 227.297 82.757C224.898 86.086 221.892 89.2003 217.45 88.6768Z" fill="white"/>
<path d="M22.8054 96.664C18.0226 97.7916 15.4757 94.9055 13.5211 91.4287C11.5961 88.0057 13.2842 85.0256 15.5349 82.3141C17.297 80.1797 19.6366 78.7165 22.5833 78.1124C26.1519 77.3741 28.6099 78.3406 29.6761 81.4549C30.1203 82.7436 30.5497 83.6027 31.8528 84.2873C36.7244 86.811 36.8725 91.6032 32.1785 94.6504C29.4836 96.3955 26.4184 96.9996 22.8054 96.664Z" fill="white"/>
</svg>
