<svg width="519" height="534" viewBox="0 0 519 534" fill="none" xmlns="http://www.w3.org/2000/svg">
<g clip-path="url(#clip0)">
<path d="M527.624 171.445C527.795 190.517 528.203 209.612 527.8 228.677C527.518 242.106 523.221 245.03 509.761 242.501C508.423 246.251 507.224 250.064 505.689 253.893C502.15 262.931 496.159 268.442 486.023 268.493C484.542 268.497 482.259 271.321 481.855 273.148C480.061 282.552 479.16 292.188 477.268 301.631C475.102 312.373 468.615 318.916 457.457 319.262C453.765 319.445 453.403 321.374 452.767 324.603C451.076 333.132 449.566 341.826 446.523 349.832C440.436 365.843 426.081 369.857 411.59 360.254C409.112 358.639 406.748 356.741 403.186 354.137C395.987 377.849 382.859 391.116 355.987 380.807C354.633 384.801 353.124 388.977 351.615 393.153C348.427 401.93 345.28 410.81 337.275 416.42C327.417 423.374 316.409 422.113 307.773 412.88C305.941 410.885 304.108 408.891 301.61 406.096C299.641 412.241 298.21 417.455 296.36 422.482C290.94 437.035 285.522 440.293 270.369 438.091C267.087 448.332 265.866 460.001 254.717 465.454C243.764 470.829 233.784 468.439 223.661 460.044C223.371 463.847 223.143 466.673 222.832 469.295C222.516 472.752 222.102 476.248 221.311 479.658C217.342 494.695 208.465 498.993 194.2 493.341L188.888 491.207C188.382 491.649 187.917 492.193 187.493 492.84C179.408 510.966 165.12 515.428 147.619 504.307C132.875 494.925 126.601 479.388 121.504 463.376C121.272 462.519 121.964 461.407 122.822 458.445C125.681 463.829 127.544 467.594 129.799 471.201C134.738 479.193 139.001 488.052 145.319 494.655C153.248 502.985 163.682 506.498 174.784 501.777C183.181 498.267 184.36 488.755 178.254 481.83C169.371 471.983 160.993 461.695 158.958 447.894C158.53 444.857 159.512 439.942 161.449 438.804C163.876 437.467 168.61 438.17 171.228 439.848C179.581 445.272 181.153 455.099 184.186 463.741C185.806 468.318 186.306 473.228 187.1 478.019C188.296 485.502 192.549 489.253 201.445 490.653C208.637 491.791 213.445 489.849 215.615 482.791C219.455 470.54 222.107 458.175 214.557 445.413C210.892 439.165 208.813 432.04 206.146 425.152C205.403 423.312 204.83 421.046 205.414 419.384C206.2 416.808 207.977 414.426 209.377 411.958C211.715 413.511 215.567 414.571 216.196 416.694C218.703 424.598 220.72 432.7 222.107 440.937C223.653 450.418 231.772 459.503 240.545 460.597C250.644 461.868 257.497 457.08 260.784 446.004C263.285 437.504 264.552 429.621 259.608 420.205C252.233 406.183 250.183 390.367 252.34 374.516C252.78 371.366 255.538 368.588 257.165 365.553C259.736 367.963 263.205 369.772 264.738 372.719C272.36 387.355 273.796 403.062 272.155 419.061C271.663 423.777 271.858 428.216 276.949 430.083C282.039 431.951 285.458 428.549 286.926 424.271C290.429 414.296 294.088 404.14 295.903 393.659C296.818 388.296 293.237 382.253 292.365 376.422C291.392 369.207 290.753 361.975 290.688 354.75C290.591 350.271 291.909 345.34 297.32 345.176C303.165 344.955 304.795 350.122 305.212 354.828C306.036 363.65 306.287 372.465 305.825 381.211C305.027 392.233 310.049 400.429 316.991 407.73C321.559 412.543 328.953 412.767 333.4 408.237C333.653 408.016 333.963 407.653 334.175 407.33C338.147 402.753 340.952 396.984 343.741 391.459C345.767 387.431 347.291 383.011 348.242 378.585C349.121 374.544 348.73 370.185 348.855 365.973C349.058 360.542 348.507 354.939 349.505 349.78C349.923 347.709 354.081 344.723 355.728 345.127C358.03 345.743 360.874 349.112 361.333 351.661C362.034 355.658 361.14 359.942 360.597 363.966C359.717 370.265 361.565 374.275 367.657 374.667C372.841 375.07 378.603 374.645 383.091 372.477C392.36 368.02 398.856 347.088 396.267 336.721C394.415 329.028 393.39 321.12 393.077 313.281C392.938 310.959 395.583 308.465 396.983 305.997C399.429 308.1 403.472 309.915 404.029 312.425C405.586 320.237 406.374 328.122 406.449 335.938C406.653 345.485 412.387 353.75 422.279 356.769C431.516 359.578 437.909 356.758 442.305 347.017C444.377 342.258 446.031 337.31 447.405 332.237C449.679 324.305 449.526 317.709 441.261 311.655C431.675 304.589 426.954 293.18 425.367 281.338C424.738 276.956 426.505 271.725 428.572 267.799C432.405 260.901 439.277 261.811 441.841 269.573C445.695 281.094 448.387 292.847 451.848 304.526C452.643 307.058 453.999 311.266 455.228 311.483C458.987 311.748 463.366 311.288 466.495 309.429C469.077 307.911 471.087 304.127 471.821 300.859C474.08 290.911 475.921 280.776 477.426 270.657C477.633 268.909 475.584 265.814 473.787 264.756C462.59 258.222 457.429 247.704 455.817 235.516C455.363 232.132 458.24 228.236 459.522 224.628C463.006 226.192 468.118 226.981 469.666 229.685C474.311 237.795 478.155 246.467 481.173 255.353C483.836 263.076 490.165 265.75 496.378 260.507C505.514 252.894 506.39 240.652 500.067 230.366C494.948 222.209 490.98 213.231 487.29 204.378C484.88 198.694 488.558 191.978 493.712 190.61C498.865 189.242 502.701 192.805 503.928 199.799C505.531 209.138 507.134 218.477 508.5 227.793C509.288 233.418 512.793 236.164 517.487 236.765C523.089 237.356 523.039 232.145 523.272 228.485C524.702 210.55 525.796 192.632 526.988 174.674C527.066 173.454 527.242 172.194 527.418 170.934L527.624 171.445ZM164.53 442.196C161.693 450.712 171.643 470.828 181.446 476.736C181.368 460.718 173.865 444.965 164.53 442.196ZM445.523 305.535C445.056 293.359 441.652 281.538 435.737 270.849C429.255 278.817 433.433 294.249 445.523 305.535ZM475.369 257.935C476.791 249.871 469.737 236.076 462.85 233.151C461.309 242.333 466.913 253.385 475.369 257.935ZM503.752 220.556C501.859 212.761 499.966 204.966 497.8 196.211C492.046 201.744 495.192 214.621 503.752 220.556ZM262.339 382.604L259.375 382.612C259.224 390.996 259.309 399.402 263.494 407.222L265.859 406.862L262.339 382.604ZM478.676 116.078C476.521 122.893 474.175 128.952 472.624 135.285C467.574 155.276 456.805 171.276 442.055 184.484C438.78 187.115 434.815 188.597 430.606 188.632C426.497 188.628 425.396 190.142 424.032 193.546C420.524 202.096 417.238 210.913 412.393 218.695C402.082 234.985 386.869 241.961 367.729 240.061C366.583 240.048 365.339 240.075 364.234 240.165C361.189 252.688 358.398 264.991 355.188 277.105C349.782 298.191 335.793 303.96 316.908 292.802C313.176 290.624 309.867 287.8 305.928 285.111C304.9 286.239 303.873 287.367 303.025 288.661C291.888 307.424 275.467 315.364 254.055 312.36C247.38 311.371 245.035 312.912 243.815 320.062C238.716 349.822 215.11 366.25 184.095 360.943C183.243 360.811 182.433 360.782 180.91 360.684C179.967 372.477 179.788 385.033 168.964 392.138C157.984 399.425 146.962 396.149 136.136 388.276C135.449 390.812 134.948 392.679 134.544 394.507C131.898 406.037 126.681 410.64 115.115 411.388C104.99 412.03 98.1808 407.884 94.3215 397.198C91.1484 388.493 88.5071 379.692 86.4546 370.653C84.8662 363.33 86.1023 355.935 91.4632 350.56C92.9971 348.99 96.1415 349.146 98.6201 348.502C98.4801 350.699 98.9389 353.248 97.9213 354.966C94.5274 360.973 93.7874 367.335 95.8974 373.973C98.4459 381.979 101.093 389.945 104.328 397.674C107.315 404.79 119.201 406.528 124.897 401.137C129.933 396.369 130.416 384.285 126.85 377.998C122.716 370.87 119.13 363.402 116.23 355.657C115.296 353.062 116.33 348.84 118.009 346.497C120.039 343.894 123.013 342.218 126.189 341.886C127.629 341.78 130.411 346.125 130.911 348.777C132.484 356.344 134 364.054 134.23 371.689C134.481 380.504 147.144 389.537 154.631 390.556C163.207 391.729 170.813 387.111 173.516 377.698C175.16 372.16 175.59 366.161 175.963 360.304C176.031 358.493 174.606 356.096 173.161 354.778C164.117 345.947 158.167 334.322 156.193 321.804C155.6 318.358 156.851 312.978 159.268 311.051C163.105 307.837 166.754 312.07 169.475 315.132C176.428 323.024 177.607 333.009 179.278 342.797C180.731 351.483 182.755 354.232 191.067 355.036C217.25 357.421 235.495 346.367 241.419 318.652C242.484 313.942 241.338 311.67 236.315 310.252C224.58 306.907 215.94 291.731 218.102 279.564C219.234 273.043 225.209 270.036 229.876 274.809C235.265 280.241 240.478 286.933 242.794 294.082C245.136 301.577 247.841 304.884 255.482 305.721C273.125 307.869 289.458 300.559 297.858 285.754C300.162 281.852 300.348 278.923 297.045 275.264C287.48 264.861 283.301 251.688 279.36 238.538C277.91 233.535 277.416 227.791 283.112 224.658C287.812 222.166 293.589 223.756 297.702 229.704C305.666 241.229 310.196 254.141 309.056 268.273C308.559 273.824 309.973 277.889 314.387 280.625C320.277 284.19 326.08 288.385 332.358 290.368C339.668 292.646 344.213 290.335 346.456 282.891C350.554 269.585 353.758 256.046 356.685 242.381C357.103 240.31 355.003 236.522 353.041 235.055C341.808 227.584 334.113 215.594 331.865 202.116C330.38 193.919 334.079 186.124 340.353 184.422C347.649 182.427 353.08 185.702 356.46 194.918C358.245 199.904 359.638 205.048 360.555 210.146C361.602 214.716 362.272 219.201 362.452 223.884C362.512 229.685 365.45 231.59 370.437 232.072C382.354 233.323 392.717 230.445 401.038 221.378C409.358 212.312 415.325 201.937 417.502 189.526C418.024 186.581 416.481 183.043 415.243 179.976C411.337 170.022 406.646 160.384 403.231 150.232C401.709 145.616 403.032 139.85 408.521 138.466C414.01 137.081 417.634 140.968 419.124 146.072C421.848 155.077 423.983 164.32 426.609 173.365C427.362 175.795 428.626 179.208 430.438 180.022C432.251 180.835 436.046 179.778 437.817 178.23C451.188 166.411 461.359 152.317 465.85 134.335C466.212 132.406 466.812 130.499 467.452 128.695C471.136 118.885 474.929 109.626 469.634 98.2114C467.111 92.8107 468.362 85.1722 469.103 78.8102C469.827 72.6923 474.656 69.6724 480.103 70.4447C486.221 71.1837 487.898 75.6185 487.514 80.8854C486.888 86.9638 485.983 92.9169 484.701 98.7845C483.486 105.101 485.602 108.645 492.855 111.065C498.798 113.064 501.674 111.427 503.674 104.794C505.374 99.114 506.6 93.3883 508.718 87.8962C509.416 85.9501 512.163 84.8407 513.976 83.3953C514.491 85.8025 515.621 88.3183 515.342 90.4521C514.582 95.6335 513.207 100.706 512.069 105.802C508.963 119.302 501.609 123.698 488.48 119.727C485.563 119.003 482.775 117.752 478.676 116.078ZM287.442 231.707C287.3 242.94 295.845 261.839 302.794 266.047C305.518 253.296 297.02 233.665 287.442 231.707ZM357.263 224.315C354.518 214.129 352.45 205.335 349.793 196.778C349.314 195.308 346.526 194.056 344.781 193.691C344.027 193.519 342.25 195.901 342.017 197.303C340.389 204.856 348.135 219.798 357.263 224.315ZM239.921 301.662C240.29 292.121 233.09 281.357 225.95 280.912C226.468 293.78 230.87 300.443 239.921 301.662ZM172.163 340.439C174.179 333.562 170.381 324.158 164.32 321.018L172.163 340.439ZM445.752 49.2463C442.986 79.1331 415.459 105.348 388.589 88.262C387.421 91.5868 386.589 94.895 385.158 97.8506C380.57 106.836 376.845 116.544 370.895 124.416C359.418 139.512 343.828 144.144 325.33 138.18C324.772 137.93 324.142 138.065 324.519 138.151C319.441 147.335 314.968 156.037 309.797 164.426C302.55 176.15 290.89 180.621 278.033 182.128C273.36 182.707 271.449 184.192 270.441 188.76C267.246 202.89 260.722 215.274 249.757 224.576C235.25 236.973 221.842 235.136 210.399 218.952C209.831 218.112 209.067 217.35 207.514 215.481L204.729 222.431C200.621 232.888 196.834 243.571 192.308 253.84C189.285 260.767 184.343 266.33 176.99 268.467C165.686 271.843 155.738 266.706 150.696 255.071C149.071 251.328 147.642 247.507 146.114 243.725L144.142 243.927C142.86 249.795 141.676 255.622 140.255 261.427C138.016 270.297 135.778 279.166 133.163 287.949C132.182 290.605 130.921 293.135 129.16 295.272C121.954 304.84 112.764 303.558 107.986 292.292C104.322 283.785 101.092 275.222 97.336 265.92C96.6641 268.213 96.0078 270.261 95.6303 272.435C94.1466 279.216 93.2205 286.247 91.2205 292.88C89.8613 297.709 87.6657 302.162 84.7319 306.2C79.5564 313.165 72.0746 313.571 66.0353 307.093C56.3724 296.73 52.0955 283.596 47.3281 270.661L48.9135 269.783C51.9376 275.576 54.8068 281.55 57.9859 287.162C61.1237 292.671 64.246 298.424 68.143 303.27C72.4838 308.65 78.1636 308.021 82.0583 302.406C83.4684 300.529 84.5584 298.424 85.2302 296.132C88.5033 278.523 91.5802 260.993 94.4196 243.44C95.1644 238.503 94.7785 233.309 95.6628 228.434C96.0247 226.505 98.1731 225.043 99.5263 223.307C100.45 225.312 101.947 227.323 101.962 229.338C102.136 232.596 101.779 235.95 101.004 239.117C97.6549 251.169 101.369 262.627 105.001 273.881C107.003 279.968 109.397 285.896 112.225 291.769C115.326 298.6 121.135 299.702 125.102 293.701C128.645 288.347 131.409 282.476 133.099 276.205C136.748 263.2 139.643 250.024 141.882 236.636C143.15 228.754 142 220.539 142.137 212.4C142.164 208.228 142.568 204.142 143.307 200.039C143.669 198.11 145.539 196.522 146.654 194.764C148.192 196.877 151.073 198.924 151.088 200.939C150.782 207.245 150.14 213.567 148.981 219.741C146.721 234.207 152.625 246.564 160.212 258.004C164.49 264.361 173.712 265.154 179.031 259.677C183.478 255.147 187.12 249.753 189.786 243.921C193.914 234.645 196.746 224.704 200.456 215.241C203.142 208.33 201.982 201.784 200.952 194.711C199.947 187.984 200.775 180.992 201.644 174.102C201.794 172.496 205.388 170.093 207.133 170.459C208.878 170.824 211.402 173.965 211.516 175.941C211.736 182.985 211.481 189.983 210.988 196.959C210.501 205.359 218.763 220.449 226.606 222.632C231.309 223.823 236.178 223.164 240.289 220.91C253.132 212.87 260.261 200.005 263.74 185.166C264.133 182.748 263.535 180.137 262.136 178.086C252.979 167.28 250.938 154.314 251.024 140.964C251.04 138.461 253.468 134.865 255.513 134.277C257.124 133.745 261.202 136.497 262.069 138.643C265.727 147.984 268.895 157.524 271.572 167.261C272.774 171.65 274.498 173.094 278.608 173.098C295.719 173.083 316.838 152.191 317.245 134.55C317.328 132.495 316.028 130.405 315.244 128.463C312.88 122.046 309.929 115.868 308.335 109.378C306.973 103.746 308.297 97.9807 313.182 94.819C315.682 93.0963 319.699 92.3061 322.518 93.0698C324.583 93.6624 327.102 97.6384 327.085 100.142C327.331 107.532 326.906 114.956 325.907 122.373C325.261 127.271 326.67 129.912 331.006 131.608C341.925 135.758 352.123 134.731 361.146 127.402C374.552 116.519 379.477 100.739 383.148 84.3962C383.623 82.1831 382.034 79.3774 381.575 76.8284C380.441 70.6289 378.496 64.4001 378.368 58.1507C378.215 51.555 382.92 48.2284 388.94 49.0071C394.206 49.6146 397.216 53.3925 396.796 59.9819C396.464 63.6823 395.518 67.2741 394.294 70.7408C391.586 78.7296 394.997 85.1984 403.418 86.553C410.316 87.8094 417.318 85.9327 422.575 81.4318C429.826 75.6504 434.925 67.6472 437.276 58.4944C438.781 50.6348 439.664 50.2782 445.752 49.2463ZM321.494 100.141L319.258 99.9739C314.713 104.544 314.923 108.739 321.324 115.545L321.494 100.141Z" fill="#8100BE"/>
</g>
<defs>
<clipPath id="clip0">
<rect y="198.114" width="529.061" height="361.46" transform="rotate(-21.9912 0 198.114)" fill="white"/>
</clipPath>
</defs>
</svg>
