<?xml version="1.0" encoding="UTF-8"?><!-- Generator: Adobe Illustrator 23.0.4, SVG Export Plug-In . SVG Version: 6.00 Build 0)  --><svg xmlns="http://www.w3.org/2000/svg" enable-background="new 0 0 500 327.9" version="1.1" viewBox="0 0 500 327.9" x="0px" xml:space="preserve" y="0px">
<g id="change1_1"><path d="m471.8 156.8c-6.6 16.1-13 32.3-20.1 48.2-5 11.2-9.8 12.2-20.7 5.5-2.5 2.7-4.9 5.5-7.6 8.2-6.3 6.4-13.5 9-22.4 5.6-1.3-0.5-4.3 1.1-5.3 2.5-4.9 7.3-9.1 15.1-14.1 22.4-5.7 8.3-13.7 11.6-23.6 8.1-3.3-1.1-4.3 0.4-6 2.9-4.5 6.6-8.9 13.4-14.4 19.1-11 11.4-25 9.9-34.3-3.1-1.6-2.2-3-4.6-5.2-8-14.7 17.5-30.9 24.2-50.8 6.4-2.6 2.9-5.4 5.9-8.2 8.9-5.9 6.3-11.8 12.7-20.8 14.7-11.1 2.5-20.3-2.3-24.6-13-0.9-2.3-1.8-4.6-3-7.8-3.9 4.5-7 8.4-10.4 12-9.9 10.4-15.8 11.3-28.3 4.3-6.5 7.5-11.7 16.9-23.4 17.7-11.5 0.8-19.4-4.6-25.3-15.1-1.6 3.1-2.8 5.4-4 7.5-1.5 2.8-3.1 5.6-5 8.2-8.8 11.3-18.1 11.9-28.6 2.3l-3.9-3.6c-0.6 0.2-1.2 0.5-1.8 0.9-13.5 12.5-27.6 11.4-39-3.9-9.6-12.9-9.6-28.1-8.4-43.3 0.1-0.8 1.1-1.5 2.9-3.7 0.6 5.5 0.9 9.3 1.6 13.1 1.5 8.4 2.1 17.3 5.3 25 4 9.7 11.9 16.2 23.3 16 8.6-0.1 13-7.7 10.1-15.6-4.3-11.3-8-22.8-4.9-35.1 0.7-2.7 3.3-6.5 5.4-6.8 2.6-0.3 6.5 1.9 8.2 4.2 5.4 7.4 3.3 16.2 2.9 24.5-0.2 4.4-1.5 8.7-2.5 13-1.6 6.7 0.8 11.3 8.1 15.5 5.9 3.4 10.8 3.4 15.2-1.8 7.7-9 14.4-18.5 12.3-31.8-1-6.5-0.3-13.2-0.2-19.9 0-1.8 0.3-3.9 1.4-5.1 1.6-1.9 4-3.3 6.1-4.9 1.5 2.1 4.5 4.3 4.3 6.3-0.6 7.5-1.7 15-3.4 22.4-2 8.5 1.9 18.9 9.2 22.8 8.4 4.5 16.1 2.8 22.9-5.4 5.2-6.3 9.1-12.5 8.1-22.1-1.5-14.3 2.3-28.3 9.8-40.9 1.5-2.5 4.9-3.9 7.4-5.9 1.4 2.9 3.8 5.6 4.1 8.6 1.5 14.9-2.8 28.6-9.9 41.5-2.1 3.8-3.5 7.6 0.3 10.9s8 1.6 10.8-1.5c6.6-7.2 13.4-14.5 18.7-22.7 2.7-4.2 1.7-10.5 3-15.7 1.7-6.4 3.7-12.7 6.2-18.8 1.5-3.8 4.4-7.5 9.2-5.8 5.2 1.8 4.8 6.7 3.5 10.8-2.4 7.7-5.3 15.2-8.8 22.4-4.6 9-3.1 17.6 0.4 26.1 2.3 5.6 8.7 8.3 14.2 6 0.3-0.1 0.7-0.3 1-0.5 5.1-2.5 9.6-6.4 14-10.1 3.2-2.7 6.1-5.9 8.5-9.3 2.2-3.1 3.4-6.9 5-10.4 2.1-4.5 3.6-9.4 6.3-13.4 1.1-1.6 5.8-2.7 7.1-1.8 1.8 1.3 3.1 5.1 2.6 7.4-0.8 3.6-3.1 6.9-5 10.1-3 5-2.8 9 2.4 11.4 4.4 2.1 9.6 3.7 14.3 3.4 9.7-0.6 22.8-16 24.2-25.6 1.1-7.1 3-14.1 5.5-20.8 0.7-2 3.9-3.2 6-4.8 1.4 2.6 4.3 5.5 3.9 7.8-1.4 7.1-3.5 14-6.2 20.6-3.2 8.1-1.1 17 6.5 22.9 7.1 5.5 13.7 5.3 21-1.4 3.5-3.3 6.7-6.9 9.7-10.7 4.8-5.9 7-11.5 1.9-19.4-5.9-9.2-6-20.4-3.2-30.9 1-3.9 4.4-7.7 7.6-10.3 5.8-4.5 11.5-1.4 11 6-0.7 11-2.5 21.8-3.6 32.8-0.2 2.4-0.5 6.4 0.5 7 3.2 1.5 7.2 2.6 10.6 2.1 2.8-0.4 5.9-2.9 7.7-5.4 5.5-7.6 10.7-15.5 15.6-23.5 0.8-1.4 0.1-4.7-1.1-6.2-7.5-9.3-8.3-19.9-5.4-30.7 0.8-3 4.7-5.3 7.1-7.9 2.5 2.5 6.7 4.9 7.1 7.7 1.2 8.4 1.5 17 1 25.5-0.4 7.4 4.2 11.8 11.5 9.5 10.7-3.3 15.8-13.3 13.9-24.1-1.6-8.6-1.9-17.5-2-26.2-0.1-5.6 5.5-10 10.5-9.4s7.1 4.9 5.7 11.2c-1.9 8.4-3.8 16.8-5.9 25.1-1.3 5 0.8 8.5 4.7 10.6 4.7 2.4 6.5-2 8-5 7.6-14.6 14.9-29.3 22.3-44 0.5-1 1.1-2 1.7-3v0.5zm-414 104.4c-5.5 6.2-3.9 26.5 2.6 34.8 5.6-13.5 4.6-29.3-2.6-34.8zm294.6-19.5c3.9-10.4 5.1-21.5 3.7-32.5-8.5 4.5-10.3 18.9-3.7 32.5zm43-29.9c4.1-6.3 2.8-20.3-2.2-25.1-4.6 7.2-3.6 18.4 2.2 25.1zm38.1-21.8c1.1-7.2 2.2-14.4 3.4-22.5-7 2.7-8.8 14.6-3.4 22.5zm-268.9 54.3l-2.6-1c-3.1 7-6 14.1-5.1 22.1l2.2 0.5 5.5-21.6zm283.9-150.7c-4.3 5-8.5 9.3-12.1 14.1-11.5 15.1-26.6 24.9-44.2 31-3.8 1.1-7.8 1-11.5-0.4-3.6-1.4-5.1-0.5-7.5 1.9-6.1 6-12.1 12.3-19.1 17.2-14.8 10.2-30.6 10.9-46.7 2.8-1-0.4-2.1-0.8-3.1-1.1-7.1 9.5-13.9 18.9-21 28-12.2 15.9-26.5 16-39.1 0.2-2.5-3.1-4.4-6.6-6.9-10.2-1.3 0.6-2.6 1.2-3.8 2-16.4 12-33.6 13.1-51.3 3.3-5.5-3.1-8.1-2.6-11.7 3-15 23.3-41.5 29.1-66.8 14.1-0.7-0.4-1.4-0.7-2.7-1.3-5 9.6-9.6 20.1-21.6 22.4-12.2 2.4-20.7-4.1-27.4-14.4-1.5 1.9-2.6 3.3-3.6 4.7-6.4 8.8-12.6 10.9-23 7.6-9.1-2.9-13.6-8.7-13.2-19 0.3-8.4 1.1-16.7 2.5-25 1.2-6.7 4.9-12.5 11.5-15.2 1.9-0.8 4.6 0.4 7 0.7-0.9 1.8-1.4 4.1-2.9 5.2-5.1 3.9-8 9-8.5 15.3-0.6 7.6-1.1 15.2-1 22.8 0.1 7 9.9 12.5 16.8 9.9 6.1-2.3 10.8-12.3 9.9-18.8-1.1-7.4-1.6-14.9-1.4-22.4 0.1-2.5 2.5-5.7 4.8-7.1 2.7-1.5 5.9-1.9 8.8-1.1 1.3 0.4 2.2 5 1.7 7.4-1.3 6.9-2.7 13.9-5.2 20.4-2.9 7.5 5 19.4 11.2 22.8 7.1 3.9 15.4 2.6 21.1-4.4 3.4-4.1 5.9-9 8.3-13.8 0.7-1.5 0.3-4-0.5-5.6-4.8-10.5-5.9-22.3-3.2-33.5 0.7-3.1 3.7-7.2 6.5-8 4.5-1.4 6.2 3.4 7.5 6.9 3.3 9 0.8 17.8-1.2 26.6-1.8 7.8-1 10.8 6 14.3 22.1 10.9 42 7.8 57-13.5 2.6-3.6 2.4-5.9-1.5-8.8-9.1-6.8-11.3-22.5-5.1-32 3.3-5.1 9.6-5.6 12 0 2.8 6.4 5 13.8 4.5 20.6-0.6 7.1 0.6 10.8 7 14.1 14.7 7.8 31.6 7.2 44.2-2.4 3.4-2.5 4.6-4.9 3-9.1-4.7-12-3.7-24.5-2.5-36.9 0.5-4.7 2.1-9.7 8.2-10.4 5-0.5 9.5 2.8 11 9.2 2.9 12.4 2.3 24.8-3.7 36.3-2.4 4.5-2.6 8.4 0.3 12.2 3.9 5 7.5 10.5 12.3 14.3 5.6 4.4 10.4 4 15-1.5 8.3-9.8 15.9-20.1 23.3-30.6 1.1-1.6 0.6-5.5-0.6-7.4-7.2-10.1-9.7-22.8-6.9-34.9 1.6-7.4 7.6-12.7 13.7-12 7.1 0.8 10.7 5.4 10.4 14.3-0.2 4.8-0.8 9.6-1.8 14.2-0.7 4.2-1.7 8.2-3.2 12.2-2 4.9-0.1 7.5 4.1 9.6 10 5.1 20.1 6.2 30.6 1.4s19.4-11.5 25.7-21.2c1.5-2.3 1.4-5.8 1.4-8.8 0.1-9.7-0.6-19.4 0-29.1 0.3-4.4 3.5-8.8 8.8-8.1s7.1 5.2 6.6 10c-0.8 8.5-2.2 17-3.1 25.5-0.2 2.3-0.3 5.6 1 6.9s5 1.7 7.1 1c15.9-5.4 29.8-13.8 40.1-27.4 1-1.5 2.2-2.9 3.4-4.2 6.7-7 13.3-13.5 12.7-24.9-0.3-5.4 3.5-11.4 6.4-16.5 2.8-4.9 8.1-5.8 12.6-3.3 5.1 2.7 5 7 2.8 11.3-2.7 4.9-5.6 9.6-8.8 14.1-3.3 4.9-2.7 8.6 2.8 13.1 4.5 3.7 7.6 3.3 11.7-1.6 3.5-4.2 6.6-8.6 10.4-12.5 1.3-1.4 4.1-1.4 6.2-2-0.4 2.2-0.3 4.7-1.3 6.4-2.5 4.1-5.5 7.9-8.3 11.8-7.5 10.3-15.5 11.5-25.6 3.7-2.3-1.6-4.3-3.6-7.3-6.4zm-208.5 32.3c-4.1 9.4-3.3 28.2 1.3 34.1 6.9-9.8 6.4-29.2-1.3-34.1zm63.8 17.5c1.2-9.5 2.5-17.6 3.2-25.7 0.1-1.4-1.9-3.4-3.3-4.3-0.6-0.4-3 1-3.7 2.1-4.1 5.8-2.6 21 3.8 27.9zm-130.2 25.2c3.7-7.9 1.2-19.4-4.9-22.2-4.1 11-2.6 18.1 4.9 22.2zm-73.1 9.6c4.2-5.1 4.2-14.3 0-19v19zm342.8-152c-13 24.2-46.4 36.9-63.9 13.4-2.2 2.4-4.1 4.9-6.4 6.9-7.2 6-13.9 12.9-21.9 17.5-15.4 8.8-30.7 7.4-44.8-3.9-0.4-0.4-1-0.5-0.7-0.3-7.7 6-14.7 11.8-22.2 17.1-10.5 7.4-22.3 7.2-34.1 4.1-4.3-1.1-6.5-0.5-9 3-7.8 10.8-17.9 19-30.8 23.1-17.1 5.5-28.2-0.6-32.5-18.1-0.2-0.9-0.6-1.8-1.3-3.9l-4.9 4.9c-7.3 7.4-14.4 15.1-22 22.2-5.1 4.8-11.4 7.8-18.6 7.1-11.1-1-18-8.7-18.3-20.2-0.1-3.7 0-7.4 0-11.1l-1.8-0.5c-3.2 4.5-6.3 9-9.6 13.4-5.1 6.7-10.2 13.4-15.6 19.9-1.8 1.9-3.8 3.6-6.1 4.8-9.7 5.6-17.3 1.4-17.5-9.7-0.2-8.4 0-16.7 0-25.8-1.4 1.7-2.7 3.2-3.8 4.9-3.7 5.2-7 10.8-11.1 15.7-2.9 3.6-6.4 6.6-10.4 9-7 4.1-13.7 1.9-16.7-5.6-4.8-12-3.9-24.5-3.5-37l1.7-0.2c0.6 5.9 1 11.9 1.8 17.7 0.8 5.7 1.5 11.6 3.2 17 1.9 6 7.1 7.4 12.5 4 1.9-1.1 3.6-2.5 5-4.2 9.1-13.7 18-27.4 26.7-41.2 2.4-3.9 3.9-8.4 6.4-12.2 1-1.5 3.4-2 5.2-3 0.1 2 0.7 4.2 0 5.9-1 2.8-2.5 5.5-4.3 7.9-7.2 9-8 19.9-8.8 30.6-0.4 5.8-0.4 11.6 0 17.5 0.3 6.8 5 9.7 10.6 6 5-3.3 9.5-7.3 13.2-12 7.8-9.7 15-19.8 21.7-30.3 3.9-6.2 5.8-13.5 8.8-20.3 1.5-3.5 3.3-6.8 5.4-10 1-1.5 3.2-2.2 4.8-3.3 0.6 2.3 2.4 5 1.7 6.7-2.5 5.2-5.3 10.3-8.5 15.1-7.1 11.4-6.3 23.8-3.7 36 1.5 6.8 9.3 10.6 15.9 7.8 5.5-2.3 10.6-5.6 15-9.6 6.9-6.4 12.9-13.8 19.5-20.5 4.8-4.9 6.1-10.8 7.7-17.1 1.5-6 4.7-11.6 7.9-17.1 0.7-1.3 4.7-2.1 6.1-1.2s2.5 4.4 1.9 6.1c-2.3 6-5 11.8-7.9 17.5-3.4 6.9-1.5 22.4 4.6 26.9 3.7 2.6 8.2 3.7 12.6 3.2 14.1-2.4 24.9-10.8 33.2-22.1 1.2-1.9 1.6-4.3 1.1-6.5-4.2-12.2-1.4-23.8 3.4-35 0.9-2.1 4.3-4.3 6.3-4.1 1.6 0.1 4.2 3.8 4.2 5.9-0.1 9.1-0.7 18.2-1.8 27.3-0.5 4.1 0.5 5.9 4.1 7.3 15 5.8 40.9-4.6 47.5-19.3 0.8-1.7 0.4-3.9 0.4-5.8 0.2-6.2-0.2-12.4 0.7-18.4 0.8-5.2 4-9.6 9.4-10.6 2.8-0.6 6.6 0.1 8.8 1.7 1.6 1.2 2.4 5.4 1.5 7.5-2.4 6.3-5.4 12.4-8.9 18.3-2.3 3.9-2 6.6 1.2 9.5 8.1 7.2 17.4 9.8 27.9 6.7 15.6-4.6 25.5-16.2 34.5-28.7 1.2-1.7 0.8-4.6 1.3-6.9 1.2-5.6 1.7-11.5 3.8-16.8 2.2-5.6 7.5-6.8 12.5-4.1 4.4 2.3 5.7 6.5 3 11.9-1.6 3-3.7 5.7-6 8.2-5.2 5.8-4.5 12.4 2.4 16.4 5.6 3.4 12.4 4.2 18.6 2.2 8.4-2.4 15.7-7.4 21-14.3 4.1-6.1 5-6.1 10.7-4.9zm-126.9 0.6l-1.9-0.9c-5.6 2.3-6.9 5.9-3.7 13.8l5.6-12.9z" fill="#BA8365"/></g>
</svg>