<?xml version="1.0" encoding="UTF-8"?><svg xmlns="http://www.w3.org/2000/svg" xmlns:xlink="http://www.w3.org/1999/xlink" height="482.8" preserveAspectRatio="xMidYMid meet" version="1.0" viewBox="-2.1 -0.0 378.6 482.8" width="378.6" zoomAndPan="magnify"><defs><clipPath id="a"><path d="M 28 60 L 376.460938 60 L 376.460938 482.78125 L 28 482.78125 Z M 28 60"/></clipPath></defs><g><g id="change1_1"><path d="M 162.398438 378.101562 C 107.179688 405.710938 60.011719 358.542969 60.011719 358.542969 C 66.914062 382.703125 45.054688 395.359375 45.054688 395.359375 C 28.949219 402.261719 22.046875 394.207031 22.046875 394.207031 C 5.941406 391.90625 9.390625 382.703125 9.390625 382.703125 C -2.113281 379.253906 0.1875 353.941406 0.1875 353.941406 C 4.789062 299.871094 49.65625 301.019531 49.65625 301.019531 C 104.941406 331.523438 156.273438 316.222656 172.253906 310.074219 C 175.5625 308.804688 177.355469 307.925781 177.355469 307.925781 L 162.398438 378.101562" fill="#a77c27"/></g><g clip-path="url(#a)" id="change2_1"><path d="M 367.820312 473.910156 C 367.820312 473.910156 252.769531 477.742188 141.089844 477.289062 C 141.089844 477.289062 138.746094 474.953125 136.425781 469.117188 C 108.140625 462.402344 88.902344 443.167969 88.902344 443.167969 C 95.804688 467.328125 73.945312 479.984375 73.945312 479.984375 C 57.839844 486.886719 50.9375 478.832031 50.9375 478.832031 C 34.832031 476.53125 38.28125 467.328125 38.28125 467.328125 C 26.777344 463.878906 29.078125 438.566406 29.078125 438.566406 C 33.679688 384.496094 78.546875 385.648438 78.546875 385.648438 C 98.871094 396.859375 118.660156 401.878906 136.355469 403.441406 C 141.988281 377.324219 153.78125 342.78125 176.207031 297.570312 L 184.660156 291.484375 C 179.082031 283.511719 166.09375 263.566406 162.28125 245.710938 C 166.261719 223.984375 139.792969 142.285156 139.792969 142.285156 C 139.792969 142.285156 143.695312 133.5625 145.148438 123.007812 C 145.785156 118.378906 148.808594 98.425781 163.835938 82.25 C 173.777344 71.550781 188.984375 62.511719 212.226562 60.648438 C 222.277344 59.84375 233.816406 60.371094 247.101562 62.699219 C 247.101562 62.699219 324.765625 53.484375 324.496094 150.433594 L 345.015625 216.984375 L 345.320312 217.039062 C 345.320312 217.039062 366.03125 264.207031 369.480469 355.09375 C 369.480469 355.09375 386.226562 416.386719 367.820312 473.910156" fill="#c39a34"/></g><g id="change3_1"><path d="M 143.070312 467.648438 C 143.984375 467.539062 144.988281 467.367188 146.0625 467.105469 C 146.597656 466.972656 147.144531 466.8125 147.710938 466.636719 C 148.164062 466.46875 148.628906 466.300781 149.097656 466.128906 C 149.347656 466.03125 149.601562 465.933594 149.859375 465.832031 L 150.050781 465.757812 L 150.148438 465.71875 C 150.160156 465.710938 150.191406 465.707031 150.191406 465.699219 L 150.160156 465.65625 L 149.925781 465.328125 C 149.03125 464.113281 148.089844 462.824219 147.105469 461.480469 C 146.703125 460.9375 146.292969 460.378906 145.875 459.816406 L 145.558594 459.390625 C 145.523438 459.339844 145.527344 459.34375 145.527344 459.34375 L 145.523438 459.335938 L 145.519531 459.324219 C 145.515625 459.3125 145.507812 459.300781 145.511719 459.292969 L 145.558594 459.292969 L 145.570312 459.289062 L 145.789062 459.226562 C 146.371094 459.050781 146.953125 458.839844 147.53125 458.605469 C 148.6875 458.132812 149.835938 457.546875 150.933594 456.839844 L 151.261719 456.621094 L 151.691406 456.316406 C 151.980469 456.117188 152.265625 455.914062 152.523438 455.703125 L 153.332031 455.082031 L 153.734375 454.769531 L 153.835938 454.691406 C 153.855469 454.667969 153.945312 454.636719 153.875 454.621094 L 153.652344 454.511719 C 153.046875 454.21875 152.488281 453.925781 151.839844 453.644531 C 151.347656 453.421875 150.859375 453.203125 150.375 452.984375 C 149.753906 452.707031 149.140625 452.433594 148.539062 452.164062 L 148.316406 452.066406 C 148.265625 452.042969 148.296875 452.058594 148.285156 452.054688 L 148.265625 452.050781 C 148.253906 452.046875 148.230469 452.046875 148.222656 452.039062 L 148.238281 452.011719 L 148.253906 451.988281 C 148.253906 451.988281 148.257812 451.984375 148.25 451.988281 L 148.332031 451.898438 L 148.488281 451.71875 C 148.894531 451.230469 149.242188 450.710938 149.527344 450.171875 C 149.8125 449.632812 150.03125 449.070312 150.1875 448.511719 C 150.269531 448.21875 150.328125 447.972656 150.382812 447.636719 C 150.402344 447.492188 150.425781 447.214844 150.398438 446.996094 C 150.371094 446.765625 150.308594 446.546875 150.203125 446.347656 C 150.003906 445.964844 149.65625 445.675781 149.257812 445.535156 C 149.0625 445.460938 148.839844 445.421875 148.640625 445.40625 C 148.472656 445.398438 148.3125 445.402344 148.164062 445.417969 C 147.566406 445.476562 147.078125 445.679688 146.6875 445.816406 C 145.855469 446.121094 145.074219 446.433594 144.355469 446.746094 C 142.910156 447.371094 141.695312 448 140.722656 448.558594 C 138.777344 449.675781 137.792969 450.496094 137.882812 450.644531 C 137.976562 450.808594 139.132812 450.289062 141.164062 449.460938 C 142.179688 449.046875 143.421875 448.558594 144.867188 448.0625 C 145.585938 447.816406 146.359375 447.566406 147.183594 447.324219 C 147.617188 447.199219 147.976562 447.082031 148.292969 447.078125 C 148.371094 447.074219 148.445312 447.078125 148.507812 447.085938 C 148.539062 447.09375 148.546875 447.097656 148.570312 447.105469 C 148.605469 447.121094 148.632812 447.15625 148.644531 447.191406 C 148.648438 447.210938 148.652344 447.230469 148.648438 447.25 L 148.628906 447.363281 C 148.59375 447.53125 148.527344 447.78125 148.457031 447.992188 C 148.316406 448.425781 148.128906 448.859375 147.890625 449.277344 C 147.648438 449.691406 147.363281 450.09375 147.035156 450.464844 C 146.992188 450.511719 146.949219 450.554688 146.90625 450.601562 L 146.84375 450.667969 C 146.789062 450.726562 146.742188 450.773438 146.6875 450.820312 C 146.46875 451.011719 146.289062 451.207031 146.027344 451.390625 C 145.527344 451.765625 145.027344 452.140625 144.523438 452.515625 C 146.128906 453.261719 147.804688 454.039062 149.53125 454.835938 L 149.9375 455.023438 L 149.9375 455.03125 L 149.933594 455.03125 L 149.816406 455.105469 C 148.828125 455.746094 147.792969 456.28125 146.753906 456.71875 C 146.230469 456.933594 145.707031 457.128906 145.183594 457.300781 L 144.582031 457.480469 L 143.746094 457.691406 C 143.191406 457.828125 142.640625 457.960938 142.097656 458.09375 C 142.855469 459.074219 143.601562 460.039062 144.335938 460.988281 C 144.769531 461.542969 145.195312 462.085938 145.613281 462.617188 C 146.03125 463.144531 146.441406 463.664062 146.84375 464.167969 L 147.144531 464.542969 L 147.289062 464.730469 C 147.324219 464.769531 147.335938 464.785156 147.332031 464.78125 L 147.347656 464.792969 L 147.460938 464.90625 C 147.53125 464.988281 147.363281 465.007812 147.171875 465.113281 C 146.652344 465.3125 146.144531 465.496094 145.648438 465.65625 C 144.660156 465.972656 143.722656 466.21875 142.863281 466.402344 C 139.421875 467.128906 137.265625 467.066406 137.253906 467.339844 C 137.230469 467.535156 139.394531 468.054688 143.070312 467.648438 Z M 37.5625 464.03125 C 37.460938 462.902344 37.410156 461.5625 37.410156 460.082031 C 37.4375 458.601562 37.53125 456.976562 37.75 455.285156 C 37.988281 453.59375 38.328125 452.003906 38.699219 450.566406 C 39.089844 449.140625 39.496094 447.863281 39.890625 446.800781 C 40.664062 444.679688 41.246094 443.359375 40.988281 443.199219 C 40.769531 443.058594 39.730469 444.121094 38.566406 446.195312 C 37.976562 447.230469 37.402344 448.527344 36.882812 450.015625 C 36.382812 451.511719 35.960938 453.203125 35.707031 455.007812 C 35.472656 456.816406 35.429688 458.558594 35.515625 460.128906 C 35.617188 461.703125 35.832031 463.109375 36.121094 464.261719 C 36.695312 466.574219 37.410156 467.875 37.660156 467.792969 C 37.953125 467.707031 37.742188 466.285156 37.5625 464.03125 Z M 52.238281 477.003906 C 51.636719 475.0625 51.253906 472.246094 51.566406 469.144531 C 51.882812 466.03125 52.664062 463.222656 53.160156 461.148438 C 53.671875 459.078125 53.902344 457.746094 53.628906 457.648438 C 53.363281 457.554688 52.65625 458.699219 51.78125 460.683594 C 50.921875 462.664062 49.863281 465.535156 49.515625 468.945312 C 49.167969 472.359375 49.84375 475.53125 50.882812 477.542969 C 51.910156 479.582031 53.066406 480.453125 53.257812 480.285156 C 53.503906 480.097656 52.820312 478.957031 52.238281 477.003906 Z M 114.179688 383.023438 C 115.097656 382.914062 116.101562 382.742188 117.171875 382.476562 C 117.707031 382.347656 118.257812 382.1875 118.820312 382.011719 C 119.273438 381.84375 119.738281 381.675781 120.207031 381.503906 C 120.457031 381.402344 120.710938 381.304688 120.96875 381.207031 L 121.160156 381.132812 L 121.257812 381.09375 C 121.269531 381.085938 121.300781 381.082031 121.300781 381.070312 L 121.269531 381.03125 L 121.035156 380.703125 C 120.140625 379.484375 119.199219 378.199219 118.214844 376.855469 C 117.8125 376.308594 117.402344 375.753906 116.984375 375.1875 L 116.667969 374.761719 C 116.632812 374.714844 116.636719 374.71875 116.636719 374.71875 L 116.632812 374.710938 L 116.628906 374.699219 C 116.625 374.683594 116.617188 374.675781 116.621094 374.667969 L 116.65625 374.664062 L 116.667969 374.667969 L 116.679688 374.664062 L 116.898438 374.601562 C 117.480469 374.421875 118.0625 374.214844 118.640625 373.980469 C 119.800781 373.507812 120.945312 372.921875 122.039062 372.214844 L 122.371094 371.996094 L 122.800781 371.691406 C 123.089844 371.488281 123.375 371.285156 123.636719 371.078125 L 124.441406 370.457031 L 124.84375 370.144531 L 124.945312 370.066406 C 124.964844 370.042969 125.054688 370.011719 124.984375 369.996094 L 124.761719 369.886719 C 124.15625 369.59375 123.597656 369.300781 122.949219 369.019531 C 122.457031 368.796875 121.96875 368.574219 121.484375 368.359375 C 120.863281 368.082031 120.25 367.808594 119.648438 367.539062 L 119.425781 367.4375 C 119.375 367.417969 119.40625 367.433594 119.394531 367.429688 L 119.375 367.425781 C 119.363281 367.421875 119.339844 367.421875 119.332031 367.414062 L 119.351562 367.386719 L 119.363281 367.363281 C 119.363281 367.363281 119.367188 367.359375 119.359375 367.363281 L 119.441406 367.273438 L 119.597656 367.09375 C 120.007812 366.605469 120.351562 366.085938 120.636719 365.546875 C 120.921875 365.007812 121.140625 364.445312 121.296875 363.882812 C 121.378906 363.59375 121.4375 363.34375 121.492188 363.011719 C 121.511719 362.867188 121.535156 362.589844 121.507812 362.371094 C 121.484375 362.140625 121.417969 361.921875 121.3125 361.722656 C 121.113281 361.339844 120.765625 361.046875 120.367188 360.90625 C 120.171875 360.835938 119.949219 360.796875 119.75 360.78125 C 119.582031 360.773438 119.425781 360.777344 119.273438 360.792969 C 118.675781 360.851562 118.1875 361.054688 117.796875 361.191406 C 116.964844 361.496094 116.183594 361.808594 115.464844 362.121094 C 114.019531 362.746094 112.804688 363.371094 111.832031 363.929688 C 109.886719 365.050781 108.902344 365.871094 108.992188 366.019531 C 109.089844 366.183594 110.242188 365.664062 112.273438 364.835938 C 113.289062 364.421875 114.53125 363.933594 115.976562 363.4375 C 116.695312 363.191406 117.46875 362.941406 118.289062 362.699219 C 118.726562 362.570312 119.085938 362.460938 119.402344 362.453125 C 119.484375 362.449219 119.554688 362.453125 119.617188 362.460938 C 119.648438 362.46875 119.65625 362.46875 119.679688 362.480469 C 119.71875 362.496094 119.742188 362.53125 119.753906 362.566406 C 119.761719 362.585938 119.761719 362.605469 119.757812 362.625 L 119.738281 362.738281 C 119.703125 362.90625 119.640625 363.15625 119.566406 363.363281 C 119.425781 363.800781 119.238281 364.234375 118.996094 364.652344 C 118.757812 365.066406 118.472656 365.46875 118.144531 365.839844 C 118.105469 365.886719 118.058594 365.929688 118.015625 365.976562 L 117.953125 366.042969 C 117.898438 366.101562 117.851562 366.148438 117.800781 366.195312 C 117.578125 366.382812 117.398438 366.582031 117.136719 366.765625 C 116.640625 367.136719 116.136719 367.515625 115.632812 367.890625 C 117.238281 368.636719 118.914062 369.410156 120.640625 370.210938 L 121.046875 370.398438 L 121.046875 370.40625 L 121.042969 370.40625 L 120.925781 370.480469 C 119.9375 371.121094 118.902344 371.652344 117.863281 372.09375 C 117.339844 372.308594 116.816406 372.503906 116.292969 372.675781 L 115.691406 372.855469 L 114.855469 373.066406 C 114.300781 373.203125 113.75 373.335938 113.203125 373.46875 C 113.964844 374.449219 114.710938 375.414062 115.445312 376.363281 C 115.878906 376.917969 116.304688 377.460938 116.722656 377.988281 C 117.144531 378.519531 117.554688 379.035156 117.953125 379.542969 L 118.253906 379.917969 L 118.402344 380.101562 C 118.433594 380.144531 118.445312 380.160156 118.441406 380.15625 L 118.457031 380.167969 L 118.570312 380.28125 C 118.640625 380.363281 118.476562 380.382812 118.28125 380.488281 C 117.761719 380.6875 117.253906 380.871094 116.757812 381.027344 C 115.769531 381.347656 114.832031 381.589844 113.976562 381.777344 C 110.53125 382.503906 108.375 382.441406 108.363281 382.714844 C 108.339844 382.910156 110.503906 383.429688 114.179688 383.023438 Z M 8.671875 379.40625 C 8.574219 378.277344 8.519531 376.9375 8.519531 375.457031 C 8.546875 373.972656 8.640625 372.351562 8.859375 370.65625 C 9.097656 368.96875 9.4375 367.378906 9.808594 365.941406 C 10.199219 364.515625 10.605469 363.234375 11 362.175781 C 11.777344 360.050781 12.355469 358.734375 12.097656 358.574219 C 11.878906 358.429688 10.839844 359.492188 9.675781 361.570312 C 9.089844 362.605469 8.511719 363.902344 7.992188 365.390625 C 7.492188 366.886719 7.070312 368.574219 6.816406 370.382812 C 6.582031 372.191406 6.542969 373.933594 6.625 375.507812 C 6.726562 377.078125 6.941406 378.484375 7.230469 379.636719 C 7.804688 381.949219 8.519531 383.246094 8.769531 383.167969 C 9.0625 383.082031 8.851562 381.65625 8.671875 379.40625 Z M 23.347656 392.378906 C 22.746094 390.4375 22.363281 387.621094 22.675781 384.519531 C 22.992188 381.40625 23.773438 378.597656 24.269531 376.523438 C 24.78125 374.453125 25.011719 373.121094 24.738281 373.023438 C 24.472656 372.929688 23.765625 374.074219 22.890625 376.058594 C 22.03125 378.039062 20.972656 380.910156 20.625 384.316406 C 20.277344 387.734375 20.957031 390.90625 21.992188 392.917969 C 23.019531 394.957031 24.175781 395.828125 24.363281 395.660156 C 24.613281 395.46875 23.929688 394.332031 23.347656 392.378906 Z M 290.996094 -0.00390625 C 267.449219 13.976562 242.429688 73.578125 242.429688 73.578125 L 241.695312 79.835938 C 238.753906 90.871094 259.722656 104.851562 259.722656 104.851562 C 266.347656 123.617188 283.269531 119.9375 283.269531 119.9375 C 298.441406 120.558594 303.453125 105.019531 304.65625 100.082031 C 305.34375 100.082031 305.714844 100.070312 305.714844 100.070312 C 320.429688 18.390625 290.996094 -0.00390625 290.996094 -0.00390625 Z M 202.941406 155.257812 L 196.808594 147.164062 C 196.808594 147.164062 181.847656 112.824219 162.226562 140.539062 C 162.226562 140.539062 105.574219 141.671875 93.414062 152.589844 C 93.414062 152.589844 84.226562 194.808594 120.097656 210.261719 C 120.097656 210.261719 155.609375 220.996094 162.59375 245.03125 C 162.59375 245.03125 192.832031 276.050781 229.230469 242.0625 C 229.230469 242.0625 259.835938 202.511719 255.636719 175.578125 C 255.636719 175.578125 255.167969 152.855469 227.4375 160.074219 C 227.4375 160.074219 209.5625 164.332031 202.941406 155.257812 Z M 163.835938 82.25 C 148.363281 32.0625 174.832031 2.394531 174.832031 2.394531 C 196.890625 10.25 207.835938 43.007812 212.226562 60.648438 C 188.984375 62.511719 173.777344 71.550781 163.835938 82.25" fill="#251b15"/></g><g id="change4_1"><path d="M 281.601562 99.890625 C 281.601562 99.890625 282.707031 91.058594 290.429688 87.746094 C 290.429688 87.746094 300.363281 28.148438 291.535156 10.488281 C 291.535156 10.488281 257.320312 45.257812 254.007812 83.335938 C 254.007812 83.335938 262.839844 90.507812 265.046875 97.683594 C 265.046875 97.683594 280.496094 92.164062 281.601562 99.890625 Z M 170.074219 72.105469 C 161.488281 26.238281 178.660156 10.296875 178.660156 10.296875 C 186.261719 16.675781 195.828125 53.222656 195.828125 53.222656 C 192.886719 56.65625 190.675781 63.523438 190.675781 63.523438 C 180.621094 60.824219 170.074219 72.105469 170.074219 72.105469" fill="#a76f23"/></g><g id="change5_1"><path d="M 164.113281 134.796875 C 151.824219 111.328125 143.089844 137.15625 143.089844 137.15625 C 154.691406 127.34375 164.113281 134.796875 164.113281 134.796875 Z M 227.519531 140.726562 C 214.828125 100.441406 193.855469 138.519531 193.855469 138.519531 C 214.828125 126.378906 227.519531 140.726562 227.519531 140.726562 Z M 167.003906 192.578125 C 162.554688 198.570312 149.761719 199.730469 137.699219 199.730469 C 133.445312 199.730469 129.28125 199.585938 125.605469 199.457031 C 123.929688 199.398438 122.371094 199.347656 120.984375 199.3125 C 116.207031 199.199219 112.578125 197.261719 109.828125 194.574219 L 104.253906 199.347656 C 103.992188 199.570312 103.675781 199.683594 103.359375 199.683594 C 102.96875 199.683594 102.585938 199.519531 102.3125 199.199219 C 101.816406 198.621094 101.882812 197.753906 102.460938 197.257812 L 107.992188 192.519531 C 103.300781 186.527344 101.890625 178.53125 101.660156 177.019531 C 88.835938 172.984375 89.746094 152.3125 89.746094 152.3125 C 107.40625 144.953125 128.375 158.199219 128.375 158.199219 C 124.695312 174.390625 105.933594 177.699219 105.933594 177.699219 C 105.457031 177.691406 105.003906 177.652344 104.554688 177.609375 C 105.367188 181.867188 109 196.273438 121.050781 196.558594 C 122.449219 196.59375 124.011719 196.648438 125.699219 196.707031 C 138.390625 197.144531 159.632812 197.882812 164.789062 190.9375 C 166.070312 189.214844 166.246094 187.078125 165.335938 184.398438 C 165.089844 183.679688 165.476562 182.898438 166.195312 182.652344 C 166.914062 182.40625 167.699219 182.792969 167.941406 183.511719 C 169.152344 187.058594 168.835938 190.109375 167.003906 192.578125" fill="#14110f"/></g><g id="change6_1"><path d="M 355.46875 250.640625 C 285.289062 303.558594 176.207031 297.570312 176.207031 297.570312 C 169.304688 289.515625 166.785156 262.910156 166.785156 262.910156 C 258.820312 281.320312 343.019531 210.136719 343.019531 210.136719 C 362.578125 235.445312 355.46875 250.640625 355.46875 250.640625" fill="#5a95aa"/></g></g></svg>