<?xml version="1.0" encoding="UTF-8"?><svg xmlns="http://www.w3.org/2000/svg" xmlns:xlink="http://www.w3.org/1999/xlink" height="354.3" preserveAspectRatio="xMidYMid meet" version="1.0" viewBox="-6.6 -5.5 324.2 354.3" width="324.2" zoomAndPan="magnify"><defs><clipPath id="a"><path d="M 156 0 L 316.730469 0 L 316.730469 267 L 156 267 Z M 156 0"/></clipPath></defs><g><g id="change1_1"><path d="M 316.101562 238.671875 C 317.574219 271.78125 316.136719 297.066406 315.0625 297.722656 C 231.6875 348.742188 176.359375 309.054688 176.359375 309.054688 L 188.371094 266.546875 C 159.953125 283.609375 133.253906 265.957031 133.253906 265.957031 C 141.871094 281.109375 133.769531 287.9375 133.769531 287.9375 C 120.71875 302.816406 81.324219 271.148438 81.324219 271.148438 C 86.570312 294.96875 71.160156 292.597656 71.160156 292.597656 C -6.625 252.332031 0.148438 169.675781 0.148438 169.675781 C -3.605469 137.363281 136.210938 76.5625 136.210938 76.5625 C 138.910156 74.828125 141.636719 73.269531 144.375 71.867188 L 152.882812 56.5 C 129.898438 50.273438 123.246094 44.054688 123.246094 44.054688 C 138.019531 -5.542969 178.429688 0.207031 178.429688 0.207031 C 197.160156 1.769531 193.367188 43.761719 190.9375 61.371094 C 192.195312 61.386719 193.445312 61.421875 194.6875 61.476562 C 175.84375 75.453125 138.382812 108.386719 165.988281 132.378906 C 165.988281 132.378906 194.214844 162.421875 232.832031 161.121094 C 271.445312 159.824219 277.953125 201.375 277.953125 201.375 C 277.953125 201.375 286.1875 232.789062 316.101562 238.671875" fill="#fbfce4"/></g><g clip-path="url(#a)" id="change2_1"><path d="M 187.761719 266.355469 C 188.816406 266.347656 190.132812 266.269531 191.664062 265.878906 C 192.429688 265.660156 193.246094 265.371094 194.070312 264.894531 C 194.886719 264.40625 195.703125 263.710938 196.308594 262.761719 C 196.90625 261.824219 197.320312 260.648438 197.324219 259.410156 C 197.359375 258.175781 197.058594 256.945312 196.601562 255.78125 C 196.128906 254.621094 195.503906 253.5 194.777344 252.445312 C 194.074219 251.375 193.261719 250.332031 192.386719 249.285156 C 188.863281 245.132812 183.832031 241.273438 177.535156 238.972656 L 176.660156 241.957031 C 181.140625 243.054688 186.226562 243.730469 191.484375 242.558594 C 192.789062 242.257812 194.089844 241.839844 195.351562 241.285156 C 196.632812 240.703125 197.84375 239.960938 198.960938 239.085938 C 201.195312 237.34375 203.046875 235.007812 204.175781 232.242188 C 204.992188 230.21875 205.359375 227.96875 205.066406 225.777344 C 204.816406 223.574219 203.949219 221.613281 202.96875 219.890625 C 200.980469 216.464844 198.300781 213.613281 195.320312 211.429688 C 192.335938 209.253906 189.058594 207.699219 185.753906 206.820312 C 185.339844 206.714844 184.9375 206.582031 184.519531 206.507812 L 183.992188 206.402344 L 183.921875 206.394531 L 183.578125 206.378906 C 183.449219 206.378906 183.308594 206.375 183.152344 206.382812 L 183.03125 206.386719 L 182.972656 206.390625 L 183.003906 206.382812 L 183.128906 206.335938 C 183.269531 206.277344 183.4375 206.1875 183.621094 206.054688 C 183.835938 205.890625 184.042969 205.734375 184.25 205.578125 C 184.722656 205.210938 185.171875 204.824219 185.59375 204.417969 C 187.296875 202.800781 188.515625 200.859375 189.210938 198.882812 C 189.90625 196.902344 190.050781 194.835938 189.621094 193.023438 C 189.238281 191.21875 188.148438 189.664062 186.957031 188.765625 C 184.546875 186.863281 181.921875 186.816406 180.449219 187.320312 C 178.9375 187.863281 178.488281 188.648438 178.5625 188.710938 C 178.671875 188.859375 179.3125 188.347656 180.644531 188.136719 C 181.941406 187.945312 184.101562 188.269531 185.910156 189.980469 C 186.816406 190.828125 187.488281 191.953125 187.714844 193.414062 C 187.949219 194.84375 187.75 196.476562 187.089844 198.082031 C 186.425781 199.6875 185.347656 201.253906 183.859375 202.546875 C 183.492188 202.875 183.097656 203.1875 182.683594 203.480469 L 182.34375 203.71875 L 181.785156 204.082031 C 181.609375 204.199219 181.34375 204.332031 181.125 204.457031 C 180.902344 204.585938 180.664062 204.710938 180.386719 204.828125 C 180.109375 204.945312 179.882812 205.070312 179.558594 205.1875 L 178.503906 205.539062 C 178.355469 205.597656 178.097656 205.664062 177.847656 205.726562 L 177.105469 205.921875 L 175.460938 206.34375 C 172.625 207.058594 169.757812 207.785156 166.855469 208.515625 L 168.3125 208.570312 L 168.851562 208.589844 L 169.105469 208.609375 L 169.355469 208.628906 L 169.953125 208.640625 L 171.1875 208.660156 C 173.027344 208.691406 174.894531 208.722656 176.78125 208.753906 C 177.871094 208.753906 178.625 208.835938 179.507812 208.886719 L 180.8125 208.976562 C 181.246094 209.003906 181.710938 209.023438 182.0625 209.09375 C 182.449219 209.148438 182.816406 209.222656 183.175781 209.308594 L 183.824219 209.457031 C 184.195312 209.527344 184.554688 209.660156 184.921875 209.761719 C 187.851562 210.613281 190.757812 212.058594 193.382812 214.035156 C 196.003906 216.015625 198.335938 218.566406 200.046875 221.558594 C 200.882812 223.046875 201.535156 224.609375 201.695312 226.1875 C 201.902344 227.765625 201.640625 229.414062 201.015625 230.972656 C 200.148438 233.101562 198.667969 235.011719 196.859375 236.429688 C 195.960938 237.140625 194.984375 237.742188 193.96875 238.214844 C 192.925781 238.6875 191.835938 239.050781 190.726562 239.316406 C 186.265625 240.367188 181.609375 239.882812 177.382812 238.925781 L 176.503906 241.910156 C 182.28125 243.886719 187.023438 247.289062 190.441406 251.007812 C 192.125 252.882812 193.648438 254.800781 194.519531 256.667969 C 195.414062 258.550781 195.507812 260.40625 194.699219 261.796875 C 193.957031 263.199219 192.519531 263.996094 191.226562 264.492188 C 189.90625 264.972656 188.679688 265.199219 187.683594 265.363281 C 185.675781 265.671875 184.550781 265.742188 184.550781 265.933594 C 184.546875 266.089844 185.648438 266.355469 187.761719 266.355469 Z M 316.101562 238.671875 C 286.1875 232.789062 277.953125 201.375 277.953125 201.375 C 277.953125 201.375 271.445312 159.824219 232.832031 161.121094 C 194.214844 162.421875 165.988281 132.378906 165.988281 132.378906 C 138.382812 108.386719 175.84375 75.453125 194.6875 61.476562 C 212.835938 62.277344 229.324219 67.15625 241.546875 71.992188 L 249.617188 57.410156 C 226.632812 51.183594 219.980469 44.964844 219.980469 44.964844 C 234.753906 -4.632812 275.160156 1.117188 275.160156 1.117188 C 297.828125 3.007812 282.296875 88.121094 280.859375 95.746094 C 305.605469 125.222656 313.957031 190.300781 316.101562 238.671875" fill="#b08150"/></g><g id="change3_1"><path d="M 78.925781 269.390625 C 76.84375 268.105469 73.8125 266.308594 70.277344 263.8125 C 66.726562 261.335938 62.722656 258.085938 58.257812 254.386719 C 53.738281 250.753906 49.03125 246.667969 44.617188 241.777344 C 42.410156 239.34375 40.375 236.855469 38.5 234.378906 C 36.664062 231.96875 35.21875 229.4375 34.0625 226.886719 C 31.746094 221.78125 30.527344 216.761719 29.683594 212.53125 C 29.246094 210.230469 28.917969 208.160156 28.652344 206.351562 C 33.140625 204.707031 59.285156 194.15625 60.042969 171.433594 C 60.042969 171.433594 27.21875 149.128906 6.292969 166.160156 C 6.292969 166.160156 3.578125 190.074219 26.773438 205.773438 C 26.828125 207.796875 26.980469 210.191406 27.304688 212.90625 C 27.867188 217.3125 28.871094 222.597656 31.183594 228.144531 C 32.339844 230.90625 33.871094 233.730469 35.824219 236.375 C 37.71875 238.953125 39.804688 241.542969 42.09375 244.066406 C 46.652344 249.125 51.679688 253.347656 56.296875 256.839844 C 60.871094 260.402344 65.140625 263.546875 68.960938 265.828125 C 72.769531 268.136719 76.039062 269.640625 78.328125 270.574219 C 80.621094 271.503906 81.957031 271.847656 82.050781 271.648438 C 82.15625 271.421875 81.007812 270.671875 78.925781 269.390625 Z M 138.992188 82.851562 C 132.464844 80.308594 123.945312 86.539062 119.964844 96.765625 C 115.984375 106.992188 118.046875 117.34375 124.574219 119.882812 C 131.101562 122.425781 139.621094 116.195312 143.605469 105.96875 C 147.585938 95.742188 145.519531 85.390625 138.992188 82.851562 Z M 214.414062 122.195312 C 210.179688 133.074219 200.394531 139.421875 192.5625 136.371094 C 184.730469 133.320312 181.8125 122.027344 186.046875 111.152344 C 190.28125 100.269531 200.066406 93.925781 207.898438 96.972656 C 215.734375 100.023438 218.648438 111.316406 214.414062 122.195312" fill="#2b1814"/></g></g></svg>