<?xml version="1.0" encoding="UTF-8"?><svg xmlns="http://www.w3.org/2000/svg" xmlns:xlink="http://www.w3.org/1999/xlink" height="166.3" preserveAspectRatio="xMidYMid meet" version="1.0" viewBox="-1.8 0.0 232.3 166.3" width="232.3" zoomAndPan="magnify"><defs><clipPath id="a"><path d="M 60 115 L 181 115 L 181 166.28125 L 60 166.28125 Z M 60 115"/></clipPath><clipPath id="b"><path d="M 0 0 L 230.5 0 L 230.5 134 L 0 134 Z M 0 0"/></clipPath></defs><g><g clip-path="url(#a)" id="change1_1"><path d="M 172.984375 115.691406 C 172.984375 115.691406 182.984375 127.691406 179.484375 142.191406 C 179.484375 142.191406 159.984375 174.691406 89.984375 164.191406 C 89.984375 164.191406 69.984375 160.191406 63.984375 152.691406 C 63.984375 152.691406 56.984375 137.691406 62.984375 131.691406 C 62.984375 131.691406 127.484375 157.691406 172.984375 115.691406" fill="#389d3d"/></g><g id="change2_1"><path d="M 178.4375 86.558594 C 172.730469 70.132812 165.714844 52.1875 160.621094 39.511719 C 160.617188 39.515625 160.617188 39.515625 160.617188 39.515625 C 158.335938 37.339844 155.992188 35.46875 153.625 33.855469 C 141 25.261719 127.6875 24.101562 119.785156 24.371094 C 113.824219 28.117188 103.761719 36.367188 101.429688 50.378906 C 101.429688 50.378906 100.578125 33.398438 102.574219 24.292969 C 91.15625 23.976562 82.046875 26.007812 74.765625 29.585938 C 69.855469 32 65.773438 35.109375 62.402344 38.707031 C 58.085938 47.554688 52.796875 61.523438 46.929688 83.558594 C 46.886719 84.835938 46.863281 86.066406 46.859375 87.261719 C 46.824219 96.6875 47.910156 103.332031 47.910156 103.332031 C 49.035156 141.882812 98.433594 154.605469 98.433594 154.605469 C 164.78125 159.726562 178.144531 123.125 178.089844 92.632812 C 178.085938 90.726562 178.03125 88.84375 177.933594 86.996094 C 178.105469 86.851562 178.269531 86.703125 178.4375 86.558594" fill="#fab24e"/></g><g clip-path="url(#b)" id="change3_1"><path d="M 71.113281 123.621094 C 69.664062 123.621094 68.488281 124.796875 68.488281 126.246094 C 68.488281 127.695312 69.664062 128.871094 71.113281 128.871094 C 72.566406 128.871094 73.738281 127.695312 73.738281 126.246094 C 73.738281 124.796875 72.566406 123.621094 71.113281 123.621094 Z M 76.363281 118.371094 C 74.914062 118.371094 73.738281 119.546875 73.738281 120.996094 C 73.738281 122.445312 74.914062 123.621094 76.363281 123.621094 C 77.816406 123.621094 78.988281 122.445312 78.988281 120.996094 C 78.988281 119.546875 77.816406 118.371094 76.363281 118.371094 Z M 116.863281 128.621094 C 115.414062 128.621094 114.238281 129.796875 114.238281 131.246094 C 114.238281 132.695312 115.414062 133.871094 116.863281 133.871094 C 118.3125 133.871094 119.488281 132.695312 119.488281 131.246094 C 119.488281 129.796875 118.3125 128.621094 116.863281 128.621094 Z M 107.363281 127.371094 C 105.914062 127.371094 104.738281 128.546875 104.738281 129.996094 C 104.738281 131.445312 105.914062 132.621094 107.363281 132.621094 C 108.8125 132.621094 109.988281 131.445312 109.988281 129.996094 C 109.988281 128.546875 108.8125 127.371094 107.363281 127.371094 Z M 116.113281 122.621094 C 116.113281 121.171875 114.9375 119.996094 113.488281 119.996094 C 112.039062 119.996094 110.863281 121.171875 110.863281 122.621094 C 110.863281 124.070312 112.039062 125.246094 113.488281 125.246094 C 114.9375 125.246094 116.113281 124.070312 116.113281 122.621094 Z M 55.683594 76.738281 C 51.976562 89.652344 56.296875 102.222656 65.335938 104.820312 C 74.375 107.414062 84.710938 99.050781 88.417969 86.140625 C 92.125 73.226562 87.804688 60.652344 78.765625 58.058594 C 69.726562 55.460938 59.390625 63.824219 55.683594 76.738281 Z M 125.007812 89.671875 C 125.007812 103.105469 133.050781 114 142.972656 114 C 152.890625 114 160.933594 103.105469 160.933594 89.671875 C 160.933594 76.238281 152.890625 65.347656 142.972656 65.347656 C 133.050781 65.347656 125.007812 76.238281 125.007812 89.671875 Z M 119.785156 24.371094 C 115.382812 24.523438 112.65625 25.113281 112.65625 25.113281 C 109.109375 24.644531 105.753906 24.382812 102.574219 24.292969 C 100.578125 33.398438 101.429688 50.378906 101.429688 50.378906 C 103.761719 36.367188 113.824219 28.117188 119.785156 24.371094 Z M 230.503906 15.980469 C 220.945312 0.570312 169.707031 25.515625 153.625 33.855469 C 155.992188 35.46875 158.335938 37.339844 160.617188 39.515625 C 160.617188 39.515625 160.617188 39.515625 160.621094 39.511719 C 165.714844 52.1875 172.730469 70.132812 178.4375 86.558594 C 178.269531 86.703125 178.105469 86.851562 177.933594 86.996094 C 178.03125 88.84375 178.085938 90.726562 178.089844 92.632812 C 212.480469 72.273438 230.503906 15.980469 230.503906 15.980469 Z M 46.929688 83.558594 C 46.886719 84.835938 46.863281 86.066406 46.859375 87.261719 C 12.789062 64.769531 0 3.804688 0 3.804688 C 11.121094 -10.585938 59.78125 19.726562 74.765625 29.585938 C 69.855469 32 65.773438 35.109375 62.402344 38.707031 C 58.085938 47.554688 52.796875 61.523438 46.929688 83.558594" fill="#f58034"/></g><g id="change4_1"><path d="M 61.59375 62.226562 C 61.089844 59.792969 65.503906 56.820312 71.453125 55.589844 C 77.398438 54.355469 82.632812 55.328125 83.136719 57.761719 C 83.640625 60.195312 79.226562 63.167969 73.277344 64.402344 C 67.328125 65.636719 62.097656 64.660156 61.59375 62.226562 Z M 160.683594 72.675781 C 159.683594 74.949219 154.363281 74.808594 148.804688 72.363281 C 143.242188 69.917969 139.546875 66.089844 140.546875 63.816406 C 141.546875 61.539062 146.867188 61.679688 152.425781 64.125 C 157.988281 66.574219 161.683594 70.398438 160.683594 72.675781 Z M 218.316406 19.523438 C 218.316406 19.523438 201.214844 74.132812 177.933594 86.996094 C 177.933594 86.996094 170.316406 74.191406 156.648438 41.523438 C 156.648438 41.523438 209.648438 6.523438 218.316406 19.523438 Z M 62.402344 38.707031 C 51.652344 64.859375 46.929688 83.558594 46.929688 83.558594 C -1.789062 20.257812 10.652344 6.523438 10.652344 6.523438 C 29.316406 3.859375 62.402344 38.707031 62.402344 38.707031 Z M 116.863281 133.871094 C 115.414062 133.871094 114.238281 132.695312 114.238281 131.246094 C 114.238281 129.796875 115.414062 128.621094 116.863281 128.621094 C 118.3125 128.621094 119.488281 129.796875 119.488281 131.246094 C 119.488281 132.695312 118.3125 133.871094 116.863281 133.871094 Z M 110.863281 122.621094 C 110.863281 121.171875 112.039062 119.996094 113.488281 119.996094 C 114.9375 119.996094 116.113281 121.171875 116.113281 122.621094 C 116.113281 124.070312 114.9375 125.246094 113.488281 125.246094 C 112.039062 125.246094 110.863281 124.070312 110.863281 122.621094 Z M 107.363281 132.621094 C 105.914062 132.621094 104.738281 131.445312 104.738281 129.996094 C 104.738281 128.546875 105.914062 127.371094 107.363281 127.371094 C 108.8125 127.371094 109.988281 128.546875 109.988281 129.996094 C 109.988281 131.445312 108.8125 132.621094 107.363281 132.621094 Z M 76.363281 123.621094 C 74.914062 123.621094 73.738281 122.445312 73.738281 120.996094 C 73.738281 119.546875 74.914062 118.371094 76.363281 118.371094 C 77.816406 118.371094 78.988281 119.546875 78.988281 120.996094 C 78.988281 122.445312 77.816406 123.621094 76.363281 123.621094 Z M 71.113281 128.871094 C 69.664062 128.871094 68.488281 127.695312 68.488281 126.246094 C 68.488281 124.796875 69.664062 123.621094 71.113281 123.621094 C 72.566406 123.621094 73.738281 124.796875 73.738281 126.246094 C 73.738281 127.695312 72.566406 128.871094 71.113281 128.871094 Z M 104.152344 100.351562 C 86.242188 95.789062 68.605469 104.324219 64.761719 119.417969 C 60.917969 134.511719 72.320312 150.445312 90.230469 155.007812 C 108.140625 159.570312 125.777344 151.03125 129.621094 135.941406 C 133.46875 120.847656 122.0625 104.914062 104.152344 100.351562" fill="#f8d5b2"/></g><g id="change5_1"><path d="M 69.890625 137.90625 C 72.617188 139.496094 75.492188 140.074219 78.234375 140.074219 C 83.273438 140.074219 87.859375 138.125 90.210938 136.921875 C 92.28125 140.597656 96.613281 145.613281 104.839844 145.613281 C 106.640625 145.613281 108.628906 145.371094 110.820312 144.824219 C 111.722656 144.597656 112.269531 143.683594 112.042969 142.78125 C 111.820312 141.878906 110.90625 141.328125 110.003906 141.554688 C 98.886719 144.335938 94.265625 137.890625 92.617188 134.375 C 92.585938 134.136719 92.511719 133.898438 92.371094 133.679688 C 92.335938 133.625 92.292969 133.578125 92.25 133.523438 C 92.085938 133.109375 91.972656 132.773438 91.90625 132.558594 L 92.324219 128.191406 C 108.5625 126.570312 111.160156 112.5 111.160156 112.5 C 97.3125 102.769531 83.839844 107.636719 83.839844 107.636719 C 77.308594 116.613281 84.625 123.414062 89.105469 126.460938 L 88.496094 132.84375 L 88.570312 133.128906 C 88.574219 133.148438 88.648438 133.414062 88.800781 133.847656 C 85.796875 135.390625 77.929688 138.699219 71.589844 135 C 70.785156 134.53125 69.753906 134.800781 69.285156 135.605469 C 68.816406 136.40625 69.089844 137.4375 69.890625 137.90625 Z M 130.648438 92.433594 C 129.605469 101 133.335938 108.5 138.984375 109.191406 C 144.632812 109.882812 150.058594 103.496094 151.105469 94.933594 C 152.152344 86.367188 148.421875 78.867188 142.769531 78.175781 C 137.121094 77.488281 131.695312 83.871094 130.648438 92.433594 Z M 71.882812 73.554688 C 76.738281 74.457031 79.566406 81.160156 78.191406 88.527344 C 76.820312 95.890625 71.769531 101.125 66.914062 100.222656 C 62.054688 99.316406 59.230469 92.613281 60.601562 85.25 C 61.976562 77.882812 67.023438 72.648438 71.882812 73.554688" fill="#5c242f"/></g></g></svg>