<?xml version="1.0" encoding="UTF-8"?><!-- Generator: Adobe Illustrator 23.0.3, SVG Export Plug-In . SVG Version: 6.00 Build 0)  --><svg xmlns="http://www.w3.org/2000/svg" enable-background="new 0 0 182.34 154.95" id="Layer_1" version="1.1" viewBox="0 0 182.34 154.95" x="0px" xml:space="preserve" y="0px">
<g fill="#A5CBEF" id="change1_1">
	<path d="m133.72 96.96c-4.37 0.18-7.41-1.45-9.79-5.43-4.04-6.76-1.67-13.26 2.91-17.85 3.67-3.68 8.85-2.35 11.65 2.23 1.04 1.69 1.9 3.22 3.99 3.94 1.55 0.53 2.58 1.95 2.71 3.8 0.12 1.7 1.14 3.25 0.48 5.09-1.38 3.85-6.63 7.96-10.73 8.22-0.39 0.02-0.81 0-1.22 0z" fill="inherit"/>
	<path d="m74.82 146.98c-0.11 4.24-0.82 5.11-4.03 6.46-3.61 1.52-7.32 1.84-11.12 1.18-3.91-0.68-5.88-3.62-7.17-6.92-1.44-3.67-0.51-7.13 2.23-9.89 2.47-2.49 5.22-3.59 9.13-2.76 2.75 0.58 4.4 1.63 5.69 3.8 0.33 0.54 0.68 1.03 1.27 1.28 3.41 1.45 3.93 4.4 4 6.85z" fill="inherit"/>
	<path d="m143.11 134.66c-2.8 0.5-4.8-0.57-6.42-2.47-4.51-5.29-3.57-13.72 1.97-17.97 1.89-1.45 5.56-1.53 7.48 0.02 1.18 0.95 2.48 1.85 3.19 3.27 0.48 0.97 1.28 1.53 2.16 2.09 1.79 1.14 2.26 2.33 1.71 4.41-0.18 0.68-0.54 1.27-0.31 2.04 0.27 0.9 1.61 1.48 0.83 2.7-1.04 1.63-1.96 3.33-3.71 4.4-2.21 1.34-4.67 1.33-6.9 1.51z" fill="inherit"/>
	<path d="m82.97 49.41c-4.02 0.02-7.06-1.51-8.93-5.29-1.93-3.89-1.76-7.55 0.75-11.03 2.28-3.16 7.3-4 10.84-2.3 3.16 1.52 5.14 4.31 7.64 6.51 1.69 1.49 1.61 3.87-0.05 5.35-0.98 0.87-0.52 2-1.28 2.95-2.37 2.97-5.39 3.91-8.97 3.81zm5.04-10.38c-0.05-1.29-1.77-2.82-2.94-2.67-0.89 0.11-1.18 0.7-1.11 1.52 0.12 1.44 1.61 3.07 2.68 2.88 0.94-0.17 1.28-0.91 1.37-1.73z" fill="inherit"/>
	<path d="m100.98 19.86c-6.56-0.13-10.66-5.4-9.18-11.89 0.32-1.39 0.76-2.78 1.31-4.09 1.05-2.49 2.99-3.88 5.7-3.88 2.79 0.01 5.1 1.29 6.21 3.82 1.02 2.32 2.36 3.87 4.77 4.8 2.2 0.85 2.42 2.29 2.32 4.78-0.13 3.1-1.65 4.5-4.51 5.25-2.19 0.57-4.35 1.16-6.62 1.21z" fill="inherit"/>
	<path d="m43.44 100.73c-4.16-0.09-7.76-3.01-9.23-7.55-1.89-5.82-0.46-9.94 4.49-12.87 1.06-0.63 2.19-0.88 3.19-0.27 1.88 1.14 4.06 1.91 5.15 4.1 0.4 0.81 1.05 1.46 1.91 1.93 2.84 1.54 4.52 3.82 4.08 7.2-0.49 3.83-3 5.9-6.48 6.96-1.06 0.32-2.21 0.36-3.11 0.5z" fill="inherit"/>
	<path d="m27.25 128.67c-0.15-6.47 6.47-11.38 11.78-8.49 3.03 1.65 4.78 4.93 7.55 7.1 1.52 1.19 1.16 3.83 0.06 5.75-1.36 2.37-3.21 4.11-5.9 5.06-2.16 0.76-4.41 0.65-6.6 1.04-1.48 0.26-3.13-0.61-4.17-2.11-1.39-2.02-2.66-5.71-2.72-8.35zm8.74 3.84c1.93-0.5 2.84-1.6 3.57-2.94 0.25-0.46 0.38-0.98-0.15-1.32-0.46-0.29-0.98-0.22-1.4 0.13-1.11 0.95-1.78 2.14-2.02 4.13z" fill="inherit"/>
	<path d="m108.74 149.65c-5.38 0.05-10.19-3.63-11.53-8.78-0.54-2.07-0.18-3.84 1.61-5.19 0.65-0.49 1.43-0.94 1.84-1.59 1.13-1.8 2.8-2.02 4.71-2.28 3.32-0.44 5.83 0.27 7.23 3.56 0.52 1.21 1.67 1.74 2.8 2.26 1.72 0.79 2.32 2.12 2.08 3.98-0.53 4.13-3.07 8.01-8.74 8.04z" fill="inherit"/>
	<path d="m102.58 79.57c-3.17 0.34-5.25-1.25-6.89-3.94-3.11-5.11-1.29-12.99 3.76-15.73 2.6-1.41 4.54-1.2 6.21 1.15 1.49 2.1 3.39 3.75 5.24 5.46 1.99 1.84 2.36 4 1.48 6.45-1.61 4.42-4.48 6.36-9.8 6.61zm2.34-10.08c-1.38 1.33-2.11 2.49-2.16 4.2 2.62-1.04 2.72-1.22 2.16-4.2z" fill="inherit"/>
	<path d="m101.93 115.78c-1.44-0.08-2.92-0.06-4.06-1.14-4.35-4.12-6.39-8.89-3.56-14.57 2.68-5.39 8.39-4.93 11.17-1.09 0.54 0.74 1.15 1.44 1.76 2.12 0.36 0.39 0.79 0.79 0.4 1.31-1.14 1.51-0.05 1.85 1.08 2.35 4.36 1.92 4.75 5.67 1.01 8.72-2.32 1.9-5.07 2.01-7.8 2.3z" fill="inherit"/>
	<path d="m171.73 89.65c-5.28-0.2-7.74-2.7-8.89-8.4-0.74-3.68 1.34-7.27 4.93-8.88 4.07-1.82 7.53-0.87 9.97 2.86 0.61 0.93 1.37 1.45 2.3 1.89 1.94 0.92 2.56 2.47 2.2 4.55-0.32 1.88-1.04 3.56-2.49 4.79-2.51 2.15-5.59 2.81-8.02 3.19z" fill="inherit"/>
	<path d="m39.95 56.19c0.04-4.44 3.06-7.81 6.99-8.06 1.6-0.1 3.01 0.55 4.05 1.82 1.67 2.03 3.41 3.9 5.56 5.53 3.35 2.55 2.76 7-0.84 9.26-1.4 0.88-2.87 1.56-4.57 1.66-0.78 0.05-1.51 0.15-2.23 0.77-1.94 1.68-3.66 1.52-5.13-0.58-2.25-3.21-3.7-6.8-3.83-10.4z" fill="inherit"/>
	<path d="m129.51 37.71c-1.04 1.42-2.66 0.6-3.82 1.33-0.07 1.29 1.06 1.31 1.81 1.71 2.99 1.61 3.69 3.87 2.14 6.9-2.28 4.47-8.2 5.9-12.35 2.99-4.82-3.37-6.07-8.57-3.29-13.65 2.21-4.05 6.25-5.32 10.44-3.36 1.99 0.92 3.65 2.18 5.07 4.08z" fill="inherit"/>
	<path d="m77.04 88.1c-5.17-0.31-10.63-4.08-8.76-10.54 0.83-2.88 1.74-5.68 4.13-7.7 2.44-2.06 6.14-1.92 8.31 0.38 0.53 0.57 1.24 1.23 0.78 2.15-0.68 1.35 0.04 1.78 1.17 2.2 2.39 0.89 3.63 2.55 3.21 4.83-0.38 2.05-1.01 4.04-2.46 5.79-1.77 2.13-4.07 2.55-6.38 2.89z" fill="inherit"/>
	<path d="m42.46 29.4c-5.12 0.14-8.25-2.58-9.07-7.7-0.52-3.28 0.75-8.09 5.37-9.59 2.51-0.81 4.37-0.36 5.56 1.73 1.34 2.35 3.09 4.06 5.54 5.44 3.51 1.99 3.2 5.93-0.21 8.17-2.33 1.53-4.97 1.73-7.19 1.95z" fill="inherit"/>
	<path d="m60.93 108.36c0.08-3.87 1.29-5.44 5.09-6.52 1.1-0.31 2.07-0.84 3.05-1.4 2.27-1.28 3.73-1.03 4.81 1.2 1.12 2.31 2.5 4.04 5.04 4.95 1.87 0.67 2.03 1.87 1.01 3.7-2.65 4.78-6.81 6.85-12.16 6.62-3.39-0.14-6.92-4.62-6.84-8.55z" fill="inherit"/>
	<path d="m10.19 108.36c-5.73-0.04-8.86-2.47-10.04-7.67-0.72-3.17 1.2-6.34 4.24-6.03 1.26 0.13 2.37-0.26 3.52-0.79 1.74-0.8 3.44-0.37 4.62 1.12 1.44 1.82 2.7 3.6 5.06 4.61 2.26 0.97 1.64 5.05-0.83 6.75-2.08 1.43-4.4 2.15-6.57 2.01z" fill="inherit"/>
	<path d="m146.85 66.06c-5.34 0.05-8.74-4.63-7.21-9.36 0.72-2.24 1.7-4.5 4.2-5.35 2.31-0.79 4.21 0.05 5.74 1.84 0.66 0.78 1.25 1.56 2.18 2.11 2.86 1.69 3.52 3.61 1.74 6.35-1.62 2.48-3.65 4.8-6.65 4.41z" fill="inherit"/>
	<path d="m15.4 72.01c-3.23 0.84-4.95-1.31-6.27-3.9-1.3-2.55-0.16-4.77 1.36-6.79 1.19-1.59 2.77-2.68 4.76-3.13 2.41-0.55 4.07 0.17 4.79 2.49 0.3 0.96 0.59 1.6 1.47 2.11 3.29 1.88 3.39 5.45 0.22 7.72-1.82 1.3-3.89 1.75-6.33 1.5z" fill="inherit"/>
</g>
</svg>