<?xml version="1.0" encoding="UTF-8"?><svg xmlns="http://www.w3.org/2000/svg" xmlns:xlink="http://www.w3.org/1999/xlink" height="500.0" preserveAspectRatio="xMidYMid meet" version="1.0" viewBox="-0.0 -0.0 500.1 500.0" width="500.1" zoomAndPan="magnify"><path d="M499,275a8.9,8.9,0,0,1-3.5-1.1,6.3,6.3,0,0,1-2.8-3.4,13.8,13.8,0,0,1,0-6.7,5.6,5.6,0,0,1,3.1-3.9,10.4,10.4,0,0,1,4.2-1V2.1a8.4,8.4,0,0,1-1.7,3.7A7.1,7.1,0,0,1,490.4,8a8.7,8.7,0,0,1-5.8-6,13.6,13.6,0,0,1-.2-2H251.8a7.8,7.8,0,0,1-.9,4.2,7.6,7.6,0,0,1-3,2.9l-.7.4-1.3.4a8.3,8.3,0,0,1-5.8-.2,7.3,7.3,0,0,1-3.8-4.1,10.9,10.9,0,0,1-.6-3.6H144.9V1c-.5,3.4-2.1,6.1-5.8,6.8a7.5,7.5,0,0,1-6.7-2.2A8.3,8.3,0,0,1,130.7,0H36a7.6,7.6,0,0,1,1.6,1.1,7.5,7.5,0,0,1,1.9,7.3,8.6,8.6,0,0,1-4.3,5.1c-2.4,1.5-5.3.5-6.9-1.9s-1.8-3.8-.9-7.7c.2-.3.7-1.5.9-1.9a5.5,5.5,0,0,1,2.3-2H0V156.4a7.2,7.2,0,0,1,10.7.5,11.3,11.3,0,0,1,1.2,2.1c2,7.2-3.4,13.1-8.6,11.8A6.9,6.9,0,0,1,0,168.9V295.1A7.3,7.3,0,0,1,7.2,300a6.6,6.6,0,0,1-2.1,6.9A10.4,10.4,0,0,1,0,309.2v90.9a7.7,7.7,0,0,1,3.8-1.7,12.4,12.4,0,0,1,5.4.7,8.9,8.9,0,0,1,3.8,2.6,5.6,5.6,0,0,1,1.1,2,7.7,7.7,0,0,1,.3,3,13.8,13.8,0,0,1-1.4,4.9,9.8,9.8,0,0,1-3.3,3.1,9.5,9.5,0,0,1-6.4.5A5.8,5.8,0,0,1,0,412.8V500H103.3a16.8,16.8,0,0,1,.7-3.9,5.8,5.8,0,0,1,3.4-3.9,10.6,10.6,0,0,1,5.6,0,7.3,7.3,0,0,1,4.9,3,8.3,8.3,0,0,1,1.5,4.8h64.2a9.5,9.5,0,0,1-1.4-5.2,8.5,8.5,0,0,1,1.5-5.4,7.7,7.7,0,0,1,4.6-2.4,12.2,12.2,0,0,1,5.3.7,8.7,8.7,0,0,1,3.9,2.6,7.5,7.5,0,0,1,1,2,7.7,7.7,0,0,1,.3,3,12.7,12.7,0,0,1-1.3,4.7h82.7a6.8,6.8,0,0,1-.8-3.1,11.4,11.4,0,0,1,1.5-6,6.9,6.9,0,0,1,4.2-3.3,7.8,7.8,0,0,1,5.2.5,8,8,0,0,1,2.4,1.3,4.2,4.2,0,0,1,1.6,2.3,15.9,15.9,0,0,1,.6,3.9,11.4,11.4,0,0,1-1,4.4H500V441.7a7.9,7.9,0,0,1-3.4.6,4.7,4.7,0,0,1-3.6-1.8,6.2,6.2,0,0,1-1.9-2.5,8,8,0,0,1-.1-5.9c1.2-3.7,4.6-6.4,8.7-5.3h.3V275.1ZM107.1,196.3a6.7,6.7,0,0,1,4.5-2.4,12.4,12.4,0,0,1,5.4.7,8.9,8.9,0,0,1,3.8,2.6,5.6,5.6,0,0,1,1.1,2,7.5,7.5,0,0,1,.2,3,9.9,9.9,0,0,1-1.4,4.8,8.2,8.2,0,0,1-3.2,3.2,9.5,9.5,0,0,1-6.4.5A6.9,6.9,0,0,1,107,207a9.8,9.8,0,0,1-1.4-5.3A8.5,8.5,0,0,1,107.1,196.3ZM83.1,31.2A7.9,7.9,0,0,1,90.9,39a10.2,10.2,0,0,1-1.5,5.4,7.1,7.1,0,0,1-5.6,3.3,3.4,3.4,0,0,1-2-.4,7.2,7.2,0,0,1-3.3-1.8,9.4,9.4,0,0,1-2.4-6C75.8,35.4,78.3,31.1,83.1,31.2ZM90.8,85c0,3.7-1.2,5.1-3,6.5s-6.6,1.3-8.6-.6-4-7.1-2.1-11c1.1-2.1,3.1-3,5.6-3A8,8,0,0,1,90.8,85ZM53.1,323.1a8.6,8.6,0,0,1-4.3,5.1c-2.5,1.5-5.3.5-6.9-1.9s-1.8-3.7-.9-7.6c.2-.4.7-1.6.9-1.9a6,6,0,0,1,9.2-1A7.4,7.4,0,0,1,53.1,323.1ZM20.4,73.1c2.6-4.5,9.9-3.9,12,.5A8.2,8.2,0,0,1,31.2,83a6.5,6.5,0,0,1-7.6.9C19.8,81.8,18.2,76.7,20.4,73.1Zm3.5,412.4a6.8,6.8,0,0,1-5-4.8,12.5,12.5,0,0,1-.1-6.9,7.3,7.3,0,0,1,12.4-2.2,5.7,5.7,0,0,1,1.2,2.1C34.5,480.9,29,486.8,23.9,485.5Zm12.9-244c-3.3-.9-4.8-4.5-5-6.1a12.4,12.4,0,0,1,.6-5.7,5.4,5.4,0,0,1,3.4-3.8c1.7-.7,3.8-.4,5.6-.1a7.7,7.7,0,0,1,4.8,3,8.1,8.1,0,0,1-.2,9.9A9.1,9.1,0,0,1,36.8,241.5ZM51.7,397.7a6.2,6.2,0,0,1-7.5.9,8.1,8.1,0,0,1-3.3-10.8c2.7-4.5,10-3.9,12.1.5S52.7,396.8,51.7,397.7ZM57.9,151c-2.5-3.9-1.8-9.6,2.6-12s10.4-.6,11.9,4.3a8.4,8.4,0,0,1-.4,6.4,7.8,7.8,0,0,1-6.6,4.8A7.2,7.2,0,0,1,57.9,151ZM84.4,437.9a8.3,8.3,0,0,1-6.6,4.8,7.4,7.4,0,0,1-7.6-3.6c-2.4-3.9-1.7-9.5,2.7-11.9s10.4-.7,11.9,4.2A8.6,8.6,0,0,1,84.4,437.9Zm7.8-131.3a6.5,6.5,0,0,1-3,2.9l-.7.4a6.9,6.9,0,0,1-1.3.5,8.3,8.3,0,0,1-5.8-.2,7.3,7.3,0,0,1-3.8-4.1,13.5,13.5,0,0,1-.5-6.3,8.1,8.1,0,0,1,1.2-2.9,5.2,5.2,0,0,1,1.9-1.7c3-1.8,7.1-1.2,9.9,1.1a8.4,8.4,0,0,1,2.8,4.8A8,8,0,0,1,92.2,306.6Zm16.2,99.6c-2.1,1.6-6.6,1.4-8.6-.6s-4.1-7.1-2.1-10.9c1.1-2.2,3.1-3.1,5.6-3a9.5,9.5,0,0,1,5.9,2.4,9.7,9.7,0,0,1,2.2,5.6C111.4,403.4,110.2,404.8,108.4,406.2Zm1.6-47a7.2,7.2,0,0,1-5.6,3.2,3.4,3.4,0,0,1-2-.4,7.2,7.2,0,0,1-3.3-1.8,8.2,8.2,0,0,1-2.4-5.9c-.4-4.2,2.2-8.5,7-8.4a7.8,7.8,0,0,1,7.7,7.8A9.8,9.8,0,0,1,110,359.2Zm9.8-87.5c-2.9,2.6-8.2,3.5-10.9.9s-1.4-9.2,2.1-11.6a7.4,7.4,0,0,1,10.9,3.8A6.6,6.6,0,0,1,119.8,271.7ZM136,149.5a8,8,0,0,1-8.8,3c-5-1.6-5.3-8.5-3-12.4s10.4-4.3,13,.4A7.7,7.7,0,0,1,136,149.5ZM139.6,72a11,11,0,0,1,.1-5.4,5.1,5.1,0,0,1,3.1-3.8,8.8,8.8,0,0,1,6.3-1,8.3,8.3,0,0,1,4.8,2.9,11.2,11.2,0,0,1,1.3,3.4c.3,3.5-.5,5.9-1.8,7.6a7.2,7.2,0,0,1-7.9,2.3A9.1,9.1,0,0,1,139.6,72Zm24,172.1a8.7,8.7,0,0,1,2.8,4.8,8.3,8.3,0,0,1-.6,5.6,7.9,7.9,0,0,1-3.1,2.9l-.7.4-1.3.4a8.3,8.3,0,0,1-5.8-.2,7.3,7.3,0,0,1-3.8-4.1,12.2,12.2,0,0,1-.4-6.3,6.9,6.9,0,0,1,1.1-2.8,8.1,8.1,0,0,1,1.9-1.8A8.8,8.8,0,0,1,163.6,244.1Zm-7,220.1a8.1,8.1,0,0,1-8.8,3c-5.1-1.6-5.3-8.5-3-12.4s10.4-4.3,13,.5A7.7,7.7,0,0,1,156.6,464.2ZM153,320.3a7.7,7.7,0,0,1-1.6-6.7c.5-3.6,3.2-6.8,7.2-6.8s7.4,4.9,6.8,8.9-2,6.2-5.7,6.8A7.4,7.4,0,0,1,153,320.3Zm20.9,70.2a7.1,7.1,0,0,1-7.9,2.2,8.7,8.7,0,0,1-5.8-6,11,11,0,0,1,.1-5.4,5.2,5.2,0,0,1,3.1-3.8,8.7,8.7,0,0,1,6.3-1c1.6.4,3.9,1.5,4.8,2.9a11.2,11.2,0,0,1,1.3,3.4C176.1,386.3,175.3,388.7,173.9,390.5Zm4.3-209.9a11.2,11.2,0,0,1-1.4,4.8,7.8,7.8,0,0,1-3.3,3.2,9.4,9.4,0,0,1-6.4.5,6.9,6.9,0,0,1-4-3.7,10,10,0,0,1-1.5-5.4,9.1,9.1,0,0,1,1.5-5.3,7.2,7.2,0,0,1,4.6-2.4,11.8,11.8,0,0,1,5.3.7,7.9,7.9,0,0,1,3.9,2.6,6.4,6.4,0,0,1,1.1,2A7.5,7.5,0,0,1,178.2,180.6ZM173.8,119a8.4,8.4,0,0,1-3.1-4.3c-.8-2.3-1.2-5.3-.1-7.3a5.3,5.3,0,0,1,4.8-2.7,8.8,8.8,0,0,1,4.5,1.1c1.9,1.3,2.7,4.4,2.9,6.6C183.2,117.7,177.3,121.3,173.8,119ZM469.9,221.9a7.7,7.7,0,0,1-1.2,8.9,8.1,8.1,0,0,1-8.8,3c-5.1-1.6-5.3-8.5-3-12.4S467.3,217.1,469.9,221.9ZM447.8,29.8a6.5,6.5,0,0,1,2-4.4,6.7,6.7,0,0,1,4.3-2.2,9.7,9.7,0,0,1,5.3,1c1.5.7,3.4,3.2,3.7,6.8a15.1,15.1,0,0,1-.1,3c-.6,3.4-3.7,4.6-4.3,4.9l-.9.3h-.7a9.6,9.6,0,0,1-5.3-.5,5.7,5.7,0,0,1-2.1-1.3,6.1,6.1,0,0,1-1.3-2.2,12.8,12.8,0,0,1-.5-2.7A26.2,26.2,0,0,1,447.8,29.8ZM381,61.3c.5-3.5,3.2-6.8,7.1-6.8s7.5,4.9,6.9,8.9-2,6.2-5.7,6.8a7.4,7.4,0,0,1-6.7-2.2A7.7,7.7,0,0,1,381,61.3Zm13.6,272a8,8,0,0,1-6.6,4.8,7.3,7.3,0,0,1-7.6-3.5c-2.4-3.9-1.8-9.6,2.6-12s10.5-.6,12,4.3A9.4,9.4,0,0,1,394.6,333.3Zm-13.2-229a9.5,9.5,0,0,1-1.4,5.4,7,7,0,0,1-5.6,3.2,3.3,3.3,0,0,1-2-.3,8.3,8.3,0,0,1-3.4-1.9,8.6,8.6,0,0,1-2.3-5.9c-.4-4.2,2.2-8.5,7-8.4S381.2,100.1,381.4,104.3ZM362.5,7.9c4.5-2.5,10.4-.6,11.9,4.2a8.6,8.6,0,0,1-.4,6.5,8.3,8.3,0,0,1-6.6,4.8,7.4,7.4,0,0,1-7.6-3.6C357.4,15.9,358.1,10.3,362.5,7.9ZM310.8,186.7c1.5.8,3.4,3.3,3.7,6.8a10.6,10.6,0,0,1-.2,3.1,6.4,6.4,0,0,1-4.2,4.8l-.9.3h-.7a11.1,11.1,0,0,1-5.4-.4,6.6,6.6,0,0,1-2-1.4,6.1,6.1,0,0,1-1.3-2.2,8.6,8.6,0,0,1-.5-2.7,26.2,26.2,0,0,1-.1-2.8,6.8,6.8,0,0,1,1.9-4.4,7,7,0,0,1,4.4-2.1A9.6,9.6,0,0,1,310.8,186.7Zm-79.3,27.6a8.2,8.2,0,0,1-1.2,9.4,6.5,6.5,0,0,1-7.6.9,8.1,8.1,0,0,1-3.2-10.9C222.1,209.2,229.4,209.9,231.5,214.3ZM194.4,433.7a8.2,8.2,0,0,1-3.1-4.2c-.8-2.4-1.2-5.4-.1-7.3a5.4,5.4,0,0,1,4.8-2.8,9.1,9.1,0,0,1,4.5,1.1c1.9,1.3,2.7,4.4,2.9,6.6C203.8,432.4,197.9,436.1,194.4,433.7Zm10.8-386a6.4,6.4,0,0,1-5.1-5.1c-.7-2.6-1.1-5.6.4-8.1,2.8-4.6,10.5-4.6,13.1.2a10.2,10.2,0,0,1,.9,4.2,9,9,0,0,1-.6,4.3,8.2,8.2,0,0,1-5.3,4.3A7.7,7.7,0,0,1,205.2,47.7Zm2.5,93.2a6,6,0,0,1,3.4-3.9,12.2,12.2,0,0,1,5.7,0,7.3,7.3,0,0,1,4.8,3,8.3,8.3,0,0,1-.2,9.9,8.9,8.9,0,0,1-9.2,2.7c-3.3-.8-4.8-4.4-5.1-6A13.9,13.9,0,0,1,207.7,140.9Zm1,167.1c-3.2-3.2-1.4-9.2,2.1-11.5a7.3,7.3,0,0,1,10.9,3.7,6.6,6.6,0,0,1-2.1,7C216.7,309.8,211.4,310.6,208.7,308Zm17.1,54.4a6.5,6.5,0,0,1-5.2-5c-.6-2.7-1-5.7.5-8.1,2.8-4.7,10.4-4.7,13.1.2a11.2,11.2,0,0,1,.9,4.1,10.4,10.4,0,0,1-.6,4.3,8.2,8.2,0,0,1-5.3,4.3A7.8,7.8,0,0,1,225.8,362.4ZM242,464.6a9,9,0,0,1-9.2,2.7c-3.4-.8-4.8-4.4-5.1-6a12.4,12.4,0,0,1,.6-5.7,5.4,5.4,0,0,1,3.4-3.8,10.6,10.6,0,0,1,5.6-.1,7.2,7.2,0,0,1,4.8,3A8.2,8.2,0,0,1,242,464.6Zm8.5-287.1-1.6,1a8.6,8.6,0,0,1-4.1.5,13.5,13.5,0,0,1-2.9-.5,6,6,0,0,1-2.1-1.4,7.4,7.4,0,0,1-2-4.9,11.2,11.2,0,0,1,1.5-6,7,7,0,0,1,4.2-3.4,9.3,9.3,0,0,1,5.2.5,11.2,11.2,0,0,1,2.4,1.3,4.6,4.6,0,0,1,1.6,2.3,17.6,17.6,0,0,1,.6,3.9C253.1,175.7,250.6,177.5,250.5,177.5Zm-4.5-86a8.6,8.6,0,0,1-3.3-4.2c-.8-2.3-1.3-5.3-.1-7.3a5.9,5.9,0,0,1,5.1-2.8,9.7,9.7,0,0,1,4.8,1.1c2.1,1.3,2.9,4.4,3.1,6.7C256,90.2,249.7,93.9,246,91.5Zm20.6,314.7a8,8,0,0,1-3.3-4.2c-.8-2.3-1.3-5.3-.1-7.3a5.5,5.5,0,0,1,5.1-2.7,8.9,8.9,0,0,1,4.8,1c2,1.3,2.9,4.4,3.1,6.7C276.6,405,270.3,408.6,266.6,406.2Zm17.2-160.5a7.5,7.5,0,0,1-5.2,4.3,7.8,7.8,0,0,1-3.4.2,6.3,6.3,0,0,1-5.2-5c-.6-2.7-1-5.7.5-8.1,2.8-4.7,10.4-4.7,13,.2a10,10,0,0,1,1,4.2A8.7,8.7,0,0,1,283.8,245.7Zm-.1-214.5a8.9,8.9,0,0,1-3.5-1.1,6.3,6.3,0,0,1-2.8-3.4,13.8,13.8,0,0,1,0-6.7,5.6,5.6,0,0,1,3.1-3.9,10.5,10.5,0,0,1,5.5-.9c1.3.2,3.6.8,5.3,4.2a14.3,14.3,0,0,1,.9,2.7,8.6,8.6,0,0,1,0,3.9c-.5,2.1-1.4,3.6-3,4.3l-2.3.8A17.6,17.6,0,0,1,283.7,31.2ZM289,135.3c-2-1.7-3-4.5-2.9-7.7,0-.2.3-1.7.3-1.8a6.7,6.7,0,0,1,5.7-5c3.4,0,5.7,1,7.3,2.7a9.3,9.3,0,0,1,1.4,2.9c.9,4.7.1,7.5-2.7,9S291.5,137.4,289,135.3ZM304.3,346a11.2,11.2,0,0,1-3.5-1.2,6,6,0,0,1-2.8-3.4,12.3,12.3,0,0,1,0-6.6,6.1,6.1,0,0,1,3.1-4c1.6-1,4.3-1,5.5-.9s3.5.8,5.3,4.3a19.9,19.9,0,0,1,.9,2.6,8.6,8.6,0,0,1,0,3.9,5.8,5.8,0,0,1-3.1,4.3,5.8,5.8,0,0,1-2.2.8A18.3,18.3,0,0,1,304.3,346Zm14.4,104.2c-2.6,1.4-6.7,2-9.1-.2s-3-4.4-2.9-7.7c0-.2.3-1.6.3-1.8a6.6,6.6,0,0,1,5.7-5c3.4,0,5.7,1,7.2,2.7a8,8,0,0,1,1.5,2.9C322.3,445.8,321.5,448.6,318.7,450.2Zm3.6-153.9a8.1,8.1,0,0,1-5.3,5.5,6.3,6.3,0,0,1-3.8.2,7.8,7.8,0,0,1-6.4-6.1,5.9,5.9,0,0,1-.2-1.4,8.7,8.7,0,0,1,3.8-7.8,7.8,7.8,0,0,1,4.8-.5l1.9.4a6,6,0,0,1,2.6,1.4A8.6,8.6,0,0,1,322.3,296.3Zm2.4-225.6c-.8,3.7-3.1,6.7-7,6.7-1.6,0-3.2-1.1-4.6-2.4a7.4,7.4,0,0,1-1.8-5.4,6.4,6.4,0,0,1,6.8-6.3,8.2,8.2,0,0,1,5.3,1.7C325.1,66.6,325.1,68.6,324.7,70.7Zm20.6,314.7c-.8,3.8-3.2,6.7-7,6.7a6.7,6.7,0,0,1-4.6-2.4,6.7,6.7,0,0,1-1.8-5.3,6.5,6.5,0,0,1,6.8-6.4,8.5,8.5,0,0,1,5.3,1.8C345.7,381.3,345.7,383.3,345.3,385.4ZM357.8,169a7.8,7.8,0,0,1,8-5.9,7.2,7.2,0,0,1,7,8.3,9.1,9.1,0,0,1-4.7,6.9c-1.7,1.1-5.7.7-7.4-1.2S357.1,172.2,357.8,169Zm13.6,71.9c-2.6,1.4-6.6,2-9.1-.1a9.7,9.7,0,0,1-2.9-7.8c0-.2.3-1.6.3-1.8a6.7,6.7,0,0,1,5.7-5c3.4,0,5.8,1,7.3,2.7a8.2,8.2,0,0,1,1.4,2.9C375.1,236.6,374.2,239.4,371.4,240.9Zm22,245.3a9.5,9.5,0,0,1-4.7,6.9c-1.7,1-5.7.6-7.5-1.2s-3.5-5-2.8-8.2a7.8,7.8,0,0,1,8-5.9A7.3,7.3,0,0,1,393.4,486.2Zm7.1-61.8a7.1,7.1,0,0,1-5.6,3.3,3.1,3.1,0,0,1-1.9-.4,7.5,7.5,0,0,1-3.4-1.8,9.4,9.4,0,0,1-2.4-6c-.3-4.1,2.3-8.4,7-8.3s7.6,3.6,7.8,7.8A9.4,9.4,0,0,1,400.5,424.4Zm15.1-46.3c-.5,3.5-2.1,6.2-5.7,6.8a7.2,7.2,0,0,1-6.7-2.2,8.1,8.1,0,0,1-1.7-6.7c.6-3.5,3.2-6.7,7.2-6.7S416.2,374.1,415.6,378.1Zm-1.2-168.2a8.1,8.1,0,0,1-4.2-2.2,7.3,7.3,0,0,1-2.2-3.9l-.3-1.5a8.4,8.4,0,0,1,3.9-7.7,6.9,6.9,0,0,1,4.7-.6l1.9.5a5.3,5.3,0,0,1,2.6,1.3,8.5,8.5,0,0,1,2.6,8.3,8.3,8.3,0,0,1-5.3,5.6A8.1,8.1,0,0,1,414.4,209.9Zm8.7,56.9a6.8,6.8,0,0,1-5-4.8,12.5,12.5,0,0,1-.1-6.9,7.2,7.2,0,0,1,12.4-2.1,4.7,4.7,0,0,1,1.2,2C433.7,262.2,428.2,268.1,423.1,266.8Zm12.8-170a7.2,7.2,0,0,1,4.8-.6l1.9.4a6,6,0,0,1,2.6,1.4,8.9,8.9,0,0,1,2.6,8.3,8.1,8.1,0,0,1-5.3,5.5,6.3,6.3,0,0,1-3.8.2,8.8,8.8,0,0,1-4.2-2.1,7.9,7.9,0,0,1-2.2-4,5.9,5.9,0,0,1-.2-1.4A8.4,8.4,0,0,1,435.9,96.8Zm9.1,64.3-1.6,1a8.4,8.4,0,0,1-4.1.5,14.7,14.7,0,0,1-2.9-.5,6,6,0,0,1-2.1-1.4,8,8,0,0,1-2-4.9,11.2,11.2,0,0,1,1.5-6,7,7,0,0,1,4.2-3.4,9.2,9.2,0,0,1,5.2.5,11.2,11.2,0,0,1,2.4,1.3,4.6,4.6,0,0,1,1.6,2.3,17.6,17.6,0,0,1,.6,3.9C447.7,159.3,445.1,161.1,445,161.1Zm2.8,143.3a11,11,0,0,1,.1-5.4,5.1,5.1,0,0,1,3.1-3.7,8.7,8.7,0,0,1,11.1,1.9,11.2,11.2,0,0,1,1.3,3.4c.3,3.5-.5,5.9-1.8,7.6a7.2,7.2,0,0,1-7.9,2.3A9,9,0,0,1,447.8,304.4Zm17.8,171.5-1.6.9a8.6,8.6,0,0,1-4.1.5,9.3,9.3,0,0,1-2.9-.5,4.6,4.6,0,0,1-2.1-1.3,8,8,0,0,1-2-5,11.4,11.4,0,0,1,1.5-6,6.6,6.6,0,0,1,4.2-3.3,8.5,8.5,0,0,1,5.2.4,11.6,11.6,0,0,1,2.4,1.4,4,4,0,0,1,1.6,2.2,17.6,17.6,0,0,1,.6,3.9C468.2,474,465.7,475.8,465.6,475.9Zm2.8-54.9a8.4,8.4,0,0,1-5.4,5.6,8.1,8.1,0,0,1-3.7.2,8.5,8.5,0,0,1-4.2-2.2,8.1,8.1,0,0,1-2.2-3.9,7.7,7.7,0,0,1-.2-1.5,8.3,8.3,0,0,1,3.8-7.7,7,7,0,0,1,4.7-.6l2,.5a5.8,5.8,0,0,1,2.6,1.3A9,9,0,0,1,468.4,421Zm15.1-72.2c-.5,3.3-3.6,4.5-4.2,4.8a2.9,2.9,0,0,1-1,.3h-.6a11.1,11.1,0,0,1-5.4-.4,6.6,6.6,0,0,1-2-1.4A6.1,6.1,0,0,1,469,350a8.6,8.6,0,0,1-.5-2.7,26.2,26.2,0,0,1-.1-2.8,6.8,6.8,0,0,1,1.9-4.4,7,7,0,0,1,4.4-2.1,9.6,9.6,0,0,1,5.3.9c1.5.8,3.4,3.3,3.7,6.8A10.6,10.6,0,0,1,483.5,348.8Zm8.1-176.9a8.5,8.5,0,0,1-8.3,6.5,4.5,4.5,0,0,1-3.5-1.8,6,6,0,0,1-1.9-2.5,8.8,8.8,0,0,1-.2-6c1.3-3.6,4.7-6.4,8.8-5.3A7.4,7.4,0,0,1,491.6,171.9Zm-.3-71.6a11.2,11.2,0,0,1-3.5-1.2,6,6,0,0,1-2.8-3.4,12.3,12.3,0,0,1,0-6.6,6.1,6.1,0,0,1,3.1-4c1.6-1,4.4-1,5.5-.9s3.5.8,5.3,4.3a19.9,19.9,0,0,1,.9,2.6,8.6,8.6,0,0,1,0,3.9,5.9,5.9,0,0,1-3,4.3,7,7,0,0,1-2.3.8A18.3,18.3,0,0,1,491.3,100.3Z" fill="none"/><g id="change1_1"><path d="M372.7,228.9c-1.5-1.7-3.9-2.7-7.3-2.7a6.7,6.7,0,0,0-5.7,5c0,.2-.3,1.6-.3,1.8a9.7,9.7,0,0,0,2.9,7.8c2.5,2.1,6.5,1.5,9.1.1s3.7-4.3,2.7-9.1A8.2,8.2,0,0,0,372.7,228.9Z" fill="#034f49"/></g><g id="change1_2"><path d="M176.9,175.6A7.9,7.9,0,0,0,173,173a11.8,11.8,0,0,0-5.3-.7,7.2,7.2,0,0,0-4.6,2.4,9.1,9.1,0,0,0-1.5,5.3,10,10,0,0,0,1.5,5.4,6.9,6.9,0,0,0,4,3.7,9.4,9.4,0,0,0,6.4-.5,7.8,7.8,0,0,0,3.3-3.2,11.2,11.2,0,0,0,1.4-4.8,7.5,7.5,0,0,0-.2-3A6.4,6.4,0,0,0,176.9,175.6Z" fill="#034f49"/></g><g id="change1_3"><path d="M251.1,164.6a11.2,11.2,0,0,0-2.4-1.3,9.3,9.3,0,0,0-5.2-.5,7,7,0,0,0-4.2,3.4,11.2,11.2,0,0,0-1.5,6,7.4,7.4,0,0,0,2,4.9,6,6,0,0,0,2.1,1.4,13.5,13.5,0,0,0,2.9.5,8.6,8.6,0,0,0,4.1-.5l1.6-1c.1,0,2.6-1.8,2.8-6.7a17.6,17.6,0,0,0-.6-3.9A4.6,4.6,0,0,0,251.1,164.6Z" fill="#034f49"/></g><g id="change1_4"><path d="M299.2,192.3a26.2,26.2,0,0,0,.1,2.8,8.6,8.6,0,0,0,.5,2.7,6.1,6.1,0,0,0,1.3,2.2,6.6,6.6,0,0,0,2,1.4,11.1,11.1,0,0,0,5.4.4h.7l.9-.3a6.4,6.4,0,0,0,4.2-4.8,10.6,10.6,0,0,0,.2-3.1c-.3-3.5-2.2-6-3.7-6.8a9.6,9.6,0,0,0-5.3-.9,7,7,0,0,0-4.4,2.1A6.8,6.8,0,0,0,299.2,192.3Z" fill="#034f49"/></g><g id="change1_5"><path d="M90.1,296.3c-2.8-2.3-6.9-2.9-9.9-1.1a5.2,5.2,0,0,0-1.9,1.7,8.1,8.1,0,0,0-1.2,2.9,13.5,13.5,0,0,0,.5,6.3,7.3,7.3,0,0,0,3.8,4.1,8.3,8.3,0,0,0,5.8.2,6.9,6.9,0,0,0,1.3-.5l.7-.4a6.5,6.5,0,0,0,3-2.9,8,8,0,0,0,.7-5.5A8.4,8.4,0,0,0,90.1,296.3Z" fill="#034f49"/></g><g id="change1_6"><path d="M461.6,308.2c1.3-1.7,2.1-4.1,1.8-7.6a11.2,11.2,0,0,0-1.3-3.4,8.7,8.7,0,0,0-11.1-1.9,5.1,5.1,0,0,0-3.1,3.7,11,11,0,0,0-.1,5.4,9,9,0,0,0,5.9,6.1A7.2,7.2,0,0,0,461.6,308.2Z" fill="#034f49"/></g><g id="change1_7"><path d="M46,238.7a8.1,8.1,0,0,0,.2-9.9,7.7,7.7,0,0,0-4.8-3c-1.8-.3-3.9-.6-5.6.1a5.4,5.4,0,0,0-3.4,3.8,12.4,12.4,0,0,0-.6,5.7c.2,1.6,1.7,5.2,5,6.1A9.1,9.1,0,0,0,46,238.7Z" fill="#034f49"/></g><g id="change1_8"><path d="M317.1,286.6l-1.9-.4a7.8,7.8,0,0,0-4.8.5,8.7,8.7,0,0,0-3.8,7.8,5.9,5.9,0,0,0,.2,1.4,7.8,7.8,0,0,0,6.4,6.1,6.3,6.3,0,0,0,3.8-.2,8.1,8.1,0,0,0,5.3-5.5,8.6,8.6,0,0,0-2.6-8.3A6,6,0,0,0,317.1,286.6Z" fill="#034f49"/></g><g id="change1_9"><path d="M496.8,99.3a5.9,5.9,0,0,0,3-4.3,8.6,8.6,0,0,0,0-3.9,19.9,19.9,0,0,0-.9-2.6c-1.8-3.5-4-4.1-5.3-4.3s-3.9-.1-5.5.9a6.1,6.1,0,0,0-3.1,4,12.3,12.3,0,0,0,0,6.6,6,6,0,0,0,2.8,3.4,11.2,11.2,0,0,0,3.5,1.2,18.3,18.3,0,0,0,3.2-.2A7,7,0,0,0,496.8,99.3Z" fill="#034f49"/></g><g id="change1_10"><path d="M283.5,237.3c-2.6-4.9-10.2-4.9-13-.2-1.5,2.4-1.1,5.4-.5,8.1a6.3,6.3,0,0,0,5.2,5,7.8,7.8,0,0,0,3.4-.2,7.5,7.5,0,0,0,5.2-4.3,8.7,8.7,0,0,0,.7-4.2A10,10,0,0,0,283.5,237.3Z" fill="#034f49"/></g><g id="change1_11"><path d="M486.5,162.8c-4.1-1.1-7.5,1.7-8.8,5.3a8.8,8.8,0,0,0,.2,6,6,6,0,0,0,1.9,2.5,4.5,4.5,0,0,0,3.5,1.8,8.5,8.5,0,0,0,8.3-6.5A7.4,7.4,0,0,0,486.5,162.8Z" fill="#034f49"/></g><g id="change1_12"><path d="M111,261c-3.5,2.4-5.3,8.3-2.1,11.6s8,1.7,10.9-.9a6.6,6.6,0,0,0,2.1-6.9A7.4,7.4,0,0,0,111,261Z" fill="#034f49"/></g><g id="change1_13"><path d="M82.7,76.9c-2.5,0-4.5.9-5.6,3-1.9,3.9-.8,8,2.1,11s6.5,2.2,8.6.6,3-2.8,3-6.5a8,8,0,0,0-8.1-8.1Z" fill="#034f49"/></g><g id="change1_14"><path d="M368.1,178.3a9.1,9.1,0,0,0,4.7-6.9,7.2,7.2,0,0,0-7-8.3,7.8,7.8,0,0,0-8,5.9c-.7,3.2.6,5.9,2.9,8.1S366.4,179.4,368.1,178.3Z" fill="#034f49"/></g><g id="change1_15"><path d="M78.5,45.5a7.2,7.2,0,0,0,3.3,1.8,3.4,3.4,0,0,0,2,.4,7.1,7.1,0,0,0,5.6-3.3A10.2,10.2,0,0,0,90.9,39a7.9,7.9,0,0,0-7.8-7.8c-4.8-.1-7.3,4.2-7,8.3A9.4,9.4,0,0,0,78.5,45.5Z" fill="#034f49"/></g><g id="change1_16"><path d="M367.4,23.4a8.3,8.3,0,0,0,6.6-4.8,8.6,8.6,0,0,0,.4-6.5c-1.5-4.8-7.4-6.7-11.9-4.2s-5.1,8-2.7,11.9A7.4,7.4,0,0,0,367.4,23.4Z" fill="#034f49"/></g><g id="change1_17"><path d="M132.4,5.6a7.5,7.5,0,0,0,6.7,2.2c3.7-.7,5.3-3.4,5.8-6.8V0H130.7A8.3,8.3,0,0,0,132.4,5.6Z" fill="#034f49"/></g><g id="change1_18"><path d="M456.9,221.4c-2.3,3.9-2.1,10.8,3,12.4a8.1,8.1,0,0,0,8.8-3,7.7,7.7,0,0,0,1.2-8.9C467.3,217.1,459.8,216.6,456.9,221.4Z" fill="#034f49"/></g><g id="change1_19"><path d="M430.4,253a7.2,7.2,0,0,0-12.4,2.1,12.5,12.5,0,0,0,.1,6.9,6.8,6.8,0,0,0,5,4.8c5.1,1.3,10.6-4.6,8.5-11.8A4.7,4.7,0,0,0,430.4,253Z" fill="#034f49"/></g><g id="change1_20"><path d="M219.5,213.7a8.1,8.1,0,0,0,3.2,10.9,6.5,6.5,0,0,0,7.6-.9,8.2,8.2,0,0,0,1.2-9.4C229.4,209.9,222.1,209.2,219.5,213.7Z" fill="#034f49"/></g><g id="change1_21"><path d="M179.9,105.8a8.8,8.8,0,0,0-4.5-1.1,5.3,5.3,0,0,0-4.8,2.7c-1.1,2-.7,5,.1,7.3a8.4,8.4,0,0,0,3.1,4.3c3.5,2.3,9.4-1.3,9-6.6C182.6,110.2,181.8,107.1,179.9,105.8Z" fill="#034f49"/></g><g id="change1_22"><path d="M28.3,2c-.2.4-.7,1.6-.9,1.9-.9,3.9-.4,5.8.9,7.7s4.5,3.4,6.9,1.9a8.6,8.6,0,0,0,4.3-5.1,7.5,7.5,0,0,0-1.9-7.3A7.6,7.6,0,0,0,36,0H30.6A5.5,5.5,0,0,0,28.3,2Z" fill="#034f49"/></g><g id="change1_23"><path d="M300.8,126.4a9.3,9.3,0,0,0-1.4-2.9c-1.6-1.7-3.9-2.7-7.3-2.7a6.7,6.7,0,0,0-5.7,5c0,.1-.3,1.6-.3,1.8-.1,3.2.9,6,2.9,7.7s6.5,1.6,9.1.1S301.7,131.1,300.8,126.4Z" fill="#034f49"/></g><g id="change1_24"><path d="M111.1,210.7a9.5,9.5,0,0,0,6.4-.5,8.2,8.2,0,0,0,3.2-3.2,9.9,9.9,0,0,0,1.4-4.8,7.5,7.5,0,0,0-.2-3,5.6,5.6,0,0,0-1.1-2,8.9,8.9,0,0,0-3.8-2.6,12.4,12.4,0,0,0-5.4-.7,6.7,6.7,0,0,0-4.5,2.4,8.5,8.5,0,0,0-1.5,5.4A9.8,9.8,0,0,0,107,207,6.9,6.9,0,0,0,111.1,210.7Z" fill="#034f49"/></g><g id="change1_25"><path d="M447.2,150.5a4.6,4.6,0,0,0-1.6-2.3,11.2,11.2,0,0,0-2.4-1.3,9.2,9.2,0,0,0-5.2-.5,7,7,0,0,0-4.2,3.4,11.2,11.2,0,0,0-1.5,6,8,8,0,0,0,2,4.9,6,6,0,0,0,2.1,1.4,14.7,14.7,0,0,0,2.9.5,8.4,8.4,0,0,0,4.1-.5l1.6-1c.1,0,2.7-1.8,2.8-6.7A17.6,17.6,0,0,0,447.2,150.5Z" fill="#034f49"/></g><g id="change1_26"><path d="M448.4,35.3a6.1,6.1,0,0,0,1.3,2.2,5.7,5.7,0,0,0,2.1,1.3,9.6,9.6,0,0,0,5.3.5h.7l.9-.3c.6-.3,3.7-1.5,4.3-4.9a15.1,15.1,0,0,0,.1-3c-.3-3.6-2.2-6.1-3.7-6.8a9.7,9.7,0,0,0-5.3-1,6.7,6.7,0,0,0-4.3,2.2,6.5,6.5,0,0,0-2,4.4,26.2,26.2,0,0,0,.1,2.8A12.8,12.8,0,0,0,448.4,35.3Z" fill="#034f49"/></g><g id="change1_27"><path d="M151.8,244.8a6.9,6.9,0,0,0-1.1,2.8,12.2,12.2,0,0,0,.4,6.3,7.3,7.3,0,0,0,3.8,4.1,8.3,8.3,0,0,0,5.8.2l1.3-.4.7-.4a7.9,7.9,0,0,0,3.1-2.9,8.3,8.3,0,0,0,.6-5.6,8.7,8.7,0,0,0-2.8-4.8,8.8,8.8,0,0,0-9.9-1.1A8.1,8.1,0,0,0,151.8,244.8Z" fill="#034f49"/></g><g id="change1_28"><path d="M153.4,75.7c1.3-1.7,2.1-4.1,1.8-7.6a11.2,11.2,0,0,0-1.3-3.4,8.3,8.3,0,0,0-4.8-2.9,8.8,8.8,0,0,0-6.3,1,5.1,5.1,0,0,0-3.1,3.8,11,11,0,0,0-.1,5.4,9.1,9.1,0,0,0,5.9,6A7.2,7.2,0,0,0,153.4,75.7Z" fill="#034f49"/></g><g id="change1_29"><path d="M212.2,152.6a8.9,8.9,0,0,0,9.2-2.7,8.3,8.3,0,0,0,.2-9.9,7.3,7.3,0,0,0-4.8-3,12.2,12.2,0,0,0-5.7,0,6,6,0,0,0-3.4,3.9,13.9,13.9,0,0,0-.6,5.7C207.4,148.2,208.9,151.8,212.2,152.6Z" fill="#034f49"/></g><g id="change1_30"><path d="M434.5,109.9a8.8,8.8,0,0,0,4.2,2.1,6.3,6.3,0,0,0,3.8-.2,8.1,8.1,0,0,0,5.3-5.5,8.9,8.9,0,0,0-2.6-8.3,6,6,0,0,0-2.6-1.4l-1.9-.4a7.2,7.2,0,0,0-4.8.6,8.4,8.4,0,0,0-3.8,7.7,5.9,5.9,0,0,0,.2,1.4A7.9,7.9,0,0,0,434.5,109.9Z" fill="#034f49"/></g><g id="change1_31"><path d="M289.2,30.3c1.6-.7,2.5-2.2,3-4.3a8.6,8.6,0,0,0,0-3.9,14.3,14.3,0,0,0-.9-2.7c-1.7-3.4-4-4-5.3-4.2a10.5,10.5,0,0,0-5.5.9,5.6,5.6,0,0,0-3.1,3.9,13.8,13.8,0,0,0,0,6.7,6.3,6.3,0,0,0,2.8,3.4,8.9,8.9,0,0,0,3.5,1.1,17.6,17.6,0,0,0,3.2-.1Z" fill="#034f49"/></g><g id="change1_32"><path d="M213.9,43.2a9,9,0,0,0,.6-4.3,10.2,10.2,0,0,0-.9-4.2c-2.6-4.8-10.3-4.8-13.1-.2-1.5,2.5-1.1,5.5-.4,8.1a6.4,6.4,0,0,0,5.1,5.1,7.7,7.7,0,0,0,3.4-.2A8.2,8.2,0,0,0,213.9,43.2Z" fill="#034f49"/></g><g id="change1_33"><path d="M221.7,300.2a7.3,7.3,0,0,0-10.9-3.7c-3.5,2.3-5.3,8.3-2.1,11.5s8,1.8,10.9-.8A6.6,6.6,0,0,0,221.7,300.2Z" fill="#034f49"/></g><g id="change1_34"><path d="M366.7,104.8a8.6,8.6,0,0,0,2.3,5.9,8.3,8.3,0,0,0,3.4,1.9,3.3,3.3,0,0,0,2,.3,7,7,0,0,0,5.6-3.2,9.5,9.5,0,0,0,1.4-5.4c-.2-4.2-3.2-7.8-7.7-7.9S366.3,100.6,366.7,104.8Z" fill="#034f49"/></g><g id="change1_35"><path d="M72,149.7a8.4,8.4,0,0,0,.4-6.4c-1.5-4.9-7.4-6.8-11.9-4.3s-5.1,8.1-2.6,12a7.2,7.2,0,0,0,7.5,3.5A7.8,7.8,0,0,0,72,149.7Z" fill="#034f49"/></g><g id="change1_36"><path d="M389.3,70.2c3.7-.6,5.2-3.3,5.7-6.8s-2.1-8.9-6.9-8.9-6.6,3.3-7.1,6.8a7.7,7.7,0,0,0,1.6,6.7A7.4,7.4,0,0,0,389.3,70.2Z" fill="#034f49"/></g><g id="change1_37"><path d="M124.2,140.1c-2.3,3.9-2,10.8,3,12.4a8,8,0,0,0,8.8-3,7.7,7.7,0,0,0,1.2-9C134.6,135.8,127.1,135.3,124.2,140.1Z" fill="#034f49"/></g><g id="change1_38"><path d="M11.9,159a11.3,11.3,0,0,0-1.2-2.1A7.2,7.2,0,0,0,0,156.4v12.5a6.9,6.9,0,0,0,3.3,1.9C8.5,172.1,13.9,166.2,11.9,159Z" fill="#034f49"/></g><g id="change1_39"><path d="M23.6,83.9a6.5,6.5,0,0,0,7.6-.9,8.2,8.2,0,0,0,1.2-9.4c-2.1-4.4-9.4-5-12-.5S19.8,81.8,23.6,83.9Z" fill="#034f49"/></g><g id="change1_40"><path d="M252.5,78.3a9.7,9.7,0,0,0-4.8-1.1,5.9,5.9,0,0,0-5.1,2.8c-1.2,2-.7,5,.1,7.3a8.6,8.6,0,0,0,3.3,4.2c3.7,2.4,10-1.3,9.6-6.5C255.4,82.7,254.6,79.6,252.5,78.3Z" fill="#034f49"/></g><g id="change1_41"><path d="M318.1,63.3a6.4,6.4,0,0,0-6.8,6.3,7.4,7.4,0,0,0,1.8,5.4c1.4,1.3,3,2.4,4.6,2.4,3.9,0,6.2-3,7-6.7.4-2.1.4-4.1-1.3-5.7A8.2,8.2,0,0,0,318.1,63.3Z" fill="#034f49"/></g><g id="change1_42"><path d="M198.5,492.3a7.5,7.5,0,0,0-1-2,8.7,8.7,0,0,0-3.9-2.6,12.2,12.2,0,0,0-5.3-.7,7.7,7.7,0,0,0-4.6,2.4,8.5,8.5,0,0,0-1.5,5.4,9.5,9.5,0,0,0,1.4,5.2h13.9a12.7,12.7,0,0,0,1.3-4.7A7.7,7.7,0,0,0,198.5,492.3Z" fill="#034f49"/></g><g id="change1_43"><path d="M294.3,491.7a4.2,4.2,0,0,0-1.6-2.3,8,8,0,0,0-2.4-1.3,7.8,7.8,0,0,0-5.2-.5,6.9,6.9,0,0,0-4.2,3.3,11.4,11.4,0,0,0-1.5,6,6.8,6.8,0,0,0,.8,3.1h13.7a11.4,11.4,0,0,0,1-4.4A15.9,15.9,0,0,0,294.3,491.7Z" fill="#034f49"/></g><g id="change1_44"><path d="M240.1,7.7a8.3,8.3,0,0,0,5.8.2l1.3-.4.7-.4a7.6,7.6,0,0,0,3-2.9,7.8,7.8,0,0,0,.9-4.2H235.7a10.9,10.9,0,0,0,.6,3.6A7.3,7.3,0,0,0,240.1,7.7Z" fill="#034f49"/></g><g id="change1_45"><path d="M490.4,8a7.1,7.1,0,0,0,7.9-2.2A8.4,8.4,0,0,0,500,2.1V0H484.4a13.6,13.6,0,0,0,.2,2A8.7,8.7,0,0,0,490.4,8Z" fill="#034f49"/></g><g id="change1_46"><path d="M113,492.2a10.6,10.6,0,0,0-5.6,0,5.8,5.8,0,0,0-3.4,3.9,16.8,16.8,0,0,0-.7,3.9h16.1a8.3,8.3,0,0,0-1.5-4.8A7.3,7.3,0,0,0,113,492.2Z" fill="#034f49"/></g><g id="change1_47"><path d="M423.4,204.1a8.5,8.5,0,0,0-2.6-8.3,5.3,5.3,0,0,0-2.6-1.3l-1.9-.5a6.9,6.9,0,0,0-4.7.6,8.4,8.4,0,0,0-3.9,7.7l.3,1.5a7.3,7.3,0,0,0,2.2,3.9,8.1,8.1,0,0,0,4.2,2.2,8.1,8.1,0,0,0,3.7-.2A8.3,8.3,0,0,0,423.4,204.1Z" fill="#034f49"/></g><g id="change1_48"><path d="M495.8,259.9a5.6,5.6,0,0,0-3.1,3.9,13.8,13.8,0,0,0,0,6.7,6.3,6.3,0,0,0,2.8,3.4A8.9,8.9,0,0,0,499,275h1V258.9A10.4,10.4,0,0,0,495.8,259.9Z" fill="#034f49"/></g><g id="change1_49"><path d="M491,432.1a8,8,0,0,0,.1,5.9,6.2,6.2,0,0,0,1.9,2.5,4.7,4.7,0,0,0,3.6,1.8,7.9,7.9,0,0,0,3.4-.6V426.8h-.3C495.6,425.7,492.2,428.4,491,432.1Z" fill="#034f49"/></g><g id="change1_50"><path d="M7.2,300A7.3,7.3,0,0,0,0,295.1v14.1a10.4,10.4,0,0,0,5.1-2.3A6.6,6.6,0,0,0,7.2,300Z" fill="#034f49"/></g><g id="change1_51"><path d="M103.3,391.7c-2.5-.1-4.5.8-5.6,3-2,3.8-.8,8,2.1,10.9s6.5,2.2,8.6.6,3-2.8,3-6.5a9.7,9.7,0,0,0-2.2-5.6A9.5,9.5,0,0,0,103.3,391.7Z" fill="#034f49"/></g><g id="change1_52"><path d="M386.4,477.8a7.8,7.8,0,0,0-8,5.9c-.7,3.2.6,6,2.8,8.2s5.8,2.2,7.5,1.2a9.5,9.5,0,0,0,4.7-6.9A7.3,7.3,0,0,0,386.4,477.8Z" fill="#034f49"/></g><g id="change1_53"><path d="M103.7,345.9c-4.8-.1-7.4,4.2-7,8.4a8.2,8.2,0,0,0,2.4,5.9,7.2,7.2,0,0,0,3.3,1.8,3.4,3.4,0,0,0,2,.4,7.2,7.2,0,0,0,5.6-3.2,9.8,9.8,0,0,0,1.4-5.5A7.8,7.8,0,0,0,103.7,345.9Z" fill="#034f49"/></g><g id="change1_54"><path d="M383,322.6c-4.4,2.4-5,8.1-2.6,12a7.3,7.3,0,0,0,7.6,3.5,8,8,0,0,0,6.6-4.8,9.4,9.4,0,0,0,.4-6.4C393.5,322,387.6,320.1,383,322.6Z" fill="#034f49"/></g><g id="change1_55"><path d="M165.4,315.7c.6-4-2.1-8.9-6.8-8.9s-6.7,3.2-7.2,6.8a7.7,7.7,0,0,0,1.6,6.7,7.4,7.4,0,0,0,6.7,2.2C163.4,321.9,165,319.1,165.4,315.7Z" fill="#034f49"/></g><g id="change1_56"><path d="M200.5,420.5a9.1,9.1,0,0,0-4.5-1.1,5.4,5.4,0,0,0-4.8,2.8c-1.1,1.9-.7,4.9.1,7.3a8.2,8.2,0,0,0,3.1,4.2c3.5,2.4,9.4-1.3,9-6.6C203.2,424.9,202.4,421.8,200.5,420.5Z" fill="#034f49"/></g><g id="change1_57"><path d="M41.9,316.8c-.2.3-.7,1.5-.9,1.9-.9,3.9-.4,5.7.9,7.6s4.4,3.4,6.9,1.9a8.6,8.6,0,0,0,4.3-5.1,7.4,7.4,0,0,0-2-7.3A6,6,0,0,0,41.9,316.8Z" fill="#034f49"/></g><g id="change1_58"><path d="M319.9,438.2c-1.5-1.7-3.8-2.7-7.2-2.7a6.6,6.6,0,0,0-5.7,5c0,.2-.3,1.6-.3,1.8-.1,3.3.9,6,2.9,7.7s6.5,1.6,9.1.2,3.6-4.4,2.7-9.1A8,8,0,0,0,319.9,438.2Z" fill="#034f49"/></g><g id="change1_59"><path d="M3.3,415.2a9.5,9.5,0,0,0,6.4-.5,9.8,9.8,0,0,0,3.3-3.1,13.8,13.8,0,0,0,1.4-4.9,7.7,7.7,0,0,0-.3-3,5.6,5.6,0,0,0-1.1-2,8.9,8.9,0,0,0-3.8-2.6,12.4,12.4,0,0,0-5.4-.7A7.7,7.7,0,0,0,0,400.1v12.7A5.8,5.8,0,0,0,3.3,415.2Z" fill="#034f49"/></g><g id="change1_60"><path d="M466.2,463a11.6,11.6,0,0,0-2.4-1.4,8.5,8.5,0,0,0-5.2-.4,6.6,6.6,0,0,0-4.2,3.3,11.4,11.4,0,0,0-1.5,6,8,8,0,0,0,2,5,4.6,4.6,0,0,0,2.1,1.3,9.3,9.3,0,0,0,2.9.5,8.6,8.6,0,0,0,4.1-.5l1.6-.9c.1-.1,2.6-1.9,2.8-6.8a17.6,17.6,0,0,0-.6-3.9A4,4,0,0,0,466.2,463Z" fill="#034f49"/></g><g id="change1_61"><path d="M480,338.9a9.6,9.6,0,0,0-5.3-.9,7,7,0,0,0-4.4,2.1,6.8,6.8,0,0,0-1.9,4.4,26.2,26.2,0,0,0,.1,2.8,8.6,8.6,0,0,0,.5,2.7,6.1,6.1,0,0,0,1.3,2.2,6.6,6.6,0,0,0,2,1.4,11.1,11.1,0,0,0,5.4.4h.6a2.9,2.9,0,0,0,1-.3c.6-.3,3.7-1.5,4.2-4.8a10.6,10.6,0,0,0,.2-3.1C483.4,342.2,481.5,339.7,480,338.9Z" fill="#034f49"/></g><g id="change1_62"><path d="M174.5,379.4c-.9-1.4-3.2-2.5-4.8-2.9a8.7,8.7,0,0,0-6.3,1,5.2,5.2,0,0,0-3.1,3.8,11,11,0,0,0-.1,5.4,8.7,8.7,0,0,0,5.8,6,7.1,7.1,0,0,0,7.9-2.2c1.4-1.8,2.2-4.2,1.9-7.7A11.2,11.2,0,0,0,174.5,379.4Z" fill="#034f49"/></g><g id="change1_63"><path d="M237.3,451.7a10.6,10.6,0,0,0-5.6.1,5.4,5.4,0,0,0-3.4,3.8,12.4,12.4,0,0,0-.6,5.7c.3,1.6,1.7,5.2,5.1,6a9,9,0,0,0,9.2-2.7,8.2,8.2,0,0,0,.1-9.9A7.2,7.2,0,0,0,237.3,451.7Z" fill="#034f49"/></g><g id="change1_64"><path d="M463.2,411.4l-2-.5a7,7,0,0,0-4.7.6,8.3,8.3,0,0,0-3.8,7.7,7.7,7.7,0,0,0,.2,1.5,8.1,8.1,0,0,0,2.2,3.9,8.5,8.5,0,0,0,4.2,2.2,8.1,8.1,0,0,0,3.7-.2,8.4,8.4,0,0,0,5.4-5.6,9,9,0,0,0-2.6-8.3A5.8,5.8,0,0,0,463.2,411.4Z" fill="#034f49"/></g><g id="change1_65"><path d="M309.7,345a5.8,5.8,0,0,0,3.1-4.3,8.6,8.6,0,0,0,0-3.9,19.9,19.9,0,0,0-.9-2.6c-1.8-3.5-4-4.1-5.3-4.3s-3.9-.1-5.5.9a6.1,6.1,0,0,0-3.1,4,12.3,12.3,0,0,0,0,6.6,6,6,0,0,0,2.8,3.4,11.2,11.2,0,0,0,3.5,1.2,18.3,18.3,0,0,0,3.2-.2A5.8,5.8,0,0,0,309.7,345Z" fill="#034f49"/></g><g id="change1_66"><path d="M234.5,357.9a10.4,10.4,0,0,0,.6-4.3,11.2,11.2,0,0,0-.9-4.1c-2.7-4.9-10.3-4.9-13.1-.2-1.5,2.4-1.1,5.4-.5,8.1a6.5,6.5,0,0,0,5.2,5,7.8,7.8,0,0,0,3.4-.2A8.2,8.2,0,0,0,234.5,357.9Z" fill="#034f49"/></g><g id="change1_67"><path d="M394.2,411.2c-4.7-.1-7.3,4.2-7,8.3a9.4,9.4,0,0,0,2.4,6,7.5,7.5,0,0,0,3.4,1.8,3.1,3.1,0,0,0,1.9.4,7.1,7.1,0,0,0,5.6-3.3A9.4,9.4,0,0,0,402,419C401.8,414.8,398.8,411.2,394.2,411.2Z" fill="#034f49"/></g><g id="change1_68"><path d="M72.9,427.2c-4.4,2.4-5.1,8-2.7,11.9a7.4,7.4,0,0,0,7.6,3.6,8.3,8.3,0,0,0,6.6-4.8,8.6,8.6,0,0,0,.4-6.5C83.3,426.5,77.4,424.6,72.9,427.2Z" fill="#034f49"/></g><g id="change1_69"><path d="M408.7,369.3c-4,0-6.6,3.2-7.2,6.7a8.1,8.1,0,0,0,1.7,6.7,7.2,7.2,0,0,0,6.7,2.2c3.6-.6,5.2-3.3,5.7-6.8S413.4,369.2,408.7,369.3Z" fill="#034f49"/></g><g id="change1_70"><path d="M144.8,454.8c-2.3,3.9-2.1,10.8,3,12.4a8.1,8.1,0,0,0,8.8-3,7.7,7.7,0,0,0,1.2-8.9C155.2,450.5,147.7,450,144.8,454.8Z" fill="#034f49"/></g><g id="change1_71"><path d="M31.2,471.6a7.3,7.3,0,0,0-12.4,2.2,12.5,12.5,0,0,0,.1,6.9,6.8,6.8,0,0,0,5,4.8c5.1,1.3,10.6-4.6,8.5-11.8A5.7,5.7,0,0,0,31.2,471.6Z" fill="#034f49"/></g><g id="change1_72"><path d="M40.9,387.8a8.1,8.1,0,0,0,3.3,10.8,6.2,6.2,0,0,0,7.5-.9c1-.9,3.6-4.4,1.3-9.4S43.6,383.3,40.9,387.8Z" fill="#034f49"/></g><g id="change1_73"><path d="M273.1,393a8.9,8.9,0,0,0-4.8-1,5.5,5.5,0,0,0-5.1,2.7c-1.2,2-.7,5,.1,7.3a8,8,0,0,0,3.3,4.2c3.7,2.4,10-1.2,9.6-6.5C276,397.4,275.1,394.3,273.1,393Z" fill="#034f49"/></g><g id="change1_74"><path d="M338.7,378a6.5,6.5,0,0,0-6.8,6.4,6.7,6.7,0,0,0,1.8,5.3,6.7,6.7,0,0,0,4.6,2.4c3.8,0,6.2-2.9,7-6.7.4-2.1.4-4.1-1.3-5.6A8.5,8.5,0,0,0,338.7,378Z" fill="#034f49"/></g></svg>