<?xml version="1.0" encoding="iso-8859-1"?>
<!-- Generator: Adobe Illustrator 19.0.0, SVG Export Plug-In . SVG Version: 6.00 Build 0)  -->
<svg version="1.1" id="Capa_1" xmlns="http://www.w3.org/2000/svg" xmlns:xlink="http://www.w3.org/1999/xlink" x="0px" y="0px"
	 viewBox="0 0 512 512" style="enable-background:new 0 0 512 512;" xml:space="preserve">
<path style="fill:#C70024;" d="M183.21,62.454c-6.962,6.024-22.651,14.523-36.142,18.36c-9.314,2.641-17.586,3.053-21.196-1.124
	c-8.84-10.222,13.553-44.084,25.322-54.254c11.769-10.18,28.468-10.139,37.318,0.083c2.486,2.878,4.095,6.261,4.837,9.871
	C195.267,44.559,191.657,55.152,183.21,62.454z"/>
<path style="fill:#FF0C38;" d="M183.21,62.454c-6.962,6.024-22.651,14.523-36.142,18.36c4.899-13.801,17.442-31.078,25.271-37.844
	c6.251-5.405,13.894-7.932,21.011-7.581C195.267,44.559,191.657,55.152,183.21,62.454z"/>
<path style="fill:#830018;" d="M150.389,28.169c0,10.232-4.745,30.665-11.851,43.434c-3.682,6.643-8.004,11.212-12.625,11.212
	c-13.522,0-24.476-39.092-24.476-54.646S112.39,0,125.913,0c5.446,0,10.469,2.053,14.543,5.518
	C146.48,10.645,150.389,18.886,150.389,28.169z"/>
<path style="fill:#A5001E;" d="M150.389,28.169c0,10.232-4.745,30.665-11.851,43.434c-6.488-12.821-10.758-31.696-10.758-41.413
	c0-10.634,5.116-19.886,12.677-24.672C146.48,10.645,150.389,18.886,150.389,28.169z"/>
<path style="fill:#C70024;" d="M123.891,84.166c-8.84,10.232-45.569-7.055-57.338-17.236c-11.769-10.17-14.141-26.715-5.291-36.936
	c2.135-2.465,4.724-4.342,7.591-5.611c9.025-4.033,20.794-2.197,29.716,5.529c7.241,6.261,18.504,21.475,24.033,34.646
	C126.078,72.8,127.295,80.236,123.891,84.166z"/>
<path style="fill:#FF0C38;" d="M122.602,64.558c-14.564-2.249-34.956-12.821-43.176-19.928
	c-6.416-5.539-10.036-12.976-10.572-20.247c9.025-4.033,20.794-2.197,29.716,5.529C105.81,36.173,117.073,51.387,122.602,64.558z"/>
<path style="fill:#FF9811;" d="M242.973,496.528h-13.35v-62.515c0-4.272-3.464-7.736-7.736-7.736c-4.272,0-7.736,3.464-7.736,7.736
	v62.515h-37.767c-4.272,0-7.736,3.464-7.736,7.736c0,4.272,3.464,7.736,7.736,7.736h66.588c4.272,0,7.736-3.464,7.736-7.736
	C250.709,499.992,247.245,496.528,242.973,496.528z"/>
<path style="fill:#B39A7C;" d="M263.25,371.084c-9.005,38.421-18.009,60.897-26.622,72.397
	c-32.924,43.96-60.185-72.397-60.185-72.397H263.25z"/>
<path style="fill:#C0AB91;" d="M263.25,371.084c-9.005,38.421-18.009,60.897-26.622,72.397
	c-17.483-21.887-29.324-72.397-29.324-72.397H263.25z"/>
<path style="fill:#FFA733;" d="M101.437,180.032H29.615c-3.199,0-5.792-2.593-5.792-5.792c0-20.623,16.718-37.341,37.341-37.341
	h40.275v43.132H101.437z"/>
<path style="fill:#FF9811;" d="M115.79,180.032H38.176l0,0c0,23.821,19.311,43.132,43.132,43.132h34.483v-43.132H115.79z"/>
<path style="fill:#D9CCBC;" d="M388.695,227.672l-2.424,27.612c-3.847,51.748-32.986,98.648-78.4,123.753
	c-0.805,0.444-1.609,0.877-2.424,1.31c-21.413,11.346-45.786,17.782-71.593,17.782h-1.681c-85.012,0-153.933-68.921-153.933-153.933
	V134.738c0-32.119,26.209-58.432,58.287-58.597h0.309c16.111,0,30.768,6.591,41.382,17.215
	c10.624,10.624,17.215,25.271,17.215,41.382v26.271c0,36.854,29.881,66.724,66.724,66.724h71.655v-0.062L388.695,227.672
	L388.695,227.672z"/>
<path style="fill:#EBE5DD;" d="M388.695,227.672l-2.424,27.612c-3.847,51.748-32.986,98.648-78.4,123.753
	c-0.805,0.444-1.609,0.877-2.424,1.31c-10.954,2.496-22.352,3.816-34.038,3.816h-1.681c-85.022,0-153.933-68.921-153.933-153.944
	V120.772c0-17.834,8.066-33.862,20.732-44.631h0.309c16.111,0,30.768,6.591,41.382,17.215
	c10.624,10.624,17.215,25.271,17.215,41.382v26.271c0,36.854,29.881,66.724,66.724,66.724h71.655v-0.062H388.695z"/>
<path style="fill:#B39A7C;" d="M125.913,166.203c-14.524,0-26.34-11.816-26.34-26.34c0-4.272,3.464-7.736,7.736-7.736
	s7.736,3.464,7.736,7.736c0,5.993,4.876,10.868,10.868,10.868c5.993,0,10.868-4.876,10.868-10.868c0-4.272,3.464-7.736,7.736-7.736
	s7.736,3.464,7.736,7.736C152.253,154.385,140.437,166.203,125.913,166.203z"/>
<path style="fill:#D9CCBC;" d="M467.188,303.081c-3.641,3.961-8.427,6.395-13.718,7.344c-10.046,1.815-21.918-1.733-31.294-10.335
	c-10.696-9.83-31.8-38.586-37.338-57.256c-1.867-6.292-1.97-11.439,0.691-14.337c10.552-11.49,60.587,16.833,74.894,29.984
	C474.718,271.622,477.75,291.591,467.188,303.081z"/>
<path style="fill:#EBE5DD;" d="M453.47,310.425c-10.046,1.815-21.918-1.733-31.294-10.335c-10.696-9.83-31.8-38.586-37.338-57.256
	c19.237,5.126,46.952,21.867,57.018,31.119C453.181,284.36,457.441,299.058,453.47,310.425z"/>
<path style="fill:#B39A7C;" d="M487.321,237.79c-3.435,12.295-16.771,21.825-33.11,22.506c-12.893,0.547-38.999-3.95-55.244-11.614
	c-8.2-3.858-13.883-8.52-14.11-13.739c-0.66-15.596,47.57-30.294,66.972-31.109c19.412-0.825,35.678,11.15,36.328,26.745
	C488.26,233.056,487.971,235.469,487.321,237.79z"/>
<path style="fill:#C0AB91;" d="M487.321,237.79c-3.435,12.295-16.771,21.825-33.11,22.506c-12.893,0.547-38.999-3.95-55.244-11.614
	c13.79-11.057,45.508-19.814,60.35-20.433C470.488,227.775,480.617,231.54,487.321,237.79z"/>
<path style="fill:#D9CCBC;" d="M455.439,207.053c-9.201,9.489-32.759,27.457-50.407,34.533c-8.283,3.332-15.265,4.26-18.845,0.794
	c-11.212-10.851,15.142-60.69,28.654-74.646c13.512-13.956,33.553-16.462,44.765-5.611c1.599,1.547,2.929,3.29,3.992,5.168
	C470.044,178.595,467.022,195.088,455.439,207.053z"/>
<path style="fill:#EBE5DD;" d="M455.439,207.053c-9.201,9.489-32.759,27.457-50.407,34.533
	c2.589-19.113,20.639-51.191,31.057-61.949c7.952-8.21,18.164-12.46,27.509-12.346C470.044,178.595,467.022,195.088,455.439,207.053
	z"/>
<g>
</g>
<g>
</g>
<g>
</g>
<g>
</g>
<g>
</g>
<g>
</g>
<g>
</g>
<g>
</g>
<g>
</g>
<g>
</g>
<g>
</g>
<g>
</g>
<g>
</g>
<g>
</g>
<g>
</g>
</svg>
