<svg width="500" height="229" viewBox="0 0 500 229" fill="none" xmlns="http://www.w3.org/2000/svg">
<g clip-path="url(#clip0)">
<path d="M257.72 228.87C256.42 228.87 255.09 228.68 253.73 228.23C250.36 227.11 246.86 224.76 243.46 222.49C241.24 220.99 239.13 219.58 237.15 218.56C236.18 218.04 235.02 217.51 233.71 216.98C232.95 216.66 232.58 215.79 232.89 215.02C233.21 214.25 234.09 213.89 234.85 214.2C236.25 214.77 237.49 215.34 238.54 215.9C240.66 216.99 242.94 218.52 245.14 220C248.36 222.16 251.69 224.39 254.66 225.38C259.41 226.94 263.93 224.45 268.7 221.82C271.87 220.07 275.16 218.26 278.74 217.5C279.54 217.34 280.34 217.85 280.52 218.66C280.69 219.47 280.17 220.27 279.36 220.44C276.21 221.11 273.13 222.8 270.14 224.45C266.19 226.63 262.13 228.87 257.72 228.87" fill="#8100BE"/>
<path d="M282.55 221.24C281.14 221.24 279.82 220.94 278.46 220.35C276.74 219.61 275.02 218.43 272.96 216.9C260.98 207.98 247.52 199.91 235.65 192.79C234.94 192.36 234.71 191.44 235.13 190.73C235.56 190.02 236.48 189.79 237.19 190.21C249.12 197.37 262.65 205.48 274.75 214.49C276.39 215.71 278.11 216.93 279.64 217.6C281.95 218.59 284.14 218.66 289.04 216.21C294.85 213.3 300.98 209.32 305.45 205.58C306.09 205.05 307.03 205.13 307.56 205.77C308.1 206.4 308.01 207.35 307.38 207.88C302.75 211.77 296.39 215.88 290.39 218.89C287.22 220.48 284.78 221.24 282.55 221.24" fill="#8100BE"/>
<path d="M313.49 209.28C310.95 209.28 308.39 208.92 305.97 208.16C303.98 207.57 302.19 206.71 300.66 205.64C295.66 202.1 290.99 196.77 286.05 191.11C278.35 182.32 270.39 173.21 261.04 171.13C260.23 170.95 259.72 170.15 259.9 169.34C260.08 168.53 260.88 168.02 261.69 168.2C272 170.5 280.29 179.98 288.3 189.14C293.13 194.65 297.68 199.86 302.39 203.18C303.65 204.07 305.15 204.79 306.85 205.3C312.77 207.14 319.89 206.31 324.59 203.25C325.28 202.8 326.21 202.99 326.66 203.68C327.11 204.38 326.92 205.3 326.23 205.76C322.68 208.07 318.11 209.28 313.49 209.28" fill="#8100BE"/>
<path d="M325.3 206.25C325.03 206.25 324.77 206.18 324.52 206.04C323.81 205.61 323.59 204.69 324.01 203.98C324.02 203.95 324.04 203.89 324.05 203.87C328.36 194.64 328.62 194.08 322.86 186.5L322.27 185.72C317.92 180.05 313.04 174.68 308.41 169.73C307.74 169.01 307.01 168.24 306.23 167.43C299.81 160.7 291.01 151.47 291.71 143.19C291.78 142.36 292.52 141.75 293.34 141.82C294.16 141.89 294.77 142.62 294.7 143.44C294.11 150.38 302.71 159.39 308.4 165.36C309.19 166.18 309.93 166.96 310.6 167.68C315.28 172.69 320.22 178.12 324.65 183.89L325.24 184.68C331.91 193.46 331.34 195.34 326.77 205.14C326.73 205.23 326.66 205.39 326.58 205.52C326.3 205.99 325.8 206.25 325.3 206.25" fill="#8100BE"/>
<path d="M345.1 173.6C344.92 173.6 344.73 173.57 344.56 173.5C343.3 173.02 342.11 172.46 340.91 171.81C336.2 169.31 331.68 165.7 327.32 162.21C323.32 159.02 319.55 156 316.01 154.14C315.41 153.83 314.6 153.38 313.65 152.86C308.8 150.17 298.68 144.6 293.27 144.82C292.41 144.89 291.75 144.21 291.71 143.39C291.67 142.56 292.31 141.86 293.14 141.82C299.38 141.53 309.62 147.19 315.11 150.23C316.03 150.74 316.81 151.18 317.4 151.48C321.2 153.47 325.08 156.58 329.19 159.87C333.45 163.27 337.85 166.79 342.32 169.17C343.43 169.77 344.51 170.26 345.64 170.7C346.41 171 346.8 171.87 346.5 172.64C346.27 173.23 345.7 173.6 345.1 173.6" fill="#8100BE"/>
<path d="M323.46 186.31C322.95 186.31 322.45 186.05 322.17 185.58C321.74 184.87 321.97 183.95 322.68 183.52C325.06 182.1 327.7 180.26 330.52 178.06C333.78 175.5 337.27 172.5 340.6 169.4C341.2 168.84 342.16 168.84 342.72 169.43C343.29 170.02 343.31 170.93 342.73 171.51C342.72 171.52 342.66 171.58 342.64 171.59C339.25 174.75 335.7 177.81 332.37 180.42C329.45 182.7 326.71 184.61 324.23 186.09C323.99 186.24 323.72 186.31 323.46 186.31" fill="#8100BE"/>
<path d="M338.52 182.05C335.88 182.05 333.43 181.63 330.89 180.64C330.12 180.34 329.74 179.47 330.04 178.7C330.34 177.93 331.22 177.54 331.98 177.84C336.91 179.77 341.51 179.23 348.79 177.47C350.39 177.09 352.24 176.89 354.2 176.69C357.65 176.33 361.22 175.96 363.23 174.52C366.76 171.99 367.85 166.32 366.48 157.66C366.1 155.32 365.56 152.78 364.81 149.92C364.6 149.12 365.08 148.3 365.88 148.09C366.68 147.88 367.5 148.36 367.71 149.16C368.48 152.12 369.05 154.75 369.44 157.19C371 167.07 369.5 173.71 364.98 176.95C362.32 178.86 358.35 179.27 354.52 179.67C352.66 179.86 350.9 180.05 349.49 180.39C345.24 181.41 341.74 182.05 338.52 182.05" fill="#8100BE"/>
<path d="M366.26 151.04C365.98 151.04 365.7 150.96 365.45 150.8L363.12 149.32C356.77 145.29 350.78 141.49 345.72 137.3C316.94 113.59 286.35 93.906 260.22 77.777C252.95 73.297 246.62 71.109 239.34 69.207C237.15 68.621 234.62 67.559 231.93 66.43C229.5 65.406 226.98 64.348 224.64 63.621C223.85 63.375 223.41 62.535 223.65 61.746C223.89 60.953 224.74 60.512 225.53 60.754C228.02 61.523 230.6 62.613 233.1 63.664C235.68 64.75 238.12 65.777 240.11 66.305C247.64 68.277 254.21 70.547 261.8 75.227C288.01 91.406 318.71 111.16 347.63 134.98C352.55 139.06 358.46 142.81 364.73 146.79L367.06 148.27C367.77 148.72 367.97 149.64 367.52 150.34C367.24 150.79 366.75 151.04 366.26 151.04Z" fill="#8100BE"/>
<path d="M367.96 158.93C367.66 158.93 367.35 158.84 367.09 158.65C366.41 158.17 366.25 157.23 366.73 156.56C367.87 154.96 369.2 153.48 370.8 152.02C372.48 150.47 374.3 149.08 376.05 147.73C378.95 145.51 381.68 143.41 383.84 140.7C386.58 137.25 387.16 132.17 387.36 128.12C387.45 126.07 387.46 123.91 387.47 121.84C387.49 117.23 387.51 112.46 388.55 108.48C388.77 107.68 389.59 107.2 390.39 107.41C391.19 107.62 391.67 108.44 391.46 109.24C390.51 112.85 390.49 117.22 390.47 121.85C390.46 123.96 390.45 126.14 390.35 128.27C390.13 132.76 389.46 138.45 386.19 142.57C383.8 145.57 380.79 147.88 377.88 150.11C376.18 151.42 374.41 152.77 372.82 154.23C371.38 155.55 370.19 156.88 369.18 158.3C368.89 158.71 368.43 158.93 367.96 158.93" fill="#8100BE"/>
<path d="M371.7 41.031C371.06 41.031 370.47 40.625 370.27 39.988C370.02 39.199 370.45 38.355 371.24 38.105C375.75 36.664 379.68 35.223 383.27 33.691C406.52 23.801 427.83 11.262 445.62 0.304977C446.32 -0.132833 447.25 0.0859171 447.68 0.792947C448.12 1.49608 447.89 2.42185 447.19 2.85545C429.31 13.8754 407.88 26.4794 384.45 36.4534C380.77 38.0194 376.75 39.4914 372.16 40.9604C372 41.0114 371.85 41.0304 371.7 41.0304" fill="#8100BE"/>
<path d="M388.85 129.69C388.34 129.69 387.84 129.43 387.56 128.96C387.14 128.25 387.38 127.32 388.09 126.9C391.79 124.7 395.66 122.88 398.22 121.67L398.57 121.5C403.04 119.39 407.69 118.42 412.19 117.49C413.85 117.15 415.57 116.79 417.27 116.38C421.04 115.47 424.83 114.57 428.62 113.68C451.36 108.29 474.86 102.71 497.13 94.938C497.91 94.664 498.77 95.074 499.04 95.855C499.32 96.641 498.9 97.496 498.12 97.77C475.7 105.59 452.12 111.19 429.32 116.59C425.52 117.49 421.74 118.39 417.97 119.3C416.23 119.72 414.48 120.08 412.8 120.43C408.27 121.36 404 122.25 399.85 124.21L399.5 124.38C396.99 125.57 393.2 127.36 389.62 129.48C389.38 129.62 389.11 129.69 388.85 129.69" fill="#8100BE"/>
<path d="M346.29 37.539C345.83 37.539 345.38 37.336 345.09 36.941C344.59 36.281 344.72 35.34 345.38 34.844C348.17 32.738 356.99 25.449 353.27 20.031C352.47 18.887 350.94 18.258 348.47 18.059C347.64 17.992 347.03 17.27 347.1 16.445C347.16 15.617 347.9 15.004 348.71 15.07C352.1 15.34 354.39 16.406 355.73 18.324C359.32 23.547 356.2 30.438 347.19 37.238C346.92 37.441 346.6 37.539 346.29 37.539Z" fill="#8100BE"/>
<path d="M161.9 93.828C156.02 93.828 149.51 92.711 145.42 89.355C144.52 88.605 143.74 87.766 143.11 86.848C142.64 86.164 142.81 85.23 143.5 84.762C144.18 84.293 145.11 84.465 145.58 85.148C146.05 85.836 146.64 86.473 147.33 87.039C152.52 91.293 163.65 91.371 169.91 90.066C179.15 88.141 185.57 83.922 193.62 78.164C201.89 72.242 211.69 66.734 224.45 60.828C225.2 60.477 226.1 60.805 226.45 61.559C226.79 62.309 226.46 63.199 225.71 63.551C213.12 69.375 203.48 74.797 195.36 80.605C187.01 86.574 180.34 90.961 170.52 93.004C168.17 93.492 165.13 93.828 161.9 93.828" fill="#8100BE"/>
<path d="M371.7 41.031H371.62C364.55 40.68 358.02 39.93 351.67 38.746C349.92 38.414 348.04 38.008 345.93 37.496C345.09 37.301 344.23 37.098 343.38 36.891C340.18 36.125 336.87 35.332 333.56 34.809C310.89 31.219 287.28 28.816 263.4 27.668C259.18 27.461 254.9 27.039 250.76 26.633L249.87 26.543C243.96 25.953 237.83 25.367 231.96 25.359C225.64 25.379 219.32 27.023 213.89 28.562C213.1 28.789 212.27 28.328 212.04 27.531C211.81 26.734 212.27 25.902 213.07 25.68C218.69 24.082 225.25 22.379 231.95 22.359C238 22.359 244.19 22.965 250.17 23.559L251.05 23.645C255.16 24.051 259.4 24.469 263.55 24.672C287.54 25.828 311.25 28.238 334.03 31.844C337.45 32.387 340.82 33.191 344.08 33.973C344.93 34.176 345.78 34.383 346.62 34.578C348.7 35.078 350.52 35.477 352.22 35.797C358.43 36.957 364.83 37.688 371.77 38.035C372.6 38.074 373.24 38.777 373.2 39.605C373.16 40.41 372.5 41.031 371.7 41.031" fill="#8100BE"/>
<path d="M250.12 26.562C249.55 26.562 249 26.23 248.75 25.672C248.42 24.914 248.76 24.027 249.52 23.691C253.74 21.816 257.35 20.66 260.88 20.059C268.68 18.734 276.94 18.934 284.94 19.125C287.71 19.191 290.57 19.258 293.33 19.258C295.74 19.258 298.72 19.371 302.17 19.504C315.75 20.016 336.27 20.789 347.95 15.211C348.69 14.852 349.59 15.172 349.95 15.918C350.3 16.664 349.98 17.559 349.24 17.918C336.9 23.816 315.93 23.023 302.05 22.5C298.64 22.371 295.69 22.258 293.33 22.258C290.54 22.258 287.66 22.191 284.87 22.121C277.02 21.938 268.89 21.742 261.38 23.016C258.06 23.586 254.78 24.637 250.73 26.434C250.54 26.52 250.33 26.562 250.12 26.562" fill="#8100BE"/>
<path d="M146.87 170.76C146.58 170.76 146.29 170.68 146.03 170.51C142.93 168.41 139.97 165.97 137.11 163.61C136.15 162.81 135.19 162.02 134.23 161.25C133.68 160.79 133.14 160.36 132.59 159.94C131.93 159.43 131.82 158.48 132.32 157.83C132.83 157.18 133.77 157.06 134.43 157.57C135 158.02 135.57 158.46 136.13 158.93C137.09 159.69 138.05 160.49 139.02 161.29C141.82 163.61 144.73 166.01 147.71 168.02C148.39 168.48 148.58 169.41 148.11 170.1C147.82 170.53 147.35 170.76 146.87 170.76Z" fill="#8100BE"/>
<path d="M130.48 167.02C130.35 167.02 130.22 167 130.09 166.97C117.5 163.56 116.06 154.98 114.54 145.9C114.1 143.26 113.64 140.54 112.9 137.82C112.45 136.12 111.89 134.53 111.24 133.07C110.91 132.32 111.24 131.43 112 131.09C112.76 130.76 113.64 131.09 113.98 131.85C114.7 133.45 115.31 135.2 115.79 137.04C116.57 139.89 117.05 142.69 117.5 145.41C118.98 154.21 120.14 161.17 130.88 164.07C131.68 164.29 132.15 165.11 131.93 165.91C131.75 166.58 131.14 167.02 130.48 167.02" fill="#8100BE"/>
<path d="M132.73 164.93H132.69C131.86 164.91 131.21 164.22 131.23 163.39C131.46 153.93 128.48 144.14 123.46 137.86C120.76 134.47 116.47 131.73 113.43 133.72C113.1 133.93 112.81 134.18 112.53 134.48C111.97 135.09 111.02 135.12 110.41 134.56C109.8 134 109.77 133.05 110.33 132.45C110.79 131.94 111.28 131.54 111.81 131.2C116.41 128.18 122.16 131.43 125.81 135.99C131.25 142.79 134.47 153.32 134.23 163.47C134.21 164.28 133.54 164.93 132.73 164.93Z" fill="#8100BE"/>
<path d="M144.34 87.5C144.2 87.5 144.05 87.477 143.9 87.434C143.11 87.188 142.66 86.348 142.91 85.555C142.99 85.285 143.1 85.023 143.23 84.754C144.81 81.531 147.15 80.719 149.41 79.93C150.36 79.598 151.35 79.254 152.3 78.707C156.73 76.168 160.79 72.57 164.71 69.094C166.8 67.246 168.95 65.336 171.16 63.57C177.9 58.195 184.26 52.051 190.41 46.105C193.31 43.305 196.31 40.406 199.32 37.621C199.33 37.609 199.39 37.559 199.44 37.508C199.46 37.492 199.51 37.445 199.52 37.43C204 33.312 208.25 29.566 212.52 25.973C213.15 25.441 214.1 25.52 214.63 26.156C215.16 26.789 215.08 27.734 214.45 28.27C210.21 31.832 205.99 35.551 201.55 39.637C201.55 39.645 201.49 39.699 201.43 39.754C201.42 39.766 201.37 39.809 201.36 39.82C198.38 42.586 195.39 45.473 192.5 48.262C186.3 54.254 179.88 60.449 173.04 65.918C170.88 67.633 168.76 69.516 166.7 71.34C162.66 74.914 158.49 78.617 153.79 81.312C152.59 81.992 151.43 82.402 150.4 82.762C148.41 83.457 146.96 83.961 145.93 86.082C145.86 86.203 145.82 86.316 145.78 86.441C145.58 87.086 144.98 87.5 144.34 87.5" fill="#8100BE"/>
<path d="M114.35 138.92C113.82 138.92 113.31 138.65 113.04 138.16C112.34 136.9 111.42 135.67 110.32 134.48C105.81 129.66 98.8591 126.3 92.7271 123.32C91.7891 122.87 90.8751 122.43 89.9921 121.99C73.7111 113.93 57.5231 105.19 42.3361 96.922C29.3091 89.832 15.4181 84.422 1.98808 79.191L0.957077 78.789C0.183667 78.488 -0.199123 77.617 0.101637 76.848C0.402417 76.074 1.27344 75.691 2.04304 75.992L3.07814 76.395C16.5981 81.66 30.5781 87.105 43.7731 94.285C58.9301 102.54 75.0901 111.27 91.3241 119.3C92.1991 119.73 93.1051 120.18 94.0351 120.62C100.4 123.71 107.62 127.21 112.52 132.44C113.79 133.8 114.84 135.23 115.65 136.69C116.06 137.41 115.8 138.32 115.08 138.73C114.85 138.86 114.59 138.92 114.35 138.92" fill="#8100BE"/>
<path d="M155.6 44.895C150.31 44.895 144.97 44.402 139.59 43.094C130.25 40.824 120.79 37.855 112.76 35.254C105.98 33.047 100.08 29.547 94.3789 26.164C91.1519 24.25 87.8159 22.27 84.3279 20.523L80.6679 18.695C70.6679 13.703 60.3319 8.539 50.4839 2.797C49.7699 2.3789 49.5269 1.4609 49.9449 0.7461C50.3629 0.03125 51.2809 -0.21094 51.9959 0.20703C61.7619 5.89843 72.0549 11.039 82.0079 16.012L85.6719 17.844C89.2539 19.633 92.6369 21.641 95.9099 23.586C101.73 27.035 107.22 30.297 113.68 32.398C121.66 34.984 131.06 37.934 140.3 40.18C153.51 43.387 166.14 41.523 179.52 39.551C186.28 38.551 193.27 37.52 200.27 37.223C201.12 37.184 201.8 37.832 201.84 38.656C201.87 39.484 201.23 40.184 200.4 40.219C193.55 40.508 186.64 41.527 179.96 42.516C171.99 43.691 163.85 44.895 155.6 44.895" fill="#8100BE"/>
<path d="M1.50023 78.891C1.35963 78.891 1.21903 78.871 1.07833 78.828C0.281483 78.598 -0.171667 77.762 0.0627327 76.969C8.70333 47.574 27.9527 18.211 50.3047 0.327987C50.9537 -0.187513 51.8957 -0.0820432 52.4107 0.566397C52.9307 1.21089 52.8247 2.1562 52.1767 2.6719C30.2857 20.1879 11.4187 48.9799 2.93873 77.8159C2.74683 78.4689 2.14913 78.8909 1.50073 78.8909" fill="#8100BE"/>
<path d="M497.62 97.852C496.93 97.852 496.31 97.371 496.16 96.672C492.5 79.797 487.69 61.664 477.29 43.395C467.18 25.637 457.36 13.09 445.42 2.71098C444.8 2.16798 444.73 1.21878 445.27 0.593781C445.82 -0.0312694 446.76 -0.0976793 447.39 0.449201C459.59 11.0592 469.61 23.8482 479.89 41.9102C490.49 60.5272 495.39 78.9262 499.09 96.0352C499.27 96.8442 498.75 97.6412 497.95 97.8162C497.84 97.8402 497.73 97.8522 497.62 97.8522" fill="#8100BE"/>
<path d="M130.48 167.02C129.96 167.02 129.45 166.74 129.17 166.25C128.77 165.53 129.03 164.61 129.75 164.21C131.38 163.3 132.5 161.73 133.88 159.33C134.29 158.61 135.2 158.37 135.92 158.78C136.64 159.19 136.89 160.11 136.48 160.82C135.17 163.11 133.68 165.45 131.21 166.83C130.98 166.96 130.73 167.02 130.48 167.02" fill="#8100BE"/>
<path d="M188.88 214.9C187.38 214.9 186.08 214.58 184.97 213.95C184.05 213.4 183.44 212.65 182.89 211.99C182.27 211.2 181.59 210.44 180.88 209.63C178.14 206.57 175.05 203.1 175.36 198.87C175.4 198.24 175.52 197.63 175.73 197.02C176.82 193.59 178.09 190.36 179.19 187.64L180.02 185.63C181.01 183.21 182.04 180.71 182.98 178.2C184.55 174.04 184.68 169.86 184.68 165.23C184.68 164.4 185.35 163.73 186.18 163.73C187.01 163.73 187.68 164.4 187.68 165.23C187.68 170.16 187.54 174.63 185.79 179.26C184.82 181.82 183.79 184.33 182.79 186.77L181.97 188.77C180.89 191.43 179.65 194.6 178.58 197.96C178.45 198.35 178.38 198.7 178.35 199.07C178.13 202.05 180.78 205.02 183.11 207.64C183.86 208.48 184.57 209.27 185.19 210.06C185.64 210.61 186.04 211.09 186.47 211.35C188.3 212.39 192.53 212.43 202.16 206.59C202.87 206.16 203.79 206.39 204.22 207.09C204.65 207.8 204.43 208.72 203.72 209.15C197.36 213.01 192.52 214.9 188.88 214.9" fill="#8100BE"/>
<path d="M209.45 187.07C208.61 187.07 207.95 186.4 207.95 185.57L207.94 184.58C207.94 183.91 207.93 183.25 207.95 182.59C207.95 182.11 207.95 181.57 207.91 181C207.52 172.79 203.77 162.3 197.56 159.02C196.98 158.7 196.4 158.45 195.75 158.26C194.44 157.88 193.25 158.93 191.72 160.46L191.43 160.75C190.48 161.7 189.73 162.81 188.92 163.98C188.45 164.68 187.95 165.4 187.41 166.1C187.37 166.15 187.33 166.2 187.29 166.24C186.7 166.82 185.74 166.85 185.15 166.27C184.57 165.7 184.53 164.78 185.09 164.19C185.56 163.58 185.99 162.95 186.45 162.29C187.29 161.05 188.16 159.78 189.31 158.63L189.6 158.34C191.14 156.8 193.47 154.47 196.59 155.38C197.47 155.64 198.25 155.97 199 156.38C207.08 160.65 210.55 173.36 210.91 180.86C210.94 181.47 210.95 182.05 210.95 182.61C210.93 183.28 210.94 183.92 210.94 184.57L210.95 185.57C210.95 186.4 210.27 187.07 209.45 187.07" fill="#8100BE"/>
<path d="M173.93 201.54C173.77 201.54 173.61 201.52 173.45 201.46L173.31 201.42C171.08 200.66 168.76 200.25 166.51 199.84L165.68 199.7C163.02 199.21 160.81 198.71 158.66 197.83C156 196.72 153.85 195.13 152.1 192.96C149.73 190.03 147.7 186.31 146.22 182.21C146.21 182.2 146.21 182.18 146.2 182.16C145.62 180.61 145.14 179.02 144.76 177.42C144.16 174.92 145.4 172.09 146.73 169.41L147.24 168.38C148.61 165.54 149.95 162.67 151.28 159.8C152.57 157.02 153.86 154.25 155.19 151.49C156.87 148 158.86 143.39 159.41 138.61C159.41 138.57 159.42 138.52 159.42 138.5C159.42 137.67 160.09 137.03 160.92 137.03C161.75 137.03 162.42 137.73 162.42 138.56C162.42 138.67 162.41 138.76 162.4 138.85C161.8 144.16 159.68 149.09 157.89 152.79C156.57 155.54 155.29 158.3 154 161.06C152.66 163.95 151.32 166.84 149.94 169.7L149.41 170.74C148.62 172.36 147.28 175.07 147.68 176.73C148.03 178.21 148.48 179.7 149.02 181.13C149.03 181.16 149.04 181.19 149.05 181.21V181.22C150.41 185 152.27 188.4 154.43 191.07C155.88 192.87 157.59 194.14 159.81 195.05C161.71 195.84 163.74 196.3 166.21 196.74L167.04 196.89C169.39 197.31 171.84 197.75 174.27 198.57L174.4 198.62C175.18 198.88 175.61 199.73 175.35 200.52C175.14 201.14 174.55 201.54 173.93 201.54" fill="#8100BE"/>
<path d="M180.3 189.71C177.58 189.71 174.69 188.34 172.84 187.01C168.09 183.59 168.68 179.18 169.89 175.3L169.99 174.98C170.64 172.95 171.4 170.86 172.13 168.82C173.71 164.44 175.34 159.9 176.16 155.5C176.92 151.36 174.69 148.34 172.11 144.85L171.57 144.12C171.28 143.72 170.99 143.31 170.71 142.9C169.46 141.08 168.38 139.51 166.42 139C164.64 138.54 163.09 138.8 161.82 139.76C161.24 140.35 160.28 140.36 159.69 139.77C159.1 139.19 159.09 138.25 159.67 137.66C159.79 137.54 159.9 137.45 160.02 137.36C162.02 135.85 164.49 135.41 167.17 136.09C170.21 136.88 171.79 139.17 173.18 141.2C173.45 141.58 173.71 141.97 173.99 142.35L174.52 143.07C177.27 146.78 180.11 150.62 179.11 156.05C178.24 160.69 176.57 165.34 174.95 169.84C174.2 171.94 173.48 173.92 172.84 175.91L172.74 176.22C171.41 180.5 171.87 182.62 174.59 184.57C176.05 185.62 178.46 186.78 180.52 186.71C181.33 186.65 182.04 187.31 182.08 188.14C182.12 188.97 181.48 189.67 180.65 189.71H180.3" fill="#8100BE"/>
<path d="M173.78 201.5C173.14 201.5 172.54 201.08 172.35 200.43C172.11 199.63 172.56 198.8 173.35 198.56L173.8 198.42C174.64 198.15 175.49 197.88 176.35 197.57C177.13 197.29 177.99 197.7 178.27 198.48C178.55 199.26 178.14 200.12 177.36 200.39C176.47 200.71 175.58 201 174.7 201.29L174.21 201.43C174.07 201.48 173.93 201.5 173.78 201.5" fill="#8100BE"/>
<path d="M216.65 223.11C211.96 223.11 207.91 221.48 204.56 218.21C201.56 215.28 201.38 211.48 201.44 207.84C201.44 207.4 201.45 206.93 201.46 206.46C201.46 206 201.47 205.54 201.47 205.08L201.48 203.59C201.49 200.67 201.51 197.91 201 195.14C200.85 194.31 200.79 193.55 200.74 192.81C200.66 191.79 200.59 190.82 200.27 189.85C200.19 189.61 200.11 189.37 200.02 189.14L199.91 188.85C199.63 188.07 200.03 187.21 200.8 186.93C201.58 186.64 202.45 187.04 202.73 187.82L202.83 188.09C202.93 188.37 203.04 188.65 203.12 188.92C203.55 190.23 203.64 191.43 203.73 192.59C203.78 193.28 203.83 193.93 203.95 194.6C204.51 197.64 204.49 200.67 204.48 203.6L204.47 205.08C204.47 205.56 204.46 206.04 204.46 206.51C204.45 206.97 204.44 207.42 204.44 207.87C204.38 211.12 204.51 213.96 206.66 216.06C211 220.29 216.6 221.21 223.77 218.86C225.21 218.39 226.71 217.79 228.24 217.08C229.86 216.33 231.59 215.42 233.53 214.29C234.25 213.88 235.16 214.12 235.58 214.84C236 215.55 235.75 216.47 235.04 216.89C233.02 218.06 231.2 219.02 229.5 219.8C227.87 220.56 226.25 221.2 224.71 221.71C221.84 222.64 219.16 223.11 216.65 223.11" fill="#8100BE"/>
<path d="M201.32 189.83C200.79 189.83 200.28 189.55 200.01 189.06C199.61 188.33 199.87 187.42 200.59 187.02C202.28 186.09 204.2 185.51 205.75 185.04C207.03 184.65 208.09 184.36 209.09 184.11C211.28 183.57 213.3 183.25 215.27 183.12C216.09 183.07 216.81 183.7 216.87 184.53C216.92 185.36 216.29 186.07 215.46 186.12C213.67 186.23 211.82 186.53 209.8 187.03C208.86 187.26 207.84 187.54 206.62 187.91C204.82 188.45 203.35 188.93 202.05 189.64C201.82 189.77 201.57 189.83 201.32 189.83" fill="#8100BE"/>
<path d="M227.81 212.02C227.07 212.02 226.42 211.47 226.32 210.71C226.05 208.6 225.7 206.88 225.22 205.31C224.97 204.48 224.73 203.63 224.49 202.78C223.46 199.11 222.39 195.32 220.29 192.41C219.59 191.44 218.8 190.52 217.96 189.55C217.39 188.89 216.82 188.23 216.27 187.55C215.78 186.95 215.18 186.38 214.45 185.81C213.8 185.3 213.68 184.36 214.18 183.7C214.69 183.05 215.63 182.93 216.29 183.44C217.2 184.14 217.96 184.88 218.61 185.67C219.13 186.33 219.68 186.96 220.23 187.59C221.07 188.56 221.94 189.57 222.73 190.65C225.14 194 226.28 198.05 227.38 201.96C227.62 202.8 227.85 203.63 228.09 204.45C228.62 206.17 229 208.04 229.3 210.32C229.41 211.15 228.83 211.9 228.01 212.01C227.94 212.02 227.88 212.02 227.81 212.02" fill="#8100BE"/>
<path d="M209.41 182.43C209.16 182.43 208.91 182.36 208.68 182.24C208.51 182.14 208.35 182.04 208.18 181.93C207.48 181.46 207.3 180.54 207.76 179.84C208.22 179.16 209.15 178.97 209.84 179.43C209.95 179.5 210.04 179.56 210.14 179.61C210.86 180.02 211.12 180.93 210.72 181.65C210.45 182.15 209.94 182.43 209.41 182.43" fill="#8100BE"/>
<path d="M235.75 217.53C235.32 217.53 234.9 217.34 234.61 217L234.46 216.94C234.31 216.89 234.15 216.82 234 216.74C233.65 216.6 233.27 216.43 232.87 216.18C231.54 215.38 230.51 214.7 229.54 214C228.79 213.46 228.13 212.86 227.5 212.27L227.11 211.91C227.02 211.82 226.98 211.77 226.93 211.73C226.3 211.22 226.16 210.28 226.64 209.64C227.14 208.99 228.02 208.83 228.68 209.3C228.86 209.43 229.04 209.59 229.19 209.74L229.54 210.07C230.13 210.61 230.69 211.13 231.29 211.56C232.2 212.22 233.17 212.85 234.44 213.62C234.68 213.77 234.91 213.88 235.21 214C235.27 214.02 235.33 214.05 235.39 214.08C235.42 214.1 235.47 214.12 235.53 214.14C235.85 214.26 236.49 214.51 236.95 215.13C237.45 215.79 237.31 216.73 236.65 217.23C236.38 217.43 236.06 217.53 235.75 217.53" fill="#8100BE"/>
</g>
<defs>
<clipPath id="clip0">
<rect width="499.13" height="228.87" fill="white"/>
</clipPath>
</defs>
</svg>
