<?xml version="1.0" encoding="UTF-8"?><svg xmlns="http://www.w3.org/2000/svg" height="228.87pt" version="1.1" viewBox="0 0 499.13 228.87" width="499.13pt">
 <defs>
  <clipPath id="clip1">
   <path d="m232 214h49v14.87h-49z"/>
  </clipPath>
  <clipPath id="clip2">
   <path d="m387 94h112.13v36h-112.13z"/>
  </clipPath>
  <clipPath id="clip3">
   <path d="m444 0h55.13v98h-55.13z"/>
  </clipPath>
 </defs>
 <g id="surface1">
  <g clip-path="url(#clip1)" id="change1_33">
   <path d="m257.72 228.87c-1.3 0-2.63-0.19-3.99-0.64-3.37-1.12-6.87-3.47-10.27-5.74-2.22-1.5-4.33-2.91-6.31-3.93-0.97-0.52-2.13-1.05-3.44-1.58-0.76-0.32-1.13-1.19-0.82-1.96 0.32-0.77 1.2-1.13 1.96-0.82 1.4 0.57 2.64 1.14 3.69 1.7 2.12 1.09 4.4 2.62 6.6 4.1 3.22 2.16 6.55 4.39 9.52 5.38 4.75 1.56 9.27-0.93 14.04-3.56 3.17-1.75 6.46-3.56 10.04-4.32 0.8-0.16 1.6 0.35 1.78 1.16 0.17 0.81-0.35 1.61-1.16 1.78-3.15 0.67-6.23 2.36-9.22 4.01-3.95 2.18-8.01 4.42-12.42 4.42" fill="#e8c161"/>
  </g>
  <g id="change1_1"><path d="m282.55 221.24c-1.41 0-2.73-0.3-4.09-0.89-1.72-0.74-3.44-1.92-5.5-3.45-11.98-8.92-25.44-16.99-37.31-24.11-0.71-0.43-0.94-1.35-0.52-2.06 0.43-0.71 1.35-0.94 2.06-0.52 11.93 7.16 25.46 15.27 37.56 24.28 1.64 1.22 3.36 2.44 4.89 3.11 2.31 0.99 4.5 1.06 9.4-1.39 5.81-2.91 11.94-6.89 16.41-10.63 0.64-0.53 1.58-0.45 2.11 0.19 0.54 0.63 0.45 1.58-0.18 2.11-4.63 3.89-10.99 8-16.99 11.01-3.17 1.59-5.61 2.35-7.84 2.35" fill="#e8c161"/></g>
  <g id="change1_2"><path d="m313.49 209.28c-2.54 0-5.1-0.36-7.52-1.12-1.99-0.59-3.78-1.45-5.31-2.52-5-3.54-9.67-8.87-14.61-14.53-7.7-8.79-15.66-17.9-25.01-19.98-0.81-0.18-1.32-0.98-1.14-1.79s0.98-1.32 1.79-1.14c10.31 2.3 18.6 11.78 26.61 20.94 4.83 5.51 9.38 10.72 14.09 14.04 1.26 0.89 2.76 1.61 4.46 2.12 5.92 1.84 13.04 1.01 17.74-2.05 0.69-0.45 1.62-0.26 2.07 0.43 0.45 0.7 0.26 1.62-0.43 2.08-3.55 2.31-8.12 3.52-12.74 3.52" fill="#e8c161"/></g>
  <g id="change1_3"><path d="m325.3 206.25c-0.27 0-0.53-0.07-0.78-0.21-0.71-0.43-0.93-1.35-0.51-2.06 0.01-0.03 0.03-0.09 0.04-0.11 4.31-9.23 4.57-9.79-1.19-17.37l-0.59-0.78c-4.35-5.67-9.23-11.04-13.86-15.99-0.67-0.72-1.4-1.49-2.18-2.3-6.42-6.73-15.22-15.96-14.52-24.24 0.07-0.83 0.81-1.44 1.63-1.37s1.43 0.8 1.36 1.62c-0.59 6.94 8.01 15.95 13.7 21.92 0.79 0.82 1.53 1.6 2.2 2.32 4.68 5.01 9.62 10.44 14.05 16.21l0.59 0.79c6.67 8.78 6.1 10.66 1.53 20.46-0.04 0.09-0.11 0.25-0.19 0.38-0.28 0.47-0.78 0.73-1.28 0.73" fill="#e8c161"/></g>
  <g id="change1_4"><path d="m345.1 173.6c-0.18 0-0.37-0.03-0.54-0.1-1.26-0.48-2.45-1.04-3.65-1.69-4.71-2.5-9.23-6.11-13.59-9.6-4-3.19-7.77-6.21-11.31-8.07-0.6-0.31-1.41-0.76-2.36-1.28-4.85-2.69-14.97-8.26-20.38-8.04-0.86 0.07-1.52-0.61-1.56-1.43-0.04-0.83 0.6-1.53 1.43-1.57 6.24-0.29 16.48 5.37 21.97 8.41 0.92 0.51 1.7 0.95 2.29 1.25 3.8 1.99 7.68 5.1 11.79 8.39 4.26 3.4 8.66 6.92 13.13 9.3 1.11 0.6 2.19 1.09 3.32 1.53 0.77 0.3 1.16 1.17 0.86 1.94-0.23 0.59-0.8 0.96-1.4 0.96" fill="#e8c161"/></g>
  <g id="change1_5"><path d="m323.46 186.31c-0.51 0-1.01-0.26-1.29-0.73-0.43-0.71-0.2-1.63 0.51-2.06 2.38-1.42 5.02-3.26 7.84-5.46 3.26-2.56 6.75-5.56 10.08-8.66 0.6-0.56 1.56-0.56 2.12 0.03 0.57 0.59 0.59 1.5 0.01 2.08-0.01 0.01-0.07 0.07-0.09 0.08-3.39 3.16-6.94 6.22-10.27 8.83-2.92 2.28-5.66 4.19-8.14 5.67-0.24 0.15-0.51 0.22-0.77 0.22" fill="#e8c161"/></g>
  <g id="change1_6"><path d="m338.52 182.05c-2.64 0-5.09-0.42-7.63-1.41-0.77-0.3-1.15-1.17-0.85-1.94s1.18-1.16 1.94-0.86c4.93 1.93 9.53 1.39 16.81-0.37 1.6-0.38 3.45-0.58 5.41-0.78 3.45-0.36 7.02-0.73 9.03-2.17 3.53-2.53 4.62-8.2 3.25-16.86-0.38-2.34-0.92-4.88-1.67-7.74-0.21-0.8 0.27-1.62 1.07-1.83s1.62 0.27 1.83 1.07c0.77 2.96 1.34 5.59 1.73 8.03 1.56 9.88 0.06 16.52-4.46 19.76-2.66 1.91-6.63 2.32-10.46 2.72-1.86 0.19-3.62 0.38-5.03 0.72-4.25 1.02-7.75 1.66-10.97 1.66" fill="#e8c161"/></g>
  <g id="change1_7"><path d="m366.26 151.04c-0.28 0-0.56-0.08-0.81-0.24l-2.33-1.48c-6.35-4.03-12.34-7.83-17.4-12.02-28.78-23.71-59.37-43.394-85.5-59.523-7.27-4.48-13.6-6.668-20.88-8.57-2.19-0.586-4.72-1.648-7.41-2.777-2.43-1.024-4.95-2.082-7.29-2.809-0.79-0.246-1.23-1.086-0.99-1.875 0.24-0.793 1.09-1.234 1.88-0.992 2.49 0.769 5.07 1.859 7.57 2.91 2.58 1.086 5.02 2.113 7.01 2.641 7.53 1.972 14.1 4.242 21.69 8.922 26.21 16.179 56.91 35.933 85.83 59.753 4.92 4.08 10.83 7.83 17.1 11.81l2.33 1.48c0.71 0.45 0.91 1.37 0.46 2.07-0.28 0.45-0.77 0.7-1.26 0.7" fill="#e8c161"/></g>
  <g id="change1_8"><path d="m367.96 158.93c-0.3 0-0.61-0.09-0.87-0.28-0.68-0.48-0.84-1.42-0.36-2.09 1.14-1.6 2.47-3.08 4.07-4.54 1.68-1.55 3.5-2.94 5.25-4.29 2.9-2.22 5.63-4.32 7.79-7.03 2.74-3.45 3.32-8.53 3.52-12.58 0.09-2.05 0.1-4.21 0.11-6.28 0.02-4.61 0.04-9.38 1.08-13.36 0.22-0.8 1.04-1.28 1.84-1.07s1.28 1.03 1.07 1.83c-0.95 3.61-0.97 7.98-0.99 12.61-0.01 2.11-0.02 4.29-0.12 6.42-0.22 4.49-0.89 10.18-4.16 14.3-2.39 3-5.4 5.31-8.31 7.54-1.7 1.31-3.47 2.66-5.06 4.12-1.44 1.32-2.63 2.65-3.64 4.07-0.29 0.41-0.75 0.63-1.22 0.63" fill="#e8c161"/></g>
  <g id="change1_9"><path d="m371.7 41.031c-0.64 0-1.23-0.406-1.43-1.043-0.25-0.789 0.18-1.633 0.97-1.883 4.51-1.441 8.44-2.882 12.03-4.414 23.25-9.89 44.56-22.429 62.35-33.386 0.7-0.43781 1.63-0.21906 2.06 0.48797 0.44 0.70313 0.21 1.6289-0.49 2.0625-17.88 11.02-39.31 23.624-62.74 33.598-3.68 1.566-7.7 3.038-12.29 4.507-0.16 0.051-0.31 0.07-0.46 0.07" fill="#e8c161"/></g>
  <g clip-path="url(#clip2)" id="change1_34">
   <path d="m388.85 129.69c-0.51 0-1.01-0.26-1.29-0.73-0.42-0.71-0.18-1.64 0.53-2.06 3.7-2.2 7.57-4.02 10.13-5.23l0.35-0.17c4.47-2.11 9.12-3.08 13.62-4.01 1.66-0.34 3.38-0.7 5.08-1.11 3.77-0.91 7.56-1.81 11.35-2.7 22.74-5.39 46.24-10.97 68.51-18.742 0.78-0.274 1.64 0.136 1.91 0.917 0.28 0.786-0.14 1.641-0.92 1.915-22.42 7.82-46 13.42-68.8 18.82-3.8 0.9-7.58 1.8-11.35 2.71-1.74 0.42-3.49 0.78-5.17 1.13-4.53 0.93-8.8 1.82-12.95 3.78l-0.35 0.17c-2.51 1.19-6.3 2.98-9.88 5.1-0.24 0.14-0.51 0.21-0.77 0.21" fill="#e8c161"/>
  </g>
  <g id="change1_10"><path d="m346.29 37.539c-0.46 0-0.91-0.203-1.2-0.598-0.5-0.66-0.37-1.601 0.29-2.097 2.79-2.106 11.61-9.395 7.89-14.813-0.8-1.144-2.33-1.773-4.8-1.972-0.83-0.067-1.44-0.789-1.37-1.614 0.06-0.828 0.8-1.441 1.61-1.375 3.39 0.27 5.68 1.336 7.02 3.254 3.59 5.223 0.47 12.114-8.54 18.914-0.27 0.203-0.59 0.301-0.9 0.301" fill="#e8c161"/></g>
  <g id="change1_11"><path d="m161.9 93.828c-5.88 0-12.39-1.117-16.48-4.473-0.9-0.75-1.68-1.589-2.31-2.507-0.47-0.684-0.3-1.618 0.39-2.086 0.68-0.469 1.61-0.297 2.08 0.386 0.47 0.688 1.06 1.325 1.75 1.891 5.19 4.254 16.32 4.332 22.58 3.027 9.24-1.925 15.66-6.144 23.71-11.902 8.27-5.922 18.07-11.43 30.83-17.336 0.75-0.351 1.65-0.023 2 0.731 0.34 0.75 0.01 1.64-0.74 1.992-12.59 5.824-22.23 11.246-30.35 17.054-8.35 5.969-15.02 10.356-24.84 12.399-2.35 0.488-5.39 0.824-8.62 0.824" fill="#e8c161"/></g>
  <g id="change1_12"><path d="m371.7 41.031h-0.08c-7.07-0.351-13.6-1.101-19.95-2.285-1.75-0.332-3.63-0.738-5.74-1.25-0.84-0.195-1.7-0.398-2.55-0.605-3.2-0.766-6.51-1.559-9.82-2.082-22.67-3.59-46.28-5.993-70.16-7.141-4.22-0.207-8.5-0.629-12.64-1.035l-0.89-0.09c-5.91-0.59-12.04-1.176-17.91-1.184-6.32 0.02-12.64 1.664-18.07 3.203-0.79 0.227-1.62-0.234-1.85-1.031s0.23-1.629 1.03-1.851c5.62-1.598 12.18-3.301 18.88-3.321 6.05 0 12.24 0.606 18.22 1.2l0.88 0.086c4.11 0.406 8.35 0.824 12.5 1.027 23.99 1.156 47.7 3.566 70.48 7.172 3.42 0.543 6.79 1.347 10.05 2.129 0.85 0.203 1.7 0.41 2.54 0.605 2.08 0.5 3.9 0.899 5.6 1.219 6.21 1.16 12.61 1.891 19.55 2.238 0.83 0.039 1.47 0.742 1.43 1.57-0.04 0.805-0.7 1.426-1.5 1.426" fill="#e8c161"/></g>
  <g id="change1_13"><path d="m250.12 26.562c-0.57 0-1.12-0.332-1.37-0.89-0.33-0.758 0.01-1.645 0.77-1.981 4.22-1.875 7.83-3.031 11.36-3.632 7.8-1.325 16.06-1.125 24.06-0.934 2.77 0.066 5.63 0.133 8.39 0.133 2.41 0 5.39 0.113 8.84 0.246 13.58 0.512 34.1 1.285 45.78-4.293 0.74-0.359 1.64-0.039 2 0.707 0.35 0.746 0.03 1.641-0.71 2-12.34 5.898-33.31 5.105-47.19 4.582-3.41-0.129-6.36-0.242-8.72-0.242-2.79 0-5.67-0.067-8.46-0.137-7.85-0.183-15.98-0.379-23.49 0.895-3.32 0.57-6.6 1.621-10.65 3.418-0.19 0.086-0.4 0.128-0.61 0.128" fill="#e8c161"/></g>
  <g id="change1_14"><path d="m146.87 170.76c-0.29 0-0.58-0.08-0.84-0.25-3.1-2.1-6.06-4.54-8.92-6.9-0.96-0.8-1.92-1.59-2.88-2.36-0.55-0.46-1.09-0.89-1.64-1.31-0.66-0.51-0.77-1.46-0.27-2.11 0.51-0.65 1.45-0.77 2.11-0.26 0.57 0.45 1.14 0.89 1.7 1.36 0.96 0.76 1.92 1.56 2.89 2.36 2.8 2.32 5.71 4.72 8.69 6.73 0.68 0.46 0.87 1.39 0.4 2.08-0.29 0.43-0.76 0.66-1.24 0.66" fill="#e8c161"/></g>
  <g id="change1_15"><path d="m130.48 167.02c-0.13 0-0.26-0.02-0.39-0.05-12.59-3.41-14.03-11.99-15.55-21.07-0.44-2.64-0.9-5.36-1.64-8.08-0.45-1.7-1.01-3.29-1.66-4.75-0.33-0.75 0-1.64 0.76-1.98 0.76-0.33 1.64 0 1.98 0.76 0.72 1.6 1.33 3.35 1.81 5.19 0.78 2.85 1.26 5.65 1.71 8.37 1.48 8.8 2.64 15.76 13.38 18.66 0.8 0.22 1.27 1.04 1.05 1.84-0.18 0.67-0.79 1.11-1.45 1.11" fill="#e8c161"/></g>
  <g id="change1_16"><path d="m132.73 164.93h-0.04c-0.83-0.02-1.48-0.71-1.46-1.54 0.23-9.46-2.75-19.25-7.77-25.53-2.7-3.39-6.99-6.13-10.03-4.14-0.33 0.21-0.62 0.46-0.9 0.76-0.56 0.61-1.51 0.64-2.12 0.08s-0.64-1.51-0.08-2.11c0.46-0.51 0.95-0.91 1.48-1.25 4.6-3.02 10.35 0.23 14 4.79 5.44 6.8 8.66 17.33 8.42 27.48-0.02 0.81-0.69 1.46-1.5 1.46" fill="#e8c161"/></g>
  <g id="change1_17"><path d="m144.34 87.5c-0.14 0-0.29-0.023-0.44-0.066-0.79-0.246-1.24-1.086-0.99-1.879 0.08-0.27 0.19-0.532 0.32-0.801 1.58-3.223 3.92-4.035 6.18-4.824 0.95-0.332 1.94-0.676 2.89-1.223 4.43-2.539 8.49-6.137 12.41-9.613 2.09-1.848 4.24-3.758 6.45-5.524 6.74-5.375 13.1-11.519 19.25-17.465 2.9-2.8 5.9-5.699 8.91-8.484 0.01-0.012 0.07-0.062 0.12-0.113 0.02-0.016 0.07-0.063 0.08-0.078 4.48-4.118 8.73-7.864 13-11.457 0.63-0.532 1.58-0.453 2.11 0.183 0.53 0.633 0.45 1.578-0.18 2.114-4.24 3.562-8.46 7.281-12.9 11.367 0 0.008-0.06 0.062-0.12 0.117-0.01 0.012-0.06 0.055-0.07 0.066-2.98 2.766-5.97 5.653-8.86 8.442-6.2 5.992-12.62 12.187-19.46 17.656-2.16 1.715-4.28 3.598-6.34 5.422-4.04 3.574-8.21 7.277-12.91 9.972-1.2 0.68-2.36 1.09-3.39 1.45-1.99 0.695-3.44 1.199-4.47 3.32-0.07 0.121-0.11 0.234-0.15 0.359-0.2 0.645-0.8 1.059-1.44 1.059" fill="#e8c161"/></g>
  <g id="change1_18"><path d="m114.35 138.92c-0.53 0-1.04-0.27-1.31-0.76-0.7-1.26-1.62-2.49-2.72-3.68-4.51-4.82-11.461-8.18-17.593-11.16-0.938-0.45-1.852-0.89-2.735-1.33-16.281-8.06-32.469-16.8-47.656-25.068-13.027-7.09-26.918-12.5-40.348-17.731l-1.031-0.402c-0.77341-0.301-1.1562-1.172-0.85544-1.941 0.30078-0.774 1.1718-1.157 1.9414-0.856l1.0351 0.403c13.52 5.265 27.5 10.71 40.695 17.89 15.157 8.255 31.317 16.985 47.551 25.015 0.875 0.43 1.781 0.88 2.711 1.32 6.365 3.09 13.585 6.59 18.485 11.82 1.27 1.36 2.32 2.79 3.13 4.25 0.41 0.72 0.15 1.63-0.57 2.04-0.23 0.13-0.49 0.19-0.73 0.19" fill="#e8c161"/></g>
  <g id="change1_19"><path d="m155.6 44.895c-5.29 0-10.63-0.493-16.01-1.801-9.34-2.27-18.8-5.239-26.83-7.84-6.78-2.207-12.68-5.707-18.381-9.09-3.227-1.914-6.563-3.894-10.051-5.641l-3.66-1.828c-10-4.992-20.336-10.156-30.184-15.898-0.714-0.4181-0.957-1.3361-0.539-2.0509 0.418-0.71485 1.336-0.95704 2.051-0.53907 9.766 5.6914 20.059 10.832 30.012 15.805l3.664 1.832c3.582 1.789 6.965 3.797 10.238 5.742 5.82 3.449 11.31 6.711 17.77 8.812 7.98 2.586 17.38 5.536 26.62 7.782 13.21 3.207 25.84 1.343 39.22-0.629 6.76-1 13.75-2.031 20.75-2.328 0.85-0.039 1.53 0.609 1.57 1.433 0.03 0.828-0.61 1.528-1.44 1.563-6.85 0.289-13.76 1.308-20.44 2.297-7.97 1.175-16.11 2.379-24.36 2.379" fill="#e8c161"/></g>
  <g id="change1_20"><path d="m1.5 78.891c-0.1406 0-0.2812-0.02-0.4219-0.063-0.79685-0.23-1.25-1.066-1.0156-1.859 8.6406-29.395 27.89-58.758 50.242-76.641 0.649-0.5155 1.591-0.41003 2.106 0.23841 0.52 0.64449 0.414 1.5898-0.234 2.1055-21.891 17.516-40.758 46.308-49.238 75.144-0.1919 0.653-0.7896 1.075-1.438 1.075" fill="#e8c161"/></g>
  <g clip-path="url(#clip3)" id="change1_32">
   <path d="m497.62 97.852c-0.69 0-1.31-0.481-1.46-1.18-3.66-16.875-8.47-35.008-18.87-53.277-10.11-17.758-19.93-30.305-31.87-40.684-0.62-0.543-0.69-1.4922-0.15-2.1172 0.55-0.62505 1.49-0.69146 2.12-0.14458 12.2 10.61 22.22 23.399 32.5 41.461 10.6 18.617 15.5 37.016 19.2 54.125 0.18 0.809-0.34 1.606-1.14 1.781-0.11 0.024-0.22 0.036-0.33 0.036" fill="#e8c161"/>
  </g>
  <g id="change1_21"><path d="m130.48 167.02c-0.52 0-1.03-0.28-1.31-0.77-0.4-0.72-0.14-1.64 0.58-2.04 1.63-0.91 2.75-2.48 4.13-4.88 0.41-0.72 1.32-0.96 2.04-0.55s0.97 1.33 0.56 2.04c-1.31 2.29-2.8 4.63-5.27 6.01-0.23 0.13-0.48 0.19-0.73 0.19" fill="#e8c161"/></g>
  <g id="change1_22"><path d="m188.88 214.9c-1.5 0-2.8-0.32-3.91-0.95-0.92-0.55-1.53-1.3-2.08-1.96-0.62-0.79-1.3-1.55-2.01-2.36-2.74-3.06-5.83-6.53-5.52-10.76 0.04-0.63 0.16-1.24 0.37-1.85 1.09-3.43 2.36-6.66 3.46-9.38l0.83-2.01c0.99-2.42 2.02-4.92 2.96-7.43 1.57-4.16 1.7-8.34 1.7-12.97 0-0.83 0.67-1.5 1.5-1.5s1.5 0.67 1.5 1.5c0 4.93-0.14 9.4-1.89 14.03-0.97 2.56-2 5.07-3 7.51l-0.82 2c-1.08 2.66-2.32 5.83-3.39 9.19-0.13 0.39-0.2 0.74-0.23 1.11-0.22 2.98 2.43 5.95 4.76 8.57 0.75 0.84 1.46 1.63 2.08 2.42 0.45 0.55 0.85 1.03 1.28 1.29 1.83 1.04 6.06 1.08 15.69-4.76 0.71-0.43 1.63-0.2 2.06 0.5 0.43 0.71 0.21 1.63-0.5 2.06-6.36 3.86-11.2 5.75-14.84 5.75" fill="#e8c161"/></g>
  <g id="change1_23"><path d="m209.45 187.07c-0.84 0-1.5-0.67-1.5-1.5l-0.01-0.99c0-0.67-0.01-1.33 0.01-1.99 0-0.48 0-1.02-0.04-1.59-0.39-8.21-4.14-18.7-10.35-21.98-0.58-0.32-1.16-0.57-1.81-0.76-1.31-0.38-2.5 0.67-4.03 2.2l-0.29 0.29c-0.95 0.95-1.7 2.06-2.51 3.23-0.47 0.7-0.97 1.42-1.51 2.12-0.04 0.05-0.08 0.1-0.12 0.14-0.59 0.58-1.55 0.61-2.14 0.03-0.58-0.57-0.62-1.49-0.06-2.08 0.47-0.61 0.9-1.24 1.36-1.9 0.84-1.24 1.71-2.51 2.86-3.66l0.29-0.29c1.54-1.54 3.87-3.87 6.99-2.96 0.88 0.26 1.66 0.59 2.41 1 8.08 4.27 11.55 16.98 11.91 24.48 0.03 0.61 0.04 1.19 0.04 1.75-0.02 0.67-0.01 1.31-0.01 1.96l0.01 1c0 0.83-0.68 1.5-1.5 1.5" fill="#e8c161"/></g>
  <g id="change1_24"><path d="m173.93 201.54c-0.16 0-0.32-0.02-0.48-0.08l-0.14-0.04c-2.23-0.76-4.55-1.17-6.8-1.58l-0.83-0.14c-2.66-0.49-4.87-0.99-7.02-1.87-2.66-1.11-4.81-2.7-6.56-4.87-2.37-2.93-4.4-6.65-5.88-10.75-0.01-0.01-0.01-0.03-0.02-0.05-0.58-1.55-1.06-3.14-1.44-4.74-0.6-2.5 0.64-5.33 1.97-8.01l0.51-1.03c1.37-2.84 2.71-5.71 4.04-8.58 1.29-2.78 2.58-5.55 3.91-8.31 1.68-3.49 3.67-8.1 4.22-12.88 0-0.04 0.01-0.09 0.01-0.11 0-0.83 0.67-1.47 1.5-1.47s1.5 0.7 1.5 1.53c0 0.11-0.01 0.2-0.02 0.29-0.6 5.31-2.72 10.24-4.51 13.94-1.32 2.75-2.6 5.51-3.89 8.27-1.34 2.89-2.68 5.78-4.06 8.64l-0.53 1.04c-0.79 1.62-2.13 4.33-1.73 5.99 0.35 1.48 0.8 2.97 1.34 4.4 0.01 0.03 0.02 0.06 0.03 0.08v0.01c1.36 3.78 3.22 7.18 5.38 9.85 1.45 1.8 3.16 3.07 5.38 3.98 1.9 0.79 3.93 1.25 6.4 1.69l0.83 0.15c2.35 0.42 4.8 0.86 7.23 1.68l0.13 0.05c0.78 0.26 1.21 1.11 0.95 1.9-0.21 0.62-0.8 1.02-1.42 1.02" fill="#e8c161"/></g>
  <g id="change1_25"><path d="m180.3 189.71c-2.72 0-5.61-1.37-7.46-2.7-4.75-3.42-4.16-7.83-2.95-11.71l0.1-0.32c0.65-2.03 1.41-4.12 2.14-6.16 1.58-4.38 3.21-8.92 4.03-13.32 0.76-4.14-1.47-7.16-4.05-10.65l-0.54-0.73c-0.29-0.4-0.58-0.81-0.86-1.22-1.25-1.82-2.33-3.39-4.29-3.9-1.78-0.46-3.33-0.2-4.6 0.76-0.58 0.59-1.54 0.6-2.13 0.01-0.59-0.58-0.6-1.52-0.02-2.11 0.12-0.12 0.23-0.21 0.35-0.3 2-1.51 4.47-1.95 7.15-1.27 3.04 0.79 4.62 3.08 6.01 5.11 0.27 0.38 0.53 0.77 0.81 1.15l0.53 0.72c2.75 3.71 5.59 7.55 4.59 12.98-0.87 4.64-2.54 9.29-4.16 13.79-0.75 2.1-1.47 4.08-2.11 6.07l-0.1 0.31c-1.33 4.28-0.87 6.4 1.85 8.35 1.46 1.05 3.87 2.21 5.93 2.14 0.81-0.06 1.52 0.6 1.56 1.43s-0.6 1.53-1.43 1.57h-0.35" fill="#e8c161"/></g>
  <g id="change1_26"><path d="m173.78 201.5c-0.64 0-1.24-0.42-1.43-1.07-0.24-0.8 0.21-1.63 1-1.87l0.45-0.14c0.84-0.27 1.69-0.54 2.55-0.85 0.78-0.28 1.64 0.13 1.92 0.91s-0.13 1.64-0.91 1.91c-0.89 0.32-1.78 0.61-2.66 0.9l-0.49 0.14c-0.14 0.05-0.28 0.07-0.43 0.07" fill="#e8c161"/></g>
  <g id="change1_27"><path d="m216.65 223.11c-4.69 0-8.74-1.63-12.09-4.9-3-2.93-3.18-6.73-3.12-10.37 0-0.44 0.01-0.91 0.02-1.38 0-0.46 0.01-0.92 0.01-1.38l0.01-1.49c0.01-2.92 0.03-5.68-0.48-8.45-0.15-0.83-0.21-1.59-0.26-2.33-0.08-1.02-0.15-1.99-0.47-2.96-0.08-0.24-0.16-0.48-0.25-0.71l-0.11-0.29c-0.28-0.78 0.12-1.64 0.89-1.92 0.78-0.29 1.65 0.11 1.93 0.89l0.1 0.27c0.1 0.28 0.21 0.56 0.29 0.83 0.43 1.31 0.52 2.51 0.61 3.67 0.05 0.69 0.1 1.34 0.22 2.01 0.56 3.04 0.54 6.07 0.53 9l-0.01 1.48c0 0.48-0.01 0.96-0.01 1.43-0.01 0.46-0.02 0.91-0.02 1.36-0.06 3.25 0.07 6.09 2.22 8.19 4.34 4.23 9.94 5.15 17.11 2.8 1.44-0.47 2.94-1.07 4.47-1.78 1.62-0.75 3.35-1.66 5.29-2.79 0.72-0.41 1.63-0.17 2.05 0.55 0.42 0.71 0.17 1.63-0.54 2.05-2.02 1.17-3.84 2.13-5.54 2.91-1.63 0.76-3.25 1.4-4.79 1.91-2.87 0.93-5.55 1.4-8.06 1.4" fill="#e8c161"/></g>
  <g id="change1_28"><path d="m201.32 189.83c-0.53 0-1.04-0.28-1.31-0.77-0.4-0.73-0.14-1.64 0.58-2.04 1.69-0.93 3.61-1.51 5.16-1.98 1.28-0.39 2.34-0.68 3.34-0.93 2.19-0.54 4.21-0.86 6.18-0.99 0.82-0.05 1.54 0.58 1.6 1.41 0.05 0.83-0.58 1.54-1.41 1.59-1.79 0.11-3.64 0.41-5.66 0.91-0.94 0.23-1.96 0.51-3.18 0.88-1.8 0.54-3.27 1.02-4.57 1.73-0.23 0.13-0.48 0.19-0.73 0.19" fill="#e8c161"/></g>
  <g id="change1_29"><path d="m227.81 212.02c-0.74 0-1.39-0.55-1.49-1.31-0.27-2.11-0.62-3.83-1.1-5.4-0.25-0.83-0.49-1.68-0.73-2.53-1.03-3.67-2.1-7.46-4.2-10.37-0.7-0.97-1.49-1.89-2.33-2.86-0.57-0.66-1.14-1.32-1.69-2-0.49-0.6-1.09-1.17-1.82-1.74-0.65-0.51-0.77-1.45-0.27-2.11 0.51-0.65 1.45-0.77 2.11-0.26 0.91 0.7 1.67 1.44 2.32 2.23 0.52 0.66 1.07 1.29 1.62 1.92 0.84 0.97 1.71 1.98 2.5 3.06 2.41 3.35 3.55 7.4 4.65 11.31 0.24 0.84 0.47 1.67 0.71 2.49 0.53 1.72 0.91 3.59 1.21 5.87 0.11 0.83-0.47 1.58-1.29 1.69-0.07 0.01-0.13 0.01-0.2 0.01" fill="#e8c161"/></g>
  <g id="change1_30"><path d="m209.41 182.43c-0.25 0-0.5-0.07-0.73-0.19-0.17-0.1-0.33-0.2-0.5-0.31-0.7-0.47-0.88-1.39-0.42-2.09 0.46-0.68 1.39-0.87 2.08-0.41 0.11 0.07 0.2 0.13 0.3 0.18 0.72 0.41 0.98 1.32 0.58 2.04-0.27 0.5-0.78 0.78-1.31 0.78" fill="#e8c161"/></g>
  <g id="change1_31"><path d="m234.55 216.93zm0.1 0.09zm1.1 0.51c-0.43 0-0.85-0.19-1.14-0.53l-0.15-0.06c-0.15-0.05-0.31-0.12-0.46-0.2-0.35-0.14-0.73-0.31-1.13-0.56-1.33-0.8-2.36-1.48-3.33-2.18-0.75-0.54-1.41-1.14-2.04-1.73l-0.39-0.36c-0.09-0.09-0.13-0.14-0.18-0.18-0.63-0.51-0.77-1.45-0.29-2.09 0.5-0.65 1.38-0.81 2.04-0.34 0.18 0.13 0.36 0.29 0.51 0.44l0.35 0.33c0.59 0.54 1.15 1.06 1.75 1.49 0.91 0.66 1.88 1.29 3.15 2.06 0.24 0.15 0.47 0.26 0.77 0.38 0.06 0.02 0.12 0.05 0.18 0.08 0.03 0.02 0.08 0.04 0.14 0.06 0.32 0.12 0.96 0.37 1.42 0.99 0.5 0.66 0.36 1.6-0.3 2.1-0.27 0.2-0.59 0.3-0.9 0.3" fill="#e8c161"/></g>
 </g>
</svg>