<svg width="1287" height="365" viewBox="0 0 1287 365" fill="none" xmlns="http://www.w3.org/2000/svg">
<path d="M1 105C15.3019 98.5931 34.8324 100.652 51.3636 100.652C76.3132 100.652 101.503 98.8924 126.326 97.029C159.504 94.5384 193.521 97.0794 226.704 94.533C262.813 91.7621 293.711 85.8471 327.431 76.0145C352.473 68.7121 374.046 56.9751 396.681 46.868C415.545 38.4446 437.716 32.7565 457.537 25.2899C473.256 19.3682 488.083 15.1449 505.802 15.1449C515.613 15.1449 524.245 14.3042 533.549 11.9243C538.035 10.7768 540.494 7.30685 545.557 6.52979C549.266 5.96059 553.168 7.53009 555 5" stroke="black" stroke-linecap="round" stroke-linejoin="round"/>
<path d="M3 158.322C14.7643 158.322 26.5286 158.322 38.2929 158.322C50.7494 158.322 61.8217 160.7 74.3931 160.7C112.877 160.7 151.361 160.7 189.845 160.7C222.979 160.7 256.515 161.536 289.61 160.634C314.872 159.945 338.204 154.904 363.31 153.567C388.347 152.233 412.315 150 437.587 150C477.147 150 516.708 150 556.268 150C574.118 150 589.94 151.094 607.131 154.293C629.868 158.525 653.779 160.314 675.525 165.918C694.403 170.783 711.724 179.904 731.81 183.355C744.812 185.589 761.243 188.322 771.139 193.989C780.579 199.395 790.058 200.809 801.011 205.151C803.621 206.186 808.043 207.462 811.045 207.991C817.916 209.202 812.988 197.584 814.736 198.48C826.559 204.538 840.33 207.982 853.259 213.011C867.424 218.521 884.194 221.364 897.778 227.542C912.918 234.427 924.933 243.955 940.914 250.791C967.639 262.223 1000.7 268.556 1027.88 279.853C1046.1 287.428 1063.69 297.138 1083.01 303.631C1095.89 307.961 1111.79 308.634 1124.07 313.802C1132.09 317.179 1139.15 320.637 1146.44 324.502C1152.42 327.67 1162.47 333.01 1169.74 335.202C1175.17 336.839 1182.55 335.316 1187.96 338.109C1192.32 340.352 1201.12 342.913 1206.65 344.053C1211.28 345.008 1217.38 348.257 1221.64 348.544C1226.13 348.847 1234.93 351.609 1238.25 353.3C1242.39 355.409 1251.69 356.122 1256.94 357.791C1266.11 360.709 1279.02 360 1286 364" stroke="black" stroke-linecap="round" stroke-linejoin="round"/>
<path d="M5 135.216C25.017 135.216 45.034 135.216 65.051 135.216C101.239 135.216 140.499 138.241 175.941 132.408C225.07 124.323 272.5 112.977 321.813 106.793C354.964 102.637 389.868 97.6533 421.043 88.1962C429.317 85.6863 437.588 86.4905 446.229 86.2664C474.907 85.5224 499.439 66.4619 524.354 58.2829C551.869 49.2502 583.171 47.8316 611.107 40.8261C620.391 38.4978 630.567 36.3397 640.025 34.51C660.365 30.5752 677.243 19.2405 696.111 12.3162C704.595 9.20276 710.619 7.31603 719.898 7.31603C729.949 7.31603 737.62 1 748 1" stroke="black" stroke-linecap="round" stroke-linejoin="round"/>
</svg>
