<svg height="512" viewBox="0 0 128 128" width="512" xmlns="http://www.w3.org/2000/svg"><g><circle cx="64" cy="64" fill="#dfdfe5" r="57.5"/><circle cx="64" cy="64" fill="#efeffb" r="48.5"/><path d="m92.982 96.809a1.75 1.75 0 0 1 -1.194-3.03 41.36 41.36 0 0 0 3.785-4.044 1.75 1.75 0 1 1 2.71 2.215 44.847 44.847 0 0 1 -4.107 4.388 1.748 1.748 0 0 1 -1.194.471z" fill="#dfdfe5"/><path d="m72.9 61.461 9.9-9.9.085 3.663a4.5 4.5 0 1 0 9-.219l-.452-18.442-18.442-.452a4.5 4.5 0 0 0 -.219 9l3.663.085-9.9 9.9a19.9 19.9 0 1 0 6.365 6.365zm-24.6 18.239a10.905 10.905 0 1 1 15.415 0 10.914 10.914 0 0 1 -15.415 0z" fill="#b560e8"/></g></svg>