<?xml version="1.0" encoding="UTF-8"?><!-- Generator: Adobe Illustrator 23.0.3, SVG Export Plug-In . SVG Version: 6.00 Build 0)  --><svg xmlns="http://www.w3.org/2000/svg" enable-background="new 0 0 390.7 328.6" id="Layer_1" version="1.1" viewBox="0 0 390.7 328.6" x="0px" xml:space="preserve" y="0px">
<g id="change1_1"><path d="m31.9 116.3c12.5-7.2 29.9-0.7 38.7 14.7s5.9 33.6-6.7 40.8c-12.5 7.2-29.9 0.7-38.7-14.7s-5.8-33.6 6.7-40.8zm68.8-50c4.6 26 25.5 44.1 46.8 40.4s34.8-27.9 30.2-53.9-25.5-44.1-46.8-40.4-34.8 27.8-30.2 53.9zm182.6-52.4c-21.3-3.7-42.3 14.4-46.8 40.4-4.6 26 9 50.2 30.2 53.9s42.2-14.3 46.8-40.4-9-50.1-30.2-53.9zm11.7 187.4l-25.5-25.5c-38.9-38.9-102-38.9-141 0l-26.4 26.4c-50.9 50.9 3.4 135.3 70.9 110l21.3-8c3.5-1.3 7.4-1.3 10.9 0l18.8 7.1c67.4 25.4 121.9-59 71-110zm80.4-80.3c-12.5-7.2-29.9-0.7-38.7 14.7-8.8 15.3-5.9 33.6 6.7 40.8 12.5 7.2 29.9 0.7 38.7-14.7 8.8-15.3 5.8-33.6-6.7-40.8z" fill="#FFC91D"/></g>
<g id="change2_1"><path d="m190.7 146.6c25.5 0 51 9.7 70.5 29.2l25.5 25.5c44.5 44.5 8.5 114.7-46.3 114.7-7.9 0-16.2-1.5-24.7-4.7l-18.8-7.1c-1.8-0.7-3.6-1-5.5-1-1.8 0-3.7 0.3-5.5 1l-21.3 8c-8.5 3.2-16.7 4.6-24.6 4.6-54.8 0-90.8-70.1-46.3-114.7l26.4-26.4c19.5-19.4 45-29.1 70.6-29.1m0-11.9c-29.8 0-57.8 11.6-78.9 32.7l-26.4 26.4c-11.9 11.9-19.7 26.5-22.4 42.1-2.5 14.3-0.8 29.2 5 43.1 5.9 14.2 15.5 26.4 27.8 35.2 13.1 9.4 28.4 14.4 44.3 14.4 9.6 0 19.3-1.8 28.8-5.4l21.3-8c0.4-0.2 0.8-0.2 1.3-0.2 0.4 0 0.9 0.1 1.3 0.2l18.8 7.1c9.5 3.6 19.3 5.4 28.9 5.4 15.9 0 31.2-5 44.3-14.4 12.3-8.9 21.9-21 27.8-35.2 5.8-13.9 7.5-28.8 5-43.1-2.7-15.6-10.5-30.2-22.4-42.1l-25.5-25.5c-21.2-21.1-49.2-32.7-79-32.7zm78.7-122.4c1.9 0 3.7 0.2 5.6 0.5 21.3 3.7 34.8 27.9 30.2 53.9-4.2 23.7-22 40.9-41.2 40.9-1.9 0-3.7-0.2-5.6-0.5-21.3-3.7-34.8-27.9-30.2-53.9 4.1-23.8 21.9-40.9 41.2-40.9m0-11.9c-12.5 0-24.8 5.3-34.6 14.9-9.4 9.2-15.9 21.9-18.3 35.7-2.7 15.3-0.3 30.6 6.8 43.2 7.5 13.3 19.2 22 33.1 24.5 2.5 0.4 5.1 0.7 7.7 0.7 12.5 0 24.8-5.3 34.6-14.9 9.4-9.2 15.9-21.9 18.3-35.7 2.7-15.3 0.3-30.6-6.8-43.2-7.5-13.3-19.2-22-33.1-24.5-2.6-0.5-5.2-0.7-7.7-0.7zm86.5 117.7c3.9 0 7.7 0.9 11.2 2.9 12.5 7.2 15.5 25.5 6.7 40.8-6.4 11.1-17.3 17.6-27.5 17.6-3.9 0-7.7-0.9-11.2-2.9-12.5-7.2-15.5-25.5-6.7-40.8 6.4-11.1 17.2-17.6 27.5-17.6m0-11.9c-14.9 0-29.4 9-37.8 23.5-5.6 9.8-7.8 20.9-6.1 31.3 1.8 11.1 8.1 20.5 17.1 25.8 5.1 3 11.1 4.5 17.1 4.5 14.9 0 29.4-9 37.8-23.5 5.6-9.8 7.8-20.9 6.1-31.3-1.8-11.1-8.1-20.5-17.1-25.8-5.1-2.9-11-4.5-17.1-4.5zm-227.7-94.3c19.2 0 37 17.1 41.2 40.9 4.6 26-9 50.2-30.2 53.9-1.9 0.3-3.7 0.5-5.6 0.5-19.2 0-37-17.1-41.2-40.9-4.6-26 9-50.2 30.2-53.9 1.9-0.4 3.8-0.5 5.6-0.5m0-11.9c-2.6 0-5.1 0.2-7.7 0.7-13.8 2.4-25.5 11.1-33 24.4-7 12.6-9.4 27.9-6.8 43.2 2.4 13.8 8.9 26.5 18.3 35.7 9.8 9.6 22.1 14.9 34.6 14.9 2.6 0 5.1-0.2 7.7-0.7 13.9-2.4 25.6-11.1 33.1-24.5 7-12.6 9.4-27.9 6.8-43.2-2.4-13.8-8.9-26.5-18.3-35.7-9.9-9.5-22.2-14.8-34.7-14.8zm-93.4 113.3c10.3 0 21.1 6.5 27.5 17.6 8.8 15.3 5.9 33.6-6.7 40.8-3.5 2-7.3 2.9-11.2 2.9-10.3 0-21.1-6.5-27.5-17.6-8.8-15.3-5.9-33.6 6.7-40.8 3.5-1.9 7.3-2.9 11.2-2.9m0-11.8c-6.1 0-12 1.6-17.1 4.5-9.1 5.2-15.3 14.6-17.1 25.8-1.7 10.3 0.4 21.5 6.1 31.2 8.4 14.5 22.9 23.5 37.8 23.5 6.1 0 12-1.6 17.1-4.5 9.1-5.2 15.3-14.6 17.1-25.8 1.7-10.4-0.5-21.5-6.1-31.3-8.4-14.4-22.9-23.4-37.8-23.4z" fill="inherit"/></g>
</svg>