<?xml version="1.0" encoding="UTF-8"?><!-- Generator: Adobe Illustrator 23.0.4, SVG Export Plug-In . SVG Version: 6.00 Build 0)  --><svg xmlns="http://www.w3.org/2000/svg" enable-background="new 0 0 498 500" id="Layer_1" version="1.1" viewBox="0 0 498 500" x="0px" xml:space="preserve" y="0px">
<g id="change1_1"><path d="m54.2 317.9c3.8 53.8 11.7 94.5 37.8 118.1 13.3 12.1 33.7 17.8 54.6 15.3s39.4-12.8 49.6-27.6c21.8-31.9 16.5-78.2 10.9-127.1-0.7-6.5-1.5-13.3-2.2-19.9-3-28.7-4.2-57.5-3.8-86.3 0.5-28.5 3.4-58.4 21.7-84.3 21.3-30.1 60.5-47.6 105-46.7 44.8 0.9 82.5 20.3 100.8 52 9.9 17.1 12.8 34.7 15.3 50.2 1.8 11.1 3.5 21.5 7.3 26.5 3.2 4.3 10.9 7.5 19.6 8.1s18.4-1.9 27.1-6.9v-31.7c-1.3 1.8-2.8 3.5-4.4 5.1-6.4 6.3-14.5 9.9-21 9.4-0.7-0.1-1.5-0.1-2.2-0.3-1-3.9-1.9-9.8-2.6-14.1-2.6-15.8-6.1-37.4-18.2-58.3-22.6-39.1-67.9-63-121.2-64-22-0.5-44 3.2-64.6 10.9-25.1 9.7-46.1 25.6-60.5 46-22.1 31.3-25.6 67-26.1 97.8-0.5 29.8 0.8 59.5 3.9 89.2 0.7 6.8 1.5 13.5 2.2 20.1 5.1 44.4 9.9 86.3-6.9 110.8-6.3 9.2-18.4 15.6-32.5 17.3s-27.4-1.8-35.7-9.3c-21.3-19.3-27-60.4-30-102-7.4-105.3-7.9-210.9-1.2-316.2h-24.1c-6.6 105.9-6.2 212.1 1.4 317.9z" fill="#F47421"/></g>
<g id="change2_1"><path d="m470.9 196.1c-8.7-0.6-16.4-3.8-19.6-8.1-3.7-5-5.5-15.4-7.3-26.5-2.5-15.5-5.4-33.1-15.3-50.2-18.3-31.7-56-51.1-100.8-52-44.5-0.9-83.8 16.6-105 46.7-18.3 25.9-21.2 55.8-21.7 84.3-0.5 28.8 0.8 57.6 3.8 86.3 0.7 6.6 1.5 13.4 2.2 19.9 5.6 49 10.9 95.2-10.9 127.1-10.1 14.8-28.7 25.2-49.6 27.6s-41.4-3.2-54.7-15.2c-26-23.6-34-64.3-37.8-118.1-7.6-105.8-8-212-1.4-317.9h-24.1c-6.6 106.4-6.1 213.2 1.5 319.6 3.4 48 10.1 102 45.7 134.2 18.7 16.9 45.5 24.7 73.6 21.4s52.4-17.2 66.6-38c26.9-39.3 20.8-92.2 15-143.4-0.7-6.5-1.5-13.1-2.2-19.6-2.9-27.7-4.1-55.5-3.6-83.4 0.4-24.6 2.8-50.2 17.3-70.8 16.7-23.6 48.4-37.3 84.9-36.6 36.3 0.7 66.4 15.7 80.4 40 7.7 13.3 10.1 27.9 12.4 42.1s4.5 27.3 11.7 37c7.5 10 21.4 16.6 37.3 17.6 9.8 0.6 19.6-0.8 28.7-4.3v-26.6c-8.7 5-18.2 7.5-27.1 6.9z" fill="#FCC70E"/></g>
<g id="change3_1"><path d="m469.3 220.1c-15.9-1.1-29.8-7.7-37.3-17.7-7.3-9.7-9.4-23-11.7-37s-4.7-28.7-12.4-42c-14.1-24.3-44.1-39.3-80.4-40-36.5-0.7-68.2 12.9-84.9 36.6-14.5 20.6-16.9 46.2-17.3 70.8-0.4 27.8 0.8 55.7 3.6 83.4 0.7 6.5 1.4 13.2 2.2 19.6 5.8 51.2 11.9 104.1-15 143.4-14.2 20.8-38.5 34.6-66.6 38s-54.9-4.5-73.6-21.4c-35.6-32.3-42.2-86.2-45.6-134.3-7.7-106.3-8.2-213.1-1.6-319.5h-24.1c-6.6 107-6 214.4 1.6 321.3 4.1 56.6 13.3 113.9 53.5 150.3 20.2 18.4 47.7 28.4 77.1 28.4 5.2 0 10.3-0.3 15.5-0.9 35-4.1 65.5-21.7 83.6-48.3 31.9-46.7 25.1-106.8 19-159.7-0.7-6.4-1.5-13-2.1-19.4-2.8-26.7-4-53.6-3.5-80.5 0.4-24 2.7-42.9 12.9-57.3 12-17.1 36.2-26.9 64.8-26.4 27.8 0.5 50.2 11 60 28 5.5 9.5 7.5 21.4 9.5 33.9 2.7 16.3 5.4 33.1 16.2 47.5 11.8 15.7 31.8 25.7 54.9 27.2 10.2 0.7 20.5-0.4 30.4-3.1v-25.2c-9.2 3.4-19 4.9-28.7 4.3z" fill="#52C3BE"/></g>
</svg>