<svg id="Capa_1" enable-background="new 0 0 497 497" height="512" viewBox="0 0 497 497" width="512" xmlns="http://www.w3.org/2000/svg"><path d="m489.906 99.669-92.574-92.575c-9.458-9.458-24.793-9.458-34.252 0l-355.986 355.986c-9.458 9.458-9.458 24.793 0 34.252l92.575 92.575c9.458 9.458 24.793 9.458 34.252 0l355.985-355.987c9.459-9.458 9.459-24.793 0-34.251z" fill="#f8e86a"/><path d="m489.906 99.668-20-20c9.458 9.458 9.458 24.793 0 34.251l-355.986 355.987c-9.458 9.458-24.793 9.458-34.252 0l20 20c9.458 9.458 24.793 9.458 34.252 0l355.986-355.986c9.459-9.459 9.459-24.793 0-34.252z" fill="#fab659"/><circle cx="398.522" cy="98.478" fill="#fab659" r="19.596"/><circle cx="98.478" cy="398.522" fill="#fab659" r="19.596"/><path d="m219.548 300.695c-2.929 2.929-7.678 2.929-10.607 0-3.524-3.524-9.258-3.524-12.782 0s-3.524 9.258 0 12.782c2.929 2.929 2.929 7.677 0 10.607-2.929 2.929-7.678 2.929-10.607 0-9.373-9.373-9.373-24.622 0-33.995s24.623-9.372 33.995 0c2.93 2.928 2.931 7.676.001 10.606z" fill="#423e4f"/><path d="m324.083 196.16c-2.929 2.929-7.678 2.929-10.607 0-3.524-3.524-9.258-3.524-12.782 0s-3.525 9.259-.001 12.783c2.929 2.929 2.929 7.677 0 10.607-2.929 2.929-7.678 2.929-10.607 0-9.373-9.373-9.372-24.623.001-33.996s24.623-9.372 33.995 0c2.93 2.928 2.931 7.676.001 10.606z" fill="#423e4f"/><path d="m279.441 279.441c-6.287 6.287-14.988 9.542-23.873 8.933-4.133-.284-7.252-3.864-6.969-7.996.284-4.132 3.864-7.253 7.996-6.969 4.558.313 9.019-1.354 12.239-4.574s4.887-7.681 4.574-12.239c-.284-4.133 2.835-7.712 6.969-7.996 4.132-.283 7.713 2.836 7.996 6.969.61 8.884-2.645 17.586-8.932 23.872z" fill="#423e4f"/><g fill="#fab659"><path d="m40.368 329.805 30.608 30.608c2.929 2.929 2.929 7.678 0 10.607s-7.678 2.929-10.607 0l-30.608-30.608z"/><path d="m340.412 29.762 30.608 30.608c2.929 2.929 2.929 7.677 0 10.607-2.929 2.929-7.678 2.929-10.607 0l-30.608-30.608z"/><path d="m70.373 299.801 23.828 23.828c2.929 2.929 2.929 7.678 0 10.607s-7.678 2.929-10.607 0l-23.828-23.828z"/><path d="m100.377 269.797 23.828 23.828c2.929 2.929 2.929 7.677 0 10.607-2.929 2.929-7.678 2.929-10.607 0l-23.828-23.828z"/><path d="m130.381 239.793 23.828 23.828c2.929 2.929 2.929 7.677 0 10.607-2.929 2.929-7.678 2.929-10.607 0l-23.828-23.828z"/><path d="m160.386 209.788 23.828 23.828c2.929 2.929 2.929 7.677 0 10.607s-7.678 2.929-10.607 0l-23.828-23.828z"/><path d="m190.39 179.784 30.608 30.608c2.929 2.929 2.929 7.677 0 10.607s-7.678 2.929-10.607 0l-30.608-30.608z"/><path d="m220.394 149.779 23.828 23.828c2.929 2.929 2.929 7.677 0 10.607s-7.678 2.929-10.607 0l-23.828-23.828z"/><path d="m250.399 119.775 23.828 23.828c2.929 2.929 2.929 7.677 0 10.607-2.929 2.929-7.678 2.929-10.607 0l-23.828-23.828z"/><path d="m280.403 89.771 23.828 23.828c2.929 2.929 2.929 7.677 0 10.607-2.929 2.929-7.678 2.929-10.607 0l-23.828-23.828z"/><path d="m310.408 59.766 23.828 23.828c2.929 2.929 2.929 7.677 0 10.607-2.929 2.929-7.678 2.929-10.607 0l-23.828-23.828z"/></g></svg>