<svg width="334" height="397" viewBox="0 0 334 397" fill="none" xmlns="http://www.w3.org/2000/svg">
<path d="M333.684 248.396C322.779 248.857 315.193 244.681 309.254 234.485C299.173 217.167 305.087 200.515 316.516 188.756C325.674 179.329 338.6 182.736 345.587 194.469C348.182 198.799 350.328 202.718 355.543 204.563C359.411 205.921 361.981 209.558 362.306 214.298C362.605 218.653 365.151 222.624 363.504 227.338C360.06 237.201 346.959 247.73 336.728 248.396C335.755 248.447 334.707 248.396 333.684 248.396Z" fill="white"/>
<path d="M186.707 376.539C186.433 387.402 184.661 389.63 176.651 393.089C167.642 396.983 158.385 397.803 148.902 396.112C139.145 394.37 134.229 386.838 131.01 378.384C127.417 368.982 129.738 360.118 136.575 353.047C142.739 346.668 149.601 343.85 159.358 345.977C166.22 347.462 170.337 350.152 173.556 355.712C174.38 357.095 175.253 358.35 176.726 358.991C185.235 362.705 186.532 370.263 186.707 376.539Z" fill="white"/>
<path d="M357.116 344.977C350.129 346.258 345.138 343.517 341.095 338.65C329.841 325.097 332.187 303.501 346.011 292.613C350.728 288.899 359.886 288.694 364.677 292.665C367.621 295.098 370.865 297.404 372.637 301.042C373.835 303.527 375.831 304.961 378.027 306.396C382.494 309.317 383.666 312.365 382.294 317.694C381.845 319.436 380.946 320.947 381.52 322.92C382.194 325.226 385.538 326.711 383.591 329.837C380.996 334.013 378.701 338.368 374.334 341.109C368.819 344.542 362.68 344.516 357.116 344.977Z" fill="white"/>
<path d="M207.043 126.581C197.012 126.632 189.426 122.712 184.76 113.028C179.944 103.063 180.368 93.6866 186.631 84.7714C192.321 76.6759 204.847 74.524 213.681 78.8791C221.566 82.7731 226.507 89.9206 232.746 95.5567C236.963 99.3738 236.763 105.471 232.621 109.263C230.175 111.491 231.323 114.386 229.427 116.82C223.513 124.429 215.977 126.837 207.043 126.581ZM219.62 99.9887C219.495 96.6839 215.203 92.7643 212.284 93.1486C210.063 93.4304 209.339 94.9419 209.514 97.0426C209.813 100.732 213.531 104.907 216.201 104.421C218.547 103.985 219.395 102.089 219.62 99.9887Z" fill="white"/>
<path d="M251.985 50.8782C235.615 50.5451 225.384 37.0442 229.077 20.4179C229.876 16.8569 230.974 13.296 232.346 9.93994C234.966 3.56096 239.807 0 246.57 0C253.532 0.0256184 259.296 3.30477 262.066 9.78623C264.611 15.7297 267.955 19.7006 273.969 22.0831C279.459 24.2606 280.008 27.9497 279.758 34.3287C279.434 42.2704 275.641 45.8569 268.504 47.7783C263.039 49.2386 257.649 50.7501 251.985 50.8782Z" fill="white"/>
<path d="M108.402 258.054C98.0214 257.824 89.0381 250.343 85.3699 238.712C80.6537 223.802 84.2221 213.248 96.5741 205.741C99.2192 204.127 102.039 203.487 104.534 205.05C109.226 207.97 114.666 209.943 117.385 215.553C118.384 217.628 120.006 219.293 122.152 220.498C129.238 224.443 133.431 230.284 132.333 238.943C131.11 248.755 124.847 254.058 116.163 256.773C113.518 257.593 110.648 257.695 108.402 258.054Z" fill="white"/>
<path d="M68.0028 329.632C67.6285 313.057 84.1478 300.478 97.3982 307.882C104.959 312.109 109.326 320.512 116.238 326.071C120.031 329.12 119.133 335.883 116.388 340.802C112.994 346.873 108.378 351.331 101.665 353.764C96.2753 355.711 90.6607 355.43 85.1959 356.429C81.5028 357.095 77.3854 354.866 74.7902 351.023C71.3217 345.848 68.1526 336.395 68.0028 329.632ZM89.8123 339.469C94.6284 338.189 96.8992 335.371 98.7208 331.938C99.3446 330.759 99.669 329.427 98.3465 328.556C97.1986 327.813 95.901 327.992 94.853 328.889C92.0831 331.323 90.4112 334.371 89.8123 339.469Z" fill="white"/>
<path d="M271.349 383.379C257.924 383.507 245.921 374.08 242.578 360.886C241.23 355.583 242.128 351.049 246.595 347.59C248.217 346.335 250.164 345.182 251.187 343.517C254.006 338.906 258.174 338.342 262.94 337.676C271.224 336.549 277.488 338.368 280.981 346.796C282.279 349.896 285.149 351.254 287.968 352.586C292.26 354.61 293.758 358.017 293.159 362.782C291.836 373.362 285.498 383.302 271.349 383.379Z" fill="white"/>
<path d="M255.978 203.846C248.068 204.717 242.877 200.643 238.785 193.752C231.024 180.661 235.566 160.474 248.167 153.454C254.655 149.842 259.496 150.38 263.664 156.4C267.382 161.78 272.123 166.007 276.739 170.388C281.705 175.102 282.628 180.635 280.432 186.912C276.415 198.235 269.253 203.205 255.978 203.846ZM261.817 178.022C258.373 181.43 256.552 184.401 256.427 188.782C262.965 186.118 263.214 185.657 261.817 178.022Z" fill="white"/>
<path d="M254.356 296.61C250.763 296.405 247.07 296.456 244.225 293.689C233.37 283.135 228.28 270.915 235.342 256.363C242.029 242.555 256.278 243.733 263.215 253.571C264.562 255.467 266.085 257.26 267.607 259.002C268.505 260.001 269.578 261.026 268.605 262.358C265.76 266.226 268.48 267.097 271.3 268.378C282.18 273.297 283.153 282.904 273.82 290.718C268.031 295.585 261.169 295.867 254.356 296.61Z" fill="white"/>
<path d="M99.6929 143.95C99.7927 132.575 107.329 123.942 117.135 123.301C121.128 123.045 124.647 124.71 127.242 127.964C131.409 133.164 135.751 137.955 141.116 142.131C149.475 148.663 148.003 160.064 139.02 165.853C135.526 168.108 131.858 169.85 127.616 170.106C125.67 170.234 123.848 170.49 122.051 172.079C117.21 176.383 112.918 175.973 109.25 170.593C103.636 162.369 100.017 153.172 99.6929 143.95Z" fill="white"/>
<path d="M323.178 96.6069C320.582 100.245 316.54 98.1441 313.645 100.014C313.471 103.319 316.29 103.37 318.162 104.395C325.623 108.52 327.37 114.309 323.502 122.072C317.813 133.523 303.04 137.186 292.684 129.732C280.657 121.098 277.537 107.777 284.475 94.7624C289.989 84.387 300.071 81.1334 310.526 86.1546C315.492 88.5115 319.634 91.7394 323.178 96.6069Z" fill="white"/>
<path d="M192.246 225.698C179.345 224.904 165.72 215.246 170.387 198.696C172.458 191.318 174.729 184.145 180.692 178.97C186.781 173.693 196.014 174.051 201.429 179.944C202.751 181.404 204.523 183.095 203.375 185.452C201.678 188.91 203.475 190.012 206.295 191.088C212.259 193.368 215.353 197.62 214.305 203.461C213.357 208.713 211.785 213.811 208.166 218.294C203.75 223.751 198.01 224.827 192.246 225.698Z" fill="white"/>
<path d="M105.956 75.318C93.1798 75.6767 85.3693 68.7085 83.3231 55.5918C82.0255 47.189 85.1946 34.8665 96.7232 31.0238C102.987 28.9487 107.628 30.1015 110.597 35.4558C113.941 41.4761 118.308 45.8568 124.422 49.3922C133.18 54.4902 132.407 64.5839 123.898 70.3224C118.084 74.242 111.496 74.7544 105.956 75.318Z" fill="white"/>
<path d="M152.046 277.601C152.246 267.687 155.265 263.665 164.748 260.898C167.493 260.104 169.913 258.746 172.359 257.311C178.023 254.032 181.666 254.673 184.361 260.386C187.156 266.303 190.6 270.735 196.938 273.067C201.604 274.783 202.004 277.857 199.458 282.546C192.846 294.791 182.465 300.094 169.115 299.505C160.655 299.146 151.847 287.669 152.046 277.601Z" fill="white"/>
<path d="M25.4312 277.601C11.1328 277.499 3.32226 271.273 0.377732 257.952C-1.41893 249.831 3.37217 241.71 10.9581 242.504C14.1022 242.837 16.8721 241.838 19.7418 240.48C24.0837 238.431 28.3258 239.532 31.2704 243.349C34.8637 248.012 38.0078 252.572 43.8969 255.159C49.5364 257.644 47.9893 268.097 41.8257 272.452C36.6354 276.115 30.8461 277.96 25.4312 277.601Z" fill="white"/>
<path d="M38.4324 184.478C30.3724 186.63 26.0804 181.122 22.7865 174.487C19.5425 167.954 22.3872 162.267 26.1802 157.092C29.1497 153.019 33.0923 150.226 38.0581 149.074C44.0719 147.665 48.2142 149.509 50.0109 155.453C50.7595 157.912 51.4832 159.551 53.6791 160.858C61.8888 165.674 62.1384 174.82 54.2281 180.635C49.6865 183.966 44.5211 185.119 38.4324 184.478Z" fill="white"/>
</svg>
