<svg height="512" viewBox="0 0 128 128" width="512" xmlns="http://www.w3.org/2000/svg"><g><g><circle cx="64" cy="64" fill="#dfdfe5" r="57.5"/><circle cx="64" cy="64" fill="#efeffb" r="48.5"/><path d="m84.92 50.6a21.223 21.223 0 0 0 -41.68-5.53 4.338 4.338 0 0 0 -.16 1.17 4.526 4.526 0 0 0 4.52 4.48 4.579 4.579 0 0 0 4.36-3.38 12.218 12.218 0 1 1 16.24 14.741 12.015 12.015 0 0 1 -4.5.86h-.048a4.454 4.454 0 0 0 -4.452 4.444v11.743h-3.5a4.5 4.5 0 0 0 -4.5 4.5 4.5 4.5 0 0 0 4.5 4.5h3.5v5.872a4.5 4.5 0 0 0 4.5 4.5 4.5 4.5 0 0 0 4.5-4.5v-5.872h3.5a4.5 4.5 0 0 0 4.5-4.5 4.5 4.5 0 0 0 -4.5-4.5h-3.5v-7.667a21.215 21.215 0 0 0 16.72-20.861z" fill="#b560e8"/></g><g fill="#230602"><path d="m119.105 42.188a1.75 1.75 0 1 0 -3.253 1.289 55.8 55.8 0 1 1 -3.738-7.659 1.75 1.75 0 0 0 3.018-1.771 58.978 58.978 0 1 0 3.973 8.141z"/><path d="m27.857 93.62a1.75 1.75 0 0 0 -2.7 2.221 50.02 50.02 0 1 0 -9.2-17.116 1.75 1.75 0 1 0 3.343-1.025 46.87 46.87 0 1 1 8.557 15.92z"/><path d="m19.535 83.444a1.751 1.751 0 0 0 -.815 2.337c.68 1.409 1.437 2.8 2.248 4.146a1.75 1.75 0 1 0 3-1.811c-.755-1.249-1.459-2.546-2.091-3.856a1.751 1.751 0 0 0 -2.342-.816z"/><path d="m97.259 93.159a44.791 44.791 0 0 0 4.291-5.768 1.751 1.751 0 0 0 -2.969-1.856 41.246 41.246 0 0 1 -3.953 5.316 1.75 1.75 0 1 0 2.631 2.308z"/><path d="m83.644 58.2a1.753 1.753 0 0 0 2.156-1.2 22.977 22.977 0 1 0 -44.245-12.4 6.089 6.089 0 0 0 -.225 1.644 6.262 6.262 0 0 0 12.312 1.583 10.414 10.414 0 0 1 10.47-7.564 10.469 10.469 0 0 1 3.434 20.2 10.308 10.308 0 0 1 -3.89.733h-.013a6.205 6.205 0 0 0 -6.193 6.194v9.993h-1.75a6.25 6.25 0 0 0 0 12.5h1.75v4.117a6.25 6.25 0 0 0 12.5 0v-4.122h1.75a6.25 6.25 0 0 0 0-12.5h-1.75v-4.55a23.091 23.091 0 0 0 11.337-7.328 1.75 1.75 0 1 0 -2.678-2.254 19.535 19.535 0 0 1 -10.778 6.5 1.751 1.751 0 0 0 -1.381 1.711v7.667a1.749 1.749 0 0 0 1.75 1.75h3.5a2.75 2.75 0 0 1 0 5.5h-3.5a1.749 1.749 0 0 0 -1.75 1.75v5.876a2.75 2.75 0 0 1 -5.5 0v-5.872a1.75 1.75 0 0 0 -1.75-1.75h-3.5a2.75 2.75 0 0 1 0-5.5h3.5a1.75 1.75 0 0 0 1.75-1.75v-11.743a2.677 2.677 0 0 1 .794-1.9 2.707 2.707 0 0 1 1.95-.79h.006a13.714 13.714 0 0 0 5.145-.983 13.969 13.969 0 1 0 -18.566-16.858 2.822 2.822 0 0 1 -2.679 2.117 2.787 2.787 0 0 1 -2.77-2.73 2.619 2.619 0 0 1 .1-.706 19.477 19.477 0 1 1 37.51 10.508 1.749 1.749 0 0 0 1.204 2.157z"/></g></g></svg>